M48
; DRILL file {KiCad (5.1.4-0-10_14)} date 2020 November 17, Tuesday 22:31:20
; FORMAT={-:-/ absolute / inch / decimal}
; #@! TF.CreationDate,2020-11-17T22:31:20+01:00
; #@! TF.GenerationSoftware,Kicad,Pcbnew,(5.1.4-0-10_14)
; #@! TF.FileFunction,Plated,1,4,PTH
FMAT,2
INCH
T1C0.0157
T2C0.0236
T3C0.0358
T4C0.0394
T5C0.0472
T6C0.0550
T7C0.1059
T8C0.1693
%
G90
G05
T1
X0.6299Y-3.8189
X0.8071Y-1.2402
X0.8071Y-1.624
X0.8071Y-2.0177
X0.8071Y-2.3622
X0.8071Y-2.6181
X0.8465Y-3.9469
X0.9252Y-3.3563
X0.9449Y-0.6594
X1.0039Y-4.124
X1.0236Y-3.75
X1.0335Y-0.7972
X1.0827Y-3.3465
X1.1122Y-3.6811
X1.1614Y-3.6516
X1.1713Y-3.4547
X1.2008Y-3.2087
X1.4075Y-2.3425
X1.4173Y-3.2382
X1.4567Y-0.7677
X1.4862Y-2.5295
X1.565Y-2.0866
X1.5846Y-1.2894
X1.5945Y-1.2106
X1.6831Y-1.2992
X1.6831Y-1.3878
X1.6831Y-2.0177
X1.7224Y-3.0118
X1.7224Y-3.435
X1.7323Y-2.2047
X1.7323Y-2.2047
X1.7717Y-1.3976
X1.7717Y-1.6929
X1.7815Y-0.8071
X1.7815Y-1.4764
X1.7874Y-2.4173
X1.7913Y-2.2146
X1.811Y-1.3287
X1.8307Y-1.7224
X1.8425Y-2.4173
X1.8504Y-1.3681
X1.8602Y-2.0571
X1.8745Y-1.9729
X1.8898Y-1.0433
X1.8898Y-2.4173
X1.9094Y-1.811
X1.9094Y-1.8701
X1.9094Y-2.6772
X1.9094Y-2.7953
X1.9225Y-2.3555
X1.9291Y-2.1339
X1.937Y-2.4961
X1.9783Y-0.9252
X1.9783Y-1.8996
X1.9848Y-2.5034
X2.0079Y-1.5748
X2.0079Y-1.6929
X2.0157Y-2.3858
X2.0551Y-2.4724
X2.0709Y-2.5197
X2.0965Y-1.0335
X2.126Y-2.5197
X2.1555Y-0.9449
X2.1555Y-1.8996
X2.1555Y-1.9882
X2.1555Y-2.0768
X2.1555Y-2.1654
X2.1555Y-2.2441
X2.2343Y-3.002
X2.2343Y-3.435
X2.2972Y-2.8406
X2.3228Y-1.0039
X2.3327Y-1.8996
X2.3327Y-1.9882
X2.3327Y-2.0768
X2.3327Y-2.1654
X2.3327Y-2.2441
X2.5Y-1.9882
X2.5Y-2.0768
X2.5Y-2.1654
X2.5Y-2.2441
X2.5098Y-1.8898
X2.5748Y-1.3071
X2.5787Y-3.878
X2.6693Y-2.3858
X2.6929Y-2.4173
X2.7165Y-2.4488
X2.7402Y-2.4803
X2.7717Y-2.5039
X2.7854Y-2.7657
X2.8031Y-2.5354
X2.8051Y-3.2283
X2.815Y-2.9724
X2.815Y-3.878
X2.8346Y-2.5591
X2.874Y-2.5827
X2.874Y-2.8642
X3.2185Y-1.3091
X3.2185Y-1.4567
X3.2185Y-1.6437
X3.2185Y-1.8504
X3.2185Y-2.4213
X3.2185Y-3.002
X3.2992Y-3.9213
X3.4646Y-1.1713
X3.4646Y-1.3091
X3.4646Y-2.9232
X3.4744Y-3.189
X3.563Y-0.9547
X3.7598Y-2.8839
X3.7894Y-3.9961
X3.8681Y-4.0354
X3.9469Y-2.5197
X3.9469Y-2.7461
X3.9469Y-3.0118
X3.9469Y-3.3169
X3.9469Y-3.8583
X3.9665Y-0.8268
X3.9764Y-0.9547
X3.9764Y-1.1122
X4.0453Y-1.998
X4.0453Y-2.1063
X4.0453Y-2.2244
X4.1437Y-1.998
X4.1437Y-2.1063
X4.1437Y-2.2244
X4.2028Y-2.5295
X4.2028Y-2.7264
X4.2028Y-3.0217
X4.2028Y-3.3268
X4.2028Y-3.8287
X4.2323Y-1.998
X4.2323Y-2.1063
X4.2323Y-2.2244
T2
X0.5423Y-4.1732
X0.5795Y-4.0834
X0.5795Y-4.263
X0.6693Y-4.0463
X0.6693Y-4.3002
X0.7591Y-4.0834
X0.7591Y-4.263
X0.7963Y-4.1732
X4.0463Y-0.6693
X4.0834Y-0.5795
X4.0834Y-0.7591
X4.1732Y-0.5423
X4.1732Y-0.7963
X4.263Y-0.5795
X4.263Y-0.7591
X4.3002Y-0.6693
X0.5423Y-0.6693
X0.5795Y-0.5795
X0.5795Y-0.7591
X0.6693Y-0.5423
X0.6693Y-0.7963
X0.7591Y-0.5795
X0.7591Y-0.7591
X0.7963Y-0.6693
X4.0463Y-4.1732
X4.0834Y-4.0834
X4.0834Y-4.263
X4.1732Y-4.0463
X4.1732Y-4.3002
X4.263Y-4.0834
X4.263Y-4.263
X4.3002Y-4.1732
T3
X1.8898Y-4.0732
X1.8898Y-4.1732
X2.0898Y-4.1732
X2.5039Y-0.6874
X1.9898Y-4.0732
X1.9898Y-4.1732
X2.0898Y-4.0732
X2.1898Y-4.0732
X2.1898Y-4.1732
X2.2898Y-4.0732
X2.2898Y-4.1732
X2.3898Y-4.0732
X2.3898Y-4.1732
X2.4898Y-4.0732
X2.4898Y-4.1732
X2.5898Y-4.0732
X2.5898Y-4.1732
X2.6898Y-4.0732
X2.7898Y-4.0732
X2.7898Y-4.1732
X2.5039Y-0.7874
X2.6039Y-0.6874
X2.6039Y-0.7874
X2.7039Y-0.6874
X2.7039Y-0.7874
X2.8039Y-0.6874
X2.8039Y-0.7874
X2.9039Y-0.6874
X2.9039Y-0.7874
X3.0039Y-0.6874
X3.0039Y-0.7874
X3.1039Y-0.6874
X3.1039Y-0.7874
X3.2039Y-0.6874
X3.2039Y-0.7874
X3.3039Y-0.6874
X3.3039Y-0.7874
X3.4039Y-0.6874
X2.6898Y-4.1732
X3.4039Y-0.7874
T4
X0.5843Y-3.4827
X0.5843Y-3.5827
X0.6843Y-3.4827
X0.6843Y-3.5827
X2.0472Y-1.1598
X2.0472Y-1.2598
X2.1472Y-1.1598
X2.1472Y-1.2598
X2.2472Y-1.1598
X2.2472Y-1.2598
X2.3472Y-1.1598
X2.3472Y-1.2598
X3.563Y-1.6339
X0.7843Y-3.4827
X0.7843Y-3.5827
X0.8843Y-3.4827
X0.8843Y-3.5827
X0.9843Y-3.4827
X0.9843Y-3.5827
X3.3661Y-1.6339
X3.4646Y-4.1126
X3.4646Y-4.2126
X3.5646Y-4.1126
X3.5646Y-4.2126
X3.6646Y-4.1126
X1.5748Y-0.6693
X1.6748Y-0.6693
X1.7748Y-0.6693
X3.6646Y-4.2126
X3.7646Y-4.1126
X3.7646Y-4.2126
X1.152Y-4.1378
X1.252Y-4.1378
X1.565Y-2.3327
X0.5807Y-2.9528
X0.6807Y-2.9528
X0.7807Y-2.9528
X0.8807Y-2.9528
X1.2992Y-0.9449
X1.0992Y-0.9449
X1.1992Y-0.9449
X3.6122Y-3.189
X3.8091Y-3.189
X0.5709Y-3.2087
X0.6709Y-3.2087
X0.7709Y-3.2087
X0.8709Y-3.2087
X1.6748Y-0.9449
X1.7748Y-0.9449
X1.2992Y-0.6693
X2.6614Y-3.7087
X2.7614Y-3.7087
X0.9709Y-3.2087
X1.0709Y-3.2087
X3.4567Y-3.6402
X3.4567Y-3.7402
X3.5567Y-3.6402
X3.5567Y-3.7402
X3.6567Y-3.6402
X3.6567Y-3.7402
X3.7567Y-3.6402
X3.7567Y-3.7402
X1.0992Y-0.6693
X1.1992Y-0.6693
X1.5748Y-0.9449
X1.0236Y-2.9528
T5
X4.1732Y-1.0748
X4.1732Y-1.2126
T6
X0.9881Y-2.1182
X0.9881Y-2.7086
X0.9882Y-2.4134
X1.0866Y-2.2167
X1.0866Y-2.6101
X0.9802Y-1.2422
X0.9802Y-1.8326
X0.9803Y-1.5374
X1.0787Y-1.3407
X1.0787Y-1.7341
T7
X2.1539Y-0.7472
X3.7539Y-0.7472
X1.5398Y-4.1331
X3.1398Y-4.1331
T8
X0.6693Y-4.1732
X4.1732Y-0.6693
X0.6693Y-0.6693
X4.1732Y-4.1732
T0
M30
