G04 #@! TF.GenerationSoftware,KiCad,Pcbnew,(5.1.4-0-10_14)*
G04 #@! TF.CreationDate,2020-11-17T22:31:18+01:00*
G04 #@! TF.ProjectId,matrix_scanner,6d617472-6978-45f7-9363-616e6e65722e,rev?*
G04 #@! TF.SameCoordinates,Original*
G04 #@! TF.FileFunction,Legend,Top*
G04 #@! TF.FilePolarity,Positive*
%FSLAX46Y46*%
G04 Gerber Fmt 4.6, Leading zero omitted, Abs format (unit mm)*
G04 Created by KiCad (PCBNEW (5.1.4-0-10_14)) date 2020-11-17 22:31:18*
%MOMM*%
%LPD*%
G04 APERTURE LIST*
%ADD10C,0.150000*%
%ADD11C,0.120000*%
%ADD12C,0.304800*%
G04 APERTURE END LIST*
D10*
X56452380Y-57419047D02*
X57166666Y-57419047D01*
X57309523Y-57466666D01*
X57404761Y-57561904D01*
X57452380Y-57704761D01*
X57452380Y-57800000D01*
X57452380Y-56466666D02*
X57452380Y-56942857D01*
X56452380Y-56942857D01*
X57357142Y-55561904D02*
X57404761Y-55609523D01*
X57452380Y-55752380D01*
X57452380Y-55847619D01*
X57404761Y-55990476D01*
X57309523Y-56085714D01*
X57214285Y-56133333D01*
X57023809Y-56180952D01*
X56880952Y-56180952D01*
X56690476Y-56133333D01*
X56595238Y-56085714D01*
X56500000Y-55990476D01*
X56452380Y-55847619D01*
X56452380Y-55752380D01*
X56500000Y-55609523D01*
X56547619Y-55561904D01*
X56452380Y-54847619D02*
X57166666Y-54847619D01*
X57309523Y-54895238D01*
X57404761Y-54990476D01*
X57452380Y-55133333D01*
X57452380Y-55228571D01*
X57452380Y-53895238D02*
X57452380Y-54371428D01*
X56452380Y-54371428D01*
X57357142Y-52990476D02*
X57404761Y-53038095D01*
X57452380Y-53180952D01*
X57452380Y-53276190D01*
X57404761Y-53419047D01*
X57309523Y-53514285D01*
X57214285Y-53561904D01*
X57023809Y-53609523D01*
X56880952Y-53609523D01*
X56690476Y-53561904D01*
X56595238Y-53514285D01*
X56500000Y-53419047D01*
X56452380Y-53276190D01*
X56452380Y-53180952D01*
X56500000Y-53038095D01*
X56547619Y-52990476D01*
X56452380Y-52276190D02*
X57166666Y-52276190D01*
X57309523Y-52323809D01*
X57404761Y-52419047D01*
X57452380Y-52561904D01*
X57452380Y-52657142D01*
X57452380Y-51323809D02*
X57452380Y-51800000D01*
X56452380Y-51800000D01*
X57357142Y-50419047D02*
X57404761Y-50466666D01*
X57452380Y-50609523D01*
X57452380Y-50704761D01*
X57404761Y-50847619D01*
X57309523Y-50942857D01*
X57214285Y-50990476D01*
X57023809Y-51038095D01*
X56880952Y-51038095D01*
X56690476Y-50990476D01*
X56595238Y-50942857D01*
X56500000Y-50847619D01*
X56452380Y-50704761D01*
X56452380Y-50609523D01*
X56500000Y-50466666D01*
X56547619Y-50419047D01*
X56452380Y-49704761D02*
X57166666Y-49704761D01*
X57309523Y-49752380D01*
X57404761Y-49847619D01*
X57452380Y-49990476D01*
X57452380Y-50085714D01*
X57452380Y-48752380D02*
X57452380Y-49228571D01*
X56452380Y-49228571D01*
X57357142Y-47847619D02*
X57404761Y-47895238D01*
X57452380Y-48038095D01*
X57452380Y-48133333D01*
X57404761Y-48276190D01*
X57309523Y-48371428D01*
X57214285Y-48419047D01*
X57023809Y-48466666D01*
X56880952Y-48466666D01*
X56690476Y-48419047D01*
X56595238Y-48371428D01*
X56500000Y-48276190D01*
X56452380Y-48133333D01*
X56452380Y-48038095D01*
X56500000Y-47895238D01*
X56547619Y-47847619D01*
D11*
X59800000Y-67200000D02*
G75*
G03X59800000Y-67200000I-200000J0D01*
G01*
X49800000Y-33200000D02*
G75*
G03X49800000Y-33200000I-200000J0D01*
G01*
D10*
X81209523Y-24452380D02*
X80638095Y-24452380D01*
X80923809Y-24452380D02*
X80923809Y-23452380D01*
X80828571Y-23595238D01*
X80733333Y-23690476D01*
X80638095Y-23738095D01*
X82066666Y-23452380D02*
X81876190Y-23452380D01*
X81780952Y-23500000D01*
X81733333Y-23547619D01*
X81638095Y-23690476D01*
X81590476Y-23880952D01*
X81590476Y-24261904D01*
X81638095Y-24357142D01*
X81685714Y-24404761D01*
X81780952Y-24452380D01*
X81971428Y-24452380D01*
X82066666Y-24404761D01*
X82114285Y-24357142D01*
X82161904Y-24261904D01*
X82161904Y-24023809D01*
X82114285Y-23928571D01*
X82066666Y-23880952D01*
X81971428Y-23833333D01*
X81780952Y-23833333D01*
X81685714Y-23880952D01*
X81638095Y-23928571D01*
X81590476Y-24023809D01*
X86238095Y-25300000D02*
X86142857Y-25252380D01*
X86000000Y-25252380D01*
X85857142Y-25300000D01*
X85761904Y-25395238D01*
X85714285Y-25490476D01*
X85666666Y-25680952D01*
X85666666Y-25823809D01*
X85714285Y-26014285D01*
X85761904Y-26109523D01*
X85857142Y-26204761D01*
X86000000Y-26252380D01*
X86095238Y-26252380D01*
X86238095Y-26204761D01*
X86285714Y-26157142D01*
X86285714Y-25823809D01*
X86095238Y-25823809D01*
X86714285Y-26252380D02*
X86714285Y-25252380D01*
X87285714Y-26252380D01*
X87285714Y-25252380D01*
X87761904Y-26252380D02*
X87761904Y-25252380D01*
X88000000Y-25252380D01*
X88142857Y-25300000D01*
X88238095Y-25395238D01*
X88285714Y-25490476D01*
X88333333Y-25680952D01*
X88333333Y-25823809D01*
X88285714Y-26014285D01*
X88238095Y-26109523D01*
X88142857Y-26204761D01*
X88000000Y-26252380D01*
X87761904Y-26252380D01*
X86809523Y-23452380D02*
X86333333Y-23452380D01*
X86285714Y-23928571D01*
X86333333Y-23880952D01*
X86428571Y-23833333D01*
X86666666Y-23833333D01*
X86761904Y-23880952D01*
X86809523Y-23928571D01*
X86857142Y-24023809D01*
X86857142Y-24261904D01*
X86809523Y-24357142D01*
X86761904Y-24404761D01*
X86666666Y-24452380D01*
X86428571Y-24452380D01*
X86333333Y-24404761D01*
X86285714Y-24357142D01*
X87142857Y-23452380D02*
X87476190Y-24452380D01*
X87809523Y-23452380D01*
X83238095Y-25300000D02*
X83142857Y-25252380D01*
X83000000Y-25252380D01*
X82857142Y-25300000D01*
X82761904Y-25395238D01*
X82714285Y-25490476D01*
X82666666Y-25680952D01*
X82666666Y-25823809D01*
X82714285Y-26014285D01*
X82761904Y-26109523D01*
X82857142Y-26204761D01*
X83000000Y-26252380D01*
X83095238Y-26252380D01*
X83238095Y-26204761D01*
X83285714Y-26157142D01*
X83285714Y-25823809D01*
X83095238Y-25823809D01*
X83714285Y-26252380D02*
X83714285Y-25252380D01*
X84285714Y-26252380D01*
X84285714Y-25252380D01*
X84761904Y-26252380D02*
X84761904Y-25252380D01*
X85000000Y-25252380D01*
X85142857Y-25300000D01*
X85238095Y-25395238D01*
X85285714Y-25490476D01*
X85333333Y-25680952D01*
X85333333Y-25823809D01*
X85285714Y-26014285D01*
X85238095Y-26109523D01*
X85142857Y-26204761D01*
X85000000Y-26252380D01*
X84761904Y-26252380D01*
X83809523Y-23452380D02*
X83333333Y-23452380D01*
X83285714Y-23928571D01*
X83333333Y-23880952D01*
X83428571Y-23833333D01*
X83666666Y-23833333D01*
X83761904Y-23880952D01*
X83809523Y-23928571D01*
X83857142Y-24023809D01*
X83857142Y-24261904D01*
X83809523Y-24357142D01*
X83761904Y-24404761D01*
X83666666Y-24452380D01*
X83428571Y-24452380D01*
X83333333Y-24404761D01*
X83285714Y-24357142D01*
X84142857Y-23452380D02*
X84476190Y-24452380D01*
X84809523Y-23452380D01*
X63885714Y-26452380D02*
X63314285Y-26452380D01*
X63600000Y-26452380D02*
X63600000Y-25452380D01*
X63504761Y-25595238D01*
X63409523Y-25690476D01*
X63314285Y-25738095D01*
X45009523Y-19852380D02*
X44533333Y-19852380D01*
X44485714Y-20328571D01*
X44533333Y-20280952D01*
X44628571Y-20233333D01*
X44866666Y-20233333D01*
X44961904Y-20280952D01*
X45009523Y-20328571D01*
X45057142Y-20423809D01*
X45057142Y-20661904D01*
X45009523Y-20757142D01*
X44961904Y-20804761D01*
X44866666Y-20852380D01*
X44628571Y-20852380D01*
X44533333Y-20804761D01*
X44485714Y-20757142D01*
X45342857Y-19852380D02*
X45676190Y-20852380D01*
X46009523Y-19852380D01*
X39238095Y-19900000D02*
X39142857Y-19852380D01*
X39000000Y-19852380D01*
X38857142Y-19900000D01*
X38761904Y-19995238D01*
X38714285Y-20090476D01*
X38666666Y-20280952D01*
X38666666Y-20423809D01*
X38714285Y-20614285D01*
X38761904Y-20709523D01*
X38857142Y-20804761D01*
X39000000Y-20852380D01*
X39095238Y-20852380D01*
X39238095Y-20804761D01*
X39285714Y-20757142D01*
X39285714Y-20423809D01*
X39095238Y-20423809D01*
X39714285Y-20852380D02*
X39714285Y-19852380D01*
X40285714Y-20852380D01*
X40285714Y-19852380D01*
X40761904Y-20852380D02*
X40761904Y-19852380D01*
X41000000Y-19852380D01*
X41142857Y-19900000D01*
X41238095Y-19995238D01*
X41285714Y-20090476D01*
X41333333Y-20280952D01*
X41333333Y-20423809D01*
X41285714Y-20614285D01*
X41238095Y-20709523D01*
X41142857Y-20804761D01*
X41000000Y-20852380D01*
X40761904Y-20852380D01*
X42561904Y-20566666D02*
X43038095Y-20566666D01*
X42466666Y-20852380D02*
X42800000Y-19852380D01*
X43133333Y-20852380D01*
X30361904Y-20566666D02*
X30838095Y-20566666D01*
X30266666Y-20852380D02*
X30600000Y-19852380D01*
X30933333Y-20852380D01*
X32809523Y-19852380D02*
X32333333Y-19852380D01*
X32285714Y-20328571D01*
X32333333Y-20280952D01*
X32428571Y-20233333D01*
X32666666Y-20233333D01*
X32761904Y-20280952D01*
X32809523Y-20328571D01*
X32857142Y-20423809D01*
X32857142Y-20661904D01*
X32809523Y-20757142D01*
X32761904Y-20804761D01*
X32666666Y-20852380D01*
X32428571Y-20852380D01*
X32333333Y-20804761D01*
X32285714Y-20757142D01*
X33142857Y-19852380D02*
X33476190Y-20852380D01*
X33809523Y-19852380D01*
X27038095Y-19900000D02*
X26942857Y-19852380D01*
X26800000Y-19852380D01*
X26657142Y-19900000D01*
X26561904Y-19995238D01*
X26514285Y-20090476D01*
X26466666Y-20280952D01*
X26466666Y-20423809D01*
X26514285Y-20614285D01*
X26561904Y-20709523D01*
X26657142Y-20804761D01*
X26800000Y-20852380D01*
X26895238Y-20852380D01*
X27038095Y-20804761D01*
X27085714Y-20757142D01*
X27085714Y-20423809D01*
X26895238Y-20423809D01*
X27514285Y-20852380D02*
X27514285Y-19852380D01*
X28085714Y-20852380D01*
X28085714Y-19852380D01*
X28561904Y-20852380D02*
X28561904Y-19852380D01*
X28800000Y-19852380D01*
X28942857Y-19900000D01*
X29038095Y-19995238D01*
X29085714Y-20090476D01*
X29133333Y-20280952D01*
X29133333Y-20423809D01*
X29085714Y-20614285D01*
X29038095Y-20709523D01*
X28942857Y-20804761D01*
X28800000Y-20852380D01*
X28561904Y-20852380D01*
D11*
X34200000Y-44000000D02*
G75*
G03X34200000Y-44000000I-200000J0D01*
G01*
X95600000Y-47200000D02*
G75*
G03X95600000Y-47200000I-200000J0D01*
G01*
X98200000Y-38400000D02*
G75*
G03X98200000Y-38400000I-200000J0D01*
G01*
X51000000Y-45600000D02*
G75*
G03X51000000Y-45600000I-200000J0D01*
G01*
D10*
X83619047Y-51271428D02*
X84380952Y-51271428D01*
X84000000Y-51652380D02*
X84000000Y-50890476D01*
X29819047Y-94071428D02*
X30580952Y-94071428D01*
X30200000Y-94452380D02*
X30200000Y-93690476D01*
X93419047Y-38671428D02*
X94180952Y-38671428D01*
X93800000Y-39052380D02*
X93800000Y-38290476D01*
X35019047Y-36471428D02*
X35780952Y-36471428D01*
X35400000Y-36852380D02*
X35400000Y-36090476D01*
X97900000Y-95561904D02*
X97852380Y-95657142D01*
X97852380Y-95800000D01*
X97900000Y-95942857D01*
X97995238Y-96038095D01*
X98090476Y-96085714D01*
X98280952Y-96133333D01*
X98423809Y-96133333D01*
X98614285Y-96085714D01*
X98709523Y-96038095D01*
X98804761Y-95942857D01*
X98852380Y-95800000D01*
X98852380Y-95704761D01*
X98804761Y-95561904D01*
X98757142Y-95514285D01*
X98423809Y-95514285D01*
X98423809Y-95704761D01*
X98852380Y-95085714D02*
X97852380Y-95085714D01*
X98852380Y-94514285D01*
X97852380Y-94514285D01*
X98852380Y-94038095D02*
X97852380Y-94038095D01*
X97852380Y-93800000D01*
X97900000Y-93657142D01*
X97995238Y-93561904D01*
X98090476Y-93514285D01*
X98280952Y-93466666D01*
X98423809Y-93466666D01*
X98614285Y-93514285D01*
X98709523Y-93561904D01*
X98804761Y-93657142D01*
X98852380Y-93800000D01*
X98852380Y-94038095D01*
X97852380Y-92190476D02*
X97852380Y-92666666D01*
X98328571Y-92714285D01*
X98280952Y-92666666D01*
X98233333Y-92571428D01*
X98233333Y-92333333D01*
X98280952Y-92238095D01*
X98328571Y-92190476D01*
X98423809Y-92142857D01*
X98661904Y-92142857D01*
X98757142Y-92190476D01*
X98804761Y-92238095D01*
X98852380Y-92333333D01*
X98852380Y-92571428D01*
X98804761Y-92666666D01*
X98757142Y-92714285D01*
X97852380Y-91857142D02*
X98852380Y-91523809D01*
X97852380Y-91190476D01*
X87276190Y-97852380D02*
X87276190Y-96852380D01*
X87942857Y-96852380D02*
X88133333Y-96852380D01*
X88228571Y-96900000D01*
X88323809Y-96995238D01*
X88371428Y-97185714D01*
X88371428Y-97519047D01*
X88323809Y-97709523D01*
X88228571Y-97804761D01*
X88133333Y-97852380D01*
X87942857Y-97852380D01*
X87847619Y-97804761D01*
X87752380Y-97709523D01*
X87704761Y-97519047D01*
X87704761Y-97185714D01*
X87752380Y-96995238D01*
X87847619Y-96900000D01*
X87942857Y-96852380D01*
X93404761Y-102114285D02*
X93452380Y-101971428D01*
X93452380Y-101733333D01*
X93404761Y-101638095D01*
X93357142Y-101590476D01*
X93261904Y-101542857D01*
X93166666Y-101542857D01*
X93071428Y-101590476D01*
X93023809Y-101638095D01*
X92976190Y-101733333D01*
X92928571Y-101923809D01*
X92880952Y-102019047D01*
X92833333Y-102066666D01*
X92738095Y-102114285D01*
X92642857Y-102114285D01*
X92547619Y-102066666D01*
X92500000Y-102019047D01*
X92452380Y-101923809D01*
X92452380Y-101685714D01*
X92500000Y-101542857D01*
X93452380Y-101114285D02*
X92452380Y-101114285D01*
X92928571Y-101114285D02*
X92928571Y-100542857D01*
X93452380Y-100542857D02*
X92452380Y-100542857D01*
X93452380Y-99590476D02*
X93452380Y-100066666D01*
X92452380Y-100066666D01*
X93452380Y-99257142D02*
X92452380Y-99257142D01*
X92452380Y-99019047D01*
X92500000Y-98876190D01*
X92595238Y-98780952D01*
X92690476Y-98733333D01*
X92880952Y-98685714D01*
X93023809Y-98685714D01*
X93214285Y-98733333D01*
X93309523Y-98780952D01*
X93404761Y-98876190D01*
X93452380Y-99019047D01*
X93452380Y-99257142D01*
X91004761Y-102161904D02*
X91052380Y-102019047D01*
X91052380Y-101780952D01*
X91004761Y-101685714D01*
X90957142Y-101638095D01*
X90861904Y-101590476D01*
X90766666Y-101590476D01*
X90671428Y-101638095D01*
X90623809Y-101685714D01*
X90576190Y-101780952D01*
X90528571Y-101971428D01*
X90480952Y-102066666D01*
X90433333Y-102114285D01*
X90338095Y-102161904D01*
X90242857Y-102161904D01*
X90147619Y-102114285D01*
X90100000Y-102066666D01*
X90052380Y-101971428D01*
X90052380Y-101733333D01*
X90100000Y-101590476D01*
X91004761Y-101209523D02*
X91052380Y-101066666D01*
X91052380Y-100828571D01*
X91004761Y-100733333D01*
X90957142Y-100685714D01*
X90861904Y-100638095D01*
X90766666Y-100638095D01*
X90671428Y-100685714D01*
X90623809Y-100733333D01*
X90576190Y-100828571D01*
X90528571Y-101019047D01*
X90480952Y-101114285D01*
X90433333Y-101161904D01*
X90338095Y-101209523D01*
X90242857Y-101209523D01*
X90147619Y-101161904D01*
X90100000Y-101114285D01*
X90052380Y-101019047D01*
X90052380Y-100780952D01*
X90100000Y-100638095D01*
X87452380Y-101933333D02*
X87452380Y-101742857D01*
X87500000Y-101647619D01*
X87595238Y-101552380D01*
X87785714Y-101504761D01*
X88119047Y-101504761D01*
X88309523Y-101552380D01*
X88404761Y-101647619D01*
X88452380Y-101742857D01*
X88452380Y-101933333D01*
X88404761Y-102028571D01*
X88309523Y-102123809D01*
X88119047Y-102171428D01*
X87785714Y-102171428D01*
X87595238Y-102123809D01*
X87500000Y-102028571D01*
X87452380Y-101933333D01*
X88452380Y-101076190D02*
X87452380Y-101076190D01*
X68985714Y-97204761D02*
X69128571Y-97252380D01*
X69366666Y-97252380D01*
X69461904Y-97204761D01*
X69509523Y-97157142D01*
X69557142Y-97061904D01*
X69557142Y-96966666D01*
X69509523Y-96871428D01*
X69461904Y-96823809D01*
X69366666Y-96776190D01*
X69176190Y-96728571D01*
X69080952Y-96680952D01*
X69033333Y-96633333D01*
X68985714Y-96538095D01*
X68985714Y-96442857D01*
X69033333Y-96347619D01*
X69080952Y-96300000D01*
X69176190Y-96252380D01*
X69414285Y-96252380D01*
X69557142Y-96300000D01*
X69985714Y-97252380D02*
X69985714Y-96252380D01*
X70223809Y-96252380D01*
X70366666Y-96300000D01*
X70461904Y-96395238D01*
X70509523Y-96490476D01*
X70557142Y-96680952D01*
X70557142Y-96823809D01*
X70509523Y-97014285D01*
X70461904Y-97109523D01*
X70366666Y-97204761D01*
X70223809Y-97252380D01*
X69985714Y-97252380D01*
X70938095Y-96966666D02*
X71414285Y-96966666D01*
X70842857Y-97252380D02*
X71176190Y-96252380D01*
X71509523Y-97252380D01*
X66209523Y-97204761D02*
X66352380Y-97252380D01*
X66590476Y-97252380D01*
X66685714Y-97204761D01*
X66733333Y-97157142D01*
X66780952Y-97061904D01*
X66780952Y-96966666D01*
X66733333Y-96871428D01*
X66685714Y-96823809D01*
X66590476Y-96776190D01*
X66400000Y-96728571D01*
X66304761Y-96680952D01*
X66257142Y-96633333D01*
X66209523Y-96538095D01*
X66209523Y-96442857D01*
X66257142Y-96347619D01*
X66304761Y-96300000D01*
X66400000Y-96252380D01*
X66638095Y-96252380D01*
X66780952Y-96300000D01*
X67780952Y-97157142D02*
X67733333Y-97204761D01*
X67590476Y-97252380D01*
X67495238Y-97252380D01*
X67352380Y-97204761D01*
X67257142Y-97109523D01*
X67209523Y-97014285D01*
X67161904Y-96823809D01*
X67161904Y-96680952D01*
X67209523Y-96490476D01*
X67257142Y-96395238D01*
X67352380Y-96300000D01*
X67495238Y-96252380D01*
X67590476Y-96252380D01*
X67733333Y-96300000D01*
X67780952Y-96347619D01*
X68685714Y-97252380D02*
X68209523Y-97252380D01*
X68209523Y-96252380D01*
X21638095Y-85500000D02*
X21542857Y-85452380D01*
X21400000Y-85452380D01*
X21257142Y-85500000D01*
X21161904Y-85595238D01*
X21114285Y-85690476D01*
X21066666Y-85880952D01*
X21066666Y-86023809D01*
X21114285Y-86214285D01*
X21161904Y-86309523D01*
X21257142Y-86404761D01*
X21400000Y-86452380D01*
X21495238Y-86452380D01*
X21638095Y-86404761D01*
X21685714Y-86357142D01*
X21685714Y-86023809D01*
X21495238Y-86023809D01*
X22114285Y-86452380D02*
X22114285Y-85452380D01*
X22685714Y-86452380D01*
X22685714Y-85452380D01*
X23161904Y-86452380D02*
X23161904Y-85452380D01*
X23400000Y-85452380D01*
X23542857Y-85500000D01*
X23638095Y-85595238D01*
X23685714Y-85690476D01*
X23733333Y-85880952D01*
X23733333Y-86023809D01*
X23685714Y-86214285D01*
X23638095Y-86309523D01*
X23542857Y-86404761D01*
X23400000Y-86452380D01*
X23161904Y-86452380D01*
X25009523Y-85452380D02*
X24533333Y-85452380D01*
X24485714Y-85928571D01*
X24533333Y-85880952D01*
X24628571Y-85833333D01*
X24866666Y-85833333D01*
X24961904Y-85880952D01*
X25009523Y-85928571D01*
X25057142Y-86023809D01*
X25057142Y-86261904D01*
X25009523Y-86357142D01*
X24961904Y-86404761D01*
X24866666Y-86452380D01*
X24628571Y-86452380D01*
X24533333Y-86404761D01*
X24485714Y-86357142D01*
X25342857Y-85452380D02*
X25676190Y-86452380D01*
X26009523Y-85452380D01*
X21476190Y-78652380D02*
X21476190Y-77652380D01*
X22142857Y-77652380D02*
X22333333Y-77652380D01*
X22428571Y-77700000D01*
X22523809Y-77795238D01*
X22571428Y-77985714D01*
X22571428Y-78319047D01*
X22523809Y-78509523D01*
X22428571Y-78604761D01*
X22333333Y-78652380D01*
X22142857Y-78652380D01*
X22047619Y-78604761D01*
X21952380Y-78509523D01*
X21904761Y-78319047D01*
X21904761Y-77985714D01*
X21952380Y-77795238D01*
X22047619Y-77700000D01*
X22142857Y-77652380D01*
X19266666Y-77652380D02*
X19457142Y-77652380D01*
X19552380Y-77700000D01*
X19647619Y-77795238D01*
X19695238Y-77985714D01*
X19695238Y-78319047D01*
X19647619Y-78509523D01*
X19552380Y-78604761D01*
X19457142Y-78652380D01*
X19266666Y-78652380D01*
X19171428Y-78604761D01*
X19076190Y-78509523D01*
X19028571Y-78319047D01*
X19028571Y-77985714D01*
X19076190Y-77795238D01*
X19171428Y-77700000D01*
X19266666Y-77652380D01*
X20123809Y-78652380D02*
X20123809Y-77652380D01*
X13638095Y-78604761D02*
X13780952Y-78652380D01*
X14019047Y-78652380D01*
X14114285Y-78604761D01*
X14161904Y-78557142D01*
X14209523Y-78461904D01*
X14209523Y-78366666D01*
X14161904Y-78271428D01*
X14114285Y-78223809D01*
X14019047Y-78176190D01*
X13828571Y-78128571D01*
X13733333Y-78080952D01*
X13685714Y-78033333D01*
X13638095Y-77938095D01*
X13638095Y-77842857D01*
X13685714Y-77747619D01*
X13733333Y-77700000D01*
X13828571Y-77652380D01*
X14066666Y-77652380D01*
X14209523Y-77700000D01*
X14590476Y-78604761D02*
X14733333Y-78652380D01*
X14971428Y-78652380D01*
X15066666Y-78604761D01*
X15114285Y-78557142D01*
X15161904Y-78461904D01*
X15161904Y-78366666D01*
X15114285Y-78271428D01*
X15066666Y-78223809D01*
X14971428Y-78176190D01*
X14780952Y-78128571D01*
X14685714Y-78080952D01*
X14638095Y-78033333D01*
X14590476Y-77938095D01*
X14590476Y-77842857D01*
X14638095Y-77747619D01*
X14685714Y-77700000D01*
X14780952Y-77652380D01*
X15019047Y-77652380D01*
X15161904Y-77700000D01*
X15714285Y-78604761D02*
X15857142Y-78652380D01*
X16095238Y-78652380D01*
X16190476Y-78604761D01*
X16238095Y-78557142D01*
X16285714Y-78461904D01*
X16285714Y-78366666D01*
X16238095Y-78271428D01*
X16190476Y-78223809D01*
X16095238Y-78176190D01*
X15904761Y-78128571D01*
X15809523Y-78080952D01*
X15761904Y-78033333D01*
X15714285Y-77938095D01*
X15714285Y-77842857D01*
X15761904Y-77747619D01*
X15809523Y-77700000D01*
X15904761Y-77652380D01*
X16142857Y-77652380D01*
X16285714Y-77700000D01*
X17285714Y-78557142D02*
X17238095Y-78604761D01*
X17095238Y-78652380D01*
X17000000Y-78652380D01*
X16857142Y-78604761D01*
X16761904Y-78509523D01*
X16714285Y-78414285D01*
X16666666Y-78223809D01*
X16666666Y-78080952D01*
X16714285Y-77890476D01*
X16761904Y-77795238D01*
X16857142Y-77700000D01*
X17000000Y-77652380D01*
X17095238Y-77652380D01*
X17238095Y-77700000D01*
X17285714Y-77747619D01*
X17714285Y-78652380D02*
X17714285Y-77652380D01*
X18285714Y-78652380D02*
X17857142Y-78080952D01*
X18285714Y-77652380D02*
X17714285Y-78223809D01*
X24409523Y-77652380D02*
X23933333Y-77652380D01*
X23885714Y-78128571D01*
X23933333Y-78080952D01*
X24028571Y-78033333D01*
X24266666Y-78033333D01*
X24361904Y-78080952D01*
X24409523Y-78128571D01*
X24457142Y-78223809D01*
X24457142Y-78461904D01*
X24409523Y-78557142D01*
X24361904Y-78604761D01*
X24266666Y-78652380D01*
X24028571Y-78652380D01*
X23933333Y-78604761D01*
X23885714Y-78557142D01*
X24742857Y-77652380D02*
X25076190Y-78652380D01*
X25409523Y-77652380D01*
X26438095Y-77700000D02*
X26342857Y-77652380D01*
X26200000Y-77652380D01*
X26057142Y-77700000D01*
X25961904Y-77795238D01*
X25914285Y-77890476D01*
X25866666Y-78080952D01*
X25866666Y-78223809D01*
X25914285Y-78414285D01*
X25961904Y-78509523D01*
X26057142Y-78604761D01*
X26200000Y-78652380D01*
X26295238Y-78652380D01*
X26438095Y-78604761D01*
X26485714Y-78557142D01*
X26485714Y-78223809D01*
X26295238Y-78223809D01*
X26914285Y-78652380D02*
X26914285Y-77652380D01*
X27485714Y-78652380D01*
X27485714Y-77652380D01*
X27961904Y-78652380D02*
X27961904Y-77652380D01*
X28200000Y-77652380D01*
X28342857Y-77700000D01*
X28438095Y-77795238D01*
X28485714Y-77890476D01*
X28533333Y-78080952D01*
X28533333Y-78223809D01*
X28485714Y-78414285D01*
X28438095Y-78509523D01*
X28342857Y-78604761D01*
X28200000Y-78652380D01*
X27961904Y-78652380D01*
X14809523Y-71252380D02*
X14333333Y-71252380D01*
X14285714Y-71728571D01*
X14333333Y-71680952D01*
X14428571Y-71633333D01*
X14666666Y-71633333D01*
X14761904Y-71680952D01*
X14809523Y-71728571D01*
X14857142Y-71823809D01*
X14857142Y-72061904D01*
X14809523Y-72157142D01*
X14761904Y-72204761D01*
X14666666Y-72252380D01*
X14428571Y-72252380D01*
X14333333Y-72204761D01*
X14285714Y-72157142D01*
X15142857Y-71252380D02*
X15476190Y-72252380D01*
X15809523Y-71252380D01*
X21438095Y-71300000D02*
X21342857Y-71252380D01*
X21200000Y-71252380D01*
X21057142Y-71300000D01*
X20961904Y-71395238D01*
X20914285Y-71490476D01*
X20866666Y-71680952D01*
X20866666Y-71823809D01*
X20914285Y-72014285D01*
X20961904Y-72109523D01*
X21057142Y-72204761D01*
X21200000Y-72252380D01*
X21295238Y-72252380D01*
X21438095Y-72204761D01*
X21485714Y-72157142D01*
X21485714Y-71823809D01*
X21295238Y-71823809D01*
X21914285Y-72252380D02*
X21914285Y-71252380D01*
X22485714Y-72252380D01*
X22485714Y-71252380D01*
X22961904Y-72252380D02*
X22961904Y-71252380D01*
X23200000Y-71252380D01*
X23342857Y-71300000D01*
X23438095Y-71395238D01*
X23485714Y-71490476D01*
X23533333Y-71680952D01*
X23533333Y-71823809D01*
X23485714Y-72014285D01*
X23438095Y-72109523D01*
X23342857Y-72204761D01*
X23200000Y-72252380D01*
X22961904Y-72252380D01*
X18838095Y-71252380D02*
X19409523Y-71252380D01*
X19123809Y-72252380D02*
X19123809Y-71252380D01*
X19647619Y-71252380D02*
X20314285Y-72252380D01*
X20314285Y-71252380D02*
X19647619Y-72252380D01*
X17033333Y-72252380D02*
X16700000Y-71776190D01*
X16461904Y-72252380D02*
X16461904Y-71252380D01*
X16842857Y-71252380D01*
X16938095Y-71300000D01*
X16985714Y-71347619D01*
X17033333Y-71442857D01*
X17033333Y-71585714D01*
X16985714Y-71680952D01*
X16938095Y-71728571D01*
X16842857Y-71776190D01*
X16461904Y-71776190D01*
X17366666Y-71252380D02*
X18033333Y-72252380D01*
X18033333Y-71252380D02*
X17366666Y-72252380D01*
D11*
X85200000Y-73800000D02*
G75*
G02X84550000Y-73150000I0J650000D01*
G01*
X84550000Y-61650000D02*
G75*
G02X85200000Y-61000000I650000J0D01*
G01*
X96700000Y-61000000D02*
G75*
G02X97350000Y-61650000I0J-650000D01*
G01*
X97350000Y-73150000D02*
G75*
G02X96700000Y-73800000I-650000J0D01*
G01*
X84550000Y-64400000D02*
X84550000Y-61650000D01*
X97350000Y-64400000D02*
X97350000Y-61650000D01*
X84550000Y-73150000D02*
X84550000Y-70400000D01*
X85200000Y-61000000D02*
X96700000Y-61000000D01*
X97350000Y-73150000D02*
X97350000Y-70400000D01*
X96700000Y-73800000D02*
X85200000Y-73800000D01*
X96102064Y-27090000D02*
X94897936Y-27090000D01*
X96102064Y-28910000D02*
X94897936Y-28910000D01*
X38420000Y-57920000D02*
X39750000Y-57920000D01*
X38420000Y-59250000D02*
X38420000Y-57920000D01*
X38420000Y-60520000D02*
X41080000Y-60520000D01*
X41080000Y-60520000D02*
X41080000Y-60580000D01*
X38420000Y-60520000D02*
X38420000Y-60580000D01*
X38420000Y-60580000D02*
X41080000Y-60580000D01*
X24670000Y-73670000D02*
X26000000Y-73670000D01*
X24670000Y-75000000D02*
X24670000Y-73670000D01*
X24670000Y-76270000D02*
X27330000Y-76270000D01*
X27330000Y-76270000D02*
X27330000Y-76330000D01*
X24670000Y-76270000D02*
X24670000Y-76330000D01*
X24670000Y-76330000D02*
X27330000Y-76330000D01*
X43635000Y-44660000D02*
X41400000Y-44660000D01*
X43635000Y-54940000D02*
X43635000Y-44660000D01*
X37165000Y-54940000D02*
X43635000Y-54940000D01*
X37165000Y-44660000D02*
X37165000Y-54940000D01*
X39400000Y-44660000D02*
X37165000Y-44660000D01*
X41400000Y-44660000D02*
G75*
G02X39400000Y-44660000I-1000000J0D01*
G01*
X59250000Y-67600000D02*
X55250000Y-67600000D01*
X59250000Y-70900000D02*
X59250000Y-67600000D01*
X52390000Y-46090000D02*
X51100000Y-46090000D01*
X66610000Y-59610000D02*
X66610000Y-58910000D01*
X65910000Y-59610000D02*
X66610000Y-59610000D01*
X52390000Y-59610000D02*
X52390000Y-58910000D01*
X53090000Y-59610000D02*
X52390000Y-59610000D01*
X66610000Y-45390000D02*
X66610000Y-46090000D01*
X65910000Y-45390000D02*
X66610000Y-45390000D01*
X52390000Y-45390000D02*
X52390000Y-46090000D01*
X53090000Y-45390000D02*
X52390000Y-45390000D01*
X99050000Y-57750000D02*
X97950000Y-57750000D01*
X99050000Y-58700000D02*
X99050000Y-57750000D01*
X100550000Y-58700000D02*
X99050000Y-58700000D01*
X99050000Y-49250000D02*
X93925000Y-49250000D01*
X99050000Y-48300000D02*
X99050000Y-49250000D01*
X100550000Y-48300000D02*
X99050000Y-48300000D01*
X33130000Y-103770000D02*
X33130000Y-105100000D01*
X31800000Y-103770000D02*
X33130000Y-103770000D01*
X30530000Y-103770000D02*
X30530000Y-106430000D01*
X30530000Y-106430000D02*
X27930000Y-106430000D01*
X30530000Y-103770000D02*
X27930000Y-103770000D01*
X27930000Y-103770000D02*
X27930000Y-106430000D01*
X42058578Y-41690000D02*
X41541422Y-41690000D01*
X42058578Y-43110000D02*
X41541422Y-43110000D01*
X34310000Y-40002064D02*
X34310000Y-38797936D01*
X32490000Y-40002064D02*
X32490000Y-38797936D01*
X33997936Y-62510000D02*
X35202064Y-62510000D01*
X33997936Y-60690000D02*
X35202064Y-60690000D01*
X35502064Y-65090000D02*
X34297936Y-65090000D01*
X35502064Y-66910000D02*
X34297936Y-66910000D01*
X22258578Y-24290000D02*
X21741422Y-24290000D01*
X22258578Y-25710000D02*
X21741422Y-25710000D01*
X33510000Y-101358578D02*
X33510000Y-100841422D01*
X32090000Y-101358578D02*
X32090000Y-100841422D01*
X31541422Y-98810000D02*
X32058578Y-98810000D01*
X31541422Y-97390000D02*
X32058578Y-97390000D01*
X100760000Y-42080000D02*
X99300000Y-42080000D01*
X100760000Y-38920000D02*
X98600000Y-38920000D01*
X100760000Y-38920000D02*
X100760000Y-39850000D01*
X100760000Y-42080000D02*
X100760000Y-41150000D01*
D12*
X13401160Y-49550360D02*
X12900780Y-49550360D01*
X12400400Y-28549640D02*
X12900780Y-28549640D01*
X13899000Y-30551160D02*
X13401160Y-30551160D01*
X13401160Y-47548840D02*
X13899000Y-47548840D01*
X13899000Y-30050780D02*
X13899000Y-30551160D01*
X13899000Y-48049220D02*
X13899000Y-47548840D01*
X13401160Y-30050780D02*
X13401160Y-49550360D01*
X12900780Y-30050780D02*
X13401160Y-30050780D01*
X12900780Y-28549640D02*
X12900780Y-30050780D01*
X12400400Y-48049220D02*
X12400400Y-28549640D01*
X12900780Y-48049220D02*
X12400400Y-48049220D01*
X12900780Y-49550360D02*
X12900780Y-48049220D01*
X30899220Y-41048980D02*
X28900240Y-41048980D01*
X31399600Y-40551140D02*
X30899220Y-41048980D01*
X31399600Y-37548860D02*
X31399600Y-40551140D01*
X30899220Y-37051020D02*
X28900240Y-37051020D01*
X31399600Y-37548860D02*
X30899220Y-37051020D01*
X28900240Y-44549100D02*
X28900240Y-41048980D01*
X30899220Y-44549100D02*
X28900240Y-44549100D01*
X31399600Y-45049480D02*
X30899220Y-44549100D01*
X31399600Y-45549860D02*
X31399600Y-45049480D01*
X31399600Y-47548840D02*
X31399600Y-45549860D01*
X30899220Y-48049220D02*
X31399600Y-47548840D01*
X30899220Y-48049220D02*
X13899000Y-48049220D01*
X28900240Y-33550900D02*
X28900240Y-37051020D01*
X30899220Y-33550900D02*
X28900240Y-33550900D01*
X31399600Y-33050520D02*
X30899220Y-33550900D01*
X31399600Y-30551160D02*
X31399600Y-33050520D01*
X30899220Y-30050780D02*
X31399600Y-30551160D01*
X30899220Y-30050780D02*
X13899000Y-30050780D01*
X12649320Y-28549640D02*
X12649320Y-48049220D01*
X12900780Y-48049220D02*
X12900780Y-30050780D01*
X13149700Y-30050780D02*
X13149700Y-49550360D01*
D11*
X66270000Y-95530000D02*
X66270000Y-94200000D01*
X67600000Y-95530000D02*
X66270000Y-95530000D01*
X68870000Y-95530000D02*
X68870000Y-92870000D01*
X68870000Y-92870000D02*
X71470000Y-92870000D01*
X68870000Y-95530000D02*
X71470000Y-95530000D01*
X71470000Y-95530000D02*
X71470000Y-92870000D01*
X13170000Y-82830000D02*
X13170000Y-81500000D01*
X14500000Y-82830000D02*
X13170000Y-82830000D01*
X15770000Y-82830000D02*
X15770000Y-80170000D01*
X15770000Y-80170000D02*
X28530000Y-80170000D01*
X15770000Y-82830000D02*
X28530000Y-82830000D01*
X28530000Y-82830000D02*
X28530000Y-80170000D01*
D12*
X13601160Y-71800360D02*
X13100780Y-71800360D01*
X12600400Y-50799640D02*
X13100780Y-50799640D01*
X14099000Y-52801160D02*
X13601160Y-52801160D01*
X13601160Y-69798840D02*
X14099000Y-69798840D01*
X14099000Y-52300780D02*
X14099000Y-52801160D01*
X14099000Y-70299220D02*
X14099000Y-69798840D01*
X13601160Y-52300780D02*
X13601160Y-71800360D01*
X13100780Y-52300780D02*
X13601160Y-52300780D01*
X13100780Y-50799640D02*
X13100780Y-52300780D01*
X12600400Y-70299220D02*
X12600400Y-50799640D01*
X13100780Y-70299220D02*
X12600400Y-70299220D01*
X13100780Y-71800360D02*
X13100780Y-70299220D01*
X31099220Y-63298980D02*
X29100240Y-63298980D01*
X31599600Y-62801140D02*
X31099220Y-63298980D01*
X31599600Y-59798860D02*
X31599600Y-62801140D01*
X31099220Y-59301020D02*
X29100240Y-59301020D01*
X31599600Y-59798860D02*
X31099220Y-59301020D01*
X29100240Y-66799100D02*
X29100240Y-63298980D01*
X31099220Y-66799100D02*
X29100240Y-66799100D01*
X31599600Y-67299480D02*
X31099220Y-66799100D01*
X31599600Y-67799860D02*
X31599600Y-67299480D01*
X31599600Y-69798840D02*
X31599600Y-67799860D01*
X31099220Y-70299220D02*
X31599600Y-69798840D01*
X31099220Y-70299220D02*
X14099000Y-70299220D01*
X29100240Y-55800900D02*
X29100240Y-59301020D01*
X31099220Y-55800900D02*
X29100240Y-55800900D01*
X31599600Y-55300520D02*
X31099220Y-55800900D01*
X31599600Y-52801160D02*
X31599600Y-55300520D01*
X31099220Y-52300780D02*
X31599600Y-52801160D01*
X31099220Y-52300780D02*
X14099000Y-52300780D01*
X12849320Y-50799640D02*
X12849320Y-70299220D01*
X13100780Y-70299220D02*
X13100780Y-52300780D01*
X13349700Y-52300780D02*
X13349700Y-71800360D01*
D11*
X86670000Y-108330000D02*
X86670000Y-107000000D01*
X88000000Y-108330000D02*
X86670000Y-108330000D01*
X86670000Y-105730000D02*
X86670000Y-103130000D01*
X89270000Y-105730000D02*
X86670000Y-105730000D01*
X89270000Y-108330000D02*
X89270000Y-105730000D01*
X86670000Y-103130000D02*
X96950000Y-103130000D01*
X89270000Y-108330000D02*
X96950000Y-108330000D01*
X96950000Y-108330000D02*
X96950000Y-103130000D01*
X86470000Y-96330000D02*
X86470000Y-95000000D01*
X87800000Y-96330000D02*
X86470000Y-96330000D01*
X86470000Y-93730000D02*
X86470000Y-91130000D01*
X89070000Y-93730000D02*
X86470000Y-93730000D01*
X89070000Y-96330000D02*
X89070000Y-93730000D01*
X86470000Y-91130000D02*
X96750000Y-91130000D01*
X89070000Y-96330000D02*
X96750000Y-96330000D01*
X96750000Y-96330000D02*
X96750000Y-91130000D01*
X13420000Y-76330000D02*
X13420000Y-75000000D01*
X14750000Y-76330000D02*
X13420000Y-76330000D01*
X16020000Y-76330000D02*
X16020000Y-73670000D01*
X16020000Y-73670000D02*
X23700000Y-73670000D01*
X16020000Y-76330000D02*
X23700000Y-76330000D01*
X23700000Y-76330000D02*
X23700000Y-73670000D01*
X50670000Y-33330000D02*
X50670000Y-32000000D01*
X52000000Y-33330000D02*
X50670000Y-33330000D01*
X50670000Y-30730000D02*
X50670000Y-28130000D01*
X53270000Y-30730000D02*
X50670000Y-30730000D01*
X53270000Y-33330000D02*
X53270000Y-30730000D01*
X50670000Y-28130000D02*
X60950000Y-28130000D01*
X53270000Y-33330000D02*
X60950000Y-33330000D01*
X60950000Y-33330000D02*
X60950000Y-28130000D01*
X82600000Y-109170000D02*
X36260000Y-109170000D01*
X82600000Y-109170000D02*
X82600000Y-100290000D01*
X36260000Y-100290000D02*
X36260000Y-109170000D01*
X36260000Y-100290000D02*
X82600000Y-100290000D01*
X48000000Y-109556000D02*
X47746000Y-110064000D01*
X47746000Y-110064000D02*
X48254000Y-110064000D01*
X48254000Y-110064000D02*
X48000000Y-109556000D01*
X98200000Y-23170000D02*
X51860000Y-23170000D01*
X98200000Y-23170000D02*
X98200000Y-14290000D01*
X51860000Y-14290000D02*
X51860000Y-23170000D01*
X51860000Y-14290000D02*
X98200000Y-14290000D01*
X63600000Y-23556000D02*
X63346000Y-24064000D01*
X63346000Y-24064000D02*
X63854000Y-24064000D01*
X63854000Y-24064000D02*
X63600000Y-23556000D01*
X38670000Y-24000000D02*
X38670000Y-22670000D01*
X38670000Y-22670000D02*
X40000000Y-22670000D01*
X41270000Y-22670000D02*
X46410000Y-22670000D01*
X46410000Y-25330000D02*
X46410000Y-22670000D01*
X41270000Y-25330000D02*
X46410000Y-25330000D01*
X41270000Y-25330000D02*
X41270000Y-22670000D01*
X38670000Y-17000000D02*
X38670000Y-15670000D01*
X38670000Y-15670000D02*
X40000000Y-15670000D01*
X41270000Y-15670000D02*
X46410000Y-15670000D01*
X46410000Y-18330000D02*
X46410000Y-15670000D01*
X41270000Y-18330000D02*
X46410000Y-18330000D01*
X41270000Y-18330000D02*
X41270000Y-15670000D01*
X34330000Y-17000000D02*
X34330000Y-18330000D01*
X34330000Y-18330000D02*
X33000000Y-18330000D01*
X31730000Y-18330000D02*
X26590000Y-18330000D01*
X26590000Y-15670000D02*
X26590000Y-18330000D01*
X31730000Y-15670000D02*
X26590000Y-15670000D01*
X31730000Y-15670000D02*
X31730000Y-18330000D01*
X34330000Y-24000000D02*
X34330000Y-25330000D01*
X34330000Y-25330000D02*
X33000000Y-25330000D01*
X31730000Y-25330000D02*
X26590000Y-25330000D01*
X26590000Y-22670000D02*
X26590000Y-25330000D01*
X31730000Y-22670000D02*
X26590000Y-22670000D01*
X31730000Y-22670000D02*
X31730000Y-25330000D01*
X26330000Y-91000000D02*
X26330000Y-92330000D01*
X26330000Y-92330000D02*
X25000000Y-92330000D01*
X26330000Y-89730000D02*
X23730000Y-89730000D01*
X23730000Y-89730000D02*
X23730000Y-92330000D01*
X23730000Y-92330000D02*
X13510000Y-92330000D01*
X13510000Y-87130000D02*
X13510000Y-92330000D01*
X26330000Y-87130000D02*
X13510000Y-87130000D01*
X26330000Y-87130000D02*
X26330000Y-89730000D01*
X109900000Y-33200000D02*
X109900000Y-31700000D01*
X108160000Y-33200000D02*
X109900000Y-33200000D01*
X102540000Y-25140000D02*
X109660000Y-25140000D01*
X102540000Y-32960000D02*
X109660000Y-32960000D01*
X109660000Y-32960000D02*
X109660000Y-25140000D01*
X102540000Y-32960000D02*
X102540000Y-25140000D01*
X108100000Y-32960000D02*
X108100000Y-25140000D01*
X107555000Y-27300000D02*
G75*
G03X107555000Y-27300000I-1555000J0D01*
G01*
X107555492Y-30772989D02*
G75*
G02X107432000Y-31408000I-1555492J-27011D01*
G01*
X106607742Y-32232109D02*
G75*
G02X105392000Y-32232000I-607742J1432109D01*
G01*
X104567891Y-31407742D02*
G75*
G02X104568000Y-30192000I1432109J607742D01*
G01*
X105392258Y-29367891D02*
G75*
G02X106608000Y-29368000I607742J-1432109D01*
G01*
X107431385Y-30192413D02*
G75*
G02X107555000Y-30800000I-1431385J-607587D01*
G01*
X109470000Y-42403752D02*
X109470000Y-37996248D01*
X104130000Y-42403752D02*
X104130000Y-37996248D01*
X35350000Y-37200000D02*
X39250000Y-37200000D01*
X35350000Y-39200000D02*
X39250000Y-39200000D01*
X35350000Y-37200000D02*
X35350000Y-39200000D01*
X23485000Y-22015000D02*
X21200000Y-22015000D01*
X23485000Y-23485000D02*
X23485000Y-22015000D01*
X21200000Y-23485000D02*
X23485000Y-23485000D01*
X29550000Y-94600000D02*
X33450000Y-94600000D01*
X29550000Y-96600000D02*
X33450000Y-96600000D01*
X29550000Y-94600000D02*
X29550000Y-96600000D01*
X85100000Y-51850000D02*
X90500000Y-51850000D01*
X85100000Y-55150000D02*
X90500000Y-55150000D01*
X85100000Y-51850000D02*
X85100000Y-55150000D01*
X96500000Y-39050000D02*
X96500000Y-34750000D01*
X94500000Y-39050000D02*
X96500000Y-39050000D01*
X94500000Y-34750000D02*
X94500000Y-39050000D01*
X52171267Y-40990000D02*
X51828733Y-40990000D01*
X52171267Y-42010000D02*
X51828733Y-42010000D01*
X29790000Y-100928733D02*
X29790000Y-101271267D01*
X30810000Y-100928733D02*
X30810000Y-101271267D01*
X92979646Y-44875000D02*
X92979646Y-43875000D01*
X93479646Y-44375000D02*
X92479646Y-44375000D01*
X82919000Y-42099000D02*
X82919000Y-40901000D01*
X82959000Y-42362000D02*
X82959000Y-40638000D01*
X82999000Y-42562000D02*
X82999000Y-40438000D01*
X83039000Y-42730000D02*
X83039000Y-40270000D01*
X83079000Y-42878000D02*
X83079000Y-40122000D01*
X83119000Y-43010000D02*
X83119000Y-39990000D01*
X83159000Y-43130000D02*
X83159000Y-39870000D01*
X83199000Y-43242000D02*
X83199000Y-39758000D01*
X83239000Y-43346000D02*
X83239000Y-39654000D01*
X83279000Y-43444000D02*
X83279000Y-39556000D01*
X83319000Y-43537000D02*
X83319000Y-39463000D01*
X83359000Y-43625000D02*
X83359000Y-39375000D01*
X83399000Y-43709000D02*
X83399000Y-39291000D01*
X83439000Y-43789000D02*
X83439000Y-39211000D01*
X83479000Y-43865000D02*
X83479000Y-39135000D01*
X83519000Y-43939000D02*
X83519000Y-39061000D01*
X83559000Y-44010000D02*
X83559000Y-38990000D01*
X83599000Y-44079000D02*
X83599000Y-38921000D01*
X83639000Y-44145000D02*
X83639000Y-38855000D01*
X83679000Y-44209000D02*
X83679000Y-38791000D01*
X83719000Y-44270000D02*
X83719000Y-38730000D01*
X83759000Y-44330000D02*
X83759000Y-38670000D01*
X83799000Y-44389000D02*
X83799000Y-38611000D01*
X83839000Y-44445000D02*
X83839000Y-38555000D01*
X83879000Y-44500000D02*
X83879000Y-38500000D01*
X83919000Y-44554000D02*
X83919000Y-38446000D01*
X83959000Y-44606000D02*
X83959000Y-38394000D01*
X83999000Y-44656000D02*
X83999000Y-38344000D01*
X84039000Y-44706000D02*
X84039000Y-38294000D01*
X84079000Y-44754000D02*
X84079000Y-38246000D01*
X84119000Y-44801000D02*
X84119000Y-38199000D01*
X84159000Y-44847000D02*
X84159000Y-38153000D01*
X84199000Y-44892000D02*
X84199000Y-38108000D01*
X84239000Y-44936000D02*
X84239000Y-38064000D01*
X84279000Y-40259000D02*
X84279000Y-38022000D01*
X84279000Y-44978000D02*
X84279000Y-42741000D01*
X84319000Y-40259000D02*
X84319000Y-37980000D01*
X84319000Y-45020000D02*
X84319000Y-42741000D01*
X84359000Y-40259000D02*
X84359000Y-37939000D01*
X84359000Y-45061000D02*
X84359000Y-42741000D01*
X84399000Y-40259000D02*
X84399000Y-37899000D01*
X84399000Y-45101000D02*
X84399000Y-42741000D01*
X84439000Y-40259000D02*
X84439000Y-37860000D01*
X84439000Y-45140000D02*
X84439000Y-42741000D01*
X84479000Y-40259000D02*
X84479000Y-37821000D01*
X84479000Y-45179000D02*
X84479000Y-42741000D01*
X84519000Y-40259000D02*
X84519000Y-37784000D01*
X84519000Y-45216000D02*
X84519000Y-42741000D01*
X84559000Y-40259000D02*
X84559000Y-37747000D01*
X84559000Y-45253000D02*
X84559000Y-42741000D01*
X84599000Y-40259000D02*
X84599000Y-37711000D01*
X84599000Y-45289000D02*
X84599000Y-42741000D01*
X84639000Y-40259000D02*
X84639000Y-37676000D01*
X84639000Y-45324000D02*
X84639000Y-42741000D01*
X84679000Y-40259000D02*
X84679000Y-37642000D01*
X84679000Y-45358000D02*
X84679000Y-42741000D01*
X84719000Y-40259000D02*
X84719000Y-37608000D01*
X84719000Y-45392000D02*
X84719000Y-42741000D01*
X84759000Y-40259000D02*
X84759000Y-37575000D01*
X84759000Y-45425000D02*
X84759000Y-42741000D01*
X84799000Y-40259000D02*
X84799000Y-37543000D01*
X84799000Y-45457000D02*
X84799000Y-42741000D01*
X84839000Y-40259000D02*
X84839000Y-37511000D01*
X84839000Y-45489000D02*
X84839000Y-42741000D01*
X84879000Y-40259000D02*
X84879000Y-37480000D01*
X84879000Y-45520000D02*
X84879000Y-42741000D01*
X84919000Y-40259000D02*
X84919000Y-37450000D01*
X84919000Y-45550000D02*
X84919000Y-42741000D01*
X84959000Y-40259000D02*
X84959000Y-37420000D01*
X84959000Y-45580000D02*
X84959000Y-42741000D01*
X84999000Y-40259000D02*
X84999000Y-37390000D01*
X84999000Y-45610000D02*
X84999000Y-42741000D01*
X85039000Y-40259000D02*
X85039000Y-37362000D01*
X85039000Y-45638000D02*
X85039000Y-42741000D01*
X85079000Y-40259000D02*
X85079000Y-37334000D01*
X85079000Y-45666000D02*
X85079000Y-42741000D01*
X85119000Y-40259000D02*
X85119000Y-37306000D01*
X85119000Y-45694000D02*
X85119000Y-42741000D01*
X85159000Y-40259000D02*
X85159000Y-37279000D01*
X85159000Y-45721000D02*
X85159000Y-42741000D01*
X85199000Y-40259000D02*
X85199000Y-37253000D01*
X85199000Y-45747000D02*
X85199000Y-42741000D01*
X85239000Y-40259000D02*
X85239000Y-37227000D01*
X85239000Y-45773000D02*
X85239000Y-42741000D01*
X85279000Y-40259000D02*
X85279000Y-37202000D01*
X85279000Y-45798000D02*
X85279000Y-42741000D01*
X85319000Y-40259000D02*
X85319000Y-37177000D01*
X85319000Y-45823000D02*
X85319000Y-42741000D01*
X85359000Y-40259000D02*
X85359000Y-37153000D01*
X85359000Y-45847000D02*
X85359000Y-42741000D01*
X85399000Y-40259000D02*
X85399000Y-37129000D01*
X85399000Y-45871000D02*
X85399000Y-42741000D01*
X85439000Y-40259000D02*
X85439000Y-37105000D01*
X85439000Y-45895000D02*
X85439000Y-42741000D01*
X85479000Y-40259000D02*
X85479000Y-37083000D01*
X85479000Y-45917000D02*
X85479000Y-42741000D01*
X85519000Y-40259000D02*
X85519000Y-37060000D01*
X85519000Y-45940000D02*
X85519000Y-42741000D01*
X85559000Y-40259000D02*
X85559000Y-37038000D01*
X85559000Y-45962000D02*
X85559000Y-42741000D01*
X85599000Y-40259000D02*
X85599000Y-37017000D01*
X85599000Y-45983000D02*
X85599000Y-42741000D01*
X85639000Y-40259000D02*
X85639000Y-36996000D01*
X85639000Y-46004000D02*
X85639000Y-42741000D01*
X85679000Y-40259000D02*
X85679000Y-36975000D01*
X85679000Y-46025000D02*
X85679000Y-42741000D01*
X85719000Y-40259000D02*
X85719000Y-36955000D01*
X85719000Y-46045000D02*
X85719000Y-42741000D01*
X85759000Y-40259000D02*
X85759000Y-36936000D01*
X85759000Y-46064000D02*
X85759000Y-42741000D01*
X85799000Y-40259000D02*
X85799000Y-36916000D01*
X85799000Y-46084000D02*
X85799000Y-42741000D01*
X85839000Y-40259000D02*
X85839000Y-36897000D01*
X85839000Y-46103000D02*
X85839000Y-42741000D01*
X85879000Y-40259000D02*
X85879000Y-36879000D01*
X85879000Y-46121000D02*
X85879000Y-42741000D01*
X85919000Y-40259000D02*
X85919000Y-36861000D01*
X85919000Y-46139000D02*
X85919000Y-42741000D01*
X85959000Y-40259000D02*
X85959000Y-36843000D01*
X85959000Y-46157000D02*
X85959000Y-42741000D01*
X85999000Y-40259000D02*
X85999000Y-36826000D01*
X85999000Y-46174000D02*
X85999000Y-42741000D01*
X86039000Y-40259000D02*
X86039000Y-36810000D01*
X86039000Y-46190000D02*
X86039000Y-42741000D01*
X86079000Y-40259000D02*
X86079000Y-36793000D01*
X86079000Y-46207000D02*
X86079000Y-42741000D01*
X86119000Y-40259000D02*
X86119000Y-36777000D01*
X86119000Y-46223000D02*
X86119000Y-42741000D01*
X86159000Y-40259000D02*
X86159000Y-36762000D01*
X86159000Y-46238000D02*
X86159000Y-42741000D01*
X86199000Y-40259000D02*
X86199000Y-36746000D01*
X86199000Y-46254000D02*
X86199000Y-42741000D01*
X86239000Y-40259000D02*
X86239000Y-36732000D01*
X86239000Y-46268000D02*
X86239000Y-42741000D01*
X86279000Y-40259000D02*
X86279000Y-36717000D01*
X86279000Y-46283000D02*
X86279000Y-42741000D01*
X86319000Y-40259000D02*
X86319000Y-36703000D01*
X86319000Y-46297000D02*
X86319000Y-42741000D01*
X86359000Y-40259000D02*
X86359000Y-36689000D01*
X86359000Y-46311000D02*
X86359000Y-42741000D01*
X86399000Y-40259000D02*
X86399000Y-36676000D01*
X86399000Y-46324000D02*
X86399000Y-42741000D01*
X86439000Y-40259000D02*
X86439000Y-36663000D01*
X86439000Y-46337000D02*
X86439000Y-42741000D01*
X86479000Y-40259000D02*
X86479000Y-36650000D01*
X86479000Y-46350000D02*
X86479000Y-42741000D01*
X86519000Y-40259000D02*
X86519000Y-36638000D01*
X86519000Y-46362000D02*
X86519000Y-42741000D01*
X86559000Y-40259000D02*
X86559000Y-36626000D01*
X86559000Y-46374000D02*
X86559000Y-42741000D01*
X86599000Y-40259000D02*
X86599000Y-36615000D01*
X86599000Y-46385000D02*
X86599000Y-42741000D01*
X86639000Y-40259000D02*
X86639000Y-36603000D01*
X86639000Y-46397000D02*
X86639000Y-42741000D01*
X86679000Y-40259000D02*
X86679000Y-36593000D01*
X86679000Y-46407000D02*
X86679000Y-42741000D01*
X86719000Y-40259000D02*
X86719000Y-36582000D01*
X86719000Y-46418000D02*
X86719000Y-42741000D01*
X86759000Y-46428000D02*
X86759000Y-36572000D01*
X86799000Y-46438000D02*
X86799000Y-36562000D01*
X86839000Y-46447000D02*
X86839000Y-36553000D01*
X86879000Y-46456000D02*
X86879000Y-36544000D01*
X86919000Y-46465000D02*
X86919000Y-36535000D01*
X86959000Y-46474000D02*
X86959000Y-36526000D01*
X86999000Y-46482000D02*
X86999000Y-36518000D01*
X87039000Y-46490000D02*
X87039000Y-36510000D01*
X87079000Y-46497000D02*
X87079000Y-36503000D01*
X87119000Y-46504000D02*
X87119000Y-36496000D01*
X87159000Y-46511000D02*
X87159000Y-36489000D01*
X87199000Y-46518000D02*
X87199000Y-36482000D01*
X87239000Y-46524000D02*
X87239000Y-36476000D01*
X87279000Y-46530000D02*
X87279000Y-36470000D01*
X87320000Y-46535000D02*
X87320000Y-36465000D01*
X87360000Y-46540000D02*
X87360000Y-36460000D01*
X87400000Y-46545000D02*
X87400000Y-36455000D01*
X87440000Y-46550000D02*
X87440000Y-36450000D01*
X87480000Y-46554000D02*
X87480000Y-36446000D01*
X87520000Y-46558000D02*
X87520000Y-36442000D01*
X87560000Y-46562000D02*
X87560000Y-36438000D01*
X87600000Y-46565000D02*
X87600000Y-36435000D01*
X87640000Y-46568000D02*
X87640000Y-36432000D01*
X87680000Y-46570000D02*
X87680000Y-36430000D01*
X87720000Y-46573000D02*
X87720000Y-36427000D01*
X87760000Y-46575000D02*
X87760000Y-36425000D01*
X87800000Y-46577000D02*
X87800000Y-36423000D01*
X87840000Y-46578000D02*
X87840000Y-36422000D01*
X87880000Y-46579000D02*
X87880000Y-36421000D01*
X87920000Y-46580000D02*
X87920000Y-36420000D01*
X87960000Y-46580000D02*
X87960000Y-36420000D01*
X88000000Y-46580000D02*
X88000000Y-36420000D01*
X93120000Y-41500000D02*
G75*
G03X93120000Y-41500000I-5120000J0D01*
G01*
X89270354Y-77625000D02*
X89270354Y-78625000D01*
X88770354Y-78125000D02*
X89770354Y-78125000D01*
X99331000Y-80401000D02*
X99331000Y-81599000D01*
X99291000Y-80138000D02*
X99291000Y-81862000D01*
X99251000Y-79938000D02*
X99251000Y-82062000D01*
X99211000Y-79770000D02*
X99211000Y-82230000D01*
X99171000Y-79622000D02*
X99171000Y-82378000D01*
X99131000Y-79490000D02*
X99131000Y-82510000D01*
X99091000Y-79370000D02*
X99091000Y-82630000D01*
X99051000Y-79258000D02*
X99051000Y-82742000D01*
X99011000Y-79154000D02*
X99011000Y-82846000D01*
X98971000Y-79056000D02*
X98971000Y-82944000D01*
X98931000Y-78963000D02*
X98931000Y-83037000D01*
X98891000Y-78875000D02*
X98891000Y-83125000D01*
X98851000Y-78791000D02*
X98851000Y-83209000D01*
X98811000Y-78711000D02*
X98811000Y-83289000D01*
X98771000Y-78635000D02*
X98771000Y-83365000D01*
X98731000Y-78561000D02*
X98731000Y-83439000D01*
X98691000Y-78490000D02*
X98691000Y-83510000D01*
X98651000Y-78421000D02*
X98651000Y-83579000D01*
X98611000Y-78355000D02*
X98611000Y-83645000D01*
X98571000Y-78291000D02*
X98571000Y-83709000D01*
X98531000Y-78230000D02*
X98531000Y-83770000D01*
X98491000Y-78170000D02*
X98491000Y-83830000D01*
X98451000Y-78111000D02*
X98451000Y-83889000D01*
X98411000Y-78055000D02*
X98411000Y-83945000D01*
X98371000Y-78000000D02*
X98371000Y-84000000D01*
X98331000Y-77946000D02*
X98331000Y-84054000D01*
X98291000Y-77894000D02*
X98291000Y-84106000D01*
X98251000Y-77844000D02*
X98251000Y-84156000D01*
X98211000Y-77794000D02*
X98211000Y-84206000D01*
X98171000Y-77746000D02*
X98171000Y-84254000D01*
X98131000Y-77699000D02*
X98131000Y-84301000D01*
X98091000Y-77653000D02*
X98091000Y-84347000D01*
X98051000Y-77608000D02*
X98051000Y-84392000D01*
X98011000Y-77564000D02*
X98011000Y-84436000D01*
X97971000Y-82241000D02*
X97971000Y-84478000D01*
X97971000Y-77522000D02*
X97971000Y-79759000D01*
X97931000Y-82241000D02*
X97931000Y-84520000D01*
X97931000Y-77480000D02*
X97931000Y-79759000D01*
X97891000Y-82241000D02*
X97891000Y-84561000D01*
X97891000Y-77439000D02*
X97891000Y-79759000D01*
X97851000Y-82241000D02*
X97851000Y-84601000D01*
X97851000Y-77399000D02*
X97851000Y-79759000D01*
X97811000Y-82241000D02*
X97811000Y-84640000D01*
X97811000Y-77360000D02*
X97811000Y-79759000D01*
X97771000Y-82241000D02*
X97771000Y-84679000D01*
X97771000Y-77321000D02*
X97771000Y-79759000D01*
X97731000Y-82241000D02*
X97731000Y-84716000D01*
X97731000Y-77284000D02*
X97731000Y-79759000D01*
X97691000Y-82241000D02*
X97691000Y-84753000D01*
X97691000Y-77247000D02*
X97691000Y-79759000D01*
X97651000Y-82241000D02*
X97651000Y-84789000D01*
X97651000Y-77211000D02*
X97651000Y-79759000D01*
X97611000Y-82241000D02*
X97611000Y-84824000D01*
X97611000Y-77176000D02*
X97611000Y-79759000D01*
X97571000Y-82241000D02*
X97571000Y-84858000D01*
X97571000Y-77142000D02*
X97571000Y-79759000D01*
X97531000Y-82241000D02*
X97531000Y-84892000D01*
X97531000Y-77108000D02*
X97531000Y-79759000D01*
X97491000Y-82241000D02*
X97491000Y-84925000D01*
X97491000Y-77075000D02*
X97491000Y-79759000D01*
X97451000Y-82241000D02*
X97451000Y-84957000D01*
X97451000Y-77043000D02*
X97451000Y-79759000D01*
X97411000Y-82241000D02*
X97411000Y-84989000D01*
X97411000Y-77011000D02*
X97411000Y-79759000D01*
X97371000Y-82241000D02*
X97371000Y-85020000D01*
X97371000Y-76980000D02*
X97371000Y-79759000D01*
X97331000Y-82241000D02*
X97331000Y-85050000D01*
X97331000Y-76950000D02*
X97331000Y-79759000D01*
X97291000Y-82241000D02*
X97291000Y-85080000D01*
X97291000Y-76920000D02*
X97291000Y-79759000D01*
X97251000Y-82241000D02*
X97251000Y-85110000D01*
X97251000Y-76890000D02*
X97251000Y-79759000D01*
X97211000Y-82241000D02*
X97211000Y-85138000D01*
X97211000Y-76862000D02*
X97211000Y-79759000D01*
X97171000Y-82241000D02*
X97171000Y-85166000D01*
X97171000Y-76834000D02*
X97171000Y-79759000D01*
X97131000Y-82241000D02*
X97131000Y-85194000D01*
X97131000Y-76806000D02*
X97131000Y-79759000D01*
X97091000Y-82241000D02*
X97091000Y-85221000D01*
X97091000Y-76779000D02*
X97091000Y-79759000D01*
X97051000Y-82241000D02*
X97051000Y-85247000D01*
X97051000Y-76753000D02*
X97051000Y-79759000D01*
X97011000Y-82241000D02*
X97011000Y-85273000D01*
X97011000Y-76727000D02*
X97011000Y-79759000D01*
X96971000Y-82241000D02*
X96971000Y-85298000D01*
X96971000Y-76702000D02*
X96971000Y-79759000D01*
X96931000Y-82241000D02*
X96931000Y-85323000D01*
X96931000Y-76677000D02*
X96931000Y-79759000D01*
X96891000Y-82241000D02*
X96891000Y-85347000D01*
X96891000Y-76653000D02*
X96891000Y-79759000D01*
X96851000Y-82241000D02*
X96851000Y-85371000D01*
X96851000Y-76629000D02*
X96851000Y-79759000D01*
X96811000Y-82241000D02*
X96811000Y-85395000D01*
X96811000Y-76605000D02*
X96811000Y-79759000D01*
X96771000Y-82241000D02*
X96771000Y-85417000D01*
X96771000Y-76583000D02*
X96771000Y-79759000D01*
X96731000Y-82241000D02*
X96731000Y-85440000D01*
X96731000Y-76560000D02*
X96731000Y-79759000D01*
X96691000Y-82241000D02*
X96691000Y-85462000D01*
X96691000Y-76538000D02*
X96691000Y-79759000D01*
X96651000Y-82241000D02*
X96651000Y-85483000D01*
X96651000Y-76517000D02*
X96651000Y-79759000D01*
X96611000Y-82241000D02*
X96611000Y-85504000D01*
X96611000Y-76496000D02*
X96611000Y-79759000D01*
X96571000Y-82241000D02*
X96571000Y-85525000D01*
X96571000Y-76475000D02*
X96571000Y-79759000D01*
X96531000Y-82241000D02*
X96531000Y-85545000D01*
X96531000Y-76455000D02*
X96531000Y-79759000D01*
X96491000Y-82241000D02*
X96491000Y-85564000D01*
X96491000Y-76436000D02*
X96491000Y-79759000D01*
X96451000Y-82241000D02*
X96451000Y-85584000D01*
X96451000Y-76416000D02*
X96451000Y-79759000D01*
X96411000Y-82241000D02*
X96411000Y-85603000D01*
X96411000Y-76397000D02*
X96411000Y-79759000D01*
X96371000Y-82241000D02*
X96371000Y-85621000D01*
X96371000Y-76379000D02*
X96371000Y-79759000D01*
X96331000Y-82241000D02*
X96331000Y-85639000D01*
X96331000Y-76361000D02*
X96331000Y-79759000D01*
X96291000Y-82241000D02*
X96291000Y-85657000D01*
X96291000Y-76343000D02*
X96291000Y-79759000D01*
X96251000Y-82241000D02*
X96251000Y-85674000D01*
X96251000Y-76326000D02*
X96251000Y-79759000D01*
X96211000Y-82241000D02*
X96211000Y-85690000D01*
X96211000Y-76310000D02*
X96211000Y-79759000D01*
X96171000Y-82241000D02*
X96171000Y-85707000D01*
X96171000Y-76293000D02*
X96171000Y-79759000D01*
X96131000Y-82241000D02*
X96131000Y-85723000D01*
X96131000Y-76277000D02*
X96131000Y-79759000D01*
X96091000Y-82241000D02*
X96091000Y-85738000D01*
X96091000Y-76262000D02*
X96091000Y-79759000D01*
X96051000Y-82241000D02*
X96051000Y-85754000D01*
X96051000Y-76246000D02*
X96051000Y-79759000D01*
X96011000Y-82241000D02*
X96011000Y-85768000D01*
X96011000Y-76232000D02*
X96011000Y-79759000D01*
X95971000Y-82241000D02*
X95971000Y-85783000D01*
X95971000Y-76217000D02*
X95971000Y-79759000D01*
X95931000Y-82241000D02*
X95931000Y-85797000D01*
X95931000Y-76203000D02*
X95931000Y-79759000D01*
X95891000Y-82241000D02*
X95891000Y-85811000D01*
X95891000Y-76189000D02*
X95891000Y-79759000D01*
X95851000Y-82241000D02*
X95851000Y-85824000D01*
X95851000Y-76176000D02*
X95851000Y-79759000D01*
X95811000Y-82241000D02*
X95811000Y-85837000D01*
X95811000Y-76163000D02*
X95811000Y-79759000D01*
X95771000Y-82241000D02*
X95771000Y-85850000D01*
X95771000Y-76150000D02*
X95771000Y-79759000D01*
X95731000Y-82241000D02*
X95731000Y-85862000D01*
X95731000Y-76138000D02*
X95731000Y-79759000D01*
X95691000Y-82241000D02*
X95691000Y-85874000D01*
X95691000Y-76126000D02*
X95691000Y-79759000D01*
X95651000Y-82241000D02*
X95651000Y-85885000D01*
X95651000Y-76115000D02*
X95651000Y-79759000D01*
X95611000Y-82241000D02*
X95611000Y-85897000D01*
X95611000Y-76103000D02*
X95611000Y-79759000D01*
X95571000Y-82241000D02*
X95571000Y-85907000D01*
X95571000Y-76093000D02*
X95571000Y-79759000D01*
X95531000Y-82241000D02*
X95531000Y-85918000D01*
X95531000Y-76082000D02*
X95531000Y-79759000D01*
X95491000Y-76072000D02*
X95491000Y-85928000D01*
X95451000Y-76062000D02*
X95451000Y-85938000D01*
X95411000Y-76053000D02*
X95411000Y-85947000D01*
X95371000Y-76044000D02*
X95371000Y-85956000D01*
X95331000Y-76035000D02*
X95331000Y-85965000D01*
X95291000Y-76026000D02*
X95291000Y-85974000D01*
X95251000Y-76018000D02*
X95251000Y-85982000D01*
X95211000Y-76010000D02*
X95211000Y-85990000D01*
X95171000Y-76003000D02*
X95171000Y-85997000D01*
X95131000Y-75996000D02*
X95131000Y-86004000D01*
X95091000Y-75989000D02*
X95091000Y-86011000D01*
X95051000Y-75982000D02*
X95051000Y-86018000D01*
X95011000Y-75976000D02*
X95011000Y-86024000D01*
X94971000Y-75970000D02*
X94971000Y-86030000D01*
X94930000Y-75965000D02*
X94930000Y-86035000D01*
X94890000Y-75960000D02*
X94890000Y-86040000D01*
X94850000Y-75955000D02*
X94850000Y-86045000D01*
X94810000Y-75950000D02*
X94810000Y-86050000D01*
X94770000Y-75946000D02*
X94770000Y-86054000D01*
X94730000Y-75942000D02*
X94730000Y-86058000D01*
X94690000Y-75938000D02*
X94690000Y-86062000D01*
X94650000Y-75935000D02*
X94650000Y-86065000D01*
X94610000Y-75932000D02*
X94610000Y-86068000D01*
X94570000Y-75930000D02*
X94570000Y-86070000D01*
X94530000Y-75927000D02*
X94530000Y-86073000D01*
X94490000Y-75925000D02*
X94490000Y-86075000D01*
X94450000Y-75923000D02*
X94450000Y-86077000D01*
X94410000Y-75922000D02*
X94410000Y-86078000D01*
X94370000Y-75921000D02*
X94370000Y-86079000D01*
X94330000Y-75920000D02*
X94330000Y-86080000D01*
X94290000Y-75920000D02*
X94290000Y-86080000D01*
X94250000Y-75920000D02*
X94250000Y-86080000D01*
X99370000Y-81000000D02*
G75*
G03X99370000Y-81000000I-5120000J0D01*
G01*
X48171267Y-36990000D02*
X47828733Y-36990000D01*
X48171267Y-38010000D02*
X47828733Y-38010000D01*
X48490000Y-40328733D02*
X48490000Y-40671267D01*
X49510000Y-40328733D02*
X49510000Y-40671267D01*
X27790000Y-96428733D02*
X27790000Y-96771267D01*
X28810000Y-96428733D02*
X28810000Y-96771267D01*
X73028733Y-67910000D02*
X73371267Y-67910000D01*
X73028733Y-66890000D02*
X73371267Y-66890000D01*
X48490000Y-50078733D02*
X48490000Y-50421267D01*
X49510000Y-50078733D02*
X49510000Y-50421267D01*
X63671267Y-36490000D02*
X63328733Y-36490000D01*
X63671267Y-37510000D02*
X63328733Y-37510000D01*
X63671267Y-38490000D02*
X63328733Y-38490000D01*
X63671267Y-39510000D02*
X63328733Y-39510000D01*
D10*
X90783333Y-75102380D02*
X90307142Y-75102380D01*
X90307142Y-74102380D01*
X91069047Y-74197619D02*
X91116666Y-74150000D01*
X91211904Y-74102380D01*
X91450000Y-74102380D01*
X91545238Y-74150000D01*
X91592857Y-74197619D01*
X91640476Y-74292857D01*
X91640476Y-74388095D01*
X91592857Y-74530952D01*
X91021428Y-75102380D01*
X91640476Y-75102380D01*
X95333333Y-30272380D02*
X95000000Y-29796190D01*
X94761904Y-30272380D02*
X94761904Y-29272380D01*
X95142857Y-29272380D01*
X95238095Y-29320000D01*
X95285714Y-29367619D01*
X95333333Y-29462857D01*
X95333333Y-29605714D01*
X95285714Y-29700952D01*
X95238095Y-29748571D01*
X95142857Y-29796190D01*
X94761904Y-29796190D01*
X96285714Y-30272380D02*
X95714285Y-30272380D01*
X96000000Y-30272380D02*
X96000000Y-29272380D01*
X95904761Y-29415238D01*
X95809523Y-29510476D01*
X95714285Y-29558095D01*
X38488095Y-56372380D02*
X39059523Y-56372380D01*
X38773809Y-57372380D02*
X38773809Y-56372380D01*
X39392857Y-57372380D02*
X39392857Y-56372380D01*
X39773809Y-56372380D01*
X39869047Y-56420000D01*
X39916666Y-56467619D01*
X39964285Y-56562857D01*
X39964285Y-56705714D01*
X39916666Y-56800952D01*
X39869047Y-56848571D01*
X39773809Y-56896190D01*
X39392857Y-56896190D01*
X40345238Y-56467619D02*
X40392857Y-56420000D01*
X40488095Y-56372380D01*
X40726190Y-56372380D01*
X40821428Y-56420000D01*
X40869047Y-56467619D01*
X40916666Y-56562857D01*
X40916666Y-56658095D01*
X40869047Y-56800952D01*
X40297619Y-57372380D01*
X40916666Y-57372380D01*
X56773809Y-71676190D02*
X56773809Y-72152380D01*
X56440476Y-71152380D02*
X56773809Y-71676190D01*
X57107142Y-71152380D01*
X57964285Y-72152380D02*
X57392857Y-72152380D01*
X57678571Y-72152380D02*
X57678571Y-71152380D01*
X57583333Y-71295238D01*
X57488095Y-71390476D01*
X57392857Y-71438095D01*
X58738095Y-42602380D02*
X58738095Y-43411904D01*
X58785714Y-43507142D01*
X58833333Y-43554761D01*
X58928571Y-43602380D01*
X59119047Y-43602380D01*
X59214285Y-43554761D01*
X59261904Y-43507142D01*
X59309523Y-43411904D01*
X59309523Y-42602380D01*
X59738095Y-42697619D02*
X59785714Y-42650000D01*
X59880952Y-42602380D01*
X60119047Y-42602380D01*
X60214285Y-42650000D01*
X60261904Y-42697619D01*
X60309523Y-42792857D01*
X60309523Y-42888095D01*
X60261904Y-43030952D01*
X59690476Y-43602380D01*
X60309523Y-43602380D01*
X101238095Y-46302380D02*
X101238095Y-47111904D01*
X101285714Y-47207142D01*
X101333333Y-47254761D01*
X101428571Y-47302380D01*
X101619047Y-47302380D01*
X101714285Y-47254761D01*
X101761904Y-47207142D01*
X101809523Y-47111904D01*
X101809523Y-46302380D01*
X102809523Y-47302380D02*
X102238095Y-47302380D01*
X102523809Y-47302380D02*
X102523809Y-46302380D01*
X102428571Y-46445238D01*
X102333333Y-46540476D01*
X102238095Y-46588095D01*
X34534761Y-106433333D02*
X34582380Y-106290476D01*
X34582380Y-106052380D01*
X34534761Y-105957142D01*
X34487142Y-105909523D01*
X34391904Y-105861904D01*
X34296666Y-105861904D01*
X34201428Y-105909523D01*
X34153809Y-105957142D01*
X34106190Y-106052380D01*
X34058571Y-106242857D01*
X34010952Y-106338095D01*
X33963333Y-106385714D01*
X33868095Y-106433333D01*
X33772857Y-106433333D01*
X33677619Y-106385714D01*
X33630000Y-106338095D01*
X33582380Y-106242857D01*
X33582380Y-106004761D01*
X33630000Y-105861904D01*
X33582380Y-105528571D02*
X34582380Y-105290476D01*
X33868095Y-105100000D01*
X34582380Y-104909523D01*
X33582380Y-104671428D01*
X34582380Y-103766666D02*
X34582380Y-104338095D01*
X34582380Y-104052380D02*
X33582380Y-104052380D01*
X33725238Y-104147619D01*
X33820476Y-104242857D01*
X33868095Y-104338095D01*
X34433333Y-60232380D02*
X34100000Y-59756190D01*
X33861904Y-60232380D02*
X33861904Y-59232380D01*
X34242857Y-59232380D01*
X34338095Y-59280000D01*
X34385714Y-59327619D01*
X34433333Y-59422857D01*
X34433333Y-59565714D01*
X34385714Y-59660952D01*
X34338095Y-59708571D01*
X34242857Y-59756190D01*
X33861904Y-59756190D01*
X35290476Y-59232380D02*
X35100000Y-59232380D01*
X35004761Y-59280000D01*
X34957142Y-59327619D01*
X34861904Y-59470476D01*
X34814285Y-59660952D01*
X34814285Y-60041904D01*
X34861904Y-60137142D01*
X34909523Y-60184761D01*
X35004761Y-60232380D01*
X35195238Y-60232380D01*
X35290476Y-60184761D01*
X35338095Y-60137142D01*
X35385714Y-60041904D01*
X35385714Y-59803809D01*
X35338095Y-59708571D01*
X35290476Y-59660952D01*
X35195238Y-59613333D01*
X35004761Y-59613333D01*
X34909523Y-59660952D01*
X34861904Y-59708571D01*
X34814285Y-59803809D01*
X34733333Y-68272380D02*
X34400000Y-67796190D01*
X34161904Y-68272380D02*
X34161904Y-67272380D01*
X34542857Y-67272380D01*
X34638095Y-67320000D01*
X34685714Y-67367619D01*
X34733333Y-67462857D01*
X34733333Y-67605714D01*
X34685714Y-67700952D01*
X34638095Y-67748571D01*
X34542857Y-67796190D01*
X34161904Y-67796190D01*
X35638095Y-67272380D02*
X35161904Y-67272380D01*
X35114285Y-67748571D01*
X35161904Y-67700952D01*
X35257142Y-67653333D01*
X35495238Y-67653333D01*
X35590476Y-67700952D01*
X35638095Y-67748571D01*
X35685714Y-67843809D01*
X35685714Y-68081904D01*
X35638095Y-68177142D01*
X35590476Y-68224761D01*
X35495238Y-68272380D01*
X35257142Y-68272380D01*
X35161904Y-68224761D01*
X35114285Y-68177142D01*
X21833333Y-27102380D02*
X21500000Y-26626190D01*
X21261904Y-27102380D02*
X21261904Y-26102380D01*
X21642857Y-26102380D01*
X21738095Y-26150000D01*
X21785714Y-26197619D01*
X21833333Y-26292857D01*
X21833333Y-26435714D01*
X21785714Y-26530952D01*
X21738095Y-26578571D01*
X21642857Y-26626190D01*
X21261904Y-26626190D01*
X22690476Y-26435714D02*
X22690476Y-27102380D01*
X22452380Y-26054761D02*
X22214285Y-26769047D01*
X22833333Y-26769047D01*
X31633333Y-96902380D02*
X31300000Y-96426190D01*
X31061904Y-96902380D02*
X31061904Y-95902380D01*
X31442857Y-95902380D01*
X31538095Y-95950000D01*
X31585714Y-95997619D01*
X31633333Y-96092857D01*
X31633333Y-96235714D01*
X31585714Y-96330952D01*
X31538095Y-96378571D01*
X31442857Y-96426190D01*
X31061904Y-96426190D01*
X32014285Y-95997619D02*
X32061904Y-95950000D01*
X32157142Y-95902380D01*
X32395238Y-95902380D01*
X32490476Y-95950000D01*
X32538095Y-95997619D01*
X32585714Y-96092857D01*
X32585714Y-96188095D01*
X32538095Y-96330952D01*
X31966666Y-96902380D01*
X32585714Y-96902380D01*
X99904761Y-38547619D02*
X99809523Y-38500000D01*
X99714285Y-38404761D01*
X99571428Y-38261904D01*
X99476190Y-38214285D01*
X99380952Y-38214285D01*
X99428571Y-38452380D02*
X99333333Y-38404761D01*
X99238095Y-38309523D01*
X99190476Y-38119047D01*
X99190476Y-37785714D01*
X99238095Y-37595238D01*
X99333333Y-37500000D01*
X99428571Y-37452380D01*
X99619047Y-37452380D01*
X99714285Y-37500000D01*
X99809523Y-37595238D01*
X99857142Y-37785714D01*
X99857142Y-38119047D01*
X99809523Y-38309523D01*
X99714285Y-38404761D01*
X99619047Y-38452380D01*
X99428571Y-38452380D01*
X100809523Y-38452380D02*
X100238095Y-38452380D01*
X100523809Y-38452380D02*
X100523809Y-37452380D01*
X100428571Y-37595238D01*
X100333333Y-37690476D01*
X100238095Y-37738095D01*
D12*
X10064688Y-40283714D02*
X11153260Y-40283714D01*
X11370974Y-40356285D01*
X11516117Y-40501428D01*
X11588688Y-40719142D01*
X11588688Y-40864285D01*
X11588688Y-38759714D02*
X11588688Y-39630571D01*
X11588688Y-39195142D02*
X10064688Y-39195142D01*
X10282402Y-39340285D01*
X10427545Y-39485428D01*
X10500117Y-39630571D01*
X10064688Y-38251714D02*
X10064688Y-37235714D01*
X11588688Y-37888857D01*
D10*
X64722380Y-95009523D02*
X65436666Y-95009523D01*
X65579523Y-95057142D01*
X65674761Y-95152380D01*
X65722380Y-95295238D01*
X65722380Y-95390476D01*
X65722380Y-94009523D02*
X65722380Y-94580952D01*
X65722380Y-94295238D02*
X64722380Y-94295238D01*
X64865238Y-94390476D01*
X64960476Y-94485714D01*
X65008095Y-94580952D01*
X64722380Y-93152380D02*
X64722380Y-93342857D01*
X64770000Y-93438095D01*
X64817619Y-93485714D01*
X64960476Y-93580952D01*
X65150952Y-93628571D01*
X65531904Y-93628571D01*
X65627142Y-93580952D01*
X65674761Y-93533333D01*
X65722380Y-93438095D01*
X65722380Y-93247619D01*
X65674761Y-93152380D01*
X65627142Y-93104761D01*
X65531904Y-93057142D01*
X65293809Y-93057142D01*
X65198571Y-93104761D01*
X65150952Y-93152380D01*
X65103333Y-93247619D01*
X65103333Y-93438095D01*
X65150952Y-93533333D01*
X65198571Y-93580952D01*
X65293809Y-93628571D01*
X11622380Y-82309523D02*
X12336666Y-82309523D01*
X12479523Y-82357142D01*
X12574761Y-82452380D01*
X12622380Y-82595238D01*
X12622380Y-82690476D01*
X12622380Y-81309523D02*
X12622380Y-81880952D01*
X12622380Y-81595238D02*
X11622380Y-81595238D01*
X11765238Y-81690476D01*
X11860476Y-81785714D01*
X11908095Y-81880952D01*
X11622380Y-80404761D02*
X11622380Y-80880952D01*
X12098571Y-80928571D01*
X12050952Y-80880952D01*
X12003333Y-80785714D01*
X12003333Y-80547619D01*
X12050952Y-80452380D01*
X12098571Y-80404761D01*
X12193809Y-80357142D01*
X12431904Y-80357142D01*
X12527142Y-80404761D01*
X12574761Y-80452380D01*
X12622380Y-80547619D01*
X12622380Y-80785714D01*
X12574761Y-80880952D01*
X12527142Y-80928571D01*
D12*
X10264688Y-62533714D02*
X11353260Y-62533714D01*
X11570974Y-62606285D01*
X11716117Y-62751428D01*
X11788688Y-62969142D01*
X11788688Y-63114285D01*
X11788688Y-61009714D02*
X11788688Y-61880571D01*
X11788688Y-61445142D02*
X10264688Y-61445142D01*
X10482402Y-61590285D01*
X10627545Y-61735428D01*
X10700117Y-61880571D01*
X10772688Y-59703428D02*
X11788688Y-59703428D01*
X10192117Y-60066285D02*
X11280688Y-60429142D01*
X11280688Y-59485714D01*
D10*
X85122380Y-106539523D02*
X85836666Y-106539523D01*
X85979523Y-106587142D01*
X86074761Y-106682380D01*
X86122380Y-106825238D01*
X86122380Y-106920476D01*
X86122380Y-105539523D02*
X86122380Y-106110952D01*
X86122380Y-105825238D02*
X85122380Y-105825238D01*
X85265238Y-105920476D01*
X85360476Y-106015714D01*
X85408095Y-106110952D01*
X85122380Y-105206190D02*
X85122380Y-104587142D01*
X85503333Y-104920476D01*
X85503333Y-104777619D01*
X85550952Y-104682380D01*
X85598571Y-104634761D01*
X85693809Y-104587142D01*
X85931904Y-104587142D01*
X86027142Y-104634761D01*
X86074761Y-104682380D01*
X86122380Y-104777619D01*
X86122380Y-105063333D01*
X86074761Y-105158571D01*
X86027142Y-105206190D01*
X84922380Y-94539523D02*
X85636666Y-94539523D01*
X85779523Y-94587142D01*
X85874761Y-94682380D01*
X85922380Y-94825238D01*
X85922380Y-94920476D01*
X85922380Y-93539523D02*
X85922380Y-94110952D01*
X85922380Y-93825238D02*
X84922380Y-93825238D01*
X85065238Y-93920476D01*
X85160476Y-94015714D01*
X85208095Y-94110952D01*
X85017619Y-93158571D02*
X84970000Y-93110952D01*
X84922380Y-93015714D01*
X84922380Y-92777619D01*
X84970000Y-92682380D01*
X85017619Y-92634761D01*
X85112857Y-92587142D01*
X85208095Y-92587142D01*
X85350952Y-92634761D01*
X85922380Y-93206190D01*
X85922380Y-92587142D01*
X11872380Y-75809523D02*
X12586666Y-75809523D01*
X12729523Y-75857142D01*
X12824761Y-75952380D01*
X12872380Y-76095238D01*
X12872380Y-76190476D01*
X12872380Y-74809523D02*
X12872380Y-75380952D01*
X12872380Y-75095238D02*
X11872380Y-75095238D01*
X12015238Y-75190476D01*
X12110476Y-75285714D01*
X12158095Y-75380952D01*
X12872380Y-73857142D02*
X12872380Y-74428571D01*
X12872380Y-74142857D02*
X11872380Y-74142857D01*
X12015238Y-74238095D01*
X12110476Y-74333333D01*
X12158095Y-74428571D01*
X49122380Y-31539523D02*
X49836666Y-31539523D01*
X49979523Y-31587142D01*
X50074761Y-31682380D01*
X50122380Y-31825238D01*
X50122380Y-31920476D01*
X50122380Y-30539523D02*
X50122380Y-31110952D01*
X50122380Y-30825238D02*
X49122380Y-30825238D01*
X49265238Y-30920476D01*
X49360476Y-31015714D01*
X49408095Y-31110952D01*
X49122380Y-29920476D02*
X49122380Y-29825238D01*
X49170000Y-29730000D01*
X49217619Y-29682380D01*
X49312857Y-29634761D01*
X49503333Y-29587142D01*
X49741428Y-29587142D01*
X49931904Y-29634761D01*
X50027142Y-29682380D01*
X50074761Y-29730000D01*
X50122380Y-29825238D01*
X50122380Y-29920476D01*
X50074761Y-30015714D01*
X50027142Y-30063333D01*
X49931904Y-30110952D01*
X49741428Y-30158571D01*
X49503333Y-30158571D01*
X49312857Y-30110952D01*
X49217619Y-30063333D01*
X49170000Y-30015714D01*
X49122380Y-29920476D01*
X59096666Y-98472380D02*
X59096666Y-99186666D01*
X59049047Y-99329523D01*
X58953809Y-99424761D01*
X58810952Y-99472380D01*
X58715714Y-99472380D01*
X59620476Y-99472380D02*
X59810952Y-99472380D01*
X59906190Y-99424761D01*
X59953809Y-99377142D01*
X60049047Y-99234285D01*
X60096666Y-99043809D01*
X60096666Y-98662857D01*
X60049047Y-98567619D01*
X60001428Y-98520000D01*
X59906190Y-98472380D01*
X59715714Y-98472380D01*
X59620476Y-98520000D01*
X59572857Y-98567619D01*
X59525238Y-98662857D01*
X59525238Y-98900952D01*
X59572857Y-98996190D01*
X59620476Y-99043809D01*
X59715714Y-99091428D01*
X59906190Y-99091428D01*
X60001428Y-99043809D01*
X60049047Y-98996190D01*
X60096666Y-98900952D01*
X74696666Y-12472380D02*
X74696666Y-13186666D01*
X74649047Y-13329523D01*
X74553809Y-13424761D01*
X74410952Y-13472380D01*
X74315714Y-13472380D01*
X75077619Y-12472380D02*
X75744285Y-12472380D01*
X75315714Y-13472380D01*
X36682380Y-24333333D02*
X37396666Y-24333333D01*
X37539523Y-24380952D01*
X37634761Y-24476190D01*
X37682380Y-24619047D01*
X37682380Y-24714285D01*
X36682380Y-23428571D02*
X36682380Y-23619047D01*
X36730000Y-23714285D01*
X36777619Y-23761904D01*
X36920476Y-23857142D01*
X37110952Y-23904761D01*
X37491904Y-23904761D01*
X37587142Y-23857142D01*
X37634761Y-23809523D01*
X37682380Y-23714285D01*
X37682380Y-23523809D01*
X37634761Y-23428571D01*
X37587142Y-23380952D01*
X37491904Y-23333333D01*
X37253809Y-23333333D01*
X37158571Y-23380952D01*
X37110952Y-23428571D01*
X37063333Y-23523809D01*
X37063333Y-23714285D01*
X37110952Y-23809523D01*
X37158571Y-23857142D01*
X37253809Y-23904761D01*
X36682380Y-17333333D02*
X37396666Y-17333333D01*
X37539523Y-17380952D01*
X37634761Y-17476190D01*
X37682380Y-17619047D01*
X37682380Y-17714285D01*
X36682380Y-16380952D02*
X36682380Y-16857142D01*
X37158571Y-16904761D01*
X37110952Y-16857142D01*
X37063333Y-16761904D01*
X37063333Y-16523809D01*
X37110952Y-16428571D01*
X37158571Y-16380952D01*
X37253809Y-16333333D01*
X37491904Y-16333333D01*
X37587142Y-16380952D01*
X37634761Y-16428571D01*
X37682380Y-16523809D01*
X37682380Y-16761904D01*
X37634761Y-16857142D01*
X37587142Y-16904761D01*
X35222380Y-17333333D02*
X35936666Y-17333333D01*
X36079523Y-17380952D01*
X36174761Y-17476190D01*
X36222380Y-17619047D01*
X36222380Y-17714285D01*
X35555714Y-16428571D02*
X36222380Y-16428571D01*
X35174761Y-16666666D02*
X35889047Y-16904761D01*
X35889047Y-16285714D01*
X35222380Y-24333333D02*
X35936666Y-24333333D01*
X36079523Y-24380952D01*
X36174761Y-24476190D01*
X36222380Y-24619047D01*
X36222380Y-24714285D01*
X35222380Y-23952380D02*
X35222380Y-23333333D01*
X35603333Y-23666666D01*
X35603333Y-23523809D01*
X35650952Y-23428571D01*
X35698571Y-23380952D01*
X35793809Y-23333333D01*
X36031904Y-23333333D01*
X36127142Y-23380952D01*
X36174761Y-23428571D01*
X36222380Y-23523809D01*
X36222380Y-23809523D01*
X36174761Y-23904761D01*
X36127142Y-23952380D01*
X27222380Y-90063333D02*
X27936666Y-90063333D01*
X28079523Y-90110952D01*
X28174761Y-90206190D01*
X28222380Y-90349047D01*
X28222380Y-90444285D01*
X27317619Y-89634761D02*
X27270000Y-89587142D01*
X27222380Y-89491904D01*
X27222380Y-89253809D01*
X27270000Y-89158571D01*
X27317619Y-89110952D01*
X27412857Y-89063333D01*
X27508095Y-89063333D01*
X27650952Y-89110952D01*
X28222380Y-89682380D01*
X28222380Y-89063333D01*
X100992380Y-29383333D02*
X101706666Y-29383333D01*
X101849523Y-29430952D01*
X101944761Y-29526190D01*
X101992380Y-29669047D01*
X101992380Y-29764285D01*
X101992380Y-28383333D02*
X101992380Y-28954761D01*
X101992380Y-28669047D02*
X100992380Y-28669047D01*
X101135238Y-28764285D01*
X101230476Y-28859523D01*
X101278095Y-28954761D01*
X16238095Y-12152380D02*
X16238095Y-11152380D01*
X16238095Y-11628571D02*
X16809523Y-11628571D01*
X16809523Y-12152380D02*
X16809523Y-11152380D01*
X17714285Y-11485714D02*
X17714285Y-12152380D01*
X17476190Y-11104761D02*
X17238095Y-11819047D01*
X17857142Y-11819047D01*
X16238095Y-101152380D02*
X16238095Y-100152380D01*
X16238095Y-100628571D02*
X16809523Y-100628571D01*
X16809523Y-101152380D02*
X16809523Y-100152380D01*
X17190476Y-100152380D02*
X17809523Y-100152380D01*
X17476190Y-100533333D01*
X17619047Y-100533333D01*
X17714285Y-100580952D01*
X17761904Y-100628571D01*
X17809523Y-100723809D01*
X17809523Y-100961904D01*
X17761904Y-101057142D01*
X17714285Y-101104761D01*
X17619047Y-101152380D01*
X17333333Y-101152380D01*
X17238095Y-101104761D01*
X17190476Y-101057142D01*
X105238095Y-12152380D02*
X105238095Y-11152380D01*
X105238095Y-11628571D02*
X105809523Y-11628571D01*
X105809523Y-12152380D02*
X105809523Y-11152380D01*
X106238095Y-11247619D02*
X106285714Y-11200000D01*
X106380952Y-11152380D01*
X106619047Y-11152380D01*
X106714285Y-11200000D01*
X106761904Y-11247619D01*
X106809523Y-11342857D01*
X106809523Y-11438095D01*
X106761904Y-11580952D01*
X106190476Y-12152380D01*
X106809523Y-12152380D01*
X105238095Y-101152380D02*
X105238095Y-100152380D01*
X105238095Y-100628571D02*
X105809523Y-100628571D01*
X105809523Y-101152380D02*
X105809523Y-100152380D01*
X106809523Y-101152380D02*
X106238095Y-101152380D01*
X106523809Y-101152380D02*
X106523809Y-100152380D01*
X106428571Y-100295238D01*
X106333333Y-100390476D01*
X106238095Y-100438095D01*
X103048571Y-40533333D02*
X103048571Y-40866666D01*
X103572380Y-40866666D02*
X102572380Y-40866666D01*
X102572380Y-40390476D01*
X103572380Y-39485714D02*
X103572380Y-40057142D01*
X103572380Y-39771428D02*
X102572380Y-39771428D01*
X102715238Y-39866666D01*
X102810476Y-39961904D01*
X102858095Y-40057142D01*
X36861904Y-36652380D02*
X36861904Y-35652380D01*
X37100000Y-35652380D01*
X37242857Y-35700000D01*
X37338095Y-35795238D01*
X37385714Y-35890476D01*
X37433333Y-36080952D01*
X37433333Y-36223809D01*
X37385714Y-36414285D01*
X37338095Y-36509523D01*
X37242857Y-36604761D01*
X37100000Y-36652380D01*
X36861904Y-36652380D01*
X38338095Y-35652380D02*
X37861904Y-35652380D01*
X37814285Y-36128571D01*
X37861904Y-36080952D01*
X37957142Y-36033333D01*
X38195238Y-36033333D01*
X38290476Y-36080952D01*
X38338095Y-36128571D01*
X38385714Y-36223809D01*
X38385714Y-36461904D01*
X38338095Y-36557142D01*
X38290476Y-36604761D01*
X38195238Y-36652380D01*
X37957142Y-36652380D01*
X37861904Y-36604761D01*
X37814285Y-36557142D01*
X87761904Y-51452380D02*
X87761904Y-50452380D01*
X88000000Y-50452380D01*
X88142857Y-50500000D01*
X88238095Y-50595238D01*
X88285714Y-50690476D01*
X88333333Y-50880952D01*
X88333333Y-51023809D01*
X88285714Y-51214285D01*
X88238095Y-51309523D01*
X88142857Y-51404761D01*
X88000000Y-51452380D01*
X87761904Y-51452380D01*
X88714285Y-50547619D02*
X88761904Y-50500000D01*
X88857142Y-50452380D01*
X89095238Y-50452380D01*
X89190476Y-50500000D01*
X89238095Y-50547619D01*
X89285714Y-50642857D01*
X89285714Y-50738095D01*
X89238095Y-50880952D01*
X88666666Y-51452380D01*
X89285714Y-51452380D01*
X93952380Y-37238095D02*
X92952380Y-37238095D01*
X92952380Y-37000000D01*
X93000000Y-36857142D01*
X93095238Y-36761904D01*
X93190476Y-36714285D01*
X93380952Y-36666666D01*
X93523809Y-36666666D01*
X93714285Y-36714285D01*
X93809523Y-36761904D01*
X93904761Y-36857142D01*
X93952380Y-37000000D01*
X93952380Y-37238095D01*
X93952380Y-35714285D02*
X93952380Y-36285714D01*
X93952380Y-36000000D02*
X92952380Y-36000000D01*
X93095238Y-36095238D01*
X93190476Y-36190476D01*
X93238095Y-36285714D01*
X53187142Y-69642857D02*
X53234761Y-69690476D01*
X53282380Y-69833333D01*
X53282380Y-69928571D01*
X53234761Y-70071428D01*
X53139523Y-70166666D01*
X53044285Y-70214285D01*
X52853809Y-70261904D01*
X52710952Y-70261904D01*
X52520476Y-70214285D01*
X52425238Y-70166666D01*
X52330000Y-70071428D01*
X52282380Y-69928571D01*
X52282380Y-69833333D01*
X52330000Y-69690476D01*
X52377619Y-69642857D01*
X53282380Y-68690476D02*
X53282380Y-69261904D01*
X53282380Y-68976190D02*
X52282380Y-68976190D01*
X52425238Y-69071428D01*
X52520476Y-69166666D01*
X52568095Y-69261904D01*
X52377619Y-68309523D02*
X52330000Y-68261904D01*
X52282380Y-68166666D01*
X52282380Y-67928571D01*
X52330000Y-67833333D01*
X52377619Y-67785714D01*
X52472857Y-67738095D01*
X52568095Y-67738095D01*
X52710952Y-67785714D01*
X53282380Y-68357142D01*
X53282380Y-67738095D01*
X62027142Y-69642857D02*
X62074761Y-69690476D01*
X62122380Y-69833333D01*
X62122380Y-69928571D01*
X62074761Y-70071428D01*
X61979523Y-70166666D01*
X61884285Y-70214285D01*
X61693809Y-70261904D01*
X61550952Y-70261904D01*
X61360476Y-70214285D01*
X61265238Y-70166666D01*
X61170000Y-70071428D01*
X61122380Y-69928571D01*
X61122380Y-69833333D01*
X61170000Y-69690476D01*
X61217619Y-69642857D01*
X62122380Y-68690476D02*
X62122380Y-69261904D01*
X62122380Y-68976190D02*
X61122380Y-68976190D01*
X61265238Y-69071428D01*
X61360476Y-69166666D01*
X61408095Y-69261904D01*
X62122380Y-67738095D02*
X62122380Y-68309523D01*
X62122380Y-68023809D02*
X61122380Y-68023809D01*
X61265238Y-68119047D01*
X61360476Y-68214285D01*
X61408095Y-68309523D01*
X87833333Y-48107142D02*
X87785714Y-48154761D01*
X87642857Y-48202380D01*
X87547619Y-48202380D01*
X87404761Y-48154761D01*
X87309523Y-48059523D01*
X87261904Y-47964285D01*
X87214285Y-47773809D01*
X87214285Y-47630952D01*
X87261904Y-47440476D01*
X87309523Y-47345238D01*
X87404761Y-47250000D01*
X87547619Y-47202380D01*
X87642857Y-47202380D01*
X87785714Y-47250000D01*
X87833333Y-47297619D01*
X88309523Y-48202380D02*
X88500000Y-48202380D01*
X88595238Y-48154761D01*
X88642857Y-48107142D01*
X88738095Y-47964285D01*
X88785714Y-47773809D01*
X88785714Y-47392857D01*
X88738095Y-47297619D01*
X88690476Y-47250000D01*
X88595238Y-47202380D01*
X88404761Y-47202380D01*
X88309523Y-47250000D01*
X88261904Y-47297619D01*
X88214285Y-47392857D01*
X88214285Y-47630952D01*
X88261904Y-47726190D01*
X88309523Y-47773809D01*
X88404761Y-47821428D01*
X88595238Y-47821428D01*
X88690476Y-47773809D01*
X88738095Y-47726190D01*
X88785714Y-47630952D01*
X94083333Y-75107142D02*
X94035714Y-75154761D01*
X93892857Y-75202380D01*
X93797619Y-75202380D01*
X93654761Y-75154761D01*
X93559523Y-75059523D01*
X93511904Y-74964285D01*
X93464285Y-74773809D01*
X93464285Y-74630952D01*
X93511904Y-74440476D01*
X93559523Y-74345238D01*
X93654761Y-74250000D01*
X93797619Y-74202380D01*
X93892857Y-74202380D01*
X94035714Y-74250000D01*
X94083333Y-74297619D01*
X94654761Y-74630952D02*
X94559523Y-74583333D01*
X94511904Y-74535714D01*
X94464285Y-74440476D01*
X94464285Y-74392857D01*
X94511904Y-74297619D01*
X94559523Y-74250000D01*
X94654761Y-74202380D01*
X94845238Y-74202380D01*
X94940476Y-74250000D01*
X94988095Y-74297619D01*
X95035714Y-74392857D01*
X95035714Y-74440476D01*
X94988095Y-74535714D01*
X94940476Y-74583333D01*
X94845238Y-74630952D01*
X94654761Y-74630952D01*
X94559523Y-74678571D01*
X94511904Y-74726190D01*
X94464285Y-74821428D01*
X94464285Y-75011904D01*
X94511904Y-75107142D01*
X94559523Y-75154761D01*
X94654761Y-75202380D01*
X94845238Y-75202380D01*
X94940476Y-75154761D01*
X94988095Y-75107142D01*
X95035714Y-75011904D01*
X95035714Y-74821428D01*
X94988095Y-74726190D01*
X94940476Y-74678571D01*
X94845238Y-74630952D01*
X30087142Y-96766666D02*
X30134761Y-96814285D01*
X30182380Y-96957142D01*
X30182380Y-97052380D01*
X30134761Y-97195238D01*
X30039523Y-97290476D01*
X29944285Y-97338095D01*
X29753809Y-97385714D01*
X29610952Y-97385714D01*
X29420476Y-97338095D01*
X29325238Y-97290476D01*
X29230000Y-97195238D01*
X29182380Y-97052380D01*
X29182380Y-96957142D01*
X29230000Y-96814285D01*
X29277619Y-96766666D01*
X29182380Y-95861904D02*
X29182380Y-96338095D01*
X29658571Y-96385714D01*
X29610952Y-96338095D01*
X29563333Y-96242857D01*
X29563333Y-96004761D01*
X29610952Y-95909523D01*
X29658571Y-95861904D01*
X29753809Y-95814285D01*
X29991904Y-95814285D01*
X30087142Y-95861904D01*
X30134761Y-95909523D01*
X30182380Y-96004761D01*
X30182380Y-96242857D01*
X30134761Y-96338095D01*
X30087142Y-96385714D01*
X73033333Y-66327142D02*
X72985714Y-66374761D01*
X72842857Y-66422380D01*
X72747619Y-66422380D01*
X72604761Y-66374761D01*
X72509523Y-66279523D01*
X72461904Y-66184285D01*
X72414285Y-65993809D01*
X72414285Y-65850952D01*
X72461904Y-65660476D01*
X72509523Y-65565238D01*
X72604761Y-65470000D01*
X72747619Y-65422380D01*
X72842857Y-65422380D01*
X72985714Y-65470000D01*
X73033333Y-65517619D01*
X73890476Y-65755714D02*
X73890476Y-66422380D01*
X73652380Y-65374761D02*
X73414285Y-66089047D01*
X74033333Y-66089047D01*
X50787142Y-50416666D02*
X50834761Y-50464285D01*
X50882380Y-50607142D01*
X50882380Y-50702380D01*
X50834761Y-50845238D01*
X50739523Y-50940476D01*
X50644285Y-50988095D01*
X50453809Y-51035714D01*
X50310952Y-51035714D01*
X50120476Y-50988095D01*
X50025238Y-50940476D01*
X49930000Y-50845238D01*
X49882380Y-50702380D01*
X49882380Y-50607142D01*
X49930000Y-50464285D01*
X49977619Y-50416666D01*
X49882380Y-50083333D02*
X49882380Y-49464285D01*
X50263333Y-49797619D01*
X50263333Y-49654761D01*
X50310952Y-49559523D01*
X50358571Y-49511904D01*
X50453809Y-49464285D01*
X50691904Y-49464285D01*
X50787142Y-49511904D01*
X50834761Y-49559523D01*
X50882380Y-49654761D01*
X50882380Y-49940476D01*
X50834761Y-50035714D01*
X50787142Y-50083333D01*
M02*
