G04 #@! TF.GenerationSoftware,KiCad,Pcbnew,(5.1.4-0-10_14)*
G04 #@! TF.CreationDate,2020-11-17T21:22:23+01:00*
G04 #@! TF.ProjectId,output_driver,6f757470-7574-45f6-9472-697665722e6b,rev?*
G04 #@! TF.SameCoordinates,Original*
G04 #@! TF.FileFunction,Soldermask,Top*
G04 #@! TF.FilePolarity,Negative*
%FSLAX46Y46*%
G04 Gerber Fmt 4.6, Leading zero omitted, Abs format (unit mm)*
G04 Created by KiCad (PCBNEW (5.1.4-0-10_14)) date 2020-11-17 21:22:23*
%MOMM*%
%LPD*%
G04 APERTURE LIST*
%ADD10C,0.100000*%
G04 APERTURE END LIST*
D10*
G36*
X120548156Y-110672794D02*
G01*
X121269140Y-110816206D01*
X122060972Y-111144193D01*
X122773601Y-111620357D01*
X123379643Y-112226399D01*
X123855807Y-112939028D01*
X124183794Y-113730860D01*
X124351000Y-114571464D01*
X124351000Y-115428536D01*
X124183794Y-116269140D01*
X123855807Y-117060972D01*
X123379643Y-117773601D01*
X122773601Y-118379643D01*
X122060972Y-118855807D01*
X121269140Y-119183794D01*
X120548156Y-119327206D01*
X120428537Y-119351000D01*
X119571463Y-119351000D01*
X119451844Y-119327206D01*
X118730860Y-119183794D01*
X117939028Y-118855807D01*
X117226399Y-118379643D01*
X116620357Y-117773601D01*
X116144193Y-117060972D01*
X115816206Y-116269140D01*
X115649000Y-115428536D01*
X115649000Y-114571464D01*
X115816206Y-113730860D01*
X116144193Y-112939028D01*
X116620357Y-112226399D01*
X117226399Y-111620357D01*
X117939028Y-111144193D01*
X118730860Y-110816206D01*
X119451844Y-110672794D01*
X119571463Y-110649000D01*
X120428537Y-110649000D01*
X120548156Y-110672794D01*
X120548156Y-110672794D01*
G37*
G36*
X60548156Y-110672794D02*
G01*
X61269140Y-110816206D01*
X62060972Y-111144193D01*
X62773601Y-111620357D01*
X63379643Y-112226399D01*
X63855807Y-112939028D01*
X64183794Y-113730860D01*
X64351000Y-114571464D01*
X64351000Y-115428536D01*
X64183794Y-116269140D01*
X63855807Y-117060972D01*
X63379643Y-117773601D01*
X62773601Y-118379643D01*
X62060972Y-118855807D01*
X61269140Y-119183794D01*
X60548156Y-119327206D01*
X60428537Y-119351000D01*
X59571463Y-119351000D01*
X59451844Y-119327206D01*
X58730860Y-119183794D01*
X57939028Y-118855807D01*
X57226399Y-118379643D01*
X56620357Y-117773601D01*
X56144193Y-117060972D01*
X55816206Y-116269140D01*
X55649000Y-115428536D01*
X55649000Y-114571464D01*
X55816206Y-113730860D01*
X56144193Y-112939028D01*
X56620357Y-112226399D01*
X57226399Y-111620357D01*
X57939028Y-111144193D01*
X58730860Y-110816206D01*
X59451844Y-110672794D01*
X59571463Y-110649000D01*
X60428537Y-110649000D01*
X60548156Y-110672794D01*
X60548156Y-110672794D01*
G37*
G36*
X105270443Y-114605519D02*
G01*
X105336627Y-114612037D01*
X105506466Y-114663557D01*
X105662991Y-114747222D01*
X105681836Y-114762688D01*
X105800186Y-114859814D01*
X105874737Y-114950656D01*
X105912778Y-114997009D01*
X105996443Y-115153534D01*
X106047963Y-115323373D01*
X106065359Y-115500000D01*
X106047963Y-115676627D01*
X105996443Y-115846466D01*
X105912778Y-116002991D01*
X105883448Y-116038729D01*
X105800186Y-116140186D01*
X105698729Y-116223448D01*
X105662991Y-116252778D01*
X105506466Y-116336443D01*
X105336627Y-116387963D01*
X105270443Y-116394481D01*
X105204260Y-116401000D01*
X105115740Y-116401000D01*
X105049557Y-116394481D01*
X104983373Y-116387963D01*
X104813534Y-116336443D01*
X104657009Y-116252778D01*
X104621271Y-116223448D01*
X104519814Y-116140186D01*
X104436552Y-116038729D01*
X104407222Y-116002991D01*
X104323557Y-115846466D01*
X104272037Y-115676627D01*
X104254641Y-115500000D01*
X104272037Y-115323373D01*
X104323557Y-115153534D01*
X104407222Y-114997009D01*
X104445263Y-114950656D01*
X104519814Y-114859814D01*
X104638164Y-114762688D01*
X104657009Y-114747222D01*
X104813534Y-114663557D01*
X104983373Y-114612037D01*
X105049557Y-114605519D01*
X105115740Y-114599000D01*
X105204260Y-114599000D01*
X105270443Y-114605519D01*
X105270443Y-114605519D01*
G37*
G36*
X102730443Y-114605519D02*
G01*
X102796627Y-114612037D01*
X102966466Y-114663557D01*
X103122991Y-114747222D01*
X103141836Y-114762688D01*
X103260186Y-114859814D01*
X103334737Y-114950656D01*
X103372778Y-114997009D01*
X103456443Y-115153534D01*
X103507963Y-115323373D01*
X103525359Y-115500000D01*
X103507963Y-115676627D01*
X103456443Y-115846466D01*
X103372778Y-116002991D01*
X103343448Y-116038729D01*
X103260186Y-116140186D01*
X103158729Y-116223448D01*
X103122991Y-116252778D01*
X102966466Y-116336443D01*
X102796627Y-116387963D01*
X102730443Y-116394481D01*
X102664260Y-116401000D01*
X102575740Y-116401000D01*
X102509557Y-116394481D01*
X102443373Y-116387963D01*
X102273534Y-116336443D01*
X102117009Y-116252778D01*
X102081271Y-116223448D01*
X101979814Y-116140186D01*
X101896552Y-116038729D01*
X101867222Y-116002991D01*
X101783557Y-115846466D01*
X101732037Y-115676627D01*
X101714641Y-115500000D01*
X101732037Y-115323373D01*
X101783557Y-115153534D01*
X101867222Y-114997009D01*
X101905263Y-114950656D01*
X101979814Y-114859814D01*
X102098164Y-114762688D01*
X102117009Y-114747222D01*
X102273534Y-114663557D01*
X102443373Y-114612037D01*
X102509557Y-114605519D01*
X102575740Y-114599000D01*
X102664260Y-114599000D01*
X102730443Y-114605519D01*
X102730443Y-114605519D01*
G37*
G36*
X100190443Y-114605519D02*
G01*
X100256627Y-114612037D01*
X100426466Y-114663557D01*
X100582991Y-114747222D01*
X100601836Y-114762688D01*
X100720186Y-114859814D01*
X100794737Y-114950656D01*
X100832778Y-114997009D01*
X100916443Y-115153534D01*
X100967963Y-115323373D01*
X100985359Y-115500000D01*
X100967963Y-115676627D01*
X100916443Y-115846466D01*
X100832778Y-116002991D01*
X100803448Y-116038729D01*
X100720186Y-116140186D01*
X100618729Y-116223448D01*
X100582991Y-116252778D01*
X100426466Y-116336443D01*
X100256627Y-116387963D01*
X100190443Y-116394481D01*
X100124260Y-116401000D01*
X100035740Y-116401000D01*
X99969557Y-116394481D01*
X99903373Y-116387963D01*
X99733534Y-116336443D01*
X99577009Y-116252778D01*
X99541271Y-116223448D01*
X99439814Y-116140186D01*
X99356552Y-116038729D01*
X99327222Y-116002991D01*
X99243557Y-115846466D01*
X99192037Y-115676627D01*
X99174641Y-115500000D01*
X99192037Y-115323373D01*
X99243557Y-115153534D01*
X99327222Y-114997009D01*
X99365263Y-114950656D01*
X99439814Y-114859814D01*
X99558164Y-114762688D01*
X99577009Y-114747222D01*
X99733534Y-114663557D01*
X99903373Y-114612037D01*
X99969557Y-114605519D01*
X100035740Y-114599000D01*
X100124260Y-114599000D01*
X100190443Y-114605519D01*
X100190443Y-114605519D01*
G37*
G36*
X97650443Y-114605519D02*
G01*
X97716627Y-114612037D01*
X97886466Y-114663557D01*
X98042991Y-114747222D01*
X98061836Y-114762688D01*
X98180186Y-114859814D01*
X98254737Y-114950656D01*
X98292778Y-114997009D01*
X98376443Y-115153534D01*
X98427963Y-115323373D01*
X98445359Y-115500000D01*
X98427963Y-115676627D01*
X98376443Y-115846466D01*
X98292778Y-116002991D01*
X98263448Y-116038729D01*
X98180186Y-116140186D01*
X98078729Y-116223448D01*
X98042991Y-116252778D01*
X97886466Y-116336443D01*
X97716627Y-116387963D01*
X97650443Y-116394481D01*
X97584260Y-116401000D01*
X97495740Y-116401000D01*
X97429557Y-116394481D01*
X97363373Y-116387963D01*
X97193534Y-116336443D01*
X97037009Y-116252778D01*
X97001271Y-116223448D01*
X96899814Y-116140186D01*
X96816552Y-116038729D01*
X96787222Y-116002991D01*
X96703557Y-115846466D01*
X96652037Y-115676627D01*
X96634641Y-115500000D01*
X96652037Y-115323373D01*
X96703557Y-115153534D01*
X96787222Y-114997009D01*
X96825263Y-114950656D01*
X96899814Y-114859814D01*
X97018164Y-114762688D01*
X97037009Y-114747222D01*
X97193534Y-114663557D01*
X97363373Y-114612037D01*
X97429557Y-114605519D01*
X97495740Y-114599000D01*
X97584260Y-114599000D01*
X97650443Y-114605519D01*
X97650443Y-114605519D01*
G37*
G36*
X95901000Y-116401000D02*
G01*
X94099000Y-116401000D01*
X94099000Y-114599000D01*
X95901000Y-114599000D01*
X95901000Y-116401000D01*
X95901000Y-116401000D01*
G37*
G36*
X113629487Y-108748996D02*
G01*
X113866253Y-108847068D01*
X113866255Y-108847069D01*
X114079339Y-108989447D01*
X114260553Y-109170661D01*
X114394531Y-109371173D01*
X114402932Y-109383747D01*
X114501004Y-109620513D01*
X114551000Y-109871861D01*
X114551000Y-110128139D01*
X114501004Y-110379487D01*
X114411416Y-110595770D01*
X114402931Y-110616255D01*
X114260553Y-110829339D01*
X114079339Y-111010553D01*
X113866255Y-111152931D01*
X113866254Y-111152932D01*
X113866253Y-111152932D01*
X113629487Y-111251004D01*
X113378139Y-111301000D01*
X113121861Y-111301000D01*
X112870513Y-111251004D01*
X112633747Y-111152932D01*
X112633746Y-111152932D01*
X112633745Y-111152931D01*
X112420661Y-111010553D01*
X112239447Y-110829339D01*
X112097069Y-110616255D01*
X112088584Y-110595770D01*
X111998996Y-110379487D01*
X111949000Y-110128139D01*
X111949000Y-109871861D01*
X111998996Y-109620513D01*
X112097068Y-109383747D01*
X112105470Y-109371173D01*
X112239447Y-109170661D01*
X112420661Y-108989447D01*
X112633745Y-108847069D01*
X112633747Y-108847068D01*
X112870513Y-108748996D01*
X113121861Y-108699000D01*
X113378139Y-108699000D01*
X113629487Y-108748996D01*
X113629487Y-108748996D01*
G37*
G36*
X71188674Y-109103465D02*
G01*
X71226367Y-109114899D01*
X71261103Y-109133466D01*
X71291548Y-109158452D01*
X71316534Y-109188897D01*
X71335101Y-109223633D01*
X71346535Y-109261326D01*
X71351000Y-109306661D01*
X71351000Y-110393339D01*
X71346535Y-110438674D01*
X71335101Y-110476367D01*
X71316534Y-110511103D01*
X71291548Y-110541548D01*
X71261103Y-110566534D01*
X71226367Y-110585101D01*
X71188674Y-110596535D01*
X71143339Y-110601000D01*
X70306661Y-110601000D01*
X70261326Y-110596535D01*
X70223633Y-110585101D01*
X70188897Y-110566534D01*
X70158452Y-110541548D01*
X70133466Y-110511103D01*
X70114899Y-110476367D01*
X70103465Y-110438674D01*
X70099000Y-110393339D01*
X70099000Y-109306661D01*
X70103465Y-109261326D01*
X70114899Y-109223633D01*
X70133466Y-109188897D01*
X70158452Y-109158452D01*
X70188897Y-109133466D01*
X70223633Y-109114899D01*
X70261326Y-109103465D01*
X70306661Y-109099000D01*
X71143339Y-109099000D01*
X71188674Y-109103465D01*
X71188674Y-109103465D01*
G37*
G36*
X73238674Y-109103465D02*
G01*
X73276367Y-109114899D01*
X73311103Y-109133466D01*
X73341548Y-109158452D01*
X73366534Y-109188897D01*
X73385101Y-109223633D01*
X73396535Y-109261326D01*
X73401000Y-109306661D01*
X73401000Y-110393339D01*
X73396535Y-110438674D01*
X73385101Y-110476367D01*
X73366534Y-110511103D01*
X73341548Y-110541548D01*
X73311103Y-110566534D01*
X73276367Y-110585101D01*
X73238674Y-110596535D01*
X73193339Y-110601000D01*
X72356661Y-110601000D01*
X72311326Y-110596535D01*
X72273633Y-110585101D01*
X72238897Y-110566534D01*
X72208452Y-110541548D01*
X72183466Y-110511103D01*
X72164899Y-110476367D01*
X72153465Y-110438674D01*
X72149000Y-110393339D01*
X72149000Y-109306661D01*
X72153465Y-109261326D01*
X72164899Y-109223633D01*
X72183466Y-109188897D01*
X72208452Y-109158452D01*
X72238897Y-109133466D01*
X72273633Y-109114899D01*
X72311326Y-109103465D01*
X72356661Y-109099000D01*
X73193339Y-109099000D01*
X73238674Y-109103465D01*
X73238674Y-109103465D01*
G37*
G36*
X79438674Y-109103465D02*
G01*
X79476367Y-109114899D01*
X79511103Y-109133466D01*
X79541548Y-109158452D01*
X79566534Y-109188897D01*
X79585101Y-109223633D01*
X79596535Y-109261326D01*
X79601000Y-109306661D01*
X79601000Y-110393339D01*
X79596535Y-110438674D01*
X79585101Y-110476367D01*
X79566534Y-110511103D01*
X79541548Y-110541548D01*
X79511103Y-110566534D01*
X79476367Y-110585101D01*
X79438674Y-110596535D01*
X79393339Y-110601000D01*
X78556661Y-110601000D01*
X78511326Y-110596535D01*
X78473633Y-110585101D01*
X78438897Y-110566534D01*
X78408452Y-110541548D01*
X78383466Y-110511103D01*
X78364899Y-110476367D01*
X78353465Y-110438674D01*
X78349000Y-110393339D01*
X78349000Y-109306661D01*
X78353465Y-109261326D01*
X78364899Y-109223633D01*
X78383466Y-109188897D01*
X78408452Y-109158452D01*
X78438897Y-109133466D01*
X78473633Y-109114899D01*
X78511326Y-109103465D01*
X78556661Y-109099000D01*
X79393339Y-109099000D01*
X79438674Y-109103465D01*
X79438674Y-109103465D01*
G37*
G36*
X81488674Y-109103465D02*
G01*
X81526367Y-109114899D01*
X81561103Y-109133466D01*
X81591548Y-109158452D01*
X81616534Y-109188897D01*
X81635101Y-109223633D01*
X81646535Y-109261326D01*
X81651000Y-109306661D01*
X81651000Y-110393339D01*
X81646535Y-110438674D01*
X81635101Y-110476367D01*
X81616534Y-110511103D01*
X81591548Y-110541548D01*
X81561103Y-110566534D01*
X81526367Y-110585101D01*
X81488674Y-110596535D01*
X81443339Y-110601000D01*
X80606661Y-110601000D01*
X80561326Y-110596535D01*
X80523633Y-110585101D01*
X80488897Y-110566534D01*
X80458452Y-110541548D01*
X80433466Y-110511103D01*
X80414899Y-110476367D01*
X80403465Y-110438674D01*
X80399000Y-110393339D01*
X80399000Y-109306661D01*
X80403465Y-109261326D01*
X80414899Y-109223633D01*
X80433466Y-109188897D01*
X80458452Y-109158452D01*
X80488897Y-109133466D01*
X80523633Y-109114899D01*
X80561326Y-109103465D01*
X80606661Y-109099000D01*
X81443339Y-109099000D01*
X81488674Y-109103465D01*
X81488674Y-109103465D01*
G37*
G36*
X59401000Y-109151000D02*
G01*
X57599000Y-109151000D01*
X57599000Y-107349000D01*
X59401000Y-107349000D01*
X59401000Y-109151000D01*
X59401000Y-109151000D01*
G37*
G36*
X71188674Y-105853465D02*
G01*
X71226367Y-105864899D01*
X71261103Y-105883466D01*
X71291548Y-105908452D01*
X71316534Y-105938897D01*
X71335101Y-105973633D01*
X71346535Y-106011326D01*
X71351000Y-106056661D01*
X71351000Y-107143339D01*
X71346535Y-107188674D01*
X71335101Y-107226367D01*
X71316534Y-107261103D01*
X71291548Y-107291548D01*
X71261103Y-107316534D01*
X71226367Y-107335101D01*
X71188674Y-107346535D01*
X71143339Y-107351000D01*
X70306661Y-107351000D01*
X70261326Y-107346535D01*
X70223633Y-107335101D01*
X70188897Y-107316534D01*
X70158452Y-107291548D01*
X70133466Y-107261103D01*
X70114899Y-107226367D01*
X70103465Y-107188674D01*
X70099000Y-107143339D01*
X70099000Y-106056661D01*
X70103465Y-106011326D01*
X70114899Y-105973633D01*
X70133466Y-105938897D01*
X70158452Y-105908452D01*
X70188897Y-105883466D01*
X70223633Y-105864899D01*
X70261326Y-105853465D01*
X70306661Y-105849000D01*
X71143339Y-105849000D01*
X71188674Y-105853465D01*
X71188674Y-105853465D01*
G37*
G36*
X73238674Y-105853465D02*
G01*
X73276367Y-105864899D01*
X73311103Y-105883466D01*
X73341548Y-105908452D01*
X73366534Y-105938897D01*
X73385101Y-105973633D01*
X73396535Y-106011326D01*
X73401000Y-106056661D01*
X73401000Y-107143339D01*
X73396535Y-107188674D01*
X73385101Y-107226367D01*
X73366534Y-107261103D01*
X73341548Y-107291548D01*
X73311103Y-107316534D01*
X73276367Y-107335101D01*
X73238674Y-107346535D01*
X73193339Y-107351000D01*
X72356661Y-107351000D01*
X72311326Y-107346535D01*
X72273633Y-107335101D01*
X72238897Y-107316534D01*
X72208452Y-107291548D01*
X72183466Y-107261103D01*
X72164899Y-107226367D01*
X72153465Y-107188674D01*
X72149000Y-107143339D01*
X72149000Y-106056661D01*
X72153465Y-106011326D01*
X72164899Y-105973633D01*
X72183466Y-105938897D01*
X72208452Y-105908452D01*
X72238897Y-105883466D01*
X72273633Y-105864899D01*
X72311326Y-105853465D01*
X72356661Y-105849000D01*
X73193339Y-105849000D01*
X73238674Y-105853465D01*
X73238674Y-105853465D01*
G37*
G36*
X79438674Y-105853465D02*
G01*
X79476367Y-105864899D01*
X79511103Y-105883466D01*
X79541548Y-105908452D01*
X79566534Y-105938897D01*
X79585101Y-105973633D01*
X79596535Y-106011326D01*
X79601000Y-106056661D01*
X79601000Y-107143339D01*
X79596535Y-107188674D01*
X79585101Y-107226367D01*
X79566534Y-107261103D01*
X79541548Y-107291548D01*
X79511103Y-107316534D01*
X79476367Y-107335101D01*
X79438674Y-107346535D01*
X79393339Y-107351000D01*
X78556661Y-107351000D01*
X78511326Y-107346535D01*
X78473633Y-107335101D01*
X78438897Y-107316534D01*
X78408452Y-107291548D01*
X78383466Y-107261103D01*
X78364899Y-107226367D01*
X78353465Y-107188674D01*
X78349000Y-107143339D01*
X78349000Y-106056661D01*
X78353465Y-106011326D01*
X78364899Y-105973633D01*
X78383466Y-105938897D01*
X78408452Y-105908452D01*
X78438897Y-105883466D01*
X78473633Y-105864899D01*
X78511326Y-105853465D01*
X78556661Y-105849000D01*
X79393339Y-105849000D01*
X79438674Y-105853465D01*
X79438674Y-105853465D01*
G37*
G36*
X81488674Y-105853465D02*
G01*
X81526367Y-105864899D01*
X81561103Y-105883466D01*
X81591548Y-105908452D01*
X81616534Y-105938897D01*
X81635101Y-105973633D01*
X81646535Y-106011326D01*
X81651000Y-106056661D01*
X81651000Y-107143339D01*
X81646535Y-107188674D01*
X81635101Y-107226367D01*
X81616534Y-107261103D01*
X81591548Y-107291548D01*
X81561103Y-107316534D01*
X81526367Y-107335101D01*
X81488674Y-107346535D01*
X81443339Y-107351000D01*
X80606661Y-107351000D01*
X80561326Y-107346535D01*
X80523633Y-107335101D01*
X80488897Y-107316534D01*
X80458452Y-107291548D01*
X80433466Y-107261103D01*
X80414899Y-107226367D01*
X80403465Y-107188674D01*
X80399000Y-107143339D01*
X80399000Y-106056661D01*
X80403465Y-106011326D01*
X80414899Y-105973633D01*
X80433466Y-105938897D01*
X80458452Y-105908452D01*
X80488897Y-105883466D01*
X80523633Y-105864899D01*
X80561326Y-105853465D01*
X80606661Y-105849000D01*
X81443339Y-105849000D01*
X81488674Y-105853465D01*
X81488674Y-105853465D01*
G37*
G36*
X58610442Y-104815518D02*
G01*
X58676627Y-104822037D01*
X58846466Y-104873557D01*
X59002991Y-104957222D01*
X59038729Y-104986552D01*
X59140186Y-105069814D01*
X59223448Y-105171271D01*
X59252778Y-105207009D01*
X59336443Y-105363534D01*
X59387963Y-105533373D01*
X59405359Y-105710000D01*
X59387963Y-105886627D01*
X59336443Y-106056466D01*
X59252778Y-106212991D01*
X59223448Y-106248729D01*
X59140186Y-106350186D01*
X59038729Y-106433448D01*
X59002991Y-106462778D01*
X58846466Y-106546443D01*
X58676627Y-106597963D01*
X58610442Y-106604482D01*
X58544260Y-106611000D01*
X58455740Y-106611000D01*
X58389558Y-106604482D01*
X58323373Y-106597963D01*
X58153534Y-106546443D01*
X57997009Y-106462778D01*
X57961271Y-106433448D01*
X57859814Y-106350186D01*
X57776552Y-106248729D01*
X57747222Y-106212991D01*
X57663557Y-106056466D01*
X57612037Y-105886627D01*
X57594641Y-105710000D01*
X57612037Y-105533373D01*
X57663557Y-105363534D01*
X57747222Y-105207009D01*
X57776552Y-105171271D01*
X57859814Y-105069814D01*
X57961271Y-104986552D01*
X57997009Y-104957222D01*
X58153534Y-104873557D01*
X58323373Y-104822037D01*
X58389558Y-104815518D01*
X58455740Y-104809000D01*
X58544260Y-104809000D01*
X58610442Y-104815518D01*
X58610442Y-104815518D01*
G37*
G36*
X115974928Y-102076764D02*
G01*
X115996009Y-102083160D01*
X116015445Y-102093548D01*
X116032476Y-102107524D01*
X116046452Y-102124555D01*
X116056840Y-102143991D01*
X116063236Y-102165072D01*
X116066000Y-102193140D01*
X116066000Y-104106860D01*
X116063236Y-104134928D01*
X116056840Y-104156009D01*
X116046452Y-104175445D01*
X116032476Y-104192476D01*
X116015445Y-104206452D01*
X115996009Y-104216840D01*
X115974928Y-104223236D01*
X115946860Y-104226000D01*
X115483140Y-104226000D01*
X115455072Y-104223236D01*
X115433991Y-104216840D01*
X115414555Y-104206452D01*
X115397524Y-104192476D01*
X115383548Y-104175445D01*
X115373160Y-104156009D01*
X115366764Y-104134928D01*
X115364000Y-104106860D01*
X115364000Y-102193140D01*
X115366764Y-102165072D01*
X115373160Y-102143991D01*
X115383548Y-102124555D01*
X115397524Y-102107524D01*
X115414555Y-102093548D01*
X115433991Y-102083160D01*
X115455072Y-102076764D01*
X115483140Y-102074000D01*
X115946860Y-102074000D01*
X115974928Y-102076764D01*
X115974928Y-102076764D01*
G37*
G36*
X110894928Y-102076764D02*
G01*
X110916009Y-102083160D01*
X110935445Y-102093548D01*
X110952476Y-102107524D01*
X110966452Y-102124555D01*
X110976840Y-102143991D01*
X110983236Y-102165072D01*
X110986000Y-102193140D01*
X110986000Y-104106860D01*
X110983236Y-104134928D01*
X110976840Y-104156009D01*
X110966452Y-104175445D01*
X110952476Y-104192476D01*
X110935445Y-104206452D01*
X110916009Y-104216840D01*
X110894928Y-104223236D01*
X110866860Y-104226000D01*
X110403140Y-104226000D01*
X110375072Y-104223236D01*
X110353991Y-104216840D01*
X110334555Y-104206452D01*
X110317524Y-104192476D01*
X110303548Y-104175445D01*
X110293160Y-104156009D01*
X110286764Y-104134928D01*
X110284000Y-104106860D01*
X110284000Y-102193140D01*
X110286764Y-102165072D01*
X110293160Y-102143991D01*
X110303548Y-102124555D01*
X110317524Y-102107524D01*
X110334555Y-102093548D01*
X110353991Y-102083160D01*
X110375072Y-102076764D01*
X110403140Y-102074000D01*
X110866860Y-102074000D01*
X110894928Y-102076764D01*
X110894928Y-102076764D01*
G37*
G36*
X112164928Y-102076764D02*
G01*
X112186009Y-102083160D01*
X112205445Y-102093548D01*
X112222476Y-102107524D01*
X112236452Y-102124555D01*
X112246840Y-102143991D01*
X112253236Y-102165072D01*
X112256000Y-102193140D01*
X112256000Y-104106860D01*
X112253236Y-104134928D01*
X112246840Y-104156009D01*
X112236452Y-104175445D01*
X112222476Y-104192476D01*
X112205445Y-104206452D01*
X112186009Y-104216840D01*
X112164928Y-104223236D01*
X112136860Y-104226000D01*
X111673140Y-104226000D01*
X111645072Y-104223236D01*
X111623991Y-104216840D01*
X111604555Y-104206452D01*
X111587524Y-104192476D01*
X111573548Y-104175445D01*
X111563160Y-104156009D01*
X111556764Y-104134928D01*
X111554000Y-104106860D01*
X111554000Y-102193140D01*
X111556764Y-102165072D01*
X111563160Y-102143991D01*
X111573548Y-102124555D01*
X111587524Y-102107524D01*
X111604555Y-102093548D01*
X111623991Y-102083160D01*
X111645072Y-102076764D01*
X111673140Y-102074000D01*
X112136860Y-102074000D01*
X112164928Y-102076764D01*
X112164928Y-102076764D01*
G37*
G36*
X113434928Y-102076764D02*
G01*
X113456009Y-102083160D01*
X113475445Y-102093548D01*
X113492476Y-102107524D01*
X113506452Y-102124555D01*
X113516840Y-102143991D01*
X113523236Y-102165072D01*
X113526000Y-102193140D01*
X113526000Y-104106860D01*
X113523236Y-104134928D01*
X113516840Y-104156009D01*
X113506452Y-104175445D01*
X113492476Y-104192476D01*
X113475445Y-104206452D01*
X113456009Y-104216840D01*
X113434928Y-104223236D01*
X113406860Y-104226000D01*
X112943140Y-104226000D01*
X112915072Y-104223236D01*
X112893991Y-104216840D01*
X112874555Y-104206452D01*
X112857524Y-104192476D01*
X112843548Y-104175445D01*
X112833160Y-104156009D01*
X112826764Y-104134928D01*
X112824000Y-104106860D01*
X112824000Y-102193140D01*
X112826764Y-102165072D01*
X112833160Y-102143991D01*
X112843548Y-102124555D01*
X112857524Y-102107524D01*
X112874555Y-102093548D01*
X112893991Y-102083160D01*
X112915072Y-102076764D01*
X112943140Y-102074000D01*
X113406860Y-102074000D01*
X113434928Y-102076764D01*
X113434928Y-102076764D01*
G37*
G36*
X114704928Y-102076764D02*
G01*
X114726009Y-102083160D01*
X114745445Y-102093548D01*
X114762476Y-102107524D01*
X114776452Y-102124555D01*
X114786840Y-102143991D01*
X114793236Y-102165072D01*
X114796000Y-102193140D01*
X114796000Y-104106860D01*
X114793236Y-104134928D01*
X114786840Y-104156009D01*
X114776452Y-104175445D01*
X114762476Y-104192476D01*
X114745445Y-104206452D01*
X114726009Y-104216840D01*
X114704928Y-104223236D01*
X114676860Y-104226000D01*
X114213140Y-104226000D01*
X114185072Y-104223236D01*
X114163991Y-104216840D01*
X114144555Y-104206452D01*
X114127524Y-104192476D01*
X114113548Y-104175445D01*
X114103160Y-104156009D01*
X114096764Y-104134928D01*
X114094000Y-104106860D01*
X114094000Y-102193140D01*
X114096764Y-102165072D01*
X114103160Y-102143991D01*
X114113548Y-102124555D01*
X114127524Y-102107524D01*
X114144555Y-102093548D01*
X114163991Y-102083160D01*
X114185072Y-102076764D01*
X114213140Y-102074000D01*
X114676860Y-102074000D01*
X114704928Y-102076764D01*
X114704928Y-102076764D01*
G37*
G36*
X107084928Y-102076764D02*
G01*
X107106009Y-102083160D01*
X107125445Y-102093548D01*
X107142476Y-102107524D01*
X107156452Y-102124555D01*
X107166840Y-102143991D01*
X107173236Y-102165072D01*
X107176000Y-102193140D01*
X107176000Y-104106860D01*
X107173236Y-104134928D01*
X107166840Y-104156009D01*
X107156452Y-104175445D01*
X107142476Y-104192476D01*
X107125445Y-104206452D01*
X107106009Y-104216840D01*
X107084928Y-104223236D01*
X107056860Y-104226000D01*
X106593140Y-104226000D01*
X106565072Y-104223236D01*
X106543991Y-104216840D01*
X106524555Y-104206452D01*
X106507524Y-104192476D01*
X106493548Y-104175445D01*
X106483160Y-104156009D01*
X106476764Y-104134928D01*
X106474000Y-104106860D01*
X106474000Y-102193140D01*
X106476764Y-102165072D01*
X106483160Y-102143991D01*
X106493548Y-102124555D01*
X106507524Y-102107524D01*
X106524555Y-102093548D01*
X106543991Y-102083160D01*
X106565072Y-102076764D01*
X106593140Y-102074000D01*
X107056860Y-102074000D01*
X107084928Y-102076764D01*
X107084928Y-102076764D01*
G37*
G36*
X105814928Y-102076764D02*
G01*
X105836009Y-102083160D01*
X105855445Y-102093548D01*
X105872476Y-102107524D01*
X105886452Y-102124555D01*
X105896840Y-102143991D01*
X105903236Y-102165072D01*
X105906000Y-102193140D01*
X105906000Y-104106860D01*
X105903236Y-104134928D01*
X105896840Y-104156009D01*
X105886452Y-104175445D01*
X105872476Y-104192476D01*
X105855445Y-104206452D01*
X105836009Y-104216840D01*
X105814928Y-104223236D01*
X105786860Y-104226000D01*
X105323140Y-104226000D01*
X105295072Y-104223236D01*
X105273991Y-104216840D01*
X105254555Y-104206452D01*
X105237524Y-104192476D01*
X105223548Y-104175445D01*
X105213160Y-104156009D01*
X105206764Y-104134928D01*
X105204000Y-104106860D01*
X105204000Y-102193140D01*
X105206764Y-102165072D01*
X105213160Y-102143991D01*
X105223548Y-102124555D01*
X105237524Y-102107524D01*
X105254555Y-102093548D01*
X105273991Y-102083160D01*
X105295072Y-102076764D01*
X105323140Y-102074000D01*
X105786860Y-102074000D01*
X105814928Y-102076764D01*
X105814928Y-102076764D01*
G37*
G36*
X109624928Y-102076764D02*
G01*
X109646009Y-102083160D01*
X109665445Y-102093548D01*
X109682476Y-102107524D01*
X109696452Y-102124555D01*
X109706840Y-102143991D01*
X109713236Y-102165072D01*
X109716000Y-102193140D01*
X109716000Y-104106860D01*
X109713236Y-104134928D01*
X109706840Y-104156009D01*
X109696452Y-104175445D01*
X109682476Y-104192476D01*
X109665445Y-104206452D01*
X109646009Y-104216840D01*
X109624928Y-104223236D01*
X109596860Y-104226000D01*
X109133140Y-104226000D01*
X109105072Y-104223236D01*
X109083991Y-104216840D01*
X109064555Y-104206452D01*
X109047524Y-104192476D01*
X109033548Y-104175445D01*
X109023160Y-104156009D01*
X109016764Y-104134928D01*
X109014000Y-104106860D01*
X109014000Y-102193140D01*
X109016764Y-102165072D01*
X109023160Y-102143991D01*
X109033548Y-102124555D01*
X109047524Y-102107524D01*
X109064555Y-102093548D01*
X109083991Y-102083160D01*
X109105072Y-102076764D01*
X109133140Y-102074000D01*
X109596860Y-102074000D01*
X109624928Y-102076764D01*
X109624928Y-102076764D01*
G37*
G36*
X104544928Y-102076764D02*
G01*
X104566009Y-102083160D01*
X104585445Y-102093548D01*
X104602476Y-102107524D01*
X104616452Y-102124555D01*
X104626840Y-102143991D01*
X104633236Y-102165072D01*
X104636000Y-102193140D01*
X104636000Y-104106860D01*
X104633236Y-104134928D01*
X104626840Y-104156009D01*
X104616452Y-104175445D01*
X104602476Y-104192476D01*
X104585445Y-104206452D01*
X104566009Y-104216840D01*
X104544928Y-104223236D01*
X104516860Y-104226000D01*
X104053140Y-104226000D01*
X104025072Y-104223236D01*
X104003991Y-104216840D01*
X103984555Y-104206452D01*
X103967524Y-104192476D01*
X103953548Y-104175445D01*
X103943160Y-104156009D01*
X103936764Y-104134928D01*
X103934000Y-104106860D01*
X103934000Y-102193140D01*
X103936764Y-102165072D01*
X103943160Y-102143991D01*
X103953548Y-102124555D01*
X103967524Y-102107524D01*
X103984555Y-102093548D01*
X104003991Y-102083160D01*
X104025072Y-102076764D01*
X104053140Y-102074000D01*
X104516860Y-102074000D01*
X104544928Y-102076764D01*
X104544928Y-102076764D01*
G37*
G36*
X108354928Y-102076764D02*
G01*
X108376009Y-102083160D01*
X108395445Y-102093548D01*
X108412476Y-102107524D01*
X108426452Y-102124555D01*
X108436840Y-102143991D01*
X108443236Y-102165072D01*
X108446000Y-102193140D01*
X108446000Y-104106860D01*
X108443236Y-104134928D01*
X108436840Y-104156009D01*
X108426452Y-104175445D01*
X108412476Y-104192476D01*
X108395445Y-104206452D01*
X108376009Y-104216840D01*
X108354928Y-104223236D01*
X108326860Y-104226000D01*
X107863140Y-104226000D01*
X107835072Y-104223236D01*
X107813991Y-104216840D01*
X107794555Y-104206452D01*
X107777524Y-104192476D01*
X107763548Y-104175445D01*
X107753160Y-104156009D01*
X107746764Y-104134928D01*
X107744000Y-104106860D01*
X107744000Y-102193140D01*
X107746764Y-102165072D01*
X107753160Y-102143991D01*
X107763548Y-102124555D01*
X107777524Y-102107524D01*
X107794555Y-102093548D01*
X107813991Y-102083160D01*
X107835072Y-102076764D01*
X107863140Y-102074000D01*
X108326860Y-102074000D01*
X108354928Y-102076764D01*
X108354928Y-102076764D01*
G37*
G36*
X73238674Y-102603465D02*
G01*
X73276367Y-102614899D01*
X73311103Y-102633466D01*
X73341548Y-102658452D01*
X73366534Y-102688897D01*
X73385101Y-102723633D01*
X73396535Y-102761326D01*
X73401000Y-102806661D01*
X73401000Y-103893339D01*
X73396535Y-103938674D01*
X73385101Y-103976367D01*
X73366534Y-104011103D01*
X73341548Y-104041548D01*
X73311103Y-104066534D01*
X73276367Y-104085101D01*
X73238674Y-104096535D01*
X73193339Y-104101000D01*
X72356661Y-104101000D01*
X72311326Y-104096535D01*
X72273633Y-104085101D01*
X72238897Y-104066534D01*
X72208452Y-104041548D01*
X72183466Y-104011103D01*
X72164899Y-103976367D01*
X72153465Y-103938674D01*
X72149000Y-103893339D01*
X72149000Y-102806661D01*
X72153465Y-102761326D01*
X72164899Y-102723633D01*
X72183466Y-102688897D01*
X72208452Y-102658452D01*
X72238897Y-102633466D01*
X72273633Y-102614899D01*
X72311326Y-102603465D01*
X72356661Y-102599000D01*
X73193339Y-102599000D01*
X73238674Y-102603465D01*
X73238674Y-102603465D01*
G37*
G36*
X71188674Y-102603465D02*
G01*
X71226367Y-102614899D01*
X71261103Y-102633466D01*
X71291548Y-102658452D01*
X71316534Y-102688897D01*
X71335101Y-102723633D01*
X71346535Y-102761326D01*
X71351000Y-102806661D01*
X71351000Y-103893339D01*
X71346535Y-103938674D01*
X71335101Y-103976367D01*
X71316534Y-104011103D01*
X71291548Y-104041548D01*
X71261103Y-104066534D01*
X71226367Y-104085101D01*
X71188674Y-104096535D01*
X71143339Y-104101000D01*
X70306661Y-104101000D01*
X70261326Y-104096535D01*
X70223633Y-104085101D01*
X70188897Y-104066534D01*
X70158452Y-104041548D01*
X70133466Y-104011103D01*
X70114899Y-103976367D01*
X70103465Y-103938674D01*
X70099000Y-103893339D01*
X70099000Y-102806661D01*
X70103465Y-102761326D01*
X70114899Y-102723633D01*
X70133466Y-102688897D01*
X70158452Y-102658452D01*
X70188897Y-102633466D01*
X70223633Y-102614899D01*
X70261326Y-102603465D01*
X70306661Y-102599000D01*
X71143339Y-102599000D01*
X71188674Y-102603465D01*
X71188674Y-102603465D01*
G37*
G36*
X79438674Y-102603465D02*
G01*
X79476367Y-102614899D01*
X79511103Y-102633466D01*
X79541548Y-102658452D01*
X79566534Y-102688897D01*
X79585101Y-102723633D01*
X79596535Y-102761326D01*
X79601000Y-102806661D01*
X79601000Y-103893339D01*
X79596535Y-103938674D01*
X79585101Y-103976367D01*
X79566534Y-104011103D01*
X79541548Y-104041548D01*
X79511103Y-104066534D01*
X79476367Y-104085101D01*
X79438674Y-104096535D01*
X79393339Y-104101000D01*
X78556661Y-104101000D01*
X78511326Y-104096535D01*
X78473633Y-104085101D01*
X78438897Y-104066534D01*
X78408452Y-104041548D01*
X78383466Y-104011103D01*
X78364899Y-103976367D01*
X78353465Y-103938674D01*
X78349000Y-103893339D01*
X78349000Y-102806661D01*
X78353465Y-102761326D01*
X78364899Y-102723633D01*
X78383466Y-102688897D01*
X78408452Y-102658452D01*
X78438897Y-102633466D01*
X78473633Y-102614899D01*
X78511326Y-102603465D01*
X78556661Y-102599000D01*
X79393339Y-102599000D01*
X79438674Y-102603465D01*
X79438674Y-102603465D01*
G37*
G36*
X81488674Y-102603465D02*
G01*
X81526367Y-102614899D01*
X81561103Y-102633466D01*
X81591548Y-102658452D01*
X81616534Y-102688897D01*
X81635101Y-102723633D01*
X81646535Y-102761326D01*
X81651000Y-102806661D01*
X81651000Y-103893339D01*
X81646535Y-103938674D01*
X81635101Y-103976367D01*
X81616534Y-104011103D01*
X81591548Y-104041548D01*
X81561103Y-104066534D01*
X81526367Y-104085101D01*
X81488674Y-104096535D01*
X81443339Y-104101000D01*
X80606661Y-104101000D01*
X80561326Y-104096535D01*
X80523633Y-104085101D01*
X80488897Y-104066534D01*
X80458452Y-104041548D01*
X80433466Y-104011103D01*
X80414899Y-103976367D01*
X80403465Y-103938674D01*
X80399000Y-103893339D01*
X80399000Y-102806661D01*
X80403465Y-102761326D01*
X80414899Y-102723633D01*
X80433466Y-102688897D01*
X80458452Y-102658452D01*
X80488897Y-102633466D01*
X80523633Y-102614899D01*
X80561326Y-102603465D01*
X80606661Y-102599000D01*
X81443339Y-102599000D01*
X81488674Y-102603465D01*
X81488674Y-102603465D01*
G37*
G36*
X59401000Y-102901000D02*
G01*
X57599000Y-102901000D01*
X57599000Y-101099000D01*
X59401000Y-101099000D01*
X59401000Y-102901000D01*
X59401000Y-102901000D01*
G37*
G36*
X73238674Y-99353465D02*
G01*
X73276367Y-99364899D01*
X73311103Y-99383466D01*
X73341548Y-99408452D01*
X73366534Y-99438897D01*
X73385101Y-99473633D01*
X73396535Y-99511326D01*
X73401000Y-99556661D01*
X73401000Y-100643339D01*
X73396535Y-100688674D01*
X73385101Y-100726367D01*
X73366534Y-100761103D01*
X73341548Y-100791548D01*
X73311103Y-100816534D01*
X73276367Y-100835101D01*
X73238674Y-100846535D01*
X73193339Y-100851000D01*
X72356661Y-100851000D01*
X72311326Y-100846535D01*
X72273633Y-100835101D01*
X72238897Y-100816534D01*
X72208452Y-100791548D01*
X72183466Y-100761103D01*
X72164899Y-100726367D01*
X72153465Y-100688674D01*
X72149000Y-100643339D01*
X72149000Y-99556661D01*
X72153465Y-99511326D01*
X72164899Y-99473633D01*
X72183466Y-99438897D01*
X72208452Y-99408452D01*
X72238897Y-99383466D01*
X72273633Y-99364899D01*
X72311326Y-99353465D01*
X72356661Y-99349000D01*
X73193339Y-99349000D01*
X73238674Y-99353465D01*
X73238674Y-99353465D01*
G37*
G36*
X71188674Y-99353465D02*
G01*
X71226367Y-99364899D01*
X71261103Y-99383466D01*
X71291548Y-99408452D01*
X71316534Y-99438897D01*
X71335101Y-99473633D01*
X71346535Y-99511326D01*
X71351000Y-99556661D01*
X71351000Y-100643339D01*
X71346535Y-100688674D01*
X71335101Y-100726367D01*
X71316534Y-100761103D01*
X71291548Y-100791548D01*
X71261103Y-100816534D01*
X71226367Y-100835101D01*
X71188674Y-100846535D01*
X71143339Y-100851000D01*
X70306661Y-100851000D01*
X70261326Y-100846535D01*
X70223633Y-100835101D01*
X70188897Y-100816534D01*
X70158452Y-100791548D01*
X70133466Y-100761103D01*
X70114899Y-100726367D01*
X70103465Y-100688674D01*
X70099000Y-100643339D01*
X70099000Y-99556661D01*
X70103465Y-99511326D01*
X70114899Y-99473633D01*
X70133466Y-99438897D01*
X70158452Y-99408452D01*
X70188897Y-99383466D01*
X70223633Y-99364899D01*
X70261326Y-99353465D01*
X70306661Y-99349000D01*
X71143339Y-99349000D01*
X71188674Y-99353465D01*
X71188674Y-99353465D01*
G37*
G36*
X79438674Y-99353465D02*
G01*
X79476367Y-99364899D01*
X79511103Y-99383466D01*
X79541548Y-99408452D01*
X79566534Y-99438897D01*
X79585101Y-99473633D01*
X79596535Y-99511326D01*
X79601000Y-99556661D01*
X79601000Y-100643339D01*
X79596535Y-100688674D01*
X79585101Y-100726367D01*
X79566534Y-100761103D01*
X79541548Y-100791548D01*
X79511103Y-100816534D01*
X79476367Y-100835101D01*
X79438674Y-100846535D01*
X79393339Y-100851000D01*
X78556661Y-100851000D01*
X78511326Y-100846535D01*
X78473633Y-100835101D01*
X78438897Y-100816534D01*
X78408452Y-100791548D01*
X78383466Y-100761103D01*
X78364899Y-100726367D01*
X78353465Y-100688674D01*
X78349000Y-100643339D01*
X78349000Y-99556661D01*
X78353465Y-99511326D01*
X78364899Y-99473633D01*
X78383466Y-99438897D01*
X78408452Y-99408452D01*
X78438897Y-99383466D01*
X78473633Y-99364899D01*
X78511326Y-99353465D01*
X78556661Y-99349000D01*
X79393339Y-99349000D01*
X79438674Y-99353465D01*
X79438674Y-99353465D01*
G37*
G36*
X81488674Y-99353465D02*
G01*
X81526367Y-99364899D01*
X81561103Y-99383466D01*
X81591548Y-99408452D01*
X81616534Y-99438897D01*
X81635101Y-99473633D01*
X81646535Y-99511326D01*
X81651000Y-99556661D01*
X81651000Y-100643339D01*
X81646535Y-100688674D01*
X81635101Y-100726367D01*
X81616534Y-100761103D01*
X81591548Y-100791548D01*
X81561103Y-100816534D01*
X81526367Y-100835101D01*
X81488674Y-100846535D01*
X81443339Y-100851000D01*
X80606661Y-100851000D01*
X80561326Y-100846535D01*
X80523633Y-100835101D01*
X80488897Y-100816534D01*
X80458452Y-100791548D01*
X80433466Y-100761103D01*
X80414899Y-100726367D01*
X80403465Y-100688674D01*
X80399000Y-100643339D01*
X80399000Y-99556661D01*
X80403465Y-99511326D01*
X80414899Y-99473633D01*
X80433466Y-99438897D01*
X80458452Y-99408452D01*
X80488897Y-99383466D01*
X80523633Y-99364899D01*
X80561326Y-99353465D01*
X80606661Y-99349000D01*
X81443339Y-99349000D01*
X81488674Y-99353465D01*
X81488674Y-99353465D01*
G37*
G36*
X58610443Y-98565519D02*
G01*
X58676627Y-98572037D01*
X58846466Y-98623557D01*
X59002991Y-98707222D01*
X59038729Y-98736552D01*
X59140186Y-98819814D01*
X59223448Y-98921271D01*
X59252778Y-98957009D01*
X59336443Y-99113534D01*
X59387963Y-99283373D01*
X59405359Y-99460000D01*
X59387963Y-99636627D01*
X59336443Y-99806466D01*
X59252778Y-99962991D01*
X59223448Y-99998729D01*
X59140186Y-100100186D01*
X59038729Y-100183448D01*
X59002991Y-100212778D01*
X58846466Y-100296443D01*
X58676627Y-100347963D01*
X58610443Y-100354481D01*
X58544260Y-100361000D01*
X58455740Y-100361000D01*
X58389557Y-100354481D01*
X58323373Y-100347963D01*
X58153534Y-100296443D01*
X57997009Y-100212778D01*
X57961271Y-100183448D01*
X57859814Y-100100186D01*
X57776552Y-99998729D01*
X57747222Y-99962991D01*
X57663557Y-99806466D01*
X57612037Y-99636627D01*
X57594641Y-99460000D01*
X57612037Y-99283373D01*
X57663557Y-99113534D01*
X57747222Y-98957009D01*
X57776552Y-98921271D01*
X57859814Y-98819814D01*
X57961271Y-98736552D01*
X57997009Y-98707222D01*
X58153534Y-98623557D01*
X58323373Y-98572037D01*
X58389557Y-98565519D01*
X58455740Y-98559000D01*
X58544260Y-98559000D01*
X58610443Y-98565519D01*
X58610443Y-98565519D01*
G37*
G36*
X71188674Y-96203465D02*
G01*
X71226367Y-96214899D01*
X71261103Y-96233466D01*
X71291548Y-96258452D01*
X71316534Y-96288897D01*
X71335101Y-96323633D01*
X71346535Y-96361326D01*
X71351000Y-96406661D01*
X71351000Y-97493339D01*
X71346535Y-97538674D01*
X71335101Y-97576367D01*
X71316534Y-97611103D01*
X71291548Y-97641548D01*
X71261103Y-97666534D01*
X71226367Y-97685101D01*
X71188674Y-97696535D01*
X71143339Y-97701000D01*
X70306661Y-97701000D01*
X70261326Y-97696535D01*
X70223633Y-97685101D01*
X70188897Y-97666534D01*
X70158452Y-97641548D01*
X70133466Y-97611103D01*
X70114899Y-97576367D01*
X70103465Y-97538674D01*
X70099000Y-97493339D01*
X70099000Y-96406661D01*
X70103465Y-96361326D01*
X70114899Y-96323633D01*
X70133466Y-96288897D01*
X70158452Y-96258452D01*
X70188897Y-96233466D01*
X70223633Y-96214899D01*
X70261326Y-96203465D01*
X70306661Y-96199000D01*
X71143339Y-96199000D01*
X71188674Y-96203465D01*
X71188674Y-96203465D01*
G37*
G36*
X73238674Y-96203465D02*
G01*
X73276367Y-96214899D01*
X73311103Y-96233466D01*
X73341548Y-96258452D01*
X73366534Y-96288897D01*
X73385101Y-96323633D01*
X73396535Y-96361326D01*
X73401000Y-96406661D01*
X73401000Y-97493339D01*
X73396535Y-97538674D01*
X73385101Y-97576367D01*
X73366534Y-97611103D01*
X73341548Y-97641548D01*
X73311103Y-97666534D01*
X73276367Y-97685101D01*
X73238674Y-97696535D01*
X73193339Y-97701000D01*
X72356661Y-97701000D01*
X72311326Y-97696535D01*
X72273633Y-97685101D01*
X72238897Y-97666534D01*
X72208452Y-97641548D01*
X72183466Y-97611103D01*
X72164899Y-97576367D01*
X72153465Y-97538674D01*
X72149000Y-97493339D01*
X72149000Y-96406661D01*
X72153465Y-96361326D01*
X72164899Y-96323633D01*
X72183466Y-96288897D01*
X72208452Y-96258452D01*
X72238897Y-96233466D01*
X72273633Y-96214899D01*
X72311326Y-96203465D01*
X72356661Y-96199000D01*
X73193339Y-96199000D01*
X73238674Y-96203465D01*
X73238674Y-96203465D01*
G37*
G36*
X81488674Y-96203465D02*
G01*
X81526367Y-96214899D01*
X81561103Y-96233466D01*
X81591548Y-96258452D01*
X81616534Y-96288897D01*
X81635101Y-96323633D01*
X81646535Y-96361326D01*
X81651000Y-96406661D01*
X81651000Y-97493339D01*
X81646535Y-97538674D01*
X81635101Y-97576367D01*
X81616534Y-97611103D01*
X81591548Y-97641548D01*
X81561103Y-97666534D01*
X81526367Y-97685101D01*
X81488674Y-97696535D01*
X81443339Y-97701000D01*
X80606661Y-97701000D01*
X80561326Y-97696535D01*
X80523633Y-97685101D01*
X80488897Y-97666534D01*
X80458452Y-97641548D01*
X80433466Y-97611103D01*
X80414899Y-97576367D01*
X80403465Y-97538674D01*
X80399000Y-97493339D01*
X80399000Y-96406661D01*
X80403465Y-96361326D01*
X80414899Y-96323633D01*
X80433466Y-96288897D01*
X80458452Y-96258452D01*
X80488897Y-96233466D01*
X80523633Y-96214899D01*
X80561326Y-96203465D01*
X80606661Y-96199000D01*
X81443339Y-96199000D01*
X81488674Y-96203465D01*
X81488674Y-96203465D01*
G37*
G36*
X79438674Y-96203465D02*
G01*
X79476367Y-96214899D01*
X79511103Y-96233466D01*
X79541548Y-96258452D01*
X79566534Y-96288897D01*
X79585101Y-96323633D01*
X79596535Y-96361326D01*
X79601000Y-96406661D01*
X79601000Y-97493339D01*
X79596535Y-97538674D01*
X79585101Y-97576367D01*
X79566534Y-97611103D01*
X79541548Y-97641548D01*
X79511103Y-97666534D01*
X79476367Y-97685101D01*
X79438674Y-97696535D01*
X79393339Y-97701000D01*
X78556661Y-97701000D01*
X78511326Y-97696535D01*
X78473633Y-97685101D01*
X78438897Y-97666534D01*
X78408452Y-97641548D01*
X78383466Y-97611103D01*
X78364899Y-97576367D01*
X78353465Y-97538674D01*
X78349000Y-97493339D01*
X78349000Y-96406661D01*
X78353465Y-96361326D01*
X78364899Y-96323633D01*
X78383466Y-96288897D01*
X78408452Y-96258452D01*
X78438897Y-96233466D01*
X78473633Y-96214899D01*
X78511326Y-96203465D01*
X78556661Y-96199000D01*
X79393339Y-96199000D01*
X79438674Y-96203465D01*
X79438674Y-96203465D01*
G37*
G36*
X59401000Y-96651000D02*
G01*
X57599000Y-96651000D01*
X57599000Y-94849000D01*
X59401000Y-94849000D01*
X59401000Y-96651000D01*
X59401000Y-96651000D01*
G37*
G36*
X113434928Y-92776764D02*
G01*
X113456009Y-92783160D01*
X113475445Y-92793548D01*
X113492476Y-92807524D01*
X113506452Y-92824555D01*
X113516840Y-92843991D01*
X113523236Y-92865072D01*
X113526000Y-92893140D01*
X113526000Y-94806860D01*
X113523236Y-94834928D01*
X113516840Y-94856009D01*
X113506452Y-94875445D01*
X113492476Y-94892476D01*
X113475445Y-94906452D01*
X113456009Y-94916840D01*
X113434928Y-94923236D01*
X113406860Y-94926000D01*
X112943140Y-94926000D01*
X112915072Y-94923236D01*
X112893991Y-94916840D01*
X112874555Y-94906452D01*
X112857524Y-94892476D01*
X112843548Y-94875445D01*
X112833160Y-94856009D01*
X112826764Y-94834928D01*
X112824000Y-94806860D01*
X112824000Y-92893140D01*
X112826764Y-92865072D01*
X112833160Y-92843991D01*
X112843548Y-92824555D01*
X112857524Y-92807524D01*
X112874555Y-92793548D01*
X112893991Y-92783160D01*
X112915072Y-92776764D01*
X112943140Y-92774000D01*
X113406860Y-92774000D01*
X113434928Y-92776764D01*
X113434928Y-92776764D01*
G37*
G36*
X114704928Y-92776764D02*
G01*
X114726009Y-92783160D01*
X114745445Y-92793548D01*
X114762476Y-92807524D01*
X114776452Y-92824555D01*
X114786840Y-92843991D01*
X114793236Y-92865072D01*
X114796000Y-92893140D01*
X114796000Y-94806860D01*
X114793236Y-94834928D01*
X114786840Y-94856009D01*
X114776452Y-94875445D01*
X114762476Y-94892476D01*
X114745445Y-94906452D01*
X114726009Y-94916840D01*
X114704928Y-94923236D01*
X114676860Y-94926000D01*
X114213140Y-94926000D01*
X114185072Y-94923236D01*
X114163991Y-94916840D01*
X114144555Y-94906452D01*
X114127524Y-94892476D01*
X114113548Y-94875445D01*
X114103160Y-94856009D01*
X114096764Y-94834928D01*
X114094000Y-94806860D01*
X114094000Y-92893140D01*
X114096764Y-92865072D01*
X114103160Y-92843991D01*
X114113548Y-92824555D01*
X114127524Y-92807524D01*
X114144555Y-92793548D01*
X114163991Y-92783160D01*
X114185072Y-92776764D01*
X114213140Y-92774000D01*
X114676860Y-92774000D01*
X114704928Y-92776764D01*
X114704928Y-92776764D01*
G37*
G36*
X112164928Y-92776764D02*
G01*
X112186009Y-92783160D01*
X112205445Y-92793548D01*
X112222476Y-92807524D01*
X112236452Y-92824555D01*
X112246840Y-92843991D01*
X112253236Y-92865072D01*
X112256000Y-92893140D01*
X112256000Y-94806860D01*
X112253236Y-94834928D01*
X112246840Y-94856009D01*
X112236452Y-94875445D01*
X112222476Y-94892476D01*
X112205445Y-94906452D01*
X112186009Y-94916840D01*
X112164928Y-94923236D01*
X112136860Y-94926000D01*
X111673140Y-94926000D01*
X111645072Y-94923236D01*
X111623991Y-94916840D01*
X111604555Y-94906452D01*
X111587524Y-94892476D01*
X111573548Y-94875445D01*
X111563160Y-94856009D01*
X111556764Y-94834928D01*
X111554000Y-94806860D01*
X111554000Y-92893140D01*
X111556764Y-92865072D01*
X111563160Y-92843991D01*
X111573548Y-92824555D01*
X111587524Y-92807524D01*
X111604555Y-92793548D01*
X111623991Y-92783160D01*
X111645072Y-92776764D01*
X111673140Y-92774000D01*
X112136860Y-92774000D01*
X112164928Y-92776764D01*
X112164928Y-92776764D01*
G37*
G36*
X110894928Y-92776764D02*
G01*
X110916009Y-92783160D01*
X110935445Y-92793548D01*
X110952476Y-92807524D01*
X110966452Y-92824555D01*
X110976840Y-92843991D01*
X110983236Y-92865072D01*
X110986000Y-92893140D01*
X110986000Y-94806860D01*
X110983236Y-94834928D01*
X110976840Y-94856009D01*
X110966452Y-94875445D01*
X110952476Y-94892476D01*
X110935445Y-94906452D01*
X110916009Y-94916840D01*
X110894928Y-94923236D01*
X110866860Y-94926000D01*
X110403140Y-94926000D01*
X110375072Y-94923236D01*
X110353991Y-94916840D01*
X110334555Y-94906452D01*
X110317524Y-94892476D01*
X110303548Y-94875445D01*
X110293160Y-94856009D01*
X110286764Y-94834928D01*
X110284000Y-94806860D01*
X110284000Y-92893140D01*
X110286764Y-92865072D01*
X110293160Y-92843991D01*
X110303548Y-92824555D01*
X110317524Y-92807524D01*
X110334555Y-92793548D01*
X110353991Y-92783160D01*
X110375072Y-92776764D01*
X110403140Y-92774000D01*
X110866860Y-92774000D01*
X110894928Y-92776764D01*
X110894928Y-92776764D01*
G37*
G36*
X109624928Y-92776764D02*
G01*
X109646009Y-92783160D01*
X109665445Y-92793548D01*
X109682476Y-92807524D01*
X109696452Y-92824555D01*
X109706840Y-92843991D01*
X109713236Y-92865072D01*
X109716000Y-92893140D01*
X109716000Y-94806860D01*
X109713236Y-94834928D01*
X109706840Y-94856009D01*
X109696452Y-94875445D01*
X109682476Y-94892476D01*
X109665445Y-94906452D01*
X109646009Y-94916840D01*
X109624928Y-94923236D01*
X109596860Y-94926000D01*
X109133140Y-94926000D01*
X109105072Y-94923236D01*
X109083991Y-94916840D01*
X109064555Y-94906452D01*
X109047524Y-94892476D01*
X109033548Y-94875445D01*
X109023160Y-94856009D01*
X109016764Y-94834928D01*
X109014000Y-94806860D01*
X109014000Y-92893140D01*
X109016764Y-92865072D01*
X109023160Y-92843991D01*
X109033548Y-92824555D01*
X109047524Y-92807524D01*
X109064555Y-92793548D01*
X109083991Y-92783160D01*
X109105072Y-92776764D01*
X109133140Y-92774000D01*
X109596860Y-92774000D01*
X109624928Y-92776764D01*
X109624928Y-92776764D01*
G37*
G36*
X108354928Y-92776764D02*
G01*
X108376009Y-92783160D01*
X108395445Y-92793548D01*
X108412476Y-92807524D01*
X108426452Y-92824555D01*
X108436840Y-92843991D01*
X108443236Y-92865072D01*
X108446000Y-92893140D01*
X108446000Y-94806860D01*
X108443236Y-94834928D01*
X108436840Y-94856009D01*
X108426452Y-94875445D01*
X108412476Y-94892476D01*
X108395445Y-94906452D01*
X108376009Y-94916840D01*
X108354928Y-94923236D01*
X108326860Y-94926000D01*
X107863140Y-94926000D01*
X107835072Y-94923236D01*
X107813991Y-94916840D01*
X107794555Y-94906452D01*
X107777524Y-94892476D01*
X107763548Y-94875445D01*
X107753160Y-94856009D01*
X107746764Y-94834928D01*
X107744000Y-94806860D01*
X107744000Y-92893140D01*
X107746764Y-92865072D01*
X107753160Y-92843991D01*
X107763548Y-92824555D01*
X107777524Y-92807524D01*
X107794555Y-92793548D01*
X107813991Y-92783160D01*
X107835072Y-92776764D01*
X107863140Y-92774000D01*
X108326860Y-92774000D01*
X108354928Y-92776764D01*
X108354928Y-92776764D01*
G37*
G36*
X107084928Y-92776764D02*
G01*
X107106009Y-92783160D01*
X107125445Y-92793548D01*
X107142476Y-92807524D01*
X107156452Y-92824555D01*
X107166840Y-92843991D01*
X107173236Y-92865072D01*
X107176000Y-92893140D01*
X107176000Y-94806860D01*
X107173236Y-94834928D01*
X107166840Y-94856009D01*
X107156452Y-94875445D01*
X107142476Y-94892476D01*
X107125445Y-94906452D01*
X107106009Y-94916840D01*
X107084928Y-94923236D01*
X107056860Y-94926000D01*
X106593140Y-94926000D01*
X106565072Y-94923236D01*
X106543991Y-94916840D01*
X106524555Y-94906452D01*
X106507524Y-94892476D01*
X106493548Y-94875445D01*
X106483160Y-94856009D01*
X106476764Y-94834928D01*
X106474000Y-94806860D01*
X106474000Y-92893140D01*
X106476764Y-92865072D01*
X106483160Y-92843991D01*
X106493548Y-92824555D01*
X106507524Y-92807524D01*
X106524555Y-92793548D01*
X106543991Y-92783160D01*
X106565072Y-92776764D01*
X106593140Y-92774000D01*
X107056860Y-92774000D01*
X107084928Y-92776764D01*
X107084928Y-92776764D01*
G37*
G36*
X105814928Y-92776764D02*
G01*
X105836009Y-92783160D01*
X105855445Y-92793548D01*
X105872476Y-92807524D01*
X105886452Y-92824555D01*
X105896840Y-92843991D01*
X105903236Y-92865072D01*
X105906000Y-92893140D01*
X105906000Y-94806860D01*
X105903236Y-94834928D01*
X105896840Y-94856009D01*
X105886452Y-94875445D01*
X105872476Y-94892476D01*
X105855445Y-94906452D01*
X105836009Y-94916840D01*
X105814928Y-94923236D01*
X105786860Y-94926000D01*
X105323140Y-94926000D01*
X105295072Y-94923236D01*
X105273991Y-94916840D01*
X105254555Y-94906452D01*
X105237524Y-94892476D01*
X105223548Y-94875445D01*
X105213160Y-94856009D01*
X105206764Y-94834928D01*
X105204000Y-94806860D01*
X105204000Y-92893140D01*
X105206764Y-92865072D01*
X105213160Y-92843991D01*
X105223548Y-92824555D01*
X105237524Y-92807524D01*
X105254555Y-92793548D01*
X105273991Y-92783160D01*
X105295072Y-92776764D01*
X105323140Y-92774000D01*
X105786860Y-92774000D01*
X105814928Y-92776764D01*
X105814928Y-92776764D01*
G37*
G36*
X104544928Y-92776764D02*
G01*
X104566009Y-92783160D01*
X104585445Y-92793548D01*
X104602476Y-92807524D01*
X104616452Y-92824555D01*
X104626840Y-92843991D01*
X104633236Y-92865072D01*
X104636000Y-92893140D01*
X104636000Y-94806860D01*
X104633236Y-94834928D01*
X104626840Y-94856009D01*
X104616452Y-94875445D01*
X104602476Y-94892476D01*
X104585445Y-94906452D01*
X104566009Y-94916840D01*
X104544928Y-94923236D01*
X104516860Y-94926000D01*
X104053140Y-94926000D01*
X104025072Y-94923236D01*
X104003991Y-94916840D01*
X103984555Y-94906452D01*
X103967524Y-94892476D01*
X103953548Y-94875445D01*
X103943160Y-94856009D01*
X103936764Y-94834928D01*
X103934000Y-94806860D01*
X103934000Y-92893140D01*
X103936764Y-92865072D01*
X103943160Y-92843991D01*
X103953548Y-92824555D01*
X103967524Y-92807524D01*
X103984555Y-92793548D01*
X104003991Y-92783160D01*
X104025072Y-92776764D01*
X104053140Y-92774000D01*
X104516860Y-92774000D01*
X104544928Y-92776764D01*
X104544928Y-92776764D01*
G37*
G36*
X115974928Y-92776764D02*
G01*
X115996009Y-92783160D01*
X116015445Y-92793548D01*
X116032476Y-92807524D01*
X116046452Y-92824555D01*
X116056840Y-92843991D01*
X116063236Y-92865072D01*
X116066000Y-92893140D01*
X116066000Y-94806860D01*
X116063236Y-94834928D01*
X116056840Y-94856009D01*
X116046452Y-94875445D01*
X116032476Y-94892476D01*
X116015445Y-94906452D01*
X115996009Y-94916840D01*
X115974928Y-94923236D01*
X115946860Y-94926000D01*
X115483140Y-94926000D01*
X115455072Y-94923236D01*
X115433991Y-94916840D01*
X115414555Y-94906452D01*
X115397524Y-94892476D01*
X115383548Y-94875445D01*
X115373160Y-94856009D01*
X115366764Y-94834928D01*
X115364000Y-94806860D01*
X115364000Y-92893140D01*
X115366764Y-92865072D01*
X115373160Y-92843991D01*
X115383548Y-92824555D01*
X115397524Y-92807524D01*
X115414555Y-92793548D01*
X115433991Y-92783160D01*
X115455072Y-92776764D01*
X115483140Y-92774000D01*
X115946860Y-92774000D01*
X115974928Y-92776764D01*
X115974928Y-92776764D01*
G37*
G36*
X81488674Y-92903465D02*
G01*
X81526367Y-92914899D01*
X81561103Y-92933466D01*
X81591548Y-92958452D01*
X81616534Y-92988897D01*
X81635101Y-93023633D01*
X81646535Y-93061326D01*
X81651000Y-93106661D01*
X81651000Y-94193339D01*
X81646535Y-94238674D01*
X81635101Y-94276367D01*
X81616534Y-94311103D01*
X81591548Y-94341548D01*
X81561103Y-94366534D01*
X81526367Y-94385101D01*
X81488674Y-94396535D01*
X81443339Y-94401000D01*
X80606661Y-94401000D01*
X80561326Y-94396535D01*
X80523633Y-94385101D01*
X80488897Y-94366534D01*
X80458452Y-94341548D01*
X80433466Y-94311103D01*
X80414899Y-94276367D01*
X80403465Y-94238674D01*
X80399000Y-94193339D01*
X80399000Y-93106661D01*
X80403465Y-93061326D01*
X80414899Y-93023633D01*
X80433466Y-92988897D01*
X80458452Y-92958452D01*
X80488897Y-92933466D01*
X80523633Y-92914899D01*
X80561326Y-92903465D01*
X80606661Y-92899000D01*
X81443339Y-92899000D01*
X81488674Y-92903465D01*
X81488674Y-92903465D01*
G37*
G36*
X79438674Y-92903465D02*
G01*
X79476367Y-92914899D01*
X79511103Y-92933466D01*
X79541548Y-92958452D01*
X79566534Y-92988897D01*
X79585101Y-93023633D01*
X79596535Y-93061326D01*
X79601000Y-93106661D01*
X79601000Y-94193339D01*
X79596535Y-94238674D01*
X79585101Y-94276367D01*
X79566534Y-94311103D01*
X79541548Y-94341548D01*
X79511103Y-94366534D01*
X79476367Y-94385101D01*
X79438674Y-94396535D01*
X79393339Y-94401000D01*
X78556661Y-94401000D01*
X78511326Y-94396535D01*
X78473633Y-94385101D01*
X78438897Y-94366534D01*
X78408452Y-94341548D01*
X78383466Y-94311103D01*
X78364899Y-94276367D01*
X78353465Y-94238674D01*
X78349000Y-94193339D01*
X78349000Y-93106661D01*
X78353465Y-93061326D01*
X78364899Y-93023633D01*
X78383466Y-92988897D01*
X78408452Y-92958452D01*
X78438897Y-92933466D01*
X78473633Y-92914899D01*
X78511326Y-92903465D01*
X78556661Y-92899000D01*
X79393339Y-92899000D01*
X79438674Y-92903465D01*
X79438674Y-92903465D01*
G37*
G36*
X73238674Y-92903465D02*
G01*
X73276367Y-92914899D01*
X73311103Y-92933466D01*
X73341548Y-92958452D01*
X73366534Y-92988897D01*
X73385101Y-93023633D01*
X73396535Y-93061326D01*
X73401000Y-93106661D01*
X73401000Y-94193339D01*
X73396535Y-94238674D01*
X73385101Y-94276367D01*
X73366534Y-94311103D01*
X73341548Y-94341548D01*
X73311103Y-94366534D01*
X73276367Y-94385101D01*
X73238674Y-94396535D01*
X73193339Y-94401000D01*
X72356661Y-94401000D01*
X72311326Y-94396535D01*
X72273633Y-94385101D01*
X72238897Y-94366534D01*
X72208452Y-94341548D01*
X72183466Y-94311103D01*
X72164899Y-94276367D01*
X72153465Y-94238674D01*
X72149000Y-94193339D01*
X72149000Y-93106661D01*
X72153465Y-93061326D01*
X72164899Y-93023633D01*
X72183466Y-92988897D01*
X72208452Y-92958452D01*
X72238897Y-92933466D01*
X72273633Y-92914899D01*
X72311326Y-92903465D01*
X72356661Y-92899000D01*
X73193339Y-92899000D01*
X73238674Y-92903465D01*
X73238674Y-92903465D01*
G37*
G36*
X71188674Y-92903465D02*
G01*
X71226367Y-92914899D01*
X71261103Y-92933466D01*
X71291548Y-92958452D01*
X71316534Y-92988897D01*
X71335101Y-93023633D01*
X71346535Y-93061326D01*
X71351000Y-93106661D01*
X71351000Y-94193339D01*
X71346535Y-94238674D01*
X71335101Y-94276367D01*
X71316534Y-94311103D01*
X71291548Y-94341548D01*
X71261103Y-94366534D01*
X71226367Y-94385101D01*
X71188674Y-94396535D01*
X71143339Y-94401000D01*
X70306661Y-94401000D01*
X70261326Y-94396535D01*
X70223633Y-94385101D01*
X70188897Y-94366534D01*
X70158452Y-94341548D01*
X70133466Y-94311103D01*
X70114899Y-94276367D01*
X70103465Y-94238674D01*
X70099000Y-94193339D01*
X70099000Y-93106661D01*
X70103465Y-93061326D01*
X70114899Y-93023633D01*
X70133466Y-92988897D01*
X70158452Y-92958452D01*
X70188897Y-92933466D01*
X70223633Y-92914899D01*
X70261326Y-92903465D01*
X70306661Y-92899000D01*
X71143339Y-92899000D01*
X71188674Y-92903465D01*
X71188674Y-92903465D01*
G37*
G36*
X58610442Y-92315518D02*
G01*
X58676627Y-92322037D01*
X58846466Y-92373557D01*
X59002991Y-92457222D01*
X59038729Y-92486552D01*
X59140186Y-92569814D01*
X59223448Y-92671271D01*
X59252778Y-92707009D01*
X59336443Y-92863534D01*
X59387963Y-93033373D01*
X59405359Y-93210000D01*
X59387963Y-93386627D01*
X59336443Y-93556466D01*
X59252778Y-93712991D01*
X59223448Y-93748729D01*
X59140186Y-93850186D01*
X59038729Y-93933448D01*
X59002991Y-93962778D01*
X58846466Y-94046443D01*
X58676627Y-94097963D01*
X58610442Y-94104482D01*
X58544260Y-94111000D01*
X58455740Y-94111000D01*
X58389558Y-94104482D01*
X58323373Y-94097963D01*
X58153534Y-94046443D01*
X57997009Y-93962778D01*
X57961271Y-93933448D01*
X57859814Y-93850186D01*
X57776552Y-93748729D01*
X57747222Y-93712991D01*
X57663557Y-93556466D01*
X57612037Y-93386627D01*
X57594641Y-93210000D01*
X57612037Y-93033373D01*
X57663557Y-92863534D01*
X57747222Y-92707009D01*
X57776552Y-92671271D01*
X57859814Y-92569814D01*
X57961271Y-92486552D01*
X57997009Y-92457222D01*
X58153534Y-92373557D01*
X58323373Y-92322037D01*
X58389558Y-92315518D01*
X58455740Y-92309000D01*
X58544260Y-92309000D01*
X58610442Y-92315518D01*
X58610442Y-92315518D01*
G37*
G36*
X71188674Y-89653465D02*
G01*
X71226367Y-89664899D01*
X71261103Y-89683466D01*
X71291548Y-89708452D01*
X71316534Y-89738897D01*
X71335101Y-89773633D01*
X71346535Y-89811326D01*
X71351000Y-89856661D01*
X71351000Y-90943339D01*
X71346535Y-90988674D01*
X71335101Y-91026367D01*
X71316534Y-91061103D01*
X71291548Y-91091548D01*
X71261103Y-91116534D01*
X71226367Y-91135101D01*
X71188674Y-91146535D01*
X71143339Y-91151000D01*
X70306661Y-91151000D01*
X70261326Y-91146535D01*
X70223633Y-91135101D01*
X70188897Y-91116534D01*
X70158452Y-91091548D01*
X70133466Y-91061103D01*
X70114899Y-91026367D01*
X70103465Y-90988674D01*
X70099000Y-90943339D01*
X70099000Y-89856661D01*
X70103465Y-89811326D01*
X70114899Y-89773633D01*
X70133466Y-89738897D01*
X70158452Y-89708452D01*
X70188897Y-89683466D01*
X70223633Y-89664899D01*
X70261326Y-89653465D01*
X70306661Y-89649000D01*
X71143339Y-89649000D01*
X71188674Y-89653465D01*
X71188674Y-89653465D01*
G37*
G36*
X73238674Y-89653465D02*
G01*
X73276367Y-89664899D01*
X73311103Y-89683466D01*
X73341548Y-89708452D01*
X73366534Y-89738897D01*
X73385101Y-89773633D01*
X73396535Y-89811326D01*
X73401000Y-89856661D01*
X73401000Y-90943339D01*
X73396535Y-90988674D01*
X73385101Y-91026367D01*
X73366534Y-91061103D01*
X73341548Y-91091548D01*
X73311103Y-91116534D01*
X73276367Y-91135101D01*
X73238674Y-91146535D01*
X73193339Y-91151000D01*
X72356661Y-91151000D01*
X72311326Y-91146535D01*
X72273633Y-91135101D01*
X72238897Y-91116534D01*
X72208452Y-91091548D01*
X72183466Y-91061103D01*
X72164899Y-91026367D01*
X72153465Y-90988674D01*
X72149000Y-90943339D01*
X72149000Y-89856661D01*
X72153465Y-89811326D01*
X72164899Y-89773633D01*
X72183466Y-89738897D01*
X72208452Y-89708452D01*
X72238897Y-89683466D01*
X72273633Y-89664899D01*
X72311326Y-89653465D01*
X72356661Y-89649000D01*
X73193339Y-89649000D01*
X73238674Y-89653465D01*
X73238674Y-89653465D01*
G37*
G36*
X79438674Y-89653465D02*
G01*
X79476367Y-89664899D01*
X79511103Y-89683466D01*
X79541548Y-89708452D01*
X79566534Y-89738897D01*
X79585101Y-89773633D01*
X79596535Y-89811326D01*
X79601000Y-89856661D01*
X79601000Y-90943339D01*
X79596535Y-90988674D01*
X79585101Y-91026367D01*
X79566534Y-91061103D01*
X79541548Y-91091548D01*
X79511103Y-91116534D01*
X79476367Y-91135101D01*
X79438674Y-91146535D01*
X79393339Y-91151000D01*
X78556661Y-91151000D01*
X78511326Y-91146535D01*
X78473633Y-91135101D01*
X78438897Y-91116534D01*
X78408452Y-91091548D01*
X78383466Y-91061103D01*
X78364899Y-91026367D01*
X78353465Y-90988674D01*
X78349000Y-90943339D01*
X78349000Y-89856661D01*
X78353465Y-89811326D01*
X78364899Y-89773633D01*
X78383466Y-89738897D01*
X78408452Y-89708452D01*
X78438897Y-89683466D01*
X78473633Y-89664899D01*
X78511326Y-89653465D01*
X78556661Y-89649000D01*
X79393339Y-89649000D01*
X79438674Y-89653465D01*
X79438674Y-89653465D01*
G37*
G36*
X81488674Y-89653465D02*
G01*
X81526367Y-89664899D01*
X81561103Y-89683466D01*
X81591548Y-89708452D01*
X81616534Y-89738897D01*
X81635101Y-89773633D01*
X81646535Y-89811326D01*
X81651000Y-89856661D01*
X81651000Y-90943339D01*
X81646535Y-90988674D01*
X81635101Y-91026367D01*
X81616534Y-91061103D01*
X81591548Y-91091548D01*
X81561103Y-91116534D01*
X81526367Y-91135101D01*
X81488674Y-91146535D01*
X81443339Y-91151000D01*
X80606661Y-91151000D01*
X80561326Y-91146535D01*
X80523633Y-91135101D01*
X80488897Y-91116534D01*
X80458452Y-91091548D01*
X80433466Y-91061103D01*
X80414899Y-91026367D01*
X80403465Y-90988674D01*
X80399000Y-90943339D01*
X80399000Y-89856661D01*
X80403465Y-89811326D01*
X80414899Y-89773633D01*
X80433466Y-89738897D01*
X80458452Y-89708452D01*
X80488897Y-89683466D01*
X80523633Y-89664899D01*
X80561326Y-89653465D01*
X80606661Y-89649000D01*
X81443339Y-89649000D01*
X81488674Y-89653465D01*
X81488674Y-89653465D01*
G37*
G36*
X115438674Y-89503465D02*
G01*
X115476367Y-89514899D01*
X115511103Y-89533466D01*
X115541548Y-89558452D01*
X115566534Y-89588897D01*
X115585101Y-89623633D01*
X115596535Y-89661326D01*
X115601000Y-89706661D01*
X115601000Y-90793339D01*
X115596535Y-90838674D01*
X115585101Y-90876367D01*
X115566534Y-90911103D01*
X115541548Y-90941548D01*
X115511103Y-90966534D01*
X115476367Y-90985101D01*
X115438674Y-90996535D01*
X115393339Y-91001000D01*
X114556661Y-91001000D01*
X114511326Y-90996535D01*
X114473633Y-90985101D01*
X114438897Y-90966534D01*
X114408452Y-90941548D01*
X114383466Y-90911103D01*
X114364899Y-90876367D01*
X114353465Y-90838674D01*
X114349000Y-90793339D01*
X114349000Y-89706661D01*
X114353465Y-89661326D01*
X114364899Y-89623633D01*
X114383466Y-89588897D01*
X114408452Y-89558452D01*
X114438897Y-89533466D01*
X114473633Y-89514899D01*
X114511326Y-89503465D01*
X114556661Y-89499000D01*
X115393339Y-89499000D01*
X115438674Y-89503465D01*
X115438674Y-89503465D01*
G37*
G36*
X117488674Y-89503465D02*
G01*
X117526367Y-89514899D01*
X117561103Y-89533466D01*
X117591548Y-89558452D01*
X117616534Y-89588897D01*
X117635101Y-89623633D01*
X117646535Y-89661326D01*
X117651000Y-89706661D01*
X117651000Y-90793339D01*
X117646535Y-90838674D01*
X117635101Y-90876367D01*
X117616534Y-90911103D01*
X117591548Y-90941548D01*
X117561103Y-90966534D01*
X117526367Y-90985101D01*
X117488674Y-90996535D01*
X117443339Y-91001000D01*
X116606661Y-91001000D01*
X116561326Y-90996535D01*
X116523633Y-90985101D01*
X116488897Y-90966534D01*
X116458452Y-90941548D01*
X116433466Y-90911103D01*
X116414899Y-90876367D01*
X116403465Y-90838674D01*
X116399000Y-90793339D01*
X116399000Y-89706661D01*
X116403465Y-89661326D01*
X116414899Y-89623633D01*
X116433466Y-89588897D01*
X116458452Y-89558452D01*
X116488897Y-89533466D01*
X116523633Y-89514899D01*
X116561326Y-89503465D01*
X116606661Y-89499000D01*
X117443339Y-89499000D01*
X117488674Y-89503465D01*
X117488674Y-89503465D01*
G37*
G36*
X59401000Y-90441000D02*
G01*
X57599000Y-90441000D01*
X57599000Y-88639000D01*
X59401000Y-88639000D01*
X59401000Y-90441000D01*
X59401000Y-90441000D01*
G37*
G36*
X81488674Y-86453465D02*
G01*
X81526367Y-86464899D01*
X81561103Y-86483466D01*
X81591548Y-86508452D01*
X81616534Y-86538897D01*
X81635101Y-86573633D01*
X81646535Y-86611326D01*
X81651000Y-86656661D01*
X81651000Y-87743339D01*
X81646535Y-87788674D01*
X81635101Y-87826367D01*
X81616534Y-87861103D01*
X81591548Y-87891548D01*
X81561103Y-87916534D01*
X81526367Y-87935101D01*
X81488674Y-87946535D01*
X81443339Y-87951000D01*
X80606661Y-87951000D01*
X80561326Y-87946535D01*
X80523633Y-87935101D01*
X80488897Y-87916534D01*
X80458452Y-87891548D01*
X80433466Y-87861103D01*
X80414899Y-87826367D01*
X80403465Y-87788674D01*
X80399000Y-87743339D01*
X80399000Y-86656661D01*
X80403465Y-86611326D01*
X80414899Y-86573633D01*
X80433466Y-86538897D01*
X80458452Y-86508452D01*
X80488897Y-86483466D01*
X80523633Y-86464899D01*
X80561326Y-86453465D01*
X80606661Y-86449000D01*
X81443339Y-86449000D01*
X81488674Y-86453465D01*
X81488674Y-86453465D01*
G37*
G36*
X79438674Y-86453465D02*
G01*
X79476367Y-86464899D01*
X79511103Y-86483466D01*
X79541548Y-86508452D01*
X79566534Y-86538897D01*
X79585101Y-86573633D01*
X79596535Y-86611326D01*
X79601000Y-86656661D01*
X79601000Y-87743339D01*
X79596535Y-87788674D01*
X79585101Y-87826367D01*
X79566534Y-87861103D01*
X79541548Y-87891548D01*
X79511103Y-87916534D01*
X79476367Y-87935101D01*
X79438674Y-87946535D01*
X79393339Y-87951000D01*
X78556661Y-87951000D01*
X78511326Y-87946535D01*
X78473633Y-87935101D01*
X78438897Y-87916534D01*
X78408452Y-87891548D01*
X78383466Y-87861103D01*
X78364899Y-87826367D01*
X78353465Y-87788674D01*
X78349000Y-87743339D01*
X78349000Y-86656661D01*
X78353465Y-86611326D01*
X78364899Y-86573633D01*
X78383466Y-86538897D01*
X78408452Y-86508452D01*
X78438897Y-86483466D01*
X78473633Y-86464899D01*
X78511326Y-86453465D01*
X78556661Y-86449000D01*
X79393339Y-86449000D01*
X79438674Y-86453465D01*
X79438674Y-86453465D01*
G37*
G36*
X73238674Y-86453465D02*
G01*
X73276367Y-86464899D01*
X73311103Y-86483466D01*
X73341548Y-86508452D01*
X73366534Y-86538897D01*
X73385101Y-86573633D01*
X73396535Y-86611326D01*
X73401000Y-86656661D01*
X73401000Y-87743339D01*
X73396535Y-87788674D01*
X73385101Y-87826367D01*
X73366534Y-87861103D01*
X73341548Y-87891548D01*
X73311103Y-87916534D01*
X73276367Y-87935101D01*
X73238674Y-87946535D01*
X73193339Y-87951000D01*
X72356661Y-87951000D01*
X72311326Y-87946535D01*
X72273633Y-87935101D01*
X72238897Y-87916534D01*
X72208452Y-87891548D01*
X72183466Y-87861103D01*
X72164899Y-87826367D01*
X72153465Y-87788674D01*
X72149000Y-87743339D01*
X72149000Y-86656661D01*
X72153465Y-86611326D01*
X72164899Y-86573633D01*
X72183466Y-86538897D01*
X72208452Y-86508452D01*
X72238897Y-86483466D01*
X72273633Y-86464899D01*
X72311326Y-86453465D01*
X72356661Y-86449000D01*
X73193339Y-86449000D01*
X73238674Y-86453465D01*
X73238674Y-86453465D01*
G37*
G36*
X71188674Y-86453465D02*
G01*
X71226367Y-86464899D01*
X71261103Y-86483466D01*
X71291548Y-86508452D01*
X71316534Y-86538897D01*
X71335101Y-86573633D01*
X71346535Y-86611326D01*
X71351000Y-86656661D01*
X71351000Y-87743339D01*
X71346535Y-87788674D01*
X71335101Y-87826367D01*
X71316534Y-87861103D01*
X71291548Y-87891548D01*
X71261103Y-87916534D01*
X71226367Y-87935101D01*
X71188674Y-87946535D01*
X71143339Y-87951000D01*
X70306661Y-87951000D01*
X70261326Y-87946535D01*
X70223633Y-87935101D01*
X70188897Y-87916534D01*
X70158452Y-87891548D01*
X70133466Y-87861103D01*
X70114899Y-87826367D01*
X70103465Y-87788674D01*
X70099000Y-87743339D01*
X70099000Y-86656661D01*
X70103465Y-86611326D01*
X70114899Y-86573633D01*
X70133466Y-86538897D01*
X70158452Y-86508452D01*
X70188897Y-86483466D01*
X70223633Y-86464899D01*
X70261326Y-86453465D01*
X70306661Y-86449000D01*
X71143339Y-86449000D01*
X71188674Y-86453465D01*
X71188674Y-86453465D01*
G37*
G36*
X58610442Y-86105518D02*
G01*
X58676627Y-86112037D01*
X58846466Y-86163557D01*
X58846468Y-86163558D01*
X58924728Y-86205389D01*
X59002991Y-86247222D01*
X59038729Y-86276552D01*
X59140186Y-86359814D01*
X59213378Y-86449000D01*
X59252778Y-86497009D01*
X59336443Y-86653534D01*
X59387963Y-86823373D01*
X59405359Y-87000000D01*
X59387963Y-87176627D01*
X59336443Y-87346466D01*
X59252778Y-87502991D01*
X59223448Y-87538729D01*
X59140186Y-87640186D01*
X59038729Y-87723448D01*
X59002991Y-87752778D01*
X58846466Y-87836443D01*
X58676627Y-87887963D01*
X58610443Y-87894481D01*
X58544260Y-87901000D01*
X58455740Y-87901000D01*
X58389557Y-87894481D01*
X58323373Y-87887963D01*
X58153534Y-87836443D01*
X57997009Y-87752778D01*
X57961271Y-87723448D01*
X57859814Y-87640186D01*
X57776552Y-87538729D01*
X57747222Y-87502991D01*
X57663557Y-87346466D01*
X57612037Y-87176627D01*
X57594641Y-87000000D01*
X57612037Y-86823373D01*
X57663557Y-86653534D01*
X57747222Y-86497009D01*
X57786622Y-86449000D01*
X57859814Y-86359814D01*
X57961271Y-86276552D01*
X57997009Y-86247222D01*
X58075272Y-86205389D01*
X58153532Y-86163558D01*
X58153534Y-86163557D01*
X58323373Y-86112037D01*
X58389558Y-86105518D01*
X58455740Y-86099000D01*
X58544260Y-86099000D01*
X58610442Y-86105518D01*
X58610442Y-86105518D01*
G37*
G36*
X113629487Y-85248996D02*
G01*
X113866253Y-85347068D01*
X113866255Y-85347069D01*
X114079339Y-85489447D01*
X114260553Y-85670661D01*
X114402932Y-85883747D01*
X114501004Y-86120513D01*
X114551000Y-86371861D01*
X114551000Y-86628139D01*
X114501004Y-86879487D01*
X114413165Y-87091548D01*
X114402931Y-87116255D01*
X114260553Y-87329339D01*
X114079339Y-87510553D01*
X113866255Y-87652931D01*
X113866254Y-87652932D01*
X113866253Y-87652932D01*
X113629487Y-87751004D01*
X113378139Y-87801000D01*
X113121861Y-87801000D01*
X112870513Y-87751004D01*
X112633747Y-87652932D01*
X112633746Y-87652932D01*
X112633745Y-87652931D01*
X112420661Y-87510553D01*
X112239447Y-87329339D01*
X112097069Y-87116255D01*
X112086835Y-87091548D01*
X111998996Y-86879487D01*
X111949000Y-86628139D01*
X111949000Y-86371861D01*
X111998996Y-86120513D01*
X112097068Y-85883747D01*
X112239447Y-85670661D01*
X112420661Y-85489447D01*
X112633745Y-85347069D01*
X112633747Y-85347068D01*
X112870513Y-85248996D01*
X113121861Y-85199000D01*
X113378139Y-85199000D01*
X113629487Y-85248996D01*
X113629487Y-85248996D01*
G37*
G36*
X121338674Y-85903465D02*
G01*
X121376367Y-85914899D01*
X121411103Y-85933466D01*
X121441548Y-85958452D01*
X121466534Y-85988897D01*
X121485101Y-86023633D01*
X121496535Y-86061326D01*
X121501000Y-86106661D01*
X121501000Y-86943339D01*
X121496535Y-86988674D01*
X121485101Y-87026367D01*
X121466534Y-87061103D01*
X121441548Y-87091548D01*
X121411103Y-87116534D01*
X121376367Y-87135101D01*
X121338674Y-87146535D01*
X121293339Y-87151000D01*
X120206661Y-87151000D01*
X120161326Y-87146535D01*
X120123633Y-87135101D01*
X120088897Y-87116534D01*
X120058452Y-87091548D01*
X120033466Y-87061103D01*
X120014899Y-87026367D01*
X120003465Y-86988674D01*
X119999000Y-86943339D01*
X119999000Y-86106661D01*
X120003465Y-86061326D01*
X120014899Y-86023633D01*
X120033466Y-85988897D01*
X120058452Y-85958452D01*
X120088897Y-85933466D01*
X120123633Y-85914899D01*
X120161326Y-85903465D01*
X120206661Y-85899000D01*
X121293339Y-85899000D01*
X121338674Y-85903465D01*
X121338674Y-85903465D01*
G37*
G36*
X117338674Y-85903465D02*
G01*
X117376367Y-85914899D01*
X117411103Y-85933466D01*
X117441548Y-85958452D01*
X117466534Y-85988897D01*
X117485101Y-86023633D01*
X117496535Y-86061326D01*
X117501000Y-86106661D01*
X117501000Y-86943339D01*
X117496535Y-86988674D01*
X117485101Y-87026367D01*
X117466534Y-87061103D01*
X117441548Y-87091548D01*
X117411103Y-87116534D01*
X117376367Y-87135101D01*
X117338674Y-87146535D01*
X117293339Y-87151000D01*
X116206661Y-87151000D01*
X116161326Y-87146535D01*
X116123633Y-87135101D01*
X116088897Y-87116534D01*
X116058452Y-87091548D01*
X116033466Y-87061103D01*
X116014899Y-87026367D01*
X116003465Y-86988674D01*
X115999000Y-86943339D01*
X115999000Y-86106661D01*
X116003465Y-86061326D01*
X116014899Y-86023633D01*
X116033466Y-85988897D01*
X116058452Y-85958452D01*
X116088897Y-85933466D01*
X116123633Y-85914899D01*
X116161326Y-85903465D01*
X116206661Y-85899000D01*
X117293339Y-85899000D01*
X117338674Y-85903465D01*
X117338674Y-85903465D01*
G37*
G36*
X121338674Y-83853465D02*
G01*
X121376367Y-83864899D01*
X121411103Y-83883466D01*
X121441548Y-83908452D01*
X121466534Y-83938897D01*
X121485101Y-83973633D01*
X121496535Y-84011326D01*
X121501000Y-84056661D01*
X121501000Y-84893339D01*
X121496535Y-84938674D01*
X121485101Y-84976367D01*
X121466534Y-85011103D01*
X121441548Y-85041548D01*
X121411103Y-85066534D01*
X121376367Y-85085101D01*
X121338674Y-85096535D01*
X121293339Y-85101000D01*
X120206661Y-85101000D01*
X120161326Y-85096535D01*
X120123633Y-85085101D01*
X120088897Y-85066534D01*
X120058452Y-85041548D01*
X120033466Y-85011103D01*
X120014899Y-84976367D01*
X120003465Y-84938674D01*
X119999000Y-84893339D01*
X119999000Y-84056661D01*
X120003465Y-84011326D01*
X120014899Y-83973633D01*
X120033466Y-83938897D01*
X120058452Y-83908452D01*
X120088897Y-83883466D01*
X120123633Y-83864899D01*
X120161326Y-83853465D01*
X120206661Y-83849000D01*
X121293339Y-83849000D01*
X121338674Y-83853465D01*
X121338674Y-83853465D01*
G37*
G36*
X117338674Y-83853465D02*
G01*
X117376367Y-83864899D01*
X117411103Y-83883466D01*
X117441548Y-83908452D01*
X117466534Y-83938897D01*
X117485101Y-83973633D01*
X117496535Y-84011326D01*
X117501000Y-84056661D01*
X117501000Y-84893339D01*
X117496535Y-84938674D01*
X117485101Y-84976367D01*
X117466534Y-85011103D01*
X117441548Y-85041548D01*
X117411103Y-85066534D01*
X117376367Y-85085101D01*
X117338674Y-85096535D01*
X117293339Y-85101000D01*
X116206661Y-85101000D01*
X116161326Y-85096535D01*
X116123633Y-85085101D01*
X116088897Y-85066534D01*
X116058452Y-85041548D01*
X116033466Y-85011103D01*
X116014899Y-84976367D01*
X116003465Y-84938674D01*
X115999000Y-84893339D01*
X115999000Y-84056661D01*
X116003465Y-84011326D01*
X116014899Y-83973633D01*
X116033466Y-83938897D01*
X116058452Y-83908452D01*
X116088897Y-83883466D01*
X116123633Y-83864899D01*
X116161326Y-83853465D01*
X116206661Y-83849000D01*
X117293339Y-83849000D01*
X117338674Y-83853465D01*
X117338674Y-83853465D01*
G37*
G36*
X79438674Y-83253465D02*
G01*
X79476367Y-83264899D01*
X79511103Y-83283466D01*
X79541548Y-83308452D01*
X79566534Y-83338897D01*
X79585101Y-83373633D01*
X79596535Y-83411326D01*
X79601000Y-83456661D01*
X79601000Y-84543339D01*
X79596535Y-84588674D01*
X79585101Y-84626367D01*
X79566534Y-84661103D01*
X79541548Y-84691548D01*
X79511103Y-84716534D01*
X79476367Y-84735101D01*
X79438674Y-84746535D01*
X79393339Y-84751000D01*
X78556661Y-84751000D01*
X78511326Y-84746535D01*
X78473633Y-84735101D01*
X78438897Y-84716534D01*
X78408452Y-84691548D01*
X78383466Y-84661103D01*
X78364899Y-84626367D01*
X78353465Y-84588674D01*
X78349000Y-84543339D01*
X78349000Y-83456661D01*
X78353465Y-83411326D01*
X78364899Y-83373633D01*
X78383466Y-83338897D01*
X78408452Y-83308452D01*
X78438897Y-83283466D01*
X78473633Y-83264899D01*
X78511326Y-83253465D01*
X78556661Y-83249000D01*
X79393339Y-83249000D01*
X79438674Y-83253465D01*
X79438674Y-83253465D01*
G37*
G36*
X81488674Y-83253465D02*
G01*
X81526367Y-83264899D01*
X81561103Y-83283466D01*
X81591548Y-83308452D01*
X81616534Y-83338897D01*
X81635101Y-83373633D01*
X81646535Y-83411326D01*
X81651000Y-83456661D01*
X81651000Y-84543339D01*
X81646535Y-84588674D01*
X81635101Y-84626367D01*
X81616534Y-84661103D01*
X81591548Y-84691548D01*
X81561103Y-84716534D01*
X81526367Y-84735101D01*
X81488674Y-84746535D01*
X81443339Y-84751000D01*
X80606661Y-84751000D01*
X80561326Y-84746535D01*
X80523633Y-84735101D01*
X80488897Y-84716534D01*
X80458452Y-84691548D01*
X80433466Y-84661103D01*
X80414899Y-84626367D01*
X80403465Y-84588674D01*
X80399000Y-84543339D01*
X80399000Y-83456661D01*
X80403465Y-83411326D01*
X80414899Y-83373633D01*
X80433466Y-83338897D01*
X80458452Y-83308452D01*
X80488897Y-83283466D01*
X80523633Y-83264899D01*
X80561326Y-83253465D01*
X80606661Y-83249000D01*
X81443339Y-83249000D01*
X81488674Y-83253465D01*
X81488674Y-83253465D01*
G37*
G36*
X71188674Y-83203465D02*
G01*
X71226367Y-83214899D01*
X71261103Y-83233466D01*
X71291548Y-83258452D01*
X71316534Y-83288897D01*
X71335101Y-83323633D01*
X71346535Y-83361326D01*
X71351000Y-83406661D01*
X71351000Y-84493339D01*
X71346535Y-84538674D01*
X71335101Y-84576367D01*
X71316534Y-84611103D01*
X71291548Y-84641548D01*
X71261103Y-84666534D01*
X71226367Y-84685101D01*
X71188674Y-84696535D01*
X71143339Y-84701000D01*
X70306661Y-84701000D01*
X70261326Y-84696535D01*
X70223633Y-84685101D01*
X70188897Y-84666534D01*
X70158452Y-84641548D01*
X70133466Y-84611103D01*
X70114899Y-84576367D01*
X70103465Y-84538674D01*
X70099000Y-84493339D01*
X70099000Y-83406661D01*
X70103465Y-83361326D01*
X70114899Y-83323633D01*
X70133466Y-83288897D01*
X70158452Y-83258452D01*
X70188897Y-83233466D01*
X70223633Y-83214899D01*
X70261326Y-83203465D01*
X70306661Y-83199000D01*
X71143339Y-83199000D01*
X71188674Y-83203465D01*
X71188674Y-83203465D01*
G37*
G36*
X73238674Y-83203465D02*
G01*
X73276367Y-83214899D01*
X73311103Y-83233466D01*
X73341548Y-83258452D01*
X73366534Y-83288897D01*
X73385101Y-83323633D01*
X73396535Y-83361326D01*
X73401000Y-83406661D01*
X73401000Y-84493339D01*
X73396535Y-84538674D01*
X73385101Y-84576367D01*
X73366534Y-84611103D01*
X73341548Y-84641548D01*
X73311103Y-84666534D01*
X73276367Y-84685101D01*
X73238674Y-84696535D01*
X73193339Y-84701000D01*
X72356661Y-84701000D01*
X72311326Y-84696535D01*
X72273633Y-84685101D01*
X72238897Y-84666534D01*
X72208452Y-84641548D01*
X72183466Y-84611103D01*
X72164899Y-84576367D01*
X72153465Y-84538674D01*
X72149000Y-84493339D01*
X72149000Y-83406661D01*
X72153465Y-83361326D01*
X72164899Y-83323633D01*
X72183466Y-83288897D01*
X72208452Y-83258452D01*
X72238897Y-83233466D01*
X72273633Y-83214899D01*
X72311326Y-83203465D01*
X72356661Y-83199000D01*
X73193339Y-83199000D01*
X73238674Y-83203465D01*
X73238674Y-83203465D01*
G37*
G36*
X59401000Y-84151000D02*
G01*
X57599000Y-84151000D01*
X57599000Y-82349000D01*
X59401000Y-82349000D01*
X59401000Y-84151000D01*
X59401000Y-84151000D01*
G37*
G36*
X58610442Y-79815518D02*
G01*
X58676627Y-79822037D01*
X58846466Y-79873557D01*
X59002991Y-79957222D01*
X59038729Y-79986552D01*
X59140186Y-80069814D01*
X59184353Y-80123633D01*
X59252778Y-80207009D01*
X59336443Y-80363534D01*
X59387963Y-80533373D01*
X59405359Y-80710000D01*
X59387963Y-80886627D01*
X59336443Y-81056466D01*
X59252778Y-81212991D01*
X59223448Y-81248729D01*
X59140186Y-81350186D01*
X59065957Y-81411103D01*
X59002991Y-81462778D01*
X58846466Y-81546443D01*
X58676627Y-81597963D01*
X58610442Y-81604482D01*
X58544260Y-81611000D01*
X58455740Y-81611000D01*
X58389558Y-81604482D01*
X58323373Y-81597963D01*
X58153534Y-81546443D01*
X57997009Y-81462778D01*
X57934043Y-81411103D01*
X57859814Y-81350186D01*
X57776552Y-81248729D01*
X57747222Y-81212991D01*
X57663557Y-81056466D01*
X57612037Y-80886627D01*
X57594641Y-80710000D01*
X57612037Y-80533373D01*
X57663557Y-80363534D01*
X57747222Y-80207009D01*
X57815647Y-80123633D01*
X57859814Y-80069814D01*
X57961271Y-79986552D01*
X57997009Y-79957222D01*
X58153534Y-79873557D01*
X58323373Y-79822037D01*
X58389558Y-79815518D01*
X58455740Y-79809000D01*
X58544260Y-79809000D01*
X58610442Y-79815518D01*
X58610442Y-79815518D01*
G37*
G36*
X73238674Y-80003465D02*
G01*
X73276367Y-80014899D01*
X73311103Y-80033466D01*
X73341548Y-80058452D01*
X73366534Y-80088897D01*
X73385101Y-80123633D01*
X73396535Y-80161326D01*
X73401000Y-80206661D01*
X73401000Y-81293339D01*
X73396535Y-81338674D01*
X73385101Y-81376367D01*
X73366534Y-81411103D01*
X73341548Y-81441548D01*
X73311103Y-81466534D01*
X73276367Y-81485101D01*
X73238674Y-81496535D01*
X73193339Y-81501000D01*
X72356661Y-81501000D01*
X72311326Y-81496535D01*
X72273633Y-81485101D01*
X72238897Y-81466534D01*
X72208452Y-81441548D01*
X72183466Y-81411103D01*
X72164899Y-81376367D01*
X72153465Y-81338674D01*
X72149000Y-81293339D01*
X72149000Y-80206661D01*
X72153465Y-80161326D01*
X72164899Y-80123633D01*
X72183466Y-80088897D01*
X72208452Y-80058452D01*
X72238897Y-80033466D01*
X72273633Y-80014899D01*
X72311326Y-80003465D01*
X72356661Y-79999000D01*
X73193339Y-79999000D01*
X73238674Y-80003465D01*
X73238674Y-80003465D01*
G37*
G36*
X71188674Y-80003465D02*
G01*
X71226367Y-80014899D01*
X71261103Y-80033466D01*
X71291548Y-80058452D01*
X71316534Y-80088897D01*
X71335101Y-80123633D01*
X71346535Y-80161326D01*
X71351000Y-80206661D01*
X71351000Y-81293339D01*
X71346535Y-81338674D01*
X71335101Y-81376367D01*
X71316534Y-81411103D01*
X71291548Y-81441548D01*
X71261103Y-81466534D01*
X71226367Y-81485101D01*
X71188674Y-81496535D01*
X71143339Y-81501000D01*
X70306661Y-81501000D01*
X70261326Y-81496535D01*
X70223633Y-81485101D01*
X70188897Y-81466534D01*
X70158452Y-81441548D01*
X70133466Y-81411103D01*
X70114899Y-81376367D01*
X70103465Y-81338674D01*
X70099000Y-81293339D01*
X70099000Y-80206661D01*
X70103465Y-80161326D01*
X70114899Y-80123633D01*
X70133466Y-80088897D01*
X70158452Y-80058452D01*
X70188897Y-80033466D01*
X70223633Y-80014899D01*
X70261326Y-80003465D01*
X70306661Y-79999000D01*
X71143339Y-79999000D01*
X71188674Y-80003465D01*
X71188674Y-80003465D01*
G37*
G36*
X79438674Y-80003465D02*
G01*
X79476367Y-80014899D01*
X79511103Y-80033466D01*
X79541548Y-80058452D01*
X79566534Y-80088897D01*
X79585101Y-80123633D01*
X79596535Y-80161326D01*
X79601000Y-80206661D01*
X79601000Y-81293339D01*
X79596535Y-81338674D01*
X79585101Y-81376367D01*
X79566534Y-81411103D01*
X79541548Y-81441548D01*
X79511103Y-81466534D01*
X79476367Y-81485101D01*
X79438674Y-81496535D01*
X79393339Y-81501000D01*
X78556661Y-81501000D01*
X78511326Y-81496535D01*
X78473633Y-81485101D01*
X78438897Y-81466534D01*
X78408452Y-81441548D01*
X78383466Y-81411103D01*
X78364899Y-81376367D01*
X78353465Y-81338674D01*
X78349000Y-81293339D01*
X78349000Y-80206661D01*
X78353465Y-80161326D01*
X78364899Y-80123633D01*
X78383466Y-80088897D01*
X78408452Y-80058452D01*
X78438897Y-80033466D01*
X78473633Y-80014899D01*
X78511326Y-80003465D01*
X78556661Y-79999000D01*
X79393339Y-79999000D01*
X79438674Y-80003465D01*
X79438674Y-80003465D01*
G37*
G36*
X81488674Y-80003465D02*
G01*
X81526367Y-80014899D01*
X81561103Y-80033466D01*
X81591548Y-80058452D01*
X81616534Y-80088897D01*
X81635101Y-80123633D01*
X81646535Y-80161326D01*
X81651000Y-80206661D01*
X81651000Y-81293339D01*
X81646535Y-81338674D01*
X81635101Y-81376367D01*
X81616534Y-81411103D01*
X81591548Y-81441548D01*
X81561103Y-81466534D01*
X81526367Y-81485101D01*
X81488674Y-81496535D01*
X81443339Y-81501000D01*
X80606661Y-81501000D01*
X80561326Y-81496535D01*
X80523633Y-81485101D01*
X80488897Y-81466534D01*
X80458452Y-81441548D01*
X80433466Y-81411103D01*
X80414899Y-81376367D01*
X80403465Y-81338674D01*
X80399000Y-81293339D01*
X80399000Y-80206661D01*
X80403465Y-80161326D01*
X80414899Y-80123633D01*
X80433466Y-80088897D01*
X80458452Y-80058452D01*
X80488897Y-80033466D01*
X80523633Y-80014899D01*
X80561326Y-80003465D01*
X80606661Y-79999000D01*
X81443339Y-79999000D01*
X81488674Y-80003465D01*
X81488674Y-80003465D01*
G37*
G36*
X109624928Y-77076764D02*
G01*
X109646009Y-77083160D01*
X109665445Y-77093548D01*
X109682476Y-77107524D01*
X109696452Y-77124555D01*
X109706840Y-77143991D01*
X109713236Y-77165072D01*
X109716000Y-77193140D01*
X109716000Y-79106860D01*
X109713236Y-79134928D01*
X109706840Y-79156009D01*
X109696452Y-79175445D01*
X109682476Y-79192476D01*
X109665445Y-79206452D01*
X109646009Y-79216840D01*
X109624928Y-79223236D01*
X109596860Y-79226000D01*
X109133140Y-79226000D01*
X109105072Y-79223236D01*
X109083991Y-79216840D01*
X109064555Y-79206452D01*
X109047524Y-79192476D01*
X109033548Y-79175445D01*
X109023160Y-79156009D01*
X109016764Y-79134928D01*
X109014000Y-79106860D01*
X109014000Y-77193140D01*
X109016764Y-77165072D01*
X109023160Y-77143991D01*
X109033548Y-77124555D01*
X109047524Y-77107524D01*
X109064555Y-77093548D01*
X109083991Y-77083160D01*
X109105072Y-77076764D01*
X109133140Y-77074000D01*
X109596860Y-77074000D01*
X109624928Y-77076764D01*
X109624928Y-77076764D01*
G37*
G36*
X108354928Y-77076764D02*
G01*
X108376009Y-77083160D01*
X108395445Y-77093548D01*
X108412476Y-77107524D01*
X108426452Y-77124555D01*
X108436840Y-77143991D01*
X108443236Y-77165072D01*
X108446000Y-77193140D01*
X108446000Y-79106860D01*
X108443236Y-79134928D01*
X108436840Y-79156009D01*
X108426452Y-79175445D01*
X108412476Y-79192476D01*
X108395445Y-79206452D01*
X108376009Y-79216840D01*
X108354928Y-79223236D01*
X108326860Y-79226000D01*
X107863140Y-79226000D01*
X107835072Y-79223236D01*
X107813991Y-79216840D01*
X107794555Y-79206452D01*
X107777524Y-79192476D01*
X107763548Y-79175445D01*
X107753160Y-79156009D01*
X107746764Y-79134928D01*
X107744000Y-79106860D01*
X107744000Y-77193140D01*
X107746764Y-77165072D01*
X107753160Y-77143991D01*
X107763548Y-77124555D01*
X107777524Y-77107524D01*
X107794555Y-77093548D01*
X107813991Y-77083160D01*
X107835072Y-77076764D01*
X107863140Y-77074000D01*
X108326860Y-77074000D01*
X108354928Y-77076764D01*
X108354928Y-77076764D01*
G37*
G36*
X107084928Y-77076764D02*
G01*
X107106009Y-77083160D01*
X107125445Y-77093548D01*
X107142476Y-77107524D01*
X107156452Y-77124555D01*
X107166840Y-77143991D01*
X107173236Y-77165072D01*
X107176000Y-77193140D01*
X107176000Y-79106860D01*
X107173236Y-79134928D01*
X107166840Y-79156009D01*
X107156452Y-79175445D01*
X107142476Y-79192476D01*
X107125445Y-79206452D01*
X107106009Y-79216840D01*
X107084928Y-79223236D01*
X107056860Y-79226000D01*
X106593140Y-79226000D01*
X106565072Y-79223236D01*
X106543991Y-79216840D01*
X106524555Y-79206452D01*
X106507524Y-79192476D01*
X106493548Y-79175445D01*
X106483160Y-79156009D01*
X106476764Y-79134928D01*
X106474000Y-79106860D01*
X106474000Y-77193140D01*
X106476764Y-77165072D01*
X106483160Y-77143991D01*
X106493548Y-77124555D01*
X106507524Y-77107524D01*
X106524555Y-77093548D01*
X106543991Y-77083160D01*
X106565072Y-77076764D01*
X106593140Y-77074000D01*
X107056860Y-77074000D01*
X107084928Y-77076764D01*
X107084928Y-77076764D01*
G37*
G36*
X115974928Y-77076764D02*
G01*
X115996009Y-77083160D01*
X116015445Y-77093548D01*
X116032476Y-77107524D01*
X116046452Y-77124555D01*
X116056840Y-77143991D01*
X116063236Y-77165072D01*
X116066000Y-77193140D01*
X116066000Y-79106860D01*
X116063236Y-79134928D01*
X116056840Y-79156009D01*
X116046452Y-79175445D01*
X116032476Y-79192476D01*
X116015445Y-79206452D01*
X115996009Y-79216840D01*
X115974928Y-79223236D01*
X115946860Y-79226000D01*
X115483140Y-79226000D01*
X115455072Y-79223236D01*
X115433991Y-79216840D01*
X115414555Y-79206452D01*
X115397524Y-79192476D01*
X115383548Y-79175445D01*
X115373160Y-79156009D01*
X115366764Y-79134928D01*
X115364000Y-79106860D01*
X115364000Y-77193140D01*
X115366764Y-77165072D01*
X115373160Y-77143991D01*
X115383548Y-77124555D01*
X115397524Y-77107524D01*
X115414555Y-77093548D01*
X115433991Y-77083160D01*
X115455072Y-77076764D01*
X115483140Y-77074000D01*
X115946860Y-77074000D01*
X115974928Y-77076764D01*
X115974928Y-77076764D01*
G37*
G36*
X114704928Y-77076764D02*
G01*
X114726009Y-77083160D01*
X114745445Y-77093548D01*
X114762476Y-77107524D01*
X114776452Y-77124555D01*
X114786840Y-77143991D01*
X114793236Y-77165072D01*
X114796000Y-77193140D01*
X114796000Y-79106860D01*
X114793236Y-79134928D01*
X114786840Y-79156009D01*
X114776452Y-79175445D01*
X114762476Y-79192476D01*
X114745445Y-79206452D01*
X114726009Y-79216840D01*
X114704928Y-79223236D01*
X114676860Y-79226000D01*
X114213140Y-79226000D01*
X114185072Y-79223236D01*
X114163991Y-79216840D01*
X114144555Y-79206452D01*
X114127524Y-79192476D01*
X114113548Y-79175445D01*
X114103160Y-79156009D01*
X114096764Y-79134928D01*
X114094000Y-79106860D01*
X114094000Y-77193140D01*
X114096764Y-77165072D01*
X114103160Y-77143991D01*
X114113548Y-77124555D01*
X114127524Y-77107524D01*
X114144555Y-77093548D01*
X114163991Y-77083160D01*
X114185072Y-77076764D01*
X114213140Y-77074000D01*
X114676860Y-77074000D01*
X114704928Y-77076764D01*
X114704928Y-77076764D01*
G37*
G36*
X113434928Y-77076764D02*
G01*
X113456009Y-77083160D01*
X113475445Y-77093548D01*
X113492476Y-77107524D01*
X113506452Y-77124555D01*
X113516840Y-77143991D01*
X113523236Y-77165072D01*
X113526000Y-77193140D01*
X113526000Y-79106860D01*
X113523236Y-79134928D01*
X113516840Y-79156009D01*
X113506452Y-79175445D01*
X113492476Y-79192476D01*
X113475445Y-79206452D01*
X113456009Y-79216840D01*
X113434928Y-79223236D01*
X113406860Y-79226000D01*
X112943140Y-79226000D01*
X112915072Y-79223236D01*
X112893991Y-79216840D01*
X112874555Y-79206452D01*
X112857524Y-79192476D01*
X112843548Y-79175445D01*
X112833160Y-79156009D01*
X112826764Y-79134928D01*
X112824000Y-79106860D01*
X112824000Y-77193140D01*
X112826764Y-77165072D01*
X112833160Y-77143991D01*
X112843548Y-77124555D01*
X112857524Y-77107524D01*
X112874555Y-77093548D01*
X112893991Y-77083160D01*
X112915072Y-77076764D01*
X112943140Y-77074000D01*
X113406860Y-77074000D01*
X113434928Y-77076764D01*
X113434928Y-77076764D01*
G37*
G36*
X112164928Y-77076764D02*
G01*
X112186009Y-77083160D01*
X112205445Y-77093548D01*
X112222476Y-77107524D01*
X112236452Y-77124555D01*
X112246840Y-77143991D01*
X112253236Y-77165072D01*
X112256000Y-77193140D01*
X112256000Y-79106860D01*
X112253236Y-79134928D01*
X112246840Y-79156009D01*
X112236452Y-79175445D01*
X112222476Y-79192476D01*
X112205445Y-79206452D01*
X112186009Y-79216840D01*
X112164928Y-79223236D01*
X112136860Y-79226000D01*
X111673140Y-79226000D01*
X111645072Y-79223236D01*
X111623991Y-79216840D01*
X111604555Y-79206452D01*
X111587524Y-79192476D01*
X111573548Y-79175445D01*
X111563160Y-79156009D01*
X111556764Y-79134928D01*
X111554000Y-79106860D01*
X111554000Y-77193140D01*
X111556764Y-77165072D01*
X111563160Y-77143991D01*
X111573548Y-77124555D01*
X111587524Y-77107524D01*
X111604555Y-77093548D01*
X111623991Y-77083160D01*
X111645072Y-77076764D01*
X111673140Y-77074000D01*
X112136860Y-77074000D01*
X112164928Y-77076764D01*
X112164928Y-77076764D01*
G37*
G36*
X110894928Y-77076764D02*
G01*
X110916009Y-77083160D01*
X110935445Y-77093548D01*
X110952476Y-77107524D01*
X110966452Y-77124555D01*
X110976840Y-77143991D01*
X110983236Y-77165072D01*
X110986000Y-77193140D01*
X110986000Y-79106860D01*
X110983236Y-79134928D01*
X110976840Y-79156009D01*
X110966452Y-79175445D01*
X110952476Y-79192476D01*
X110935445Y-79206452D01*
X110916009Y-79216840D01*
X110894928Y-79223236D01*
X110866860Y-79226000D01*
X110403140Y-79226000D01*
X110375072Y-79223236D01*
X110353991Y-79216840D01*
X110334555Y-79206452D01*
X110317524Y-79192476D01*
X110303548Y-79175445D01*
X110293160Y-79156009D01*
X110286764Y-79134928D01*
X110284000Y-79106860D01*
X110284000Y-77193140D01*
X110286764Y-77165072D01*
X110293160Y-77143991D01*
X110303548Y-77124555D01*
X110317524Y-77107524D01*
X110334555Y-77093548D01*
X110353991Y-77083160D01*
X110375072Y-77076764D01*
X110403140Y-77074000D01*
X110866860Y-77074000D01*
X110894928Y-77076764D01*
X110894928Y-77076764D01*
G37*
G36*
X105814928Y-77076764D02*
G01*
X105836009Y-77083160D01*
X105855445Y-77093548D01*
X105872476Y-77107524D01*
X105886452Y-77124555D01*
X105896840Y-77143991D01*
X105903236Y-77165072D01*
X105906000Y-77193140D01*
X105906000Y-79106860D01*
X105903236Y-79134928D01*
X105896840Y-79156009D01*
X105886452Y-79175445D01*
X105872476Y-79192476D01*
X105855445Y-79206452D01*
X105836009Y-79216840D01*
X105814928Y-79223236D01*
X105786860Y-79226000D01*
X105323140Y-79226000D01*
X105295072Y-79223236D01*
X105273991Y-79216840D01*
X105254555Y-79206452D01*
X105237524Y-79192476D01*
X105223548Y-79175445D01*
X105213160Y-79156009D01*
X105206764Y-79134928D01*
X105204000Y-79106860D01*
X105204000Y-77193140D01*
X105206764Y-77165072D01*
X105213160Y-77143991D01*
X105223548Y-77124555D01*
X105237524Y-77107524D01*
X105254555Y-77093548D01*
X105273991Y-77083160D01*
X105295072Y-77076764D01*
X105323140Y-77074000D01*
X105786860Y-77074000D01*
X105814928Y-77076764D01*
X105814928Y-77076764D01*
G37*
G36*
X104544928Y-77076764D02*
G01*
X104566009Y-77083160D01*
X104585445Y-77093548D01*
X104602476Y-77107524D01*
X104616452Y-77124555D01*
X104626840Y-77143991D01*
X104633236Y-77165072D01*
X104636000Y-77193140D01*
X104636000Y-79106860D01*
X104633236Y-79134928D01*
X104626840Y-79156009D01*
X104616452Y-79175445D01*
X104602476Y-79192476D01*
X104585445Y-79206452D01*
X104566009Y-79216840D01*
X104544928Y-79223236D01*
X104516860Y-79226000D01*
X104053140Y-79226000D01*
X104025072Y-79223236D01*
X104003991Y-79216840D01*
X103984555Y-79206452D01*
X103967524Y-79192476D01*
X103953548Y-79175445D01*
X103943160Y-79156009D01*
X103936764Y-79134928D01*
X103934000Y-79106860D01*
X103934000Y-77193140D01*
X103936764Y-77165072D01*
X103943160Y-77143991D01*
X103953548Y-77124555D01*
X103967524Y-77107524D01*
X103984555Y-77093548D01*
X104003991Y-77083160D01*
X104025072Y-77076764D01*
X104053140Y-77074000D01*
X104516860Y-77074000D01*
X104544928Y-77076764D01*
X104544928Y-77076764D01*
G37*
G36*
X71188674Y-76953465D02*
G01*
X71226367Y-76964899D01*
X71261103Y-76983466D01*
X71291548Y-77008452D01*
X71316534Y-77038897D01*
X71335101Y-77073633D01*
X71346535Y-77111326D01*
X71351000Y-77156661D01*
X71351000Y-78243339D01*
X71346535Y-78288674D01*
X71335101Y-78326367D01*
X71316534Y-78361103D01*
X71291548Y-78391548D01*
X71261103Y-78416534D01*
X71226367Y-78435101D01*
X71188674Y-78446535D01*
X71143339Y-78451000D01*
X70306661Y-78451000D01*
X70261326Y-78446535D01*
X70223633Y-78435101D01*
X70188897Y-78416534D01*
X70158452Y-78391548D01*
X70133466Y-78361103D01*
X70114899Y-78326367D01*
X70103465Y-78288674D01*
X70099000Y-78243339D01*
X70099000Y-77156661D01*
X70103465Y-77111326D01*
X70114899Y-77073633D01*
X70133466Y-77038897D01*
X70158452Y-77008452D01*
X70188897Y-76983466D01*
X70223633Y-76964899D01*
X70261326Y-76953465D01*
X70306661Y-76949000D01*
X71143339Y-76949000D01*
X71188674Y-76953465D01*
X71188674Y-76953465D01*
G37*
G36*
X73238674Y-76953465D02*
G01*
X73276367Y-76964899D01*
X73311103Y-76983466D01*
X73341548Y-77008452D01*
X73366534Y-77038897D01*
X73385101Y-77073633D01*
X73396535Y-77111326D01*
X73401000Y-77156661D01*
X73401000Y-78243339D01*
X73396535Y-78288674D01*
X73385101Y-78326367D01*
X73366534Y-78361103D01*
X73341548Y-78391548D01*
X73311103Y-78416534D01*
X73276367Y-78435101D01*
X73238674Y-78446535D01*
X73193339Y-78451000D01*
X72356661Y-78451000D01*
X72311326Y-78446535D01*
X72273633Y-78435101D01*
X72238897Y-78416534D01*
X72208452Y-78391548D01*
X72183466Y-78361103D01*
X72164899Y-78326367D01*
X72153465Y-78288674D01*
X72149000Y-78243339D01*
X72149000Y-77156661D01*
X72153465Y-77111326D01*
X72164899Y-77073633D01*
X72183466Y-77038897D01*
X72208452Y-77008452D01*
X72238897Y-76983466D01*
X72273633Y-76964899D01*
X72311326Y-76953465D01*
X72356661Y-76949000D01*
X73193339Y-76949000D01*
X73238674Y-76953465D01*
X73238674Y-76953465D01*
G37*
G36*
X81488674Y-76953465D02*
G01*
X81526367Y-76964899D01*
X81561103Y-76983466D01*
X81591548Y-77008452D01*
X81616534Y-77038897D01*
X81635101Y-77073633D01*
X81646535Y-77111326D01*
X81651000Y-77156661D01*
X81651000Y-78243339D01*
X81646535Y-78288674D01*
X81635101Y-78326367D01*
X81616534Y-78361103D01*
X81591548Y-78391548D01*
X81561103Y-78416534D01*
X81526367Y-78435101D01*
X81488674Y-78446535D01*
X81443339Y-78451000D01*
X80606661Y-78451000D01*
X80561326Y-78446535D01*
X80523633Y-78435101D01*
X80488897Y-78416534D01*
X80458452Y-78391548D01*
X80433466Y-78361103D01*
X80414899Y-78326367D01*
X80403465Y-78288674D01*
X80399000Y-78243339D01*
X80399000Y-77156661D01*
X80403465Y-77111326D01*
X80414899Y-77073633D01*
X80433466Y-77038897D01*
X80458452Y-77008452D01*
X80488897Y-76983466D01*
X80523633Y-76964899D01*
X80561326Y-76953465D01*
X80606661Y-76949000D01*
X81443339Y-76949000D01*
X81488674Y-76953465D01*
X81488674Y-76953465D01*
G37*
G36*
X79438674Y-76953465D02*
G01*
X79476367Y-76964899D01*
X79511103Y-76983466D01*
X79541548Y-77008452D01*
X79566534Y-77038897D01*
X79585101Y-77073633D01*
X79596535Y-77111326D01*
X79601000Y-77156661D01*
X79601000Y-78243339D01*
X79596535Y-78288674D01*
X79585101Y-78326367D01*
X79566534Y-78361103D01*
X79541548Y-78391548D01*
X79511103Y-78416534D01*
X79476367Y-78435101D01*
X79438674Y-78446535D01*
X79393339Y-78451000D01*
X78556661Y-78451000D01*
X78511326Y-78446535D01*
X78473633Y-78435101D01*
X78438897Y-78416534D01*
X78408452Y-78391548D01*
X78383466Y-78361103D01*
X78364899Y-78326367D01*
X78353465Y-78288674D01*
X78349000Y-78243339D01*
X78349000Y-77156661D01*
X78353465Y-77111326D01*
X78364899Y-77073633D01*
X78383466Y-77038897D01*
X78408452Y-77008452D01*
X78438897Y-76983466D01*
X78473633Y-76964899D01*
X78511326Y-76953465D01*
X78556661Y-76949000D01*
X79393339Y-76949000D01*
X79438674Y-76953465D01*
X79438674Y-76953465D01*
G37*
G36*
X59401000Y-77901000D02*
G01*
X57599000Y-77901000D01*
X57599000Y-76099000D01*
X59401000Y-76099000D01*
X59401000Y-77901000D01*
X59401000Y-77901000D01*
G37*
G36*
X58610442Y-73565518D02*
G01*
X58676627Y-73572037D01*
X58846466Y-73623557D01*
X59002991Y-73707222D01*
X59038729Y-73736552D01*
X59140186Y-73819814D01*
X59184353Y-73873633D01*
X59252778Y-73957009D01*
X59336443Y-74113534D01*
X59387963Y-74283373D01*
X59405359Y-74460000D01*
X59387963Y-74636627D01*
X59336443Y-74806466D01*
X59252778Y-74962991D01*
X59223448Y-74998729D01*
X59140186Y-75100186D01*
X59065957Y-75161103D01*
X59002991Y-75212778D01*
X58846466Y-75296443D01*
X58676627Y-75347963D01*
X58610443Y-75354481D01*
X58544260Y-75361000D01*
X58455740Y-75361000D01*
X58389557Y-75354481D01*
X58323373Y-75347963D01*
X58153534Y-75296443D01*
X57997009Y-75212778D01*
X57934043Y-75161103D01*
X57859814Y-75100186D01*
X57776552Y-74998729D01*
X57747222Y-74962991D01*
X57663557Y-74806466D01*
X57612037Y-74636627D01*
X57594641Y-74460000D01*
X57612037Y-74283373D01*
X57663557Y-74113534D01*
X57747222Y-73957009D01*
X57815647Y-73873633D01*
X57859814Y-73819814D01*
X57961271Y-73736552D01*
X57997009Y-73707222D01*
X58153534Y-73623557D01*
X58323373Y-73572037D01*
X58389558Y-73565518D01*
X58455740Y-73559000D01*
X58544260Y-73559000D01*
X58610442Y-73565518D01*
X58610442Y-73565518D01*
G37*
G36*
X73238674Y-73753465D02*
G01*
X73276367Y-73764899D01*
X73311103Y-73783466D01*
X73341548Y-73808452D01*
X73366534Y-73838897D01*
X73385101Y-73873633D01*
X73396535Y-73911326D01*
X73401000Y-73956661D01*
X73401000Y-75043339D01*
X73396535Y-75088674D01*
X73385101Y-75126367D01*
X73366534Y-75161103D01*
X73341548Y-75191548D01*
X73311103Y-75216534D01*
X73276367Y-75235101D01*
X73238674Y-75246535D01*
X73193339Y-75251000D01*
X72356661Y-75251000D01*
X72311326Y-75246535D01*
X72273633Y-75235101D01*
X72238897Y-75216534D01*
X72208452Y-75191548D01*
X72183466Y-75161103D01*
X72164899Y-75126367D01*
X72153465Y-75088674D01*
X72149000Y-75043339D01*
X72149000Y-73956661D01*
X72153465Y-73911326D01*
X72164899Y-73873633D01*
X72183466Y-73838897D01*
X72208452Y-73808452D01*
X72238897Y-73783466D01*
X72273633Y-73764899D01*
X72311326Y-73753465D01*
X72356661Y-73749000D01*
X73193339Y-73749000D01*
X73238674Y-73753465D01*
X73238674Y-73753465D01*
G37*
G36*
X79438674Y-73753465D02*
G01*
X79476367Y-73764899D01*
X79511103Y-73783466D01*
X79541548Y-73808452D01*
X79566534Y-73838897D01*
X79585101Y-73873633D01*
X79596535Y-73911326D01*
X79601000Y-73956661D01*
X79601000Y-75043339D01*
X79596535Y-75088674D01*
X79585101Y-75126367D01*
X79566534Y-75161103D01*
X79541548Y-75191548D01*
X79511103Y-75216534D01*
X79476367Y-75235101D01*
X79438674Y-75246535D01*
X79393339Y-75251000D01*
X78556661Y-75251000D01*
X78511326Y-75246535D01*
X78473633Y-75235101D01*
X78438897Y-75216534D01*
X78408452Y-75191548D01*
X78383466Y-75161103D01*
X78364899Y-75126367D01*
X78353465Y-75088674D01*
X78349000Y-75043339D01*
X78349000Y-73956661D01*
X78353465Y-73911326D01*
X78364899Y-73873633D01*
X78383466Y-73838897D01*
X78408452Y-73808452D01*
X78438897Y-73783466D01*
X78473633Y-73764899D01*
X78511326Y-73753465D01*
X78556661Y-73749000D01*
X79393339Y-73749000D01*
X79438674Y-73753465D01*
X79438674Y-73753465D01*
G37*
G36*
X81488674Y-73753465D02*
G01*
X81526367Y-73764899D01*
X81561103Y-73783466D01*
X81591548Y-73808452D01*
X81616534Y-73838897D01*
X81635101Y-73873633D01*
X81646535Y-73911326D01*
X81651000Y-73956661D01*
X81651000Y-75043339D01*
X81646535Y-75088674D01*
X81635101Y-75126367D01*
X81616534Y-75161103D01*
X81591548Y-75191548D01*
X81561103Y-75216534D01*
X81526367Y-75235101D01*
X81488674Y-75246535D01*
X81443339Y-75251000D01*
X80606661Y-75251000D01*
X80561326Y-75246535D01*
X80523633Y-75235101D01*
X80488897Y-75216534D01*
X80458452Y-75191548D01*
X80433466Y-75161103D01*
X80414899Y-75126367D01*
X80403465Y-75088674D01*
X80399000Y-75043339D01*
X80399000Y-73956661D01*
X80403465Y-73911326D01*
X80414899Y-73873633D01*
X80433466Y-73838897D01*
X80458452Y-73808452D01*
X80488897Y-73783466D01*
X80523633Y-73764899D01*
X80561326Y-73753465D01*
X80606661Y-73749000D01*
X81443339Y-73749000D01*
X81488674Y-73753465D01*
X81488674Y-73753465D01*
G37*
G36*
X71188674Y-73753465D02*
G01*
X71226367Y-73764899D01*
X71261103Y-73783466D01*
X71291548Y-73808452D01*
X71316534Y-73838897D01*
X71335101Y-73873633D01*
X71346535Y-73911326D01*
X71351000Y-73956661D01*
X71351000Y-75043339D01*
X71346535Y-75088674D01*
X71335101Y-75126367D01*
X71316534Y-75161103D01*
X71291548Y-75191548D01*
X71261103Y-75216534D01*
X71226367Y-75235101D01*
X71188674Y-75246535D01*
X71143339Y-75251000D01*
X70306661Y-75251000D01*
X70261326Y-75246535D01*
X70223633Y-75235101D01*
X70188897Y-75216534D01*
X70158452Y-75191548D01*
X70133466Y-75161103D01*
X70114899Y-75126367D01*
X70103465Y-75088674D01*
X70099000Y-75043339D01*
X70099000Y-73956661D01*
X70103465Y-73911326D01*
X70114899Y-73873633D01*
X70133466Y-73838897D01*
X70158452Y-73808452D01*
X70188897Y-73783466D01*
X70223633Y-73764899D01*
X70261326Y-73753465D01*
X70306661Y-73749000D01*
X71143339Y-73749000D01*
X71188674Y-73753465D01*
X71188674Y-73753465D01*
G37*
G36*
X79438674Y-70503465D02*
G01*
X79476367Y-70514899D01*
X79511103Y-70533466D01*
X79541548Y-70558452D01*
X79566534Y-70588897D01*
X79585101Y-70623633D01*
X79596535Y-70661326D01*
X79601000Y-70706661D01*
X79601000Y-71793339D01*
X79596535Y-71838674D01*
X79585101Y-71876367D01*
X79566534Y-71911103D01*
X79541548Y-71941548D01*
X79511103Y-71966534D01*
X79476367Y-71985101D01*
X79438674Y-71996535D01*
X79393339Y-72001000D01*
X78556661Y-72001000D01*
X78511326Y-71996535D01*
X78473633Y-71985101D01*
X78438897Y-71966534D01*
X78408452Y-71941548D01*
X78383466Y-71911103D01*
X78364899Y-71876367D01*
X78353465Y-71838674D01*
X78349000Y-71793339D01*
X78349000Y-70706661D01*
X78353465Y-70661326D01*
X78364899Y-70623633D01*
X78383466Y-70588897D01*
X78408452Y-70558452D01*
X78438897Y-70533466D01*
X78473633Y-70514899D01*
X78511326Y-70503465D01*
X78556661Y-70499000D01*
X79393339Y-70499000D01*
X79438674Y-70503465D01*
X79438674Y-70503465D01*
G37*
G36*
X73238674Y-70503465D02*
G01*
X73276367Y-70514899D01*
X73311103Y-70533466D01*
X73341548Y-70558452D01*
X73366534Y-70588897D01*
X73385101Y-70623633D01*
X73396535Y-70661326D01*
X73401000Y-70706661D01*
X73401000Y-71793339D01*
X73396535Y-71838674D01*
X73385101Y-71876367D01*
X73366534Y-71911103D01*
X73341548Y-71941548D01*
X73311103Y-71966534D01*
X73276367Y-71985101D01*
X73238674Y-71996535D01*
X73193339Y-72001000D01*
X72356661Y-72001000D01*
X72311326Y-71996535D01*
X72273633Y-71985101D01*
X72238897Y-71966534D01*
X72208452Y-71941548D01*
X72183466Y-71911103D01*
X72164899Y-71876367D01*
X72153465Y-71838674D01*
X72149000Y-71793339D01*
X72149000Y-70706661D01*
X72153465Y-70661326D01*
X72164899Y-70623633D01*
X72183466Y-70588897D01*
X72208452Y-70558452D01*
X72238897Y-70533466D01*
X72273633Y-70514899D01*
X72311326Y-70503465D01*
X72356661Y-70499000D01*
X73193339Y-70499000D01*
X73238674Y-70503465D01*
X73238674Y-70503465D01*
G37*
G36*
X71188674Y-70503465D02*
G01*
X71226367Y-70514899D01*
X71261103Y-70533466D01*
X71291548Y-70558452D01*
X71316534Y-70588897D01*
X71335101Y-70623633D01*
X71346535Y-70661326D01*
X71351000Y-70706661D01*
X71351000Y-71793339D01*
X71346535Y-71838674D01*
X71335101Y-71876367D01*
X71316534Y-71911103D01*
X71291548Y-71941548D01*
X71261103Y-71966534D01*
X71226367Y-71985101D01*
X71188674Y-71996535D01*
X71143339Y-72001000D01*
X70306661Y-72001000D01*
X70261326Y-71996535D01*
X70223633Y-71985101D01*
X70188897Y-71966534D01*
X70158452Y-71941548D01*
X70133466Y-71911103D01*
X70114899Y-71876367D01*
X70103465Y-71838674D01*
X70099000Y-71793339D01*
X70099000Y-70706661D01*
X70103465Y-70661326D01*
X70114899Y-70623633D01*
X70133466Y-70588897D01*
X70158452Y-70558452D01*
X70188897Y-70533466D01*
X70223633Y-70514899D01*
X70261326Y-70503465D01*
X70306661Y-70499000D01*
X71143339Y-70499000D01*
X71188674Y-70503465D01*
X71188674Y-70503465D01*
G37*
G36*
X81488674Y-70503465D02*
G01*
X81526367Y-70514899D01*
X81561103Y-70533466D01*
X81591548Y-70558452D01*
X81616534Y-70588897D01*
X81635101Y-70623633D01*
X81646535Y-70661326D01*
X81651000Y-70706661D01*
X81651000Y-71793339D01*
X81646535Y-71838674D01*
X81635101Y-71876367D01*
X81616534Y-71911103D01*
X81591548Y-71941548D01*
X81561103Y-71966534D01*
X81526367Y-71985101D01*
X81488674Y-71996535D01*
X81443339Y-72001000D01*
X80606661Y-72001000D01*
X80561326Y-71996535D01*
X80523633Y-71985101D01*
X80488897Y-71966534D01*
X80458452Y-71941548D01*
X80433466Y-71911103D01*
X80414899Y-71876367D01*
X80403465Y-71838674D01*
X80399000Y-71793339D01*
X80399000Y-70706661D01*
X80403465Y-70661326D01*
X80414899Y-70623633D01*
X80433466Y-70588897D01*
X80458452Y-70558452D01*
X80488897Y-70533466D01*
X80523633Y-70514899D01*
X80561326Y-70503465D01*
X80606661Y-70499000D01*
X81443339Y-70499000D01*
X81488674Y-70503465D01*
X81488674Y-70503465D01*
G37*
G36*
X59401000Y-71651000D02*
G01*
X57599000Y-71651000D01*
X57599000Y-69849000D01*
X59401000Y-69849000D01*
X59401000Y-71651000D01*
X59401000Y-71651000D01*
G37*
G36*
X110894928Y-67776764D02*
G01*
X110916009Y-67783160D01*
X110935445Y-67793548D01*
X110952476Y-67807524D01*
X110966452Y-67824555D01*
X110976840Y-67843991D01*
X110983236Y-67865072D01*
X110986000Y-67893140D01*
X110986000Y-69806860D01*
X110983236Y-69834928D01*
X110976840Y-69856009D01*
X110966452Y-69875445D01*
X110952476Y-69892476D01*
X110935445Y-69906452D01*
X110916009Y-69916840D01*
X110894928Y-69923236D01*
X110866860Y-69926000D01*
X110403140Y-69926000D01*
X110375072Y-69923236D01*
X110353991Y-69916840D01*
X110334555Y-69906452D01*
X110317524Y-69892476D01*
X110303548Y-69875445D01*
X110293160Y-69856009D01*
X110286764Y-69834928D01*
X110284000Y-69806860D01*
X110284000Y-67893140D01*
X110286764Y-67865072D01*
X110293160Y-67843991D01*
X110303548Y-67824555D01*
X110317524Y-67807524D01*
X110334555Y-67793548D01*
X110353991Y-67783160D01*
X110375072Y-67776764D01*
X110403140Y-67774000D01*
X110866860Y-67774000D01*
X110894928Y-67776764D01*
X110894928Y-67776764D01*
G37*
G36*
X109624928Y-67776764D02*
G01*
X109646009Y-67783160D01*
X109665445Y-67793548D01*
X109682476Y-67807524D01*
X109696452Y-67824555D01*
X109706840Y-67843991D01*
X109713236Y-67865072D01*
X109716000Y-67893140D01*
X109716000Y-69806860D01*
X109713236Y-69834928D01*
X109706840Y-69856009D01*
X109696452Y-69875445D01*
X109682476Y-69892476D01*
X109665445Y-69906452D01*
X109646009Y-69916840D01*
X109624928Y-69923236D01*
X109596860Y-69926000D01*
X109133140Y-69926000D01*
X109105072Y-69923236D01*
X109083991Y-69916840D01*
X109064555Y-69906452D01*
X109047524Y-69892476D01*
X109033548Y-69875445D01*
X109023160Y-69856009D01*
X109016764Y-69834928D01*
X109014000Y-69806860D01*
X109014000Y-67893140D01*
X109016764Y-67865072D01*
X109023160Y-67843991D01*
X109033548Y-67824555D01*
X109047524Y-67807524D01*
X109064555Y-67793548D01*
X109083991Y-67783160D01*
X109105072Y-67776764D01*
X109133140Y-67774000D01*
X109596860Y-67774000D01*
X109624928Y-67776764D01*
X109624928Y-67776764D01*
G37*
G36*
X113434928Y-67776764D02*
G01*
X113456009Y-67783160D01*
X113475445Y-67793548D01*
X113492476Y-67807524D01*
X113506452Y-67824555D01*
X113516840Y-67843991D01*
X113523236Y-67865072D01*
X113526000Y-67893140D01*
X113526000Y-69806860D01*
X113523236Y-69834928D01*
X113516840Y-69856009D01*
X113506452Y-69875445D01*
X113492476Y-69892476D01*
X113475445Y-69906452D01*
X113456009Y-69916840D01*
X113434928Y-69923236D01*
X113406860Y-69926000D01*
X112943140Y-69926000D01*
X112915072Y-69923236D01*
X112893991Y-69916840D01*
X112874555Y-69906452D01*
X112857524Y-69892476D01*
X112843548Y-69875445D01*
X112833160Y-69856009D01*
X112826764Y-69834928D01*
X112824000Y-69806860D01*
X112824000Y-67893140D01*
X112826764Y-67865072D01*
X112833160Y-67843991D01*
X112843548Y-67824555D01*
X112857524Y-67807524D01*
X112874555Y-67793548D01*
X112893991Y-67783160D01*
X112915072Y-67776764D01*
X112943140Y-67774000D01*
X113406860Y-67774000D01*
X113434928Y-67776764D01*
X113434928Y-67776764D01*
G37*
G36*
X112164928Y-67776764D02*
G01*
X112186009Y-67783160D01*
X112205445Y-67793548D01*
X112222476Y-67807524D01*
X112236452Y-67824555D01*
X112246840Y-67843991D01*
X112253236Y-67865072D01*
X112256000Y-67893140D01*
X112256000Y-69806860D01*
X112253236Y-69834928D01*
X112246840Y-69856009D01*
X112236452Y-69875445D01*
X112222476Y-69892476D01*
X112205445Y-69906452D01*
X112186009Y-69916840D01*
X112164928Y-69923236D01*
X112136860Y-69926000D01*
X111673140Y-69926000D01*
X111645072Y-69923236D01*
X111623991Y-69916840D01*
X111604555Y-69906452D01*
X111587524Y-69892476D01*
X111573548Y-69875445D01*
X111563160Y-69856009D01*
X111556764Y-69834928D01*
X111554000Y-69806860D01*
X111554000Y-67893140D01*
X111556764Y-67865072D01*
X111563160Y-67843991D01*
X111573548Y-67824555D01*
X111587524Y-67807524D01*
X111604555Y-67793548D01*
X111623991Y-67783160D01*
X111645072Y-67776764D01*
X111673140Y-67774000D01*
X112136860Y-67774000D01*
X112164928Y-67776764D01*
X112164928Y-67776764D01*
G37*
G36*
X108354928Y-67776764D02*
G01*
X108376009Y-67783160D01*
X108395445Y-67793548D01*
X108412476Y-67807524D01*
X108426452Y-67824555D01*
X108436840Y-67843991D01*
X108443236Y-67865072D01*
X108446000Y-67893140D01*
X108446000Y-69806860D01*
X108443236Y-69834928D01*
X108436840Y-69856009D01*
X108426452Y-69875445D01*
X108412476Y-69892476D01*
X108395445Y-69906452D01*
X108376009Y-69916840D01*
X108354928Y-69923236D01*
X108326860Y-69926000D01*
X107863140Y-69926000D01*
X107835072Y-69923236D01*
X107813991Y-69916840D01*
X107794555Y-69906452D01*
X107777524Y-69892476D01*
X107763548Y-69875445D01*
X107753160Y-69856009D01*
X107746764Y-69834928D01*
X107744000Y-69806860D01*
X107744000Y-67893140D01*
X107746764Y-67865072D01*
X107753160Y-67843991D01*
X107763548Y-67824555D01*
X107777524Y-67807524D01*
X107794555Y-67793548D01*
X107813991Y-67783160D01*
X107835072Y-67776764D01*
X107863140Y-67774000D01*
X108326860Y-67774000D01*
X108354928Y-67776764D01*
X108354928Y-67776764D01*
G37*
G36*
X107084928Y-67776764D02*
G01*
X107106009Y-67783160D01*
X107125445Y-67793548D01*
X107142476Y-67807524D01*
X107156452Y-67824555D01*
X107166840Y-67843991D01*
X107173236Y-67865072D01*
X107176000Y-67893140D01*
X107176000Y-69806860D01*
X107173236Y-69834928D01*
X107166840Y-69856009D01*
X107156452Y-69875445D01*
X107142476Y-69892476D01*
X107125445Y-69906452D01*
X107106009Y-69916840D01*
X107084928Y-69923236D01*
X107056860Y-69926000D01*
X106593140Y-69926000D01*
X106565072Y-69923236D01*
X106543991Y-69916840D01*
X106524555Y-69906452D01*
X106507524Y-69892476D01*
X106493548Y-69875445D01*
X106483160Y-69856009D01*
X106476764Y-69834928D01*
X106474000Y-69806860D01*
X106474000Y-67893140D01*
X106476764Y-67865072D01*
X106483160Y-67843991D01*
X106493548Y-67824555D01*
X106507524Y-67807524D01*
X106524555Y-67793548D01*
X106543991Y-67783160D01*
X106565072Y-67776764D01*
X106593140Y-67774000D01*
X107056860Y-67774000D01*
X107084928Y-67776764D01*
X107084928Y-67776764D01*
G37*
G36*
X105814928Y-67776764D02*
G01*
X105836009Y-67783160D01*
X105855445Y-67793548D01*
X105872476Y-67807524D01*
X105886452Y-67824555D01*
X105896840Y-67843991D01*
X105903236Y-67865072D01*
X105906000Y-67893140D01*
X105906000Y-69806860D01*
X105903236Y-69834928D01*
X105896840Y-69856009D01*
X105886452Y-69875445D01*
X105872476Y-69892476D01*
X105855445Y-69906452D01*
X105836009Y-69916840D01*
X105814928Y-69923236D01*
X105786860Y-69926000D01*
X105323140Y-69926000D01*
X105295072Y-69923236D01*
X105273991Y-69916840D01*
X105254555Y-69906452D01*
X105237524Y-69892476D01*
X105223548Y-69875445D01*
X105213160Y-69856009D01*
X105206764Y-69834928D01*
X105204000Y-69806860D01*
X105204000Y-67893140D01*
X105206764Y-67865072D01*
X105213160Y-67843991D01*
X105223548Y-67824555D01*
X105237524Y-67807524D01*
X105254555Y-67793548D01*
X105273991Y-67783160D01*
X105295072Y-67776764D01*
X105323140Y-67774000D01*
X105786860Y-67774000D01*
X105814928Y-67776764D01*
X105814928Y-67776764D01*
G37*
G36*
X104544928Y-67776764D02*
G01*
X104566009Y-67783160D01*
X104585445Y-67793548D01*
X104602476Y-67807524D01*
X104616452Y-67824555D01*
X104626840Y-67843991D01*
X104633236Y-67865072D01*
X104636000Y-67893140D01*
X104636000Y-69806860D01*
X104633236Y-69834928D01*
X104626840Y-69856009D01*
X104616452Y-69875445D01*
X104602476Y-69892476D01*
X104585445Y-69906452D01*
X104566009Y-69916840D01*
X104544928Y-69923236D01*
X104516860Y-69926000D01*
X104053140Y-69926000D01*
X104025072Y-69923236D01*
X104003991Y-69916840D01*
X103984555Y-69906452D01*
X103967524Y-69892476D01*
X103953548Y-69875445D01*
X103943160Y-69856009D01*
X103936764Y-69834928D01*
X103934000Y-69806860D01*
X103934000Y-67893140D01*
X103936764Y-67865072D01*
X103943160Y-67843991D01*
X103953548Y-67824555D01*
X103967524Y-67807524D01*
X103984555Y-67793548D01*
X104003991Y-67783160D01*
X104025072Y-67776764D01*
X104053140Y-67774000D01*
X104516860Y-67774000D01*
X104544928Y-67776764D01*
X104544928Y-67776764D01*
G37*
G36*
X114704928Y-67776764D02*
G01*
X114726009Y-67783160D01*
X114745445Y-67793548D01*
X114762476Y-67807524D01*
X114776452Y-67824555D01*
X114786840Y-67843991D01*
X114793236Y-67865072D01*
X114796000Y-67893140D01*
X114796000Y-69806860D01*
X114793236Y-69834928D01*
X114786840Y-69856009D01*
X114776452Y-69875445D01*
X114762476Y-69892476D01*
X114745445Y-69906452D01*
X114726009Y-69916840D01*
X114704928Y-69923236D01*
X114676860Y-69926000D01*
X114213140Y-69926000D01*
X114185072Y-69923236D01*
X114163991Y-69916840D01*
X114144555Y-69906452D01*
X114127524Y-69892476D01*
X114113548Y-69875445D01*
X114103160Y-69856009D01*
X114096764Y-69834928D01*
X114094000Y-69806860D01*
X114094000Y-67893140D01*
X114096764Y-67865072D01*
X114103160Y-67843991D01*
X114113548Y-67824555D01*
X114127524Y-67807524D01*
X114144555Y-67793548D01*
X114163991Y-67783160D01*
X114185072Y-67776764D01*
X114213140Y-67774000D01*
X114676860Y-67774000D01*
X114704928Y-67776764D01*
X114704928Y-67776764D01*
G37*
G36*
X115974928Y-67776764D02*
G01*
X115996009Y-67783160D01*
X116015445Y-67793548D01*
X116032476Y-67807524D01*
X116046452Y-67824555D01*
X116056840Y-67843991D01*
X116063236Y-67865072D01*
X116066000Y-67893140D01*
X116066000Y-69806860D01*
X116063236Y-69834928D01*
X116056840Y-69856009D01*
X116046452Y-69875445D01*
X116032476Y-69892476D01*
X116015445Y-69906452D01*
X115996009Y-69916840D01*
X115974928Y-69923236D01*
X115946860Y-69926000D01*
X115483140Y-69926000D01*
X115455072Y-69923236D01*
X115433991Y-69916840D01*
X115414555Y-69906452D01*
X115397524Y-69892476D01*
X115383548Y-69875445D01*
X115373160Y-69856009D01*
X115366764Y-69834928D01*
X115364000Y-69806860D01*
X115364000Y-67893140D01*
X115366764Y-67865072D01*
X115373160Y-67843991D01*
X115383548Y-67824555D01*
X115397524Y-67807524D01*
X115414555Y-67793548D01*
X115433991Y-67783160D01*
X115455072Y-67776764D01*
X115483140Y-67774000D01*
X115946860Y-67774000D01*
X115974928Y-67776764D01*
X115974928Y-67776764D01*
G37*
G36*
X58610443Y-67315519D02*
G01*
X58676627Y-67322037D01*
X58846466Y-67373557D01*
X59002991Y-67457222D01*
X59016215Y-67468075D01*
X59140186Y-67569814D01*
X59223448Y-67671271D01*
X59252778Y-67707009D01*
X59336443Y-67863534D01*
X59387963Y-68033373D01*
X59405359Y-68210000D01*
X59387963Y-68386627D01*
X59336443Y-68556466D01*
X59252778Y-68712991D01*
X59225877Y-68745770D01*
X59140186Y-68850186D01*
X59038729Y-68933448D01*
X59002991Y-68962778D01*
X58846466Y-69046443D01*
X58676627Y-69097963D01*
X58610443Y-69104481D01*
X58544260Y-69111000D01*
X58455740Y-69111000D01*
X58389557Y-69104481D01*
X58323373Y-69097963D01*
X58153534Y-69046443D01*
X57997009Y-68962778D01*
X57961271Y-68933448D01*
X57859814Y-68850186D01*
X57774123Y-68745770D01*
X57747222Y-68712991D01*
X57663557Y-68556466D01*
X57612037Y-68386627D01*
X57594641Y-68210000D01*
X57612037Y-68033373D01*
X57663557Y-67863534D01*
X57747222Y-67707009D01*
X57776552Y-67671271D01*
X57859814Y-67569814D01*
X57983785Y-67468075D01*
X57997009Y-67457222D01*
X58153534Y-67373557D01*
X58323373Y-67322037D01*
X58389557Y-67315519D01*
X58455740Y-67309000D01*
X58544260Y-67309000D01*
X58610443Y-67315519D01*
X58610443Y-67315519D01*
G37*
G36*
X81488674Y-67253465D02*
G01*
X81526367Y-67264899D01*
X81561103Y-67283466D01*
X81591548Y-67308452D01*
X81616534Y-67338897D01*
X81635101Y-67373633D01*
X81646535Y-67411326D01*
X81651000Y-67456661D01*
X81651000Y-68543339D01*
X81646535Y-68588674D01*
X81635101Y-68626367D01*
X81616534Y-68661103D01*
X81591548Y-68691548D01*
X81561103Y-68716534D01*
X81526367Y-68735101D01*
X81488674Y-68746535D01*
X81443339Y-68751000D01*
X80606661Y-68751000D01*
X80561326Y-68746535D01*
X80523633Y-68735101D01*
X80488897Y-68716534D01*
X80458452Y-68691548D01*
X80433466Y-68661103D01*
X80414899Y-68626367D01*
X80403465Y-68588674D01*
X80399000Y-68543339D01*
X80399000Y-67456661D01*
X80403465Y-67411326D01*
X80414899Y-67373633D01*
X80433466Y-67338897D01*
X80458452Y-67308452D01*
X80488897Y-67283466D01*
X80523633Y-67264899D01*
X80561326Y-67253465D01*
X80606661Y-67249000D01*
X81443339Y-67249000D01*
X81488674Y-67253465D01*
X81488674Y-67253465D01*
G37*
G36*
X73238674Y-67253465D02*
G01*
X73276367Y-67264899D01*
X73311103Y-67283466D01*
X73341548Y-67308452D01*
X73366534Y-67338897D01*
X73385101Y-67373633D01*
X73396535Y-67411326D01*
X73401000Y-67456661D01*
X73401000Y-68543339D01*
X73396535Y-68588674D01*
X73385101Y-68626367D01*
X73366534Y-68661103D01*
X73341548Y-68691548D01*
X73311103Y-68716534D01*
X73276367Y-68735101D01*
X73238674Y-68746535D01*
X73193339Y-68751000D01*
X72356661Y-68751000D01*
X72311326Y-68746535D01*
X72273633Y-68735101D01*
X72238897Y-68716534D01*
X72208452Y-68691548D01*
X72183466Y-68661103D01*
X72164899Y-68626367D01*
X72153465Y-68588674D01*
X72149000Y-68543339D01*
X72149000Y-67456661D01*
X72153465Y-67411326D01*
X72164899Y-67373633D01*
X72183466Y-67338897D01*
X72208452Y-67308452D01*
X72238897Y-67283466D01*
X72273633Y-67264899D01*
X72311326Y-67253465D01*
X72356661Y-67249000D01*
X73193339Y-67249000D01*
X73238674Y-67253465D01*
X73238674Y-67253465D01*
G37*
G36*
X71188674Y-67253465D02*
G01*
X71226367Y-67264899D01*
X71261103Y-67283466D01*
X71291548Y-67308452D01*
X71316534Y-67338897D01*
X71335101Y-67373633D01*
X71346535Y-67411326D01*
X71351000Y-67456661D01*
X71351000Y-68543339D01*
X71346535Y-68588674D01*
X71335101Y-68626367D01*
X71316534Y-68661103D01*
X71291548Y-68691548D01*
X71261103Y-68716534D01*
X71226367Y-68735101D01*
X71188674Y-68746535D01*
X71143339Y-68751000D01*
X70306661Y-68751000D01*
X70261326Y-68746535D01*
X70223633Y-68735101D01*
X70188897Y-68716534D01*
X70158452Y-68691548D01*
X70133466Y-68661103D01*
X70114899Y-68626367D01*
X70103465Y-68588674D01*
X70099000Y-68543339D01*
X70099000Y-67456661D01*
X70103465Y-67411326D01*
X70114899Y-67373633D01*
X70133466Y-67338897D01*
X70158452Y-67308452D01*
X70188897Y-67283466D01*
X70223633Y-67264899D01*
X70261326Y-67253465D01*
X70306661Y-67249000D01*
X71143339Y-67249000D01*
X71188674Y-67253465D01*
X71188674Y-67253465D01*
G37*
G36*
X79438674Y-67253465D02*
G01*
X79476367Y-67264899D01*
X79511103Y-67283466D01*
X79541548Y-67308452D01*
X79566534Y-67338897D01*
X79585101Y-67373633D01*
X79596535Y-67411326D01*
X79601000Y-67456661D01*
X79601000Y-68543339D01*
X79596535Y-68588674D01*
X79585101Y-68626367D01*
X79566534Y-68661103D01*
X79541548Y-68691548D01*
X79511103Y-68716534D01*
X79476367Y-68735101D01*
X79438674Y-68746535D01*
X79393339Y-68751000D01*
X78556661Y-68751000D01*
X78511326Y-68746535D01*
X78473633Y-68735101D01*
X78438897Y-68716534D01*
X78408452Y-68691548D01*
X78383466Y-68661103D01*
X78364899Y-68626367D01*
X78353465Y-68588674D01*
X78349000Y-68543339D01*
X78349000Y-67456661D01*
X78353465Y-67411326D01*
X78364899Y-67373633D01*
X78383466Y-67338897D01*
X78408452Y-67308452D01*
X78438897Y-67283466D01*
X78473633Y-67264899D01*
X78511326Y-67253465D01*
X78556661Y-67249000D01*
X79393339Y-67249000D01*
X79438674Y-67253465D01*
X79438674Y-67253465D01*
G37*
G36*
X116988674Y-64503465D02*
G01*
X117026367Y-64514899D01*
X117061103Y-64533466D01*
X117091548Y-64558452D01*
X117116534Y-64588897D01*
X117135101Y-64623633D01*
X117146535Y-64661326D01*
X117151000Y-64706661D01*
X117151000Y-65793339D01*
X117146535Y-65838674D01*
X117135101Y-65876367D01*
X117116534Y-65911103D01*
X117091548Y-65941548D01*
X117061103Y-65966534D01*
X117026367Y-65985101D01*
X116988674Y-65996535D01*
X116943339Y-66001000D01*
X116106661Y-66001000D01*
X116061326Y-65996535D01*
X116023633Y-65985101D01*
X115988897Y-65966534D01*
X115958452Y-65941548D01*
X115933466Y-65911103D01*
X115914899Y-65876367D01*
X115903465Y-65838674D01*
X115899000Y-65793339D01*
X115899000Y-64706661D01*
X115903465Y-64661326D01*
X115914899Y-64623633D01*
X115933466Y-64588897D01*
X115958452Y-64558452D01*
X115988897Y-64533466D01*
X116023633Y-64514899D01*
X116061326Y-64503465D01*
X116106661Y-64499000D01*
X116943339Y-64499000D01*
X116988674Y-64503465D01*
X116988674Y-64503465D01*
G37*
G36*
X114938674Y-64503465D02*
G01*
X114976367Y-64514899D01*
X115011103Y-64533466D01*
X115041548Y-64558452D01*
X115066534Y-64588897D01*
X115085101Y-64623633D01*
X115096535Y-64661326D01*
X115101000Y-64706661D01*
X115101000Y-65793339D01*
X115096535Y-65838674D01*
X115085101Y-65876367D01*
X115066534Y-65911103D01*
X115041548Y-65941548D01*
X115011103Y-65966534D01*
X114976367Y-65985101D01*
X114938674Y-65996535D01*
X114893339Y-66001000D01*
X114056661Y-66001000D01*
X114011326Y-65996535D01*
X113973633Y-65985101D01*
X113938897Y-65966534D01*
X113908452Y-65941548D01*
X113883466Y-65911103D01*
X113864899Y-65876367D01*
X113853465Y-65838674D01*
X113849000Y-65793339D01*
X113849000Y-64706661D01*
X113853465Y-64661326D01*
X113864899Y-64623633D01*
X113883466Y-64588897D01*
X113908452Y-64558452D01*
X113938897Y-64533466D01*
X113973633Y-64514899D01*
X114011326Y-64503465D01*
X114056661Y-64499000D01*
X114893339Y-64499000D01*
X114938674Y-64503465D01*
X114938674Y-64503465D01*
G37*
G36*
X71188674Y-64003465D02*
G01*
X71226367Y-64014899D01*
X71261103Y-64033466D01*
X71291548Y-64058452D01*
X71316534Y-64088897D01*
X71335101Y-64123633D01*
X71346535Y-64161326D01*
X71351000Y-64206661D01*
X71351000Y-65293339D01*
X71346535Y-65338674D01*
X71335101Y-65376367D01*
X71316534Y-65411103D01*
X71291548Y-65441548D01*
X71261103Y-65466534D01*
X71226367Y-65485101D01*
X71188674Y-65496535D01*
X71143339Y-65501000D01*
X70306661Y-65501000D01*
X70261326Y-65496535D01*
X70223633Y-65485101D01*
X70188897Y-65466534D01*
X70158452Y-65441548D01*
X70133466Y-65411103D01*
X70114899Y-65376367D01*
X70103465Y-65338674D01*
X70099000Y-65293339D01*
X70099000Y-64206661D01*
X70103465Y-64161326D01*
X70114899Y-64123633D01*
X70133466Y-64088897D01*
X70158452Y-64058452D01*
X70188897Y-64033466D01*
X70223633Y-64014899D01*
X70261326Y-64003465D01*
X70306661Y-63999000D01*
X71143339Y-63999000D01*
X71188674Y-64003465D01*
X71188674Y-64003465D01*
G37*
G36*
X73238674Y-64003465D02*
G01*
X73276367Y-64014899D01*
X73311103Y-64033466D01*
X73341548Y-64058452D01*
X73366534Y-64088897D01*
X73385101Y-64123633D01*
X73396535Y-64161326D01*
X73401000Y-64206661D01*
X73401000Y-65293339D01*
X73396535Y-65338674D01*
X73385101Y-65376367D01*
X73366534Y-65411103D01*
X73341548Y-65441548D01*
X73311103Y-65466534D01*
X73276367Y-65485101D01*
X73238674Y-65496535D01*
X73193339Y-65501000D01*
X72356661Y-65501000D01*
X72311326Y-65496535D01*
X72273633Y-65485101D01*
X72238897Y-65466534D01*
X72208452Y-65441548D01*
X72183466Y-65411103D01*
X72164899Y-65376367D01*
X72153465Y-65338674D01*
X72149000Y-65293339D01*
X72149000Y-64206661D01*
X72153465Y-64161326D01*
X72164899Y-64123633D01*
X72183466Y-64088897D01*
X72208452Y-64058452D01*
X72238897Y-64033466D01*
X72273633Y-64014899D01*
X72311326Y-64003465D01*
X72356661Y-63999000D01*
X73193339Y-63999000D01*
X73238674Y-64003465D01*
X73238674Y-64003465D01*
G37*
G36*
X79438674Y-64003465D02*
G01*
X79476367Y-64014899D01*
X79511103Y-64033466D01*
X79541548Y-64058452D01*
X79566534Y-64088897D01*
X79585101Y-64123633D01*
X79596535Y-64161326D01*
X79601000Y-64206661D01*
X79601000Y-65293339D01*
X79596535Y-65338674D01*
X79585101Y-65376367D01*
X79566534Y-65411103D01*
X79541548Y-65441548D01*
X79511103Y-65466534D01*
X79476367Y-65485101D01*
X79438674Y-65496535D01*
X79393339Y-65501000D01*
X78556661Y-65501000D01*
X78511326Y-65496535D01*
X78473633Y-65485101D01*
X78438897Y-65466534D01*
X78408452Y-65441548D01*
X78383466Y-65411103D01*
X78364899Y-65376367D01*
X78353465Y-65338674D01*
X78349000Y-65293339D01*
X78349000Y-64206661D01*
X78353465Y-64161326D01*
X78364899Y-64123633D01*
X78383466Y-64088897D01*
X78408452Y-64058452D01*
X78438897Y-64033466D01*
X78473633Y-64014899D01*
X78511326Y-64003465D01*
X78556661Y-63999000D01*
X79393339Y-63999000D01*
X79438674Y-64003465D01*
X79438674Y-64003465D01*
G37*
G36*
X81488674Y-64003465D02*
G01*
X81526367Y-64014899D01*
X81561103Y-64033466D01*
X81591548Y-64058452D01*
X81616534Y-64088897D01*
X81635101Y-64123633D01*
X81646535Y-64161326D01*
X81651000Y-64206661D01*
X81651000Y-65293339D01*
X81646535Y-65338674D01*
X81635101Y-65376367D01*
X81616534Y-65411103D01*
X81591548Y-65441548D01*
X81561103Y-65466534D01*
X81526367Y-65485101D01*
X81488674Y-65496535D01*
X81443339Y-65501000D01*
X80606661Y-65501000D01*
X80561326Y-65496535D01*
X80523633Y-65485101D01*
X80488897Y-65466534D01*
X80458452Y-65441548D01*
X80433466Y-65411103D01*
X80414899Y-65376367D01*
X80403465Y-65338674D01*
X80399000Y-65293339D01*
X80399000Y-64206661D01*
X80403465Y-64161326D01*
X80414899Y-64123633D01*
X80433466Y-64088897D01*
X80458452Y-64058452D01*
X80488897Y-64033466D01*
X80523633Y-64014899D01*
X80561326Y-64003465D01*
X80606661Y-63999000D01*
X81443339Y-63999000D01*
X81488674Y-64003465D01*
X81488674Y-64003465D01*
G37*
G36*
X59401000Y-65401000D02*
G01*
X57599000Y-65401000D01*
X57599000Y-63599000D01*
X59401000Y-63599000D01*
X59401000Y-65401000D01*
X59401000Y-65401000D01*
G37*
G36*
X111879487Y-60748996D02*
G01*
X112116253Y-60847068D01*
X112116255Y-60847069D01*
X112329339Y-60989447D01*
X112510553Y-61170661D01*
X112610214Y-61319814D01*
X112652932Y-61383747D01*
X112751004Y-61620513D01*
X112801000Y-61871861D01*
X112801000Y-62128139D01*
X112751004Y-62379487D01*
X112659587Y-62600186D01*
X112652931Y-62616255D01*
X112510553Y-62829339D01*
X112329339Y-63010553D01*
X112116255Y-63152931D01*
X112116254Y-63152932D01*
X112116253Y-63152932D01*
X111879487Y-63251004D01*
X111628139Y-63301000D01*
X111371861Y-63301000D01*
X111120513Y-63251004D01*
X110883747Y-63152932D01*
X110883746Y-63152932D01*
X110883745Y-63152931D01*
X110670661Y-63010553D01*
X110489447Y-62829339D01*
X110347069Y-62616255D01*
X110340413Y-62600186D01*
X110248996Y-62379487D01*
X110199000Y-62128139D01*
X110199000Y-61871861D01*
X110248996Y-61620513D01*
X110347068Y-61383747D01*
X110389787Y-61319814D01*
X110489447Y-61170661D01*
X110670661Y-60989447D01*
X110883745Y-60847069D01*
X110883747Y-60847068D01*
X111120513Y-60748996D01*
X111371861Y-60699000D01*
X111628139Y-60699000D01*
X111879487Y-60748996D01*
X111879487Y-60748996D01*
G37*
G36*
X58610443Y-61065519D02*
G01*
X58676627Y-61072037D01*
X58846466Y-61123557D01*
X59002991Y-61207222D01*
X59038729Y-61236552D01*
X59140186Y-61319814D01*
X59223448Y-61421271D01*
X59252778Y-61457009D01*
X59336443Y-61613534D01*
X59387963Y-61783373D01*
X59405359Y-61960000D01*
X59387963Y-62136627D01*
X59336443Y-62306466D01*
X59252778Y-62462991D01*
X59223448Y-62498729D01*
X59140186Y-62600186D01*
X59038729Y-62683448D01*
X59002991Y-62712778D01*
X58846466Y-62796443D01*
X58676627Y-62847963D01*
X58610442Y-62854482D01*
X58544260Y-62861000D01*
X58455740Y-62861000D01*
X58389558Y-62854482D01*
X58323373Y-62847963D01*
X58153534Y-62796443D01*
X57997009Y-62712778D01*
X57961271Y-62683448D01*
X57859814Y-62600186D01*
X57776552Y-62498729D01*
X57747222Y-62462991D01*
X57663557Y-62306466D01*
X57612037Y-62136627D01*
X57594641Y-61960000D01*
X57612037Y-61783373D01*
X57663557Y-61613534D01*
X57747222Y-61457009D01*
X57776552Y-61421271D01*
X57859814Y-61319814D01*
X57961271Y-61236552D01*
X57997009Y-61207222D01*
X58153534Y-61123557D01*
X58323373Y-61072037D01*
X58389557Y-61065519D01*
X58455740Y-61059000D01*
X58544260Y-61059000D01*
X58610443Y-61065519D01*
X58610443Y-61065519D01*
G37*
G36*
X81488674Y-60753465D02*
G01*
X81526367Y-60764899D01*
X81561103Y-60783466D01*
X81591548Y-60808452D01*
X81616534Y-60838897D01*
X81635101Y-60873633D01*
X81646535Y-60911326D01*
X81651000Y-60956661D01*
X81651000Y-62043339D01*
X81646535Y-62088674D01*
X81635101Y-62126367D01*
X81616534Y-62161103D01*
X81591548Y-62191548D01*
X81561103Y-62216534D01*
X81526367Y-62235101D01*
X81488674Y-62246535D01*
X81443339Y-62251000D01*
X80606661Y-62251000D01*
X80561326Y-62246535D01*
X80523633Y-62235101D01*
X80488897Y-62216534D01*
X80458452Y-62191548D01*
X80433466Y-62161103D01*
X80414899Y-62126367D01*
X80403465Y-62088674D01*
X80399000Y-62043339D01*
X80399000Y-60956661D01*
X80403465Y-60911326D01*
X80414899Y-60873633D01*
X80433466Y-60838897D01*
X80458452Y-60808452D01*
X80488897Y-60783466D01*
X80523633Y-60764899D01*
X80561326Y-60753465D01*
X80606661Y-60749000D01*
X81443339Y-60749000D01*
X81488674Y-60753465D01*
X81488674Y-60753465D01*
G37*
G36*
X79438674Y-60753465D02*
G01*
X79476367Y-60764899D01*
X79511103Y-60783466D01*
X79541548Y-60808452D01*
X79566534Y-60838897D01*
X79585101Y-60873633D01*
X79596535Y-60911326D01*
X79601000Y-60956661D01*
X79601000Y-62043339D01*
X79596535Y-62088674D01*
X79585101Y-62126367D01*
X79566534Y-62161103D01*
X79541548Y-62191548D01*
X79511103Y-62216534D01*
X79476367Y-62235101D01*
X79438674Y-62246535D01*
X79393339Y-62251000D01*
X78556661Y-62251000D01*
X78511326Y-62246535D01*
X78473633Y-62235101D01*
X78438897Y-62216534D01*
X78408452Y-62191548D01*
X78383466Y-62161103D01*
X78364899Y-62126367D01*
X78353465Y-62088674D01*
X78349000Y-62043339D01*
X78349000Y-60956661D01*
X78353465Y-60911326D01*
X78364899Y-60873633D01*
X78383466Y-60838897D01*
X78408452Y-60808452D01*
X78438897Y-60783466D01*
X78473633Y-60764899D01*
X78511326Y-60753465D01*
X78556661Y-60749000D01*
X79393339Y-60749000D01*
X79438674Y-60753465D01*
X79438674Y-60753465D01*
G37*
G36*
X73238674Y-60753465D02*
G01*
X73276367Y-60764899D01*
X73311103Y-60783466D01*
X73341548Y-60808452D01*
X73366534Y-60838897D01*
X73385101Y-60873633D01*
X73396535Y-60911326D01*
X73401000Y-60956661D01*
X73401000Y-62043339D01*
X73396535Y-62088674D01*
X73385101Y-62126367D01*
X73366534Y-62161103D01*
X73341548Y-62191548D01*
X73311103Y-62216534D01*
X73276367Y-62235101D01*
X73238674Y-62246535D01*
X73193339Y-62251000D01*
X72356661Y-62251000D01*
X72311326Y-62246535D01*
X72273633Y-62235101D01*
X72238897Y-62216534D01*
X72208452Y-62191548D01*
X72183466Y-62161103D01*
X72164899Y-62126367D01*
X72153465Y-62088674D01*
X72149000Y-62043339D01*
X72149000Y-60956661D01*
X72153465Y-60911326D01*
X72164899Y-60873633D01*
X72183466Y-60838897D01*
X72208452Y-60808452D01*
X72238897Y-60783466D01*
X72273633Y-60764899D01*
X72311326Y-60753465D01*
X72356661Y-60749000D01*
X73193339Y-60749000D01*
X73238674Y-60753465D01*
X73238674Y-60753465D01*
G37*
G36*
X71188674Y-60753465D02*
G01*
X71226367Y-60764899D01*
X71261103Y-60783466D01*
X71291548Y-60808452D01*
X71316534Y-60838897D01*
X71335101Y-60873633D01*
X71346535Y-60911326D01*
X71351000Y-60956661D01*
X71351000Y-62043339D01*
X71346535Y-62088674D01*
X71335101Y-62126367D01*
X71316534Y-62161103D01*
X71291548Y-62191548D01*
X71261103Y-62216534D01*
X71226367Y-62235101D01*
X71188674Y-62246535D01*
X71143339Y-62251000D01*
X70306661Y-62251000D01*
X70261326Y-62246535D01*
X70223633Y-62235101D01*
X70188897Y-62216534D01*
X70158452Y-62191548D01*
X70133466Y-62161103D01*
X70114899Y-62126367D01*
X70103465Y-62088674D01*
X70099000Y-62043339D01*
X70099000Y-60956661D01*
X70103465Y-60911326D01*
X70114899Y-60873633D01*
X70133466Y-60838897D01*
X70158452Y-60808452D01*
X70188897Y-60783466D01*
X70223633Y-60764899D01*
X70261326Y-60753465D01*
X70306661Y-60749000D01*
X71143339Y-60749000D01*
X71188674Y-60753465D01*
X71188674Y-60753465D01*
G37*
G36*
X90181000Y-62126000D02*
G01*
X88879000Y-62126000D01*
X88879000Y-59824000D01*
X90181000Y-59824000D01*
X90181000Y-62126000D01*
X90181000Y-62126000D01*
G37*
G36*
X85621000Y-62126000D02*
G01*
X84319000Y-62126000D01*
X84319000Y-59824000D01*
X85621000Y-59824000D01*
X85621000Y-62126000D01*
X85621000Y-62126000D01*
G37*
G36*
X120548156Y-50672794D02*
G01*
X121269140Y-50816206D01*
X122060972Y-51144193D01*
X122773601Y-51620357D01*
X123379643Y-52226399D01*
X123855807Y-52939028D01*
X124183794Y-53730860D01*
X124351000Y-54571464D01*
X124351000Y-55428536D01*
X124183794Y-56269140D01*
X123855807Y-57060972D01*
X123379643Y-57773601D01*
X122773601Y-58379643D01*
X122060972Y-58855807D01*
X121269140Y-59183794D01*
X120548156Y-59327206D01*
X120428537Y-59351000D01*
X119571463Y-59351000D01*
X119451844Y-59327206D01*
X118730860Y-59183794D01*
X117939028Y-58855807D01*
X117226399Y-58379643D01*
X116620357Y-57773601D01*
X116144193Y-57060972D01*
X115816206Y-56269140D01*
X115649000Y-55428536D01*
X115649000Y-54571464D01*
X115816206Y-53730860D01*
X116144193Y-52939028D01*
X116620357Y-52226399D01*
X117226399Y-51620357D01*
X117939028Y-51144193D01*
X118730860Y-50816206D01*
X119451844Y-50672794D01*
X119571463Y-50649000D01*
X120428537Y-50649000D01*
X120548156Y-50672794D01*
X120548156Y-50672794D01*
G37*
G36*
X60548156Y-50672794D02*
G01*
X61269140Y-50816206D01*
X62060972Y-51144193D01*
X62773601Y-51620357D01*
X63379643Y-52226399D01*
X63855807Y-52939028D01*
X64183794Y-53730860D01*
X64351000Y-54571464D01*
X64351000Y-55428536D01*
X64183794Y-56269140D01*
X63855807Y-57060972D01*
X63379643Y-57773601D01*
X62773601Y-58379643D01*
X62060972Y-58855807D01*
X61269140Y-59183794D01*
X60548156Y-59327206D01*
X60428537Y-59351000D01*
X59571463Y-59351000D01*
X59451844Y-59327206D01*
X58730860Y-59183794D01*
X57939028Y-58855807D01*
X57226399Y-58379643D01*
X56620357Y-57773601D01*
X56144193Y-57060972D01*
X55816206Y-56269140D01*
X55649000Y-55428536D01*
X55649000Y-54571464D01*
X55816206Y-53730860D01*
X56144193Y-52939028D01*
X56620357Y-52226399D01*
X57226399Y-51620357D01*
X57939028Y-51144193D01*
X58730860Y-50816206D01*
X59451844Y-50672794D01*
X59571463Y-50649000D01*
X60428537Y-50649000D01*
X60548156Y-50672794D01*
X60548156Y-50672794D01*
G37*
G36*
X82088674Y-57153465D02*
G01*
X82126367Y-57164899D01*
X82161103Y-57183466D01*
X82191548Y-57208452D01*
X82216534Y-57238897D01*
X82235101Y-57273633D01*
X82246535Y-57311326D01*
X82251000Y-57356661D01*
X82251000Y-58193339D01*
X82246535Y-58238674D01*
X82235101Y-58276367D01*
X82216534Y-58311103D01*
X82191548Y-58341548D01*
X82161103Y-58366534D01*
X82126367Y-58385101D01*
X82088674Y-58396535D01*
X82043339Y-58401000D01*
X80956661Y-58401000D01*
X80911326Y-58396535D01*
X80873633Y-58385101D01*
X80838897Y-58366534D01*
X80808452Y-58341548D01*
X80783466Y-58311103D01*
X80764899Y-58276367D01*
X80753465Y-58238674D01*
X80749000Y-58193339D01*
X80749000Y-57356661D01*
X80753465Y-57311326D01*
X80764899Y-57273633D01*
X80783466Y-57238897D01*
X80808452Y-57208452D01*
X80838897Y-57183466D01*
X80873633Y-57164899D01*
X80911326Y-57153465D01*
X80956661Y-57149000D01*
X82043339Y-57149000D01*
X82088674Y-57153465D01*
X82088674Y-57153465D01*
G37*
G36*
X92588674Y-56903465D02*
G01*
X92626367Y-56914899D01*
X92661103Y-56933466D01*
X92691548Y-56958452D01*
X92716534Y-56988897D01*
X92735101Y-57023633D01*
X92746535Y-57061326D01*
X92751000Y-57106661D01*
X92751000Y-57943339D01*
X92746535Y-57988674D01*
X92735101Y-58026367D01*
X92716534Y-58061103D01*
X92691548Y-58091548D01*
X92661103Y-58116534D01*
X92626367Y-58135101D01*
X92588674Y-58146535D01*
X92543339Y-58151000D01*
X91456661Y-58151000D01*
X91411326Y-58146535D01*
X91373633Y-58135101D01*
X91338897Y-58116534D01*
X91308452Y-58091548D01*
X91283466Y-58061103D01*
X91264899Y-58026367D01*
X91253465Y-57988674D01*
X91249000Y-57943339D01*
X91249000Y-57106661D01*
X91253465Y-57061326D01*
X91264899Y-57023633D01*
X91283466Y-56988897D01*
X91308452Y-56958452D01*
X91338897Y-56933466D01*
X91373633Y-56914899D01*
X91411326Y-56903465D01*
X91456661Y-56899000D01*
X92543339Y-56899000D01*
X92588674Y-56903465D01*
X92588674Y-56903465D01*
G37*
G36*
X90201000Y-57926000D02*
G01*
X84299000Y-57926000D01*
X84299000Y-51424000D01*
X90201000Y-51424000D01*
X90201000Y-57926000D01*
X90201000Y-57926000D01*
G37*
G36*
X82088674Y-55103465D02*
G01*
X82126367Y-55114899D01*
X82161103Y-55133466D01*
X82191548Y-55158452D01*
X82216534Y-55188897D01*
X82235101Y-55223633D01*
X82246535Y-55261326D01*
X82251000Y-55306661D01*
X82251000Y-56143339D01*
X82246535Y-56188674D01*
X82235101Y-56226367D01*
X82216534Y-56261103D01*
X82191548Y-56291548D01*
X82161103Y-56316534D01*
X82126367Y-56335101D01*
X82088674Y-56346535D01*
X82043339Y-56351000D01*
X80956661Y-56351000D01*
X80911326Y-56346535D01*
X80873633Y-56335101D01*
X80838897Y-56316534D01*
X80808452Y-56291548D01*
X80783466Y-56261103D01*
X80764899Y-56226367D01*
X80753465Y-56188674D01*
X80749000Y-56143339D01*
X80749000Y-55306661D01*
X80753465Y-55261326D01*
X80764899Y-55223633D01*
X80783466Y-55188897D01*
X80808452Y-55158452D01*
X80838897Y-55133466D01*
X80873633Y-55114899D01*
X80911326Y-55103465D01*
X80956661Y-55099000D01*
X82043339Y-55099000D01*
X82088674Y-55103465D01*
X82088674Y-55103465D01*
G37*
G36*
X111379487Y-53748996D02*
G01*
X111616253Y-53847068D01*
X111616255Y-53847069D01*
X111829339Y-53989447D01*
X112010553Y-54170661D01*
X112136942Y-54359815D01*
X112152932Y-54383747D01*
X112251004Y-54620513D01*
X112301000Y-54871861D01*
X112301000Y-55128139D01*
X112251004Y-55379487D01*
X112162742Y-55592569D01*
X112152931Y-55616255D01*
X112010553Y-55829339D01*
X111829339Y-56010553D01*
X111616255Y-56152931D01*
X111616254Y-56152932D01*
X111616253Y-56152932D01*
X111379487Y-56251004D01*
X111128139Y-56301000D01*
X110871861Y-56301000D01*
X110620513Y-56251004D01*
X110383747Y-56152932D01*
X110383746Y-56152932D01*
X110383745Y-56152931D01*
X110170661Y-56010553D01*
X109989447Y-55829339D01*
X109847069Y-55616255D01*
X109837258Y-55592569D01*
X109748996Y-55379487D01*
X109699000Y-55128139D01*
X109699000Y-54871861D01*
X109748996Y-54620513D01*
X109847068Y-54383747D01*
X109863059Y-54359815D01*
X109989447Y-54170661D01*
X110170661Y-53989447D01*
X110383745Y-53847069D01*
X110383747Y-53847068D01*
X110620513Y-53748996D01*
X110871861Y-53699000D01*
X111128139Y-53699000D01*
X111379487Y-53748996D01*
X111379487Y-53748996D01*
G37*
G36*
X73864903Y-53797075D02*
G01*
X73985600Y-53847069D01*
X74092571Y-53891378D01*
X74297466Y-54028285D01*
X74471715Y-54202534D01*
X74592798Y-54383747D01*
X74608623Y-54407431D01*
X74702925Y-54635097D01*
X74751000Y-54876786D01*
X74751000Y-55123214D01*
X74731025Y-55223633D01*
X74702925Y-55364903D01*
X74608622Y-55592571D01*
X74471715Y-55797466D01*
X74297466Y-55971715D01*
X74092571Y-56108622D01*
X74092570Y-56108623D01*
X74092569Y-56108623D01*
X73864903Y-56202925D01*
X73623214Y-56251000D01*
X73376786Y-56251000D01*
X73135097Y-56202925D01*
X72907431Y-56108623D01*
X72907430Y-56108623D01*
X72907429Y-56108622D01*
X72702534Y-55971715D01*
X72528285Y-55797466D01*
X72391378Y-55592571D01*
X72297075Y-55364903D01*
X72268975Y-55223633D01*
X72249000Y-55123214D01*
X72249000Y-54876786D01*
X72297075Y-54635097D01*
X72391377Y-54407431D01*
X72407202Y-54383747D01*
X72528285Y-54202534D01*
X72702534Y-54028285D01*
X72907429Y-53891378D01*
X73014401Y-53847069D01*
X73135097Y-53797075D01*
X73376786Y-53749000D01*
X73623214Y-53749000D01*
X73864903Y-53797075D01*
X73864903Y-53797075D01*
G37*
G36*
X71251000Y-56251000D02*
G01*
X68749000Y-56251000D01*
X68749000Y-53749000D01*
X71251000Y-53749000D01*
X71251000Y-56251000D01*
X71251000Y-56251000D01*
G37*
G36*
X92588674Y-54853465D02*
G01*
X92626367Y-54864899D01*
X92661103Y-54883466D01*
X92691548Y-54908452D01*
X92716534Y-54938897D01*
X92735101Y-54973633D01*
X92746535Y-55011326D01*
X92751000Y-55056661D01*
X92751000Y-55893339D01*
X92746535Y-55938674D01*
X92735101Y-55976367D01*
X92716534Y-56011103D01*
X92691548Y-56041548D01*
X92661103Y-56066534D01*
X92626367Y-56085101D01*
X92588674Y-56096535D01*
X92543339Y-56101000D01*
X91456661Y-56101000D01*
X91411326Y-56096535D01*
X91373633Y-56085101D01*
X91338897Y-56066534D01*
X91308452Y-56041548D01*
X91283466Y-56011103D01*
X91264899Y-55976367D01*
X91253465Y-55938674D01*
X91249000Y-55893339D01*
X91249000Y-55056661D01*
X91253465Y-55011326D01*
X91264899Y-54973633D01*
X91283466Y-54938897D01*
X91308452Y-54908452D01*
X91338897Y-54883466D01*
X91373633Y-54864899D01*
X91411326Y-54853465D01*
X91456661Y-54849000D01*
X92543339Y-54849000D01*
X92588674Y-54853465D01*
X92588674Y-54853465D01*
G37*
G36*
X105270442Y-54105518D02*
G01*
X105336627Y-54112037D01*
X105506466Y-54163557D01*
X105662991Y-54247222D01*
X105698729Y-54276552D01*
X105800186Y-54359814D01*
X105883448Y-54461271D01*
X105912778Y-54497009D01*
X105996443Y-54653534D01*
X106047963Y-54823373D01*
X106065359Y-55000000D01*
X106047963Y-55176627D01*
X105996443Y-55346466D01*
X105912778Y-55502991D01*
X105883448Y-55538729D01*
X105800186Y-55640186D01*
X105698729Y-55723448D01*
X105662991Y-55752778D01*
X105662989Y-55752779D01*
X105520715Y-55828827D01*
X105506466Y-55836443D01*
X105336627Y-55887963D01*
X105270442Y-55894482D01*
X105204260Y-55901000D01*
X105115740Y-55901000D01*
X105049558Y-55894482D01*
X104983373Y-55887963D01*
X104813534Y-55836443D01*
X104799286Y-55828827D01*
X104657011Y-55752779D01*
X104657009Y-55752778D01*
X104621271Y-55723448D01*
X104519814Y-55640186D01*
X104436552Y-55538729D01*
X104407222Y-55502991D01*
X104323557Y-55346466D01*
X104272037Y-55176627D01*
X104254641Y-55000000D01*
X104272037Y-54823373D01*
X104323557Y-54653534D01*
X104407222Y-54497009D01*
X104436552Y-54461271D01*
X104519814Y-54359814D01*
X104621271Y-54276552D01*
X104657009Y-54247222D01*
X104813534Y-54163557D01*
X104983373Y-54112037D01*
X105049558Y-54105518D01*
X105115740Y-54099000D01*
X105204260Y-54099000D01*
X105270442Y-54105518D01*
X105270442Y-54105518D01*
G37*
G36*
X100190442Y-54105518D02*
G01*
X100256627Y-54112037D01*
X100426466Y-54163557D01*
X100582991Y-54247222D01*
X100618729Y-54276552D01*
X100720186Y-54359814D01*
X100803448Y-54461271D01*
X100832778Y-54497009D01*
X100916443Y-54653534D01*
X100967963Y-54823373D01*
X100985359Y-55000000D01*
X100967963Y-55176627D01*
X100916443Y-55346466D01*
X100832778Y-55502991D01*
X100803448Y-55538729D01*
X100720186Y-55640186D01*
X100618729Y-55723448D01*
X100582991Y-55752778D01*
X100582989Y-55752779D01*
X100440715Y-55828827D01*
X100426466Y-55836443D01*
X100256627Y-55887963D01*
X100190442Y-55894482D01*
X100124260Y-55901000D01*
X100035740Y-55901000D01*
X99969558Y-55894482D01*
X99903373Y-55887963D01*
X99733534Y-55836443D01*
X99719286Y-55828827D01*
X99577011Y-55752779D01*
X99577009Y-55752778D01*
X99541271Y-55723448D01*
X99439814Y-55640186D01*
X99356552Y-55538729D01*
X99327222Y-55502991D01*
X99243557Y-55346466D01*
X99192037Y-55176627D01*
X99174641Y-55000000D01*
X99192037Y-54823373D01*
X99243557Y-54653534D01*
X99327222Y-54497009D01*
X99356552Y-54461271D01*
X99439814Y-54359814D01*
X99541271Y-54276552D01*
X99577009Y-54247222D01*
X99733534Y-54163557D01*
X99903373Y-54112037D01*
X99969558Y-54105518D01*
X100035740Y-54099000D01*
X100124260Y-54099000D01*
X100190442Y-54105518D01*
X100190442Y-54105518D01*
G37*
G36*
X97650442Y-54105518D02*
G01*
X97716627Y-54112037D01*
X97886466Y-54163557D01*
X98042991Y-54247222D01*
X98078729Y-54276552D01*
X98180186Y-54359814D01*
X98263448Y-54461271D01*
X98292778Y-54497009D01*
X98376443Y-54653534D01*
X98427963Y-54823373D01*
X98445359Y-55000000D01*
X98427963Y-55176627D01*
X98376443Y-55346466D01*
X98292778Y-55502991D01*
X98263448Y-55538729D01*
X98180186Y-55640186D01*
X98078729Y-55723448D01*
X98042991Y-55752778D01*
X98042989Y-55752779D01*
X97900715Y-55828827D01*
X97886466Y-55836443D01*
X97716627Y-55887963D01*
X97650442Y-55894482D01*
X97584260Y-55901000D01*
X97495740Y-55901000D01*
X97429558Y-55894482D01*
X97363373Y-55887963D01*
X97193534Y-55836443D01*
X97179286Y-55828827D01*
X97037011Y-55752779D01*
X97037009Y-55752778D01*
X97001271Y-55723448D01*
X96899814Y-55640186D01*
X96816552Y-55538729D01*
X96787222Y-55502991D01*
X96703557Y-55346466D01*
X96652037Y-55176627D01*
X96634641Y-55000000D01*
X96652037Y-54823373D01*
X96703557Y-54653534D01*
X96787222Y-54497009D01*
X96816552Y-54461271D01*
X96899814Y-54359814D01*
X97001271Y-54276552D01*
X97037009Y-54247222D01*
X97193534Y-54163557D01*
X97363373Y-54112037D01*
X97429558Y-54105518D01*
X97495740Y-54099000D01*
X97584260Y-54099000D01*
X97650442Y-54105518D01*
X97650442Y-54105518D01*
G37*
G36*
X102730442Y-54105518D02*
G01*
X102796627Y-54112037D01*
X102966466Y-54163557D01*
X103122991Y-54247222D01*
X103158729Y-54276552D01*
X103260186Y-54359814D01*
X103343448Y-54461271D01*
X103372778Y-54497009D01*
X103456443Y-54653534D01*
X103507963Y-54823373D01*
X103525359Y-55000000D01*
X103507963Y-55176627D01*
X103456443Y-55346466D01*
X103372778Y-55502991D01*
X103343448Y-55538729D01*
X103260186Y-55640186D01*
X103158729Y-55723448D01*
X103122991Y-55752778D01*
X103122989Y-55752779D01*
X102980715Y-55828827D01*
X102966466Y-55836443D01*
X102796627Y-55887963D01*
X102730442Y-55894482D01*
X102664260Y-55901000D01*
X102575740Y-55901000D01*
X102509558Y-55894482D01*
X102443373Y-55887963D01*
X102273534Y-55836443D01*
X102259286Y-55828827D01*
X102117011Y-55752779D01*
X102117009Y-55752778D01*
X102081271Y-55723448D01*
X101979814Y-55640186D01*
X101896552Y-55538729D01*
X101867222Y-55502991D01*
X101783557Y-55346466D01*
X101732037Y-55176627D01*
X101714641Y-55000000D01*
X101732037Y-54823373D01*
X101783557Y-54653534D01*
X101867222Y-54497009D01*
X101896552Y-54461271D01*
X101979814Y-54359814D01*
X102081271Y-54276552D01*
X102117009Y-54247222D01*
X102273534Y-54163557D01*
X102443373Y-54112037D01*
X102509558Y-54105518D01*
X102575740Y-54099000D01*
X102664260Y-54099000D01*
X102730442Y-54105518D01*
X102730442Y-54105518D01*
G37*
G36*
X95901000Y-55901000D02*
G01*
X94099000Y-55901000D01*
X94099000Y-54099000D01*
X95901000Y-54099000D01*
X95901000Y-55901000D01*
X95901000Y-55901000D01*
G37*
M02*
