G04 #@! TF.GenerationSoftware,KiCad,Pcbnew,(5.1.4-0-10_14)*
G04 #@! TF.CreationDate,2020-11-17T21:22:23+01:00*
G04 #@! TF.ProjectId,output_driver,6f757470-7574-45f6-9472-697665722e6b,rev?*
G04 #@! TF.SameCoordinates,Original*
G04 #@! TF.FileFunction,Legend,Bot*
G04 #@! TF.FilePolarity,Positive*
%FSLAX46Y46*%
G04 Gerber Fmt 4.6, Leading zero omitted, Abs format (unit mm)*
G04 Created by KiCad (PCBNEW (5.1.4-0-10_14)) date 2020-11-17 21:22:23*
%MOMM*%
%LPD*%
G04 APERTURE LIST*
%ADD10C,0.010000*%
G04 APERTURE END LIST*
D10*
G36*
X74976866Y-86194215D02*
G01*
X74908292Y-86122252D01*
X74816802Y-86041756D01*
X74757324Y-86009285D01*
X74715001Y-86017461D01*
X74707975Y-86022748D01*
X74663153Y-86102383D01*
X74660882Y-86212748D01*
X74698518Y-86327789D01*
X74745839Y-86395702D01*
X74821986Y-86468155D01*
X74878366Y-86487254D01*
X74937627Y-86458529D01*
X74953280Y-86446357D01*
X75023066Y-86368302D01*
X75031437Y-86287922D01*
X74976866Y-86194215D01*
X74976866Y-86194215D01*
G37*
X74976866Y-86194215D02*
X74908292Y-86122252D01*
X74816802Y-86041756D01*
X74757324Y-86009285D01*
X74715001Y-86017461D01*
X74707975Y-86022748D01*
X74663153Y-86102383D01*
X74660882Y-86212748D01*
X74698518Y-86327789D01*
X74745839Y-86395702D01*
X74821986Y-86468155D01*
X74878366Y-86487254D01*
X74937627Y-86458529D01*
X74953280Y-86446357D01*
X75023066Y-86368302D01*
X75031437Y-86287922D01*
X74976866Y-86194215D01*
G36*
X75206927Y-94871412D02*
G01*
X75154977Y-94853948D01*
X75064984Y-94844226D01*
X74930032Y-94841490D01*
X74743204Y-94844983D01*
X74497584Y-94853945D01*
X74194303Y-94867254D01*
X73887606Y-94879880D01*
X73560627Y-94891036D01*
X73233848Y-94900183D01*
X72927752Y-94906780D01*
X72662819Y-94910287D01*
X72546443Y-94910708D01*
X72301752Y-94909690D01*
X72116479Y-94906426D01*
X71977478Y-94899726D01*
X71871604Y-94888399D01*
X71785711Y-94871256D01*
X71706654Y-94847106D01*
X71661923Y-94830636D01*
X71546953Y-94788137D01*
X71479823Y-94771391D01*
X71440857Y-94779538D01*
X71410378Y-94811723D01*
X71404694Y-94819428D01*
X71361146Y-94920949D01*
X71364289Y-95022629D01*
X71404155Y-95087171D01*
X71448133Y-95115590D01*
X71509328Y-95138978D01*
X71593765Y-95157598D01*
X71707471Y-95171711D01*
X71856472Y-95181578D01*
X72046793Y-95187460D01*
X72284462Y-95189618D01*
X72575504Y-95188316D01*
X72925945Y-95183813D01*
X73341811Y-95176371D01*
X73423143Y-95174758D01*
X73817726Y-95166646D01*
X74146203Y-95159077D01*
X74415028Y-95151339D01*
X74630656Y-95142718D01*
X74799540Y-95132499D01*
X74928135Y-95119969D01*
X75022896Y-95104414D01*
X75090277Y-95085121D01*
X75136731Y-95061374D01*
X75168714Y-95032462D01*
X75192679Y-94997669D01*
X75203673Y-94977844D01*
X75224358Y-94932603D01*
X75227748Y-94897378D01*
X75206927Y-94871412D01*
X75206927Y-94871412D01*
G37*
X75206927Y-94871412D02*
X75154977Y-94853948D01*
X75064984Y-94844226D01*
X74930032Y-94841490D01*
X74743204Y-94844983D01*
X74497584Y-94853945D01*
X74194303Y-94867254D01*
X73887606Y-94879880D01*
X73560627Y-94891036D01*
X73233848Y-94900183D01*
X72927752Y-94906780D01*
X72662819Y-94910287D01*
X72546443Y-94910708D01*
X72301752Y-94909690D01*
X72116479Y-94906426D01*
X71977478Y-94899726D01*
X71871604Y-94888399D01*
X71785711Y-94871256D01*
X71706654Y-94847106D01*
X71661923Y-94830636D01*
X71546953Y-94788137D01*
X71479823Y-94771391D01*
X71440857Y-94779538D01*
X71410378Y-94811723D01*
X71404694Y-94819428D01*
X71361146Y-94920949D01*
X71364289Y-95022629D01*
X71404155Y-95087171D01*
X71448133Y-95115590D01*
X71509328Y-95138978D01*
X71593765Y-95157598D01*
X71707471Y-95171711D01*
X71856472Y-95181578D01*
X72046793Y-95187460D01*
X72284462Y-95189618D01*
X72575504Y-95188316D01*
X72925945Y-95183813D01*
X73341811Y-95176371D01*
X73423143Y-95174758D01*
X73817726Y-95166646D01*
X74146203Y-95159077D01*
X74415028Y-95151339D01*
X74630656Y-95142718D01*
X74799540Y-95132499D01*
X74928135Y-95119969D01*
X75022896Y-95104414D01*
X75090277Y-95085121D01*
X75136731Y-95061374D01*
X75168714Y-95032462D01*
X75192679Y-94997669D01*
X75203673Y-94977844D01*
X75224358Y-94932603D01*
X75227748Y-94897378D01*
X75206927Y-94871412D01*
G36*
X73968478Y-65403099D02*
G01*
X73877609Y-65236166D01*
X73870086Y-65227027D01*
X73756317Y-65137207D01*
X73627506Y-65113833D01*
X73489134Y-65153744D01*
X73346682Y-65253777D01*
X73205631Y-65410769D01*
X73071462Y-65621558D01*
X73023140Y-65715690D01*
X72945492Y-65894990D01*
X72872203Y-66096152D01*
X72817812Y-66278868D01*
X72813333Y-66297271D01*
X72778078Y-66440246D01*
X72748857Y-66528338D01*
X72716110Y-66577540D01*
X72670278Y-66603846D01*
X72621527Y-66618181D01*
X72523183Y-66632481D01*
X72382316Y-66639584D01*
X72228749Y-66638025D01*
X72222888Y-66637767D01*
X72069151Y-66626791D01*
X71963185Y-66606181D01*
X71880243Y-66569108D01*
X71817620Y-66525901D01*
X71717412Y-66424184D01*
X71648405Y-66307373D01*
X71643626Y-66294120D01*
X71616244Y-66117238D01*
X71633858Y-65916294D01*
X71692679Y-65720955D01*
X71725352Y-65653816D01*
X71826045Y-65518285D01*
X71980508Y-65369459D01*
X72174409Y-65219122D01*
X72393414Y-65079055D01*
X72488041Y-65026855D01*
X72622387Y-64950964D01*
X72693488Y-64896859D01*
X72706029Y-64860790D01*
X72702053Y-64855539D01*
X72637568Y-64838552D01*
X72526749Y-64857794D01*
X72382374Y-64907396D01*
X72217221Y-64981488D01*
X72044069Y-65074199D01*
X71875695Y-65179659D01*
X71724878Y-65291999D01*
X71692987Y-65319094D01*
X71505116Y-65518576D01*
X71384646Y-65733567D01*
X71326570Y-65974741D01*
X71319368Y-66115339D01*
X71337544Y-66348479D01*
X71386244Y-66516740D01*
X71506011Y-66698438D01*
X71673985Y-66833930D01*
X71882139Y-66922884D01*
X72122448Y-66964972D01*
X72386887Y-66959861D01*
X72667429Y-66907222D01*
X72956050Y-66806724D01*
X72977358Y-66795749D01*
X72977358Y-66541330D01*
X73001653Y-66389402D01*
X73029511Y-66272542D01*
X73076628Y-66126398D01*
X73119545Y-66015095D01*
X73214511Y-65813774D01*
X73317357Y-65636979D01*
X73418788Y-65498731D01*
X73509509Y-65413053D01*
X73524644Y-65403941D01*
X73592897Y-65377503D01*
X73642766Y-65398983D01*
X73681040Y-65441803D01*
X73741868Y-65570717D01*
X73744602Y-65723838D01*
X73694890Y-65890677D01*
X73598378Y-66060747D01*
X73460714Y-66223560D01*
X73287546Y-66368627D01*
X73131286Y-66462802D01*
X72977358Y-66541330D01*
X72977358Y-66795749D01*
X73244723Y-66658036D01*
X73340303Y-66597218D01*
X73568155Y-66418039D01*
X73751153Y-66219521D01*
X73885991Y-66010216D01*
X73969362Y-65798676D01*
X73997960Y-65593453D01*
X73968478Y-65403099D01*
X73968478Y-65403099D01*
G37*
X73968478Y-65403099D02*
X73877609Y-65236166D01*
X73870086Y-65227027D01*
X73756317Y-65137207D01*
X73627506Y-65113833D01*
X73489134Y-65153744D01*
X73346682Y-65253777D01*
X73205631Y-65410769D01*
X73071462Y-65621558D01*
X73023140Y-65715690D01*
X72945492Y-65894990D01*
X72872203Y-66096152D01*
X72817812Y-66278868D01*
X72813333Y-66297271D01*
X72778078Y-66440246D01*
X72748857Y-66528338D01*
X72716110Y-66577540D01*
X72670278Y-66603846D01*
X72621527Y-66618181D01*
X72523183Y-66632481D01*
X72382316Y-66639584D01*
X72228749Y-66638025D01*
X72222888Y-66637767D01*
X72069151Y-66626791D01*
X71963185Y-66606181D01*
X71880243Y-66569108D01*
X71817620Y-66525901D01*
X71717412Y-66424184D01*
X71648405Y-66307373D01*
X71643626Y-66294120D01*
X71616244Y-66117238D01*
X71633858Y-65916294D01*
X71692679Y-65720955D01*
X71725352Y-65653816D01*
X71826045Y-65518285D01*
X71980508Y-65369459D01*
X72174409Y-65219122D01*
X72393414Y-65079055D01*
X72488041Y-65026855D01*
X72622387Y-64950964D01*
X72693488Y-64896859D01*
X72706029Y-64860790D01*
X72702053Y-64855539D01*
X72637568Y-64838552D01*
X72526749Y-64857794D01*
X72382374Y-64907396D01*
X72217221Y-64981488D01*
X72044069Y-65074199D01*
X71875695Y-65179659D01*
X71724878Y-65291999D01*
X71692987Y-65319094D01*
X71505116Y-65518576D01*
X71384646Y-65733567D01*
X71326570Y-65974741D01*
X71319368Y-66115339D01*
X71337544Y-66348479D01*
X71386244Y-66516740D01*
X71506011Y-66698438D01*
X71673985Y-66833930D01*
X71882139Y-66922884D01*
X72122448Y-66964972D01*
X72386887Y-66959861D01*
X72667429Y-66907222D01*
X72956050Y-66806724D01*
X72977358Y-66795749D01*
X72977358Y-66541330D01*
X73001653Y-66389402D01*
X73029511Y-66272542D01*
X73076628Y-66126398D01*
X73119545Y-66015095D01*
X73214511Y-65813774D01*
X73317357Y-65636979D01*
X73418788Y-65498731D01*
X73509509Y-65413053D01*
X73524644Y-65403941D01*
X73592897Y-65377503D01*
X73642766Y-65398983D01*
X73681040Y-65441803D01*
X73741868Y-65570717D01*
X73744602Y-65723838D01*
X73694890Y-65890677D01*
X73598378Y-66060747D01*
X73460714Y-66223560D01*
X73287546Y-66368627D01*
X73131286Y-66462802D01*
X72977358Y-66541330D01*
X72977358Y-66795749D01*
X73244723Y-66658036D01*
X73340303Y-66597218D01*
X73568155Y-66418039D01*
X73751153Y-66219521D01*
X73885991Y-66010216D01*
X73969362Y-65798676D01*
X73997960Y-65593453D01*
X73968478Y-65403099D01*
G36*
X73952637Y-78583143D02*
G01*
X73877968Y-78461442D01*
X73836209Y-78416342D01*
X73759133Y-78343917D01*
X73695059Y-78306050D01*
X73616306Y-78293443D01*
X73495190Y-78296796D01*
X73482423Y-78297498D01*
X73339061Y-78299052D01*
X73253443Y-78282777D01*
X73219756Y-78258339D01*
X73189165Y-78239431D01*
X73124476Y-78223926D01*
X73017590Y-78211036D01*
X72860410Y-78199978D01*
X72644840Y-78189964D01*
X72439613Y-78182656D01*
X72141490Y-78170626D01*
X71906093Y-78156137D01*
X71736319Y-78139435D01*
X71635063Y-78120764D01*
X71614636Y-78112930D01*
X71514188Y-78088859D01*
X71414908Y-78110319D01*
X71336016Y-78165480D01*
X71296731Y-78242516D01*
X71303563Y-78304371D01*
X71333277Y-78348982D01*
X71389411Y-78382750D01*
X71480563Y-78407008D01*
X71615331Y-78423087D01*
X71802313Y-78432321D01*
X72050107Y-78436040D01*
X72154850Y-78436286D01*
X72363204Y-78437892D01*
X72543968Y-78442352D01*
X72685676Y-78449132D01*
X72776865Y-78457695D01*
X72806286Y-78466721D01*
X72777183Y-78496492D01*
X72697907Y-78555180D01*
X72580503Y-78634349D01*
X72437016Y-78725562D01*
X72434357Y-78727207D01*
X72201226Y-78885486D01*
X71973980Y-79065502D01*
X71765061Y-79255388D01*
X71586911Y-79443277D01*
X71451973Y-79617301D01*
X71390866Y-79722460D01*
X71326475Y-79900182D01*
X71294980Y-80082347D01*
X71298352Y-80246495D01*
X71334617Y-80363491D01*
X71433122Y-80467406D01*
X71577740Y-80524798D01*
X71728437Y-80529677D01*
X71728437Y-80217755D01*
X71643437Y-80198482D01*
X71633048Y-80190095D01*
X71610998Y-80125527D01*
X71612455Y-80017007D01*
X71634805Y-79888292D01*
X71675435Y-79763138D01*
X71681536Y-79749220D01*
X71777468Y-79591959D01*
X71927742Y-79414161D01*
X72121269Y-79226685D01*
X72346962Y-79040389D01*
X72561878Y-78887043D01*
X72784921Y-78742969D01*
X72962273Y-78638586D01*
X73105208Y-78568626D01*
X73225004Y-78527822D01*
X73332935Y-78510905D01*
X73369712Y-78509654D01*
X73528701Y-78531770D01*
X73631585Y-78595981D01*
X73676380Y-78696035D01*
X73661103Y-78825678D01*
X73583768Y-78978658D01*
X73538271Y-79040884D01*
X73321584Y-79280137D01*
X73052725Y-79521650D01*
X72750166Y-79751072D01*
X72432379Y-79954050D01*
X72209491Y-80073334D01*
X72024218Y-80152598D01*
X71859616Y-80201599D01*
X71728437Y-80217755D01*
X71728437Y-80529677D01*
X71754980Y-80530537D01*
X71769330Y-80528726D01*
X71969302Y-80477309D01*
X72203383Y-80377676D01*
X72460134Y-80238108D01*
X72728115Y-80066887D01*
X72995886Y-79872293D01*
X73252008Y-79662609D01*
X73485042Y-79446116D01*
X73683548Y-79231094D01*
X73827963Y-79038446D01*
X73927794Y-78859673D01*
X73969299Y-78711896D01*
X73952637Y-78583143D01*
X73952637Y-78583143D01*
G37*
X73952637Y-78583143D02*
X73877968Y-78461442D01*
X73836209Y-78416342D01*
X73759133Y-78343917D01*
X73695059Y-78306050D01*
X73616306Y-78293443D01*
X73495190Y-78296796D01*
X73482423Y-78297498D01*
X73339061Y-78299052D01*
X73253443Y-78282777D01*
X73219756Y-78258339D01*
X73189165Y-78239431D01*
X73124476Y-78223926D01*
X73017590Y-78211036D01*
X72860410Y-78199978D01*
X72644840Y-78189964D01*
X72439613Y-78182656D01*
X72141490Y-78170626D01*
X71906093Y-78156137D01*
X71736319Y-78139435D01*
X71635063Y-78120764D01*
X71614636Y-78112930D01*
X71514188Y-78088859D01*
X71414908Y-78110319D01*
X71336016Y-78165480D01*
X71296731Y-78242516D01*
X71303563Y-78304371D01*
X71333277Y-78348982D01*
X71389411Y-78382750D01*
X71480563Y-78407008D01*
X71615331Y-78423087D01*
X71802313Y-78432321D01*
X72050107Y-78436040D01*
X72154850Y-78436286D01*
X72363204Y-78437892D01*
X72543968Y-78442352D01*
X72685676Y-78449132D01*
X72776865Y-78457695D01*
X72806286Y-78466721D01*
X72777183Y-78496492D01*
X72697907Y-78555180D01*
X72580503Y-78634349D01*
X72437016Y-78725562D01*
X72434357Y-78727207D01*
X72201226Y-78885486D01*
X71973980Y-79065502D01*
X71765061Y-79255388D01*
X71586911Y-79443277D01*
X71451973Y-79617301D01*
X71390866Y-79722460D01*
X71326475Y-79900182D01*
X71294980Y-80082347D01*
X71298352Y-80246495D01*
X71334617Y-80363491D01*
X71433122Y-80467406D01*
X71577740Y-80524798D01*
X71728437Y-80529677D01*
X71728437Y-80217755D01*
X71643437Y-80198482D01*
X71633048Y-80190095D01*
X71610998Y-80125527D01*
X71612455Y-80017007D01*
X71634805Y-79888292D01*
X71675435Y-79763138D01*
X71681536Y-79749220D01*
X71777468Y-79591959D01*
X71927742Y-79414161D01*
X72121269Y-79226685D01*
X72346962Y-79040389D01*
X72561878Y-78887043D01*
X72784921Y-78742969D01*
X72962273Y-78638586D01*
X73105208Y-78568626D01*
X73225004Y-78527822D01*
X73332935Y-78510905D01*
X73369712Y-78509654D01*
X73528701Y-78531770D01*
X73631585Y-78595981D01*
X73676380Y-78696035D01*
X73661103Y-78825678D01*
X73583768Y-78978658D01*
X73538271Y-79040884D01*
X73321584Y-79280137D01*
X73052725Y-79521650D01*
X72750166Y-79751072D01*
X72432379Y-79954050D01*
X72209491Y-80073334D01*
X72024218Y-80152598D01*
X71859616Y-80201599D01*
X71728437Y-80217755D01*
X71728437Y-80529677D01*
X71754980Y-80530537D01*
X71769330Y-80528726D01*
X71969302Y-80477309D01*
X72203383Y-80377676D01*
X72460134Y-80238108D01*
X72728115Y-80066887D01*
X72995886Y-79872293D01*
X73252008Y-79662609D01*
X73485042Y-79446116D01*
X73683548Y-79231094D01*
X73827963Y-79038446D01*
X73927794Y-78859673D01*
X73969299Y-78711896D01*
X73952637Y-78583143D01*
G36*
X73778283Y-92322349D02*
G01*
X73749700Y-92276484D01*
X73692098Y-92273858D01*
X73597327Y-92315163D01*
X73457236Y-92401091D01*
X73392475Y-92444204D01*
X73060284Y-92642409D01*
X72727398Y-92792059D01*
X72408362Y-92887114D01*
X72267950Y-92911136D01*
X72039951Y-92926990D01*
X71867779Y-92906899D01*
X71742140Y-92846950D01*
X71653742Y-92743230D01*
X71605600Y-92632273D01*
X71577296Y-92437053D01*
X71609959Y-92232869D01*
X71695281Y-92032386D01*
X71824956Y-91848270D01*
X71990677Y-91693186D01*
X72184137Y-91579800D01*
X72326433Y-91533172D01*
X72438222Y-91518775D01*
X72542852Y-91532862D01*
X72648963Y-91581341D01*
X72765199Y-91670121D01*
X72900201Y-91805110D01*
X73062611Y-91992215D01*
X73145400Y-92093091D01*
X73235862Y-92191024D01*
X73310492Y-92246176D01*
X73344060Y-92253742D01*
X73411448Y-92207461D01*
X73464617Y-92110476D01*
X73493033Y-91984559D01*
X73495179Y-91941362D01*
X73487686Y-91859012D01*
X73457252Y-91831112D01*
X73428753Y-91832497D01*
X73362383Y-91810076D01*
X73261790Y-91728281D01*
X73169923Y-91633905D01*
X73052313Y-91516186D01*
X72926856Y-91407694D01*
X72820306Y-91331530D01*
X72818399Y-91330406D01*
X72627823Y-91258717D01*
X72417219Y-91247762D01*
X72197309Y-91292539D01*
X71978812Y-91388044D01*
X71772450Y-91529276D01*
X71588941Y-91711232D01*
X71439007Y-91928911D01*
X71407910Y-91988563D01*
X71345176Y-92159280D01*
X71304468Y-92356348D01*
X71288990Y-92552784D01*
X71301949Y-92721606D01*
X71314792Y-92772279D01*
X71402637Y-92949666D01*
X71542064Y-93085222D01*
X71615516Y-93131383D01*
X71714463Y-93178616D01*
X71816560Y-93204154D01*
X71948964Y-93213195D01*
X72042197Y-93213054D01*
X72332581Y-93186921D01*
X72650886Y-93121242D01*
X72969655Y-93023376D01*
X73261433Y-92900679D01*
X73320165Y-92870611D01*
X73532542Y-92745002D01*
X73678018Y-92628475D01*
X73761011Y-92516672D01*
X73786000Y-92410759D01*
X73778283Y-92322349D01*
X73778283Y-92322349D01*
G37*
X73778283Y-92322349D02*
X73749700Y-92276484D01*
X73692098Y-92273858D01*
X73597327Y-92315163D01*
X73457236Y-92401091D01*
X73392475Y-92444204D01*
X73060284Y-92642409D01*
X72727398Y-92792059D01*
X72408362Y-92887114D01*
X72267950Y-92911136D01*
X72039951Y-92926990D01*
X71867779Y-92906899D01*
X71742140Y-92846950D01*
X71653742Y-92743230D01*
X71605600Y-92632273D01*
X71577296Y-92437053D01*
X71609959Y-92232869D01*
X71695281Y-92032386D01*
X71824956Y-91848270D01*
X71990677Y-91693186D01*
X72184137Y-91579800D01*
X72326433Y-91533172D01*
X72438222Y-91518775D01*
X72542852Y-91532862D01*
X72648963Y-91581341D01*
X72765199Y-91670121D01*
X72900201Y-91805110D01*
X73062611Y-91992215D01*
X73145400Y-92093091D01*
X73235862Y-92191024D01*
X73310492Y-92246176D01*
X73344060Y-92253742D01*
X73411448Y-92207461D01*
X73464617Y-92110476D01*
X73493033Y-91984559D01*
X73495179Y-91941362D01*
X73487686Y-91859012D01*
X73457252Y-91831112D01*
X73428753Y-91832497D01*
X73362383Y-91810076D01*
X73261790Y-91728281D01*
X73169923Y-91633905D01*
X73052313Y-91516186D01*
X72926856Y-91407694D01*
X72820306Y-91331530D01*
X72818399Y-91330406D01*
X72627823Y-91258717D01*
X72417219Y-91247762D01*
X72197309Y-91292539D01*
X71978812Y-91388044D01*
X71772450Y-91529276D01*
X71588941Y-91711232D01*
X71439007Y-91928911D01*
X71407910Y-91988563D01*
X71345176Y-92159280D01*
X71304468Y-92356348D01*
X71288990Y-92552784D01*
X71301949Y-92721606D01*
X71314792Y-92772279D01*
X71402637Y-92949666D01*
X71542064Y-93085222D01*
X71615516Y-93131383D01*
X71714463Y-93178616D01*
X71816560Y-93204154D01*
X71948964Y-93213195D01*
X72042197Y-93213054D01*
X72332581Y-93186921D01*
X72650886Y-93121242D01*
X72969655Y-93023376D01*
X73261433Y-92900679D01*
X73320165Y-92870611D01*
X73532542Y-92745002D01*
X73678018Y-92628475D01*
X73761011Y-92516672D01*
X73786000Y-92410759D01*
X73778283Y-92322349D01*
G36*
X75437081Y-68711183D02*
G01*
X75420213Y-68694410D01*
X75377708Y-68689630D01*
X75270145Y-68684634D01*
X75105038Y-68679579D01*
X74889898Y-68674625D01*
X74632239Y-68669929D01*
X74339573Y-68665650D01*
X74019413Y-68661948D01*
X73778284Y-68659746D01*
X73414278Y-68655878D01*
X73066329Y-68650449D01*
X72743302Y-68643709D01*
X72454064Y-68635909D01*
X72207483Y-68627300D01*
X72012424Y-68618131D01*
X71877755Y-68608655D01*
X71844714Y-68605083D01*
X71689462Y-68586264D01*
X71589518Y-68578835D01*
X71528291Y-68584351D01*
X71489186Y-68604367D01*
X71455610Y-68640436D01*
X71454643Y-68641625D01*
X71406698Y-68722998D01*
X71391143Y-68784424D01*
X71420960Y-68850750D01*
X71454643Y-68873735D01*
X71509463Y-68880303D01*
X71624457Y-68883975D01*
X71787282Y-68884703D01*
X71985598Y-68882443D01*
X72207061Y-68877150D01*
X72225714Y-68876584D01*
X72453567Y-68871217D01*
X72664074Y-68869329D01*
X72843557Y-68870801D01*
X72978338Y-68875517D01*
X73054740Y-68883361D01*
X73056109Y-68883672D01*
X73178931Y-68912552D01*
X72929109Y-68998081D01*
X72755594Y-69064121D01*
X72549501Y-69152874D01*
X72327855Y-69255945D01*
X72107680Y-69364937D01*
X71905998Y-69471454D01*
X71739834Y-69567100D01*
X71636613Y-69635531D01*
X71466493Y-69790873D01*
X71342810Y-69962525D01*
X71270381Y-70138741D01*
X71254017Y-70307777D01*
X71298534Y-70457887D01*
X71299112Y-70458915D01*
X71364074Y-70531880D01*
X71466384Y-70606457D01*
X71519682Y-70635603D01*
X71704779Y-70692035D01*
X71930787Y-70708840D01*
X72178545Y-70687110D01*
X72428894Y-70627936D01*
X72570429Y-70575743D01*
X72805178Y-70461060D01*
X73044238Y-70317886D01*
X73278967Y-70154037D01*
X73500724Y-69977330D01*
X73700867Y-69795583D01*
X73870754Y-69616611D01*
X74001744Y-69448233D01*
X74085195Y-69298264D01*
X74112571Y-69180768D01*
X74090383Y-69075403D01*
X74023217Y-69026704D01*
X73910172Y-69034073D01*
X73897377Y-69037563D01*
X73800229Y-69077223D01*
X73699428Y-69136156D01*
X73612841Y-69201182D01*
X73558331Y-69259124D01*
X73550748Y-69293265D01*
X73596956Y-69306583D01*
X73662647Y-69290899D01*
X73744071Y-69262426D01*
X73778386Y-69264427D01*
X73785918Y-69300564D01*
X73786000Y-69313123D01*
X73759740Y-69372291D01*
X73688720Y-69465207D01*
X73584575Y-69579948D01*
X73458942Y-69704592D01*
X73323460Y-69827215D01*
X73189764Y-69935893D01*
X73148401Y-69966393D01*
X72899650Y-70126811D01*
X72641139Y-70262368D01*
X72390472Y-70365269D01*
X72165256Y-70427718D01*
X72077670Y-70440475D01*
X71869701Y-70442441D01*
X71721515Y-70404173D01*
X71633489Y-70326017D01*
X71606001Y-70208324D01*
X71639426Y-70051440D01*
X71643744Y-70039823D01*
X71724168Y-69912735D01*
X71869618Y-69775108D01*
X72073939Y-69630539D01*
X72330976Y-69482625D01*
X72634573Y-69334963D01*
X72978576Y-69191151D01*
X73291105Y-69077038D01*
X73721495Y-68929429D01*
X74530923Y-68929429D01*
X74768776Y-68928473D01*
X74984193Y-68925798D01*
X75165893Y-68921690D01*
X75302595Y-68916436D01*
X75383019Y-68910321D01*
X75397746Y-68907404D01*
X75440261Y-68858765D01*
X75454713Y-68780645D01*
X75437081Y-68711183D01*
X75437081Y-68711183D01*
G37*
X75437081Y-68711183D02*
X75420213Y-68694410D01*
X75377708Y-68689630D01*
X75270145Y-68684634D01*
X75105038Y-68679579D01*
X74889898Y-68674625D01*
X74632239Y-68669929D01*
X74339573Y-68665650D01*
X74019413Y-68661948D01*
X73778284Y-68659746D01*
X73414278Y-68655878D01*
X73066329Y-68650449D01*
X72743302Y-68643709D01*
X72454064Y-68635909D01*
X72207483Y-68627300D01*
X72012424Y-68618131D01*
X71877755Y-68608655D01*
X71844714Y-68605083D01*
X71689462Y-68586264D01*
X71589518Y-68578835D01*
X71528291Y-68584351D01*
X71489186Y-68604367D01*
X71455610Y-68640436D01*
X71454643Y-68641625D01*
X71406698Y-68722998D01*
X71391143Y-68784424D01*
X71420960Y-68850750D01*
X71454643Y-68873735D01*
X71509463Y-68880303D01*
X71624457Y-68883975D01*
X71787282Y-68884703D01*
X71985598Y-68882443D01*
X72207061Y-68877150D01*
X72225714Y-68876584D01*
X72453567Y-68871217D01*
X72664074Y-68869329D01*
X72843557Y-68870801D01*
X72978338Y-68875517D01*
X73054740Y-68883361D01*
X73056109Y-68883672D01*
X73178931Y-68912552D01*
X72929109Y-68998081D01*
X72755594Y-69064121D01*
X72549501Y-69152874D01*
X72327855Y-69255945D01*
X72107680Y-69364937D01*
X71905998Y-69471454D01*
X71739834Y-69567100D01*
X71636613Y-69635531D01*
X71466493Y-69790873D01*
X71342810Y-69962525D01*
X71270381Y-70138741D01*
X71254017Y-70307777D01*
X71298534Y-70457887D01*
X71299112Y-70458915D01*
X71364074Y-70531880D01*
X71466384Y-70606457D01*
X71519682Y-70635603D01*
X71704779Y-70692035D01*
X71930787Y-70708840D01*
X72178545Y-70687110D01*
X72428894Y-70627936D01*
X72570429Y-70575743D01*
X72805178Y-70461060D01*
X73044238Y-70317886D01*
X73278967Y-70154037D01*
X73500724Y-69977330D01*
X73700867Y-69795583D01*
X73870754Y-69616611D01*
X74001744Y-69448233D01*
X74085195Y-69298264D01*
X74112571Y-69180768D01*
X74090383Y-69075403D01*
X74023217Y-69026704D01*
X73910172Y-69034073D01*
X73897377Y-69037563D01*
X73800229Y-69077223D01*
X73699428Y-69136156D01*
X73612841Y-69201182D01*
X73558331Y-69259124D01*
X73550748Y-69293265D01*
X73596956Y-69306583D01*
X73662647Y-69290899D01*
X73744071Y-69262426D01*
X73778386Y-69264427D01*
X73785918Y-69300564D01*
X73786000Y-69313123D01*
X73759740Y-69372291D01*
X73688720Y-69465207D01*
X73584575Y-69579948D01*
X73458942Y-69704592D01*
X73323460Y-69827215D01*
X73189764Y-69935893D01*
X73148401Y-69966393D01*
X72899650Y-70126811D01*
X72641139Y-70262368D01*
X72390472Y-70365269D01*
X72165256Y-70427718D01*
X72077670Y-70440475D01*
X71869701Y-70442441D01*
X71721515Y-70404173D01*
X71633489Y-70326017D01*
X71606001Y-70208324D01*
X71639426Y-70051440D01*
X71643744Y-70039823D01*
X71724168Y-69912735D01*
X71869618Y-69775108D01*
X72073939Y-69630539D01*
X72330976Y-69482625D01*
X72634573Y-69334963D01*
X72978576Y-69191151D01*
X73291105Y-69077038D01*
X73721495Y-68929429D01*
X74530923Y-68929429D01*
X74768776Y-68928473D01*
X74984193Y-68925798D01*
X75165893Y-68921690D01*
X75302595Y-68916436D01*
X75383019Y-68910321D01*
X75397746Y-68907404D01*
X75440261Y-68858765D01*
X75454713Y-68780645D01*
X75437081Y-68711183D01*
G36*
X75444999Y-82247664D02*
G01*
X75441525Y-82233252D01*
X75418706Y-82142334D01*
X74121567Y-82143556D01*
X73784796Y-82142575D01*
X73438936Y-82139222D01*
X73098728Y-82133803D01*
X72778916Y-82126627D01*
X72494242Y-82118000D01*
X72259447Y-82108232D01*
X72158764Y-82102601D01*
X71923205Y-82088085D01*
X71749539Y-82078984D01*
X71627262Y-82075642D01*
X71545872Y-82078404D01*
X71494867Y-82087617D01*
X71463744Y-82103623D01*
X71442484Y-82126141D01*
X71404897Y-82210405D01*
X71400577Y-82264429D01*
X71406066Y-82286688D01*
X71422124Y-82304110D01*
X71457124Y-82317508D01*
X71519437Y-82327700D01*
X71617436Y-82335500D01*
X71759491Y-82341725D01*
X71953976Y-82347188D01*
X72209261Y-82352707D01*
X72331801Y-82355143D01*
X73254317Y-82373286D01*
X72984944Y-82458994D01*
X72839439Y-82510775D01*
X72655087Y-82584273D01*
X72457963Y-82668773D01*
X72311021Y-82735944D01*
X72010421Y-82885967D01*
X71772106Y-83023941D01*
X71588098Y-83155966D01*
X71450418Y-83288143D01*
X71351086Y-83426574D01*
X71314175Y-83498143D01*
X71257860Y-83661308D01*
X71256914Y-83798678D01*
X71311350Y-83931385D01*
X71314423Y-83936476D01*
X71420523Y-84056417D01*
X71571141Y-84135148D01*
X71773578Y-84175478D01*
X71953571Y-84182333D01*
X72171164Y-84167551D01*
X72377762Y-84123500D01*
X72591792Y-84044133D01*
X72831685Y-83923399D01*
X72951657Y-83854744D01*
X73170871Y-83713601D01*
X73388429Y-83551692D01*
X73594252Y-83378602D01*
X73778255Y-83203921D01*
X73930359Y-83037236D01*
X74040480Y-82888134D01*
X74098538Y-82766203D01*
X74099295Y-82763357D01*
X74112803Y-82629292D01*
X74075895Y-82543163D01*
X73994601Y-82507298D01*
X73874951Y-82524021D01*
X73722974Y-82595658D01*
X73700496Y-82609545D01*
X73598094Y-82685166D01*
X73555750Y-82740833D01*
X73574206Y-82771233D01*
X73654205Y-82771055D01*
X73678550Y-82766705D01*
X73753854Y-82758431D01*
X73779959Y-82779635D01*
X73757727Y-82839239D01*
X73694940Y-82936213D01*
X73552801Y-83103843D01*
X73356214Y-83281898D01*
X73120010Y-83459193D01*
X72859019Y-83624544D01*
X72603042Y-83759704D01*
X72392852Y-83842439D01*
X72180616Y-83895888D01*
X71982706Y-83918144D01*
X71815490Y-83907300D01*
X71700403Y-83864882D01*
X71623124Y-83776895D01*
X71605874Y-83660209D01*
X71646381Y-83523337D01*
X71742372Y-83374796D01*
X71865638Y-83245947D01*
X71983876Y-83158088D01*
X72158017Y-83053989D01*
X72374990Y-82939972D01*
X72621723Y-82822357D01*
X72885143Y-82707467D01*
X73152179Y-82601622D01*
X73330275Y-82537658D01*
X73763550Y-82389439D01*
X74571145Y-82399506D01*
X74851765Y-82402327D01*
X75067695Y-82401922D01*
X75226797Y-82396790D01*
X75336930Y-82385429D01*
X75405955Y-82366337D01*
X75441735Y-82338013D01*
X75452129Y-82298956D01*
X75444999Y-82247664D01*
X75444999Y-82247664D01*
G37*
X75444999Y-82247664D02*
X75441525Y-82233252D01*
X75418706Y-82142334D01*
X74121567Y-82143556D01*
X73784796Y-82142575D01*
X73438936Y-82139222D01*
X73098728Y-82133803D01*
X72778916Y-82126627D01*
X72494242Y-82118000D01*
X72259447Y-82108232D01*
X72158764Y-82102601D01*
X71923205Y-82088085D01*
X71749539Y-82078984D01*
X71627262Y-82075642D01*
X71545872Y-82078404D01*
X71494867Y-82087617D01*
X71463744Y-82103623D01*
X71442484Y-82126141D01*
X71404897Y-82210405D01*
X71400577Y-82264429D01*
X71406066Y-82286688D01*
X71422124Y-82304110D01*
X71457124Y-82317508D01*
X71519437Y-82327700D01*
X71617436Y-82335500D01*
X71759491Y-82341725D01*
X71953976Y-82347188D01*
X72209261Y-82352707D01*
X72331801Y-82355143D01*
X73254317Y-82373286D01*
X72984944Y-82458994D01*
X72839439Y-82510775D01*
X72655087Y-82584273D01*
X72457963Y-82668773D01*
X72311021Y-82735944D01*
X72010421Y-82885967D01*
X71772106Y-83023941D01*
X71588098Y-83155966D01*
X71450418Y-83288143D01*
X71351086Y-83426574D01*
X71314175Y-83498143D01*
X71257860Y-83661308D01*
X71256914Y-83798678D01*
X71311350Y-83931385D01*
X71314423Y-83936476D01*
X71420523Y-84056417D01*
X71571141Y-84135148D01*
X71773578Y-84175478D01*
X71953571Y-84182333D01*
X72171164Y-84167551D01*
X72377762Y-84123500D01*
X72591792Y-84044133D01*
X72831685Y-83923399D01*
X72951657Y-83854744D01*
X73170871Y-83713601D01*
X73388429Y-83551692D01*
X73594252Y-83378602D01*
X73778255Y-83203921D01*
X73930359Y-83037236D01*
X74040480Y-82888134D01*
X74098538Y-82766203D01*
X74099295Y-82763357D01*
X74112803Y-82629292D01*
X74075895Y-82543163D01*
X73994601Y-82507298D01*
X73874951Y-82524021D01*
X73722974Y-82595658D01*
X73700496Y-82609545D01*
X73598094Y-82685166D01*
X73555750Y-82740833D01*
X73574206Y-82771233D01*
X73654205Y-82771055D01*
X73678550Y-82766705D01*
X73753854Y-82758431D01*
X73779959Y-82779635D01*
X73757727Y-82839239D01*
X73694940Y-82936213D01*
X73552801Y-83103843D01*
X73356214Y-83281898D01*
X73120010Y-83459193D01*
X72859019Y-83624544D01*
X72603042Y-83759704D01*
X72392852Y-83842439D01*
X72180616Y-83895888D01*
X71982706Y-83918144D01*
X71815490Y-83907300D01*
X71700403Y-83864882D01*
X71623124Y-83776895D01*
X71605874Y-83660209D01*
X71646381Y-83523337D01*
X71742372Y-83374796D01*
X71865638Y-83245947D01*
X71983876Y-83158088D01*
X72158017Y-83053989D01*
X72374990Y-82939972D01*
X72621723Y-82822357D01*
X72885143Y-82707467D01*
X73152179Y-82601622D01*
X73330275Y-82537658D01*
X73763550Y-82389439D01*
X74571145Y-82399506D01*
X74851765Y-82402327D01*
X75067695Y-82401922D01*
X75226797Y-82396790D01*
X75336930Y-82385429D01*
X75405955Y-82366337D01*
X75441735Y-82338013D01*
X75452129Y-82298956D01*
X75444999Y-82247664D01*
G36*
X73961715Y-88142752D02*
G01*
X73880716Y-87999592D01*
X73770535Y-87889306D01*
X73661643Y-87844462D01*
X73560929Y-87867215D01*
X73530538Y-87890038D01*
X73468108Y-87982638D01*
X73477639Y-88081104D01*
X73558905Y-88183813D01*
X73572821Y-88195808D01*
X73662710Y-88306576D01*
X73684662Y-88425615D01*
X73637354Y-88542126D01*
X73618179Y-88565615D01*
X73504805Y-88667069D01*
X73333310Y-88786962D01*
X73113820Y-88919048D01*
X72856457Y-89057081D01*
X72682684Y-89142731D01*
X72243857Y-89352196D01*
X71794713Y-89318366D01*
X71582493Y-89304809D01*
X71432113Y-89302696D01*
X71333442Y-89314163D01*
X71276347Y-89341345D01*
X71250697Y-89386379D01*
X71246000Y-89434024D01*
X71275262Y-89500896D01*
X71327643Y-89544663D01*
X71392141Y-89560104D01*
X71527153Y-89574918D01*
X71733128Y-89589133D01*
X72010513Y-89602777D01*
X72359758Y-89615878D01*
X72597236Y-89623292D01*
X72938195Y-89632962D01*
X73213607Y-89639496D01*
X73430451Y-89642262D01*
X73595709Y-89640632D01*
X73716361Y-89633975D01*
X73799388Y-89621663D01*
X73851770Y-89603065D01*
X73880487Y-89577551D01*
X73892520Y-89544493D01*
X73894857Y-89506243D01*
X73887762Y-89452530D01*
X73860005Y-89413429D01*
X73801876Y-89386653D01*
X73703667Y-89369913D01*
X73555670Y-89360923D01*
X73348175Y-89357392D01*
X73261671Y-89357028D01*
X72715571Y-89355770D01*
X73060286Y-89176051D01*
X73387564Y-88990223D01*
X73643240Y-88810966D01*
X73827904Y-88637436D01*
X73942144Y-88468787D01*
X73986552Y-88304174D01*
X73961715Y-88142752D01*
X73961715Y-88142752D01*
G37*
X73961715Y-88142752D02*
X73880716Y-87999592D01*
X73770535Y-87889306D01*
X73661643Y-87844462D01*
X73560929Y-87867215D01*
X73530538Y-87890038D01*
X73468108Y-87982638D01*
X73477639Y-88081104D01*
X73558905Y-88183813D01*
X73572821Y-88195808D01*
X73662710Y-88306576D01*
X73684662Y-88425615D01*
X73637354Y-88542126D01*
X73618179Y-88565615D01*
X73504805Y-88667069D01*
X73333310Y-88786962D01*
X73113820Y-88919048D01*
X72856457Y-89057081D01*
X72682684Y-89142731D01*
X72243857Y-89352196D01*
X71794713Y-89318366D01*
X71582493Y-89304809D01*
X71432113Y-89302696D01*
X71333442Y-89314163D01*
X71276347Y-89341345D01*
X71250697Y-89386379D01*
X71246000Y-89434024D01*
X71275262Y-89500896D01*
X71327643Y-89544663D01*
X71392141Y-89560104D01*
X71527153Y-89574918D01*
X71733128Y-89589133D01*
X72010513Y-89602777D01*
X72359758Y-89615878D01*
X72597236Y-89623292D01*
X72938195Y-89632962D01*
X73213607Y-89639496D01*
X73430451Y-89642262D01*
X73595709Y-89640632D01*
X73716361Y-89633975D01*
X73799388Y-89621663D01*
X73851770Y-89603065D01*
X73880487Y-89577551D01*
X73892520Y-89544493D01*
X73894857Y-89506243D01*
X73887762Y-89452530D01*
X73860005Y-89413429D01*
X73801876Y-89386653D01*
X73703667Y-89369913D01*
X73555670Y-89360923D01*
X73348175Y-89357392D01*
X73261671Y-89357028D01*
X72715571Y-89355770D01*
X73060286Y-89176051D01*
X73387564Y-88990223D01*
X73643240Y-88810966D01*
X73827904Y-88637436D01*
X73942144Y-88468787D01*
X73986552Y-88304174D01*
X73961715Y-88142752D01*
G36*
X73978835Y-86092650D02*
G01*
X73923922Y-86024922D01*
X73886183Y-86006689D01*
X73826176Y-86000057D01*
X73705787Y-85994179D01*
X73537205Y-85989380D01*
X73332616Y-85985985D01*
X73104209Y-85984319D01*
X73043298Y-85984210D01*
X72637334Y-85978747D01*
X72263946Y-85963414D01*
X71939059Y-85938984D01*
X71803878Y-85924112D01*
X71621391Y-85903512D01*
X71461794Y-85889453D01*
X71340481Y-85883009D01*
X71272850Y-85885256D01*
X71267508Y-85886688D01*
X71219825Y-85937106D01*
X71211513Y-86013961D01*
X71240858Y-86083869D01*
X71278957Y-86109658D01*
X71367336Y-86128241D01*
X71511856Y-86147490D01*
X71702488Y-86166894D01*
X71929200Y-86185940D01*
X72181963Y-86204117D01*
X72450745Y-86220913D01*
X72725516Y-86235817D01*
X72996245Y-86248317D01*
X73252901Y-86257901D01*
X73485455Y-86264058D01*
X73683875Y-86266276D01*
X73838130Y-86264044D01*
X73938191Y-86256849D01*
X73972599Y-86247058D01*
X73998738Y-86176924D01*
X73978835Y-86092650D01*
X73978835Y-86092650D01*
G37*
X73978835Y-86092650D02*
X73923922Y-86024922D01*
X73886183Y-86006689D01*
X73826176Y-86000057D01*
X73705787Y-85994179D01*
X73537205Y-85989380D01*
X73332616Y-85985985D01*
X73104209Y-85984319D01*
X73043298Y-85984210D01*
X72637334Y-85978747D01*
X72263946Y-85963414D01*
X71939059Y-85938984D01*
X71803878Y-85924112D01*
X71621391Y-85903512D01*
X71461794Y-85889453D01*
X71340481Y-85883009D01*
X71272850Y-85885256D01*
X71267508Y-85886688D01*
X71219825Y-85937106D01*
X71211513Y-86013961D01*
X71240858Y-86083869D01*
X71278957Y-86109658D01*
X71367336Y-86128241D01*
X71511856Y-86147490D01*
X71702488Y-86166894D01*
X71929200Y-86185940D01*
X72181963Y-86204117D01*
X72450745Y-86220913D01*
X72725516Y-86235817D01*
X72996245Y-86248317D01*
X73252901Y-86257901D01*
X73485455Y-86264058D01*
X73683875Y-86266276D01*
X73838130Y-86264044D01*
X73938191Y-86256849D01*
X73972599Y-86247058D01*
X73998738Y-86176924D01*
X73978835Y-86092650D01*
G36*
X71872132Y-72506456D02*
G01*
X71759693Y-72410214D01*
X71729170Y-72387399D01*
X71611941Y-72312901D01*
X71484990Y-72250460D01*
X71366567Y-72206914D01*
X71274925Y-72189099D01*
X71230517Y-72200612D01*
X71204938Y-72270099D01*
X71197940Y-72369855D01*
X71211611Y-72459477D01*
X71216514Y-72471599D01*
X71283573Y-72549336D01*
X71404959Y-72630699D01*
X71563770Y-72705430D01*
X71656489Y-72738572D01*
X71752878Y-72763298D01*
X71814074Y-72755925D01*
X71865132Y-72719227D01*
X71920655Y-72650722D01*
X71924387Y-72583212D01*
X71872132Y-72506456D01*
X71872132Y-72506456D01*
G37*
X71872132Y-72506456D02*
X71759693Y-72410214D01*
X71729170Y-72387399D01*
X71611941Y-72312901D01*
X71484990Y-72250460D01*
X71366567Y-72206914D01*
X71274925Y-72189099D01*
X71230517Y-72200612D01*
X71204938Y-72270099D01*
X71197940Y-72369855D01*
X71211611Y-72459477D01*
X71216514Y-72471599D01*
X71283573Y-72549336D01*
X71404959Y-72630699D01*
X71563770Y-72705430D01*
X71656489Y-72738572D01*
X71752878Y-72763298D01*
X71814074Y-72755925D01*
X71865132Y-72719227D01*
X71920655Y-72650722D01*
X71924387Y-72583212D01*
X71872132Y-72506456D01*
G36*
X73905149Y-76219430D02*
G01*
X73865508Y-76192415D01*
X73793128Y-76169920D01*
X73681570Y-76150546D01*
X73524396Y-76132896D01*
X73315166Y-76115573D01*
X73047440Y-76097180D01*
X72714779Y-76076319D01*
X72652071Y-76072474D01*
X72433185Y-76058069D01*
X72241378Y-76043533D01*
X72087539Y-76029847D01*
X71982555Y-76017997D01*
X71937314Y-76008967D01*
X71936347Y-76007795D01*
X71968322Y-75986680D01*
X72053386Y-75947185D01*
X72176531Y-75896021D01*
X72253847Y-75865802D01*
X72409976Y-75802369D01*
X72606708Y-75717063D01*
X72819825Y-75620641D01*
X73025112Y-75523860D01*
X73042143Y-75515613D01*
X73305995Y-75379445D01*
X73505304Y-75257411D01*
X73645721Y-75145225D01*
X73732899Y-75038600D01*
X73764490Y-74967630D01*
X73759010Y-74870314D01*
X73693073Y-74777448D01*
X73578391Y-74701104D01*
X73468113Y-74662119D01*
X73375757Y-74647591D01*
X73229121Y-74634498D01*
X73039248Y-74623013D01*
X72817185Y-74613308D01*
X72573976Y-74605554D01*
X72320667Y-74599924D01*
X72068302Y-74596590D01*
X71827927Y-74595724D01*
X71610586Y-74597498D01*
X71427326Y-74602083D01*
X71289191Y-74609652D01*
X71207226Y-74620376D01*
X71191117Y-74626663D01*
X71152746Y-74691744D01*
X71138096Y-74782220D01*
X71149284Y-74864257D01*
X71174106Y-74898847D01*
X71220318Y-74903796D01*
X71327153Y-74904052D01*
X71482835Y-74899939D01*
X71675590Y-74891777D01*
X71893641Y-74879889D01*
X71914709Y-74878610D01*
X72258325Y-74860779D01*
X72571720Y-74850823D01*
X72847719Y-74848595D01*
X73079149Y-74853948D01*
X73258835Y-74866735D01*
X73379604Y-74886808D01*
X73430750Y-74909665D01*
X73454540Y-74977511D01*
X73413458Y-75062391D01*
X73311760Y-75159252D01*
X73153704Y-75263044D01*
X73114714Y-75284726D01*
X72997623Y-75343077D01*
X72829202Y-75420222D01*
X72625885Y-75508968D01*
X72404102Y-75602126D01*
X72207571Y-75681701D01*
X72001821Y-75765366D01*
X71817893Y-75843851D01*
X71667094Y-75912032D01*
X71560734Y-75964785D01*
X71510120Y-75996987D01*
X71509071Y-75998194D01*
X71471729Y-76080865D01*
X71463714Y-76137434D01*
X71463997Y-76165607D01*
X71470079Y-76188248D01*
X71489808Y-76206867D01*
X71531035Y-76222973D01*
X71601609Y-76238074D01*
X71709379Y-76253682D01*
X71862194Y-76271304D01*
X72067904Y-76292451D01*
X72334358Y-76318631D01*
X72479714Y-76332802D01*
X72726698Y-76357498D01*
X72964411Y-76382366D01*
X73177925Y-76405763D01*
X73352312Y-76426044D01*
X73472642Y-76441562D01*
X73490308Y-76444163D01*
X73653392Y-76463544D01*
X73762418Y-76459212D01*
X73833182Y-76427135D01*
X73881477Y-76363277D01*
X73892034Y-76341564D01*
X73911973Y-76292607D01*
X73918491Y-76252362D01*
X73905149Y-76219430D01*
X73905149Y-76219430D01*
G37*
X73905149Y-76219430D02*
X73865508Y-76192415D01*
X73793128Y-76169920D01*
X73681570Y-76150546D01*
X73524396Y-76132896D01*
X73315166Y-76115573D01*
X73047440Y-76097180D01*
X72714779Y-76076319D01*
X72652071Y-76072474D01*
X72433185Y-76058069D01*
X72241378Y-76043533D01*
X72087539Y-76029847D01*
X71982555Y-76017997D01*
X71937314Y-76008967D01*
X71936347Y-76007795D01*
X71968322Y-75986680D01*
X72053386Y-75947185D01*
X72176531Y-75896021D01*
X72253847Y-75865802D01*
X72409976Y-75802369D01*
X72606708Y-75717063D01*
X72819825Y-75620641D01*
X73025112Y-75523860D01*
X73042143Y-75515613D01*
X73305995Y-75379445D01*
X73505304Y-75257411D01*
X73645721Y-75145225D01*
X73732899Y-75038600D01*
X73764490Y-74967630D01*
X73759010Y-74870314D01*
X73693073Y-74777448D01*
X73578391Y-74701104D01*
X73468113Y-74662119D01*
X73375757Y-74647591D01*
X73229121Y-74634498D01*
X73039248Y-74623013D01*
X72817185Y-74613308D01*
X72573976Y-74605554D01*
X72320667Y-74599924D01*
X72068302Y-74596590D01*
X71827927Y-74595724D01*
X71610586Y-74597498D01*
X71427326Y-74602083D01*
X71289191Y-74609652D01*
X71207226Y-74620376D01*
X71191117Y-74626663D01*
X71152746Y-74691744D01*
X71138096Y-74782220D01*
X71149284Y-74864257D01*
X71174106Y-74898847D01*
X71220318Y-74903796D01*
X71327153Y-74904052D01*
X71482835Y-74899939D01*
X71675590Y-74891777D01*
X71893641Y-74879889D01*
X71914709Y-74878610D01*
X72258325Y-74860779D01*
X72571720Y-74850823D01*
X72847719Y-74848595D01*
X73079149Y-74853948D01*
X73258835Y-74866735D01*
X73379604Y-74886808D01*
X73430750Y-74909665D01*
X73454540Y-74977511D01*
X73413458Y-75062391D01*
X73311760Y-75159252D01*
X73153704Y-75263044D01*
X73114714Y-75284726D01*
X72997623Y-75343077D01*
X72829202Y-75420222D01*
X72625885Y-75508968D01*
X72404102Y-75602126D01*
X72207571Y-75681701D01*
X72001821Y-75765366D01*
X71817893Y-75843851D01*
X71667094Y-75912032D01*
X71560734Y-75964785D01*
X71510120Y-75996987D01*
X71509071Y-75998194D01*
X71471729Y-76080865D01*
X71463714Y-76137434D01*
X71463997Y-76165607D01*
X71470079Y-76188248D01*
X71489808Y-76206867D01*
X71531035Y-76222973D01*
X71601609Y-76238074D01*
X71709379Y-76253682D01*
X71862194Y-76271304D01*
X72067904Y-76292451D01*
X72334358Y-76318631D01*
X72479714Y-76332802D01*
X72726698Y-76357498D01*
X72964411Y-76382366D01*
X73177925Y-76405763D01*
X73352312Y-76426044D01*
X73472642Y-76441562D01*
X73490308Y-76444163D01*
X73653392Y-76463544D01*
X73762418Y-76459212D01*
X73833182Y-76427135D01*
X73881477Y-76363277D01*
X73892034Y-76341564D01*
X73911973Y-76292607D01*
X73918491Y-76252362D01*
X73905149Y-76219430D01*
G36*
X74210188Y-60714484D02*
G01*
X74182614Y-60697447D01*
X74128549Y-60672006D01*
X74083278Y-60673689D01*
X74028016Y-60710521D01*
X73943982Y-60790526D01*
X73928425Y-60806056D01*
X73734743Y-60964751D01*
X73477043Y-61121054D01*
X73163875Y-61271769D01*
X72803788Y-61413697D01*
X72405332Y-61543640D01*
X71977057Y-61658401D01*
X71527512Y-61754782D01*
X71274381Y-61798784D01*
X71169537Y-61827616D01*
X71090485Y-61869899D01*
X71083881Y-61875875D01*
X71033688Y-61969842D01*
X71041433Y-62072610D01*
X71104490Y-62155592D01*
X71109928Y-62159287D01*
X71165333Y-62189265D01*
X71276350Y-62244402D01*
X71432579Y-62319713D01*
X71623618Y-62410212D01*
X71839065Y-62510913D01*
X71971714Y-62572310D01*
X72357113Y-62750945D01*
X72680193Y-62902891D01*
X72945161Y-63030463D01*
X73156221Y-63135974D01*
X73317580Y-63221739D01*
X73433443Y-63290071D01*
X73508017Y-63343285D01*
X73545506Y-63383694D01*
X73550117Y-63413613D01*
X73533170Y-63431420D01*
X73510435Y-63474843D01*
X73515407Y-63489079D01*
X73573320Y-63521046D01*
X73664984Y-63510595D01*
X73768312Y-63461663D01*
X73800581Y-63438242D01*
X73855731Y-63386283D01*
X73886944Y-63334233D01*
X73890470Y-63279719D01*
X73862561Y-63220366D01*
X73799467Y-63153799D01*
X73697439Y-63077644D01*
X73552727Y-62989526D01*
X73361582Y-62887071D01*
X73120255Y-62767903D01*
X72824997Y-62629649D01*
X72472057Y-62469934D01*
X72057688Y-62286383D01*
X71811346Y-62178390D01*
X71415120Y-62005150D01*
X71593631Y-61980885D01*
X71976476Y-61912774D01*
X72379122Y-61812302D01*
X72785418Y-61685372D01*
X73179212Y-61537889D01*
X73544355Y-61375756D01*
X73864694Y-61204878D01*
X74058143Y-61080018D01*
X74198375Y-60965373D01*
X74269843Y-60868132D01*
X74273472Y-60785451D01*
X74210188Y-60714484D01*
X74210188Y-60714484D01*
G37*
X74210188Y-60714484D02*
X74182614Y-60697447D01*
X74128549Y-60672006D01*
X74083278Y-60673689D01*
X74028016Y-60710521D01*
X73943982Y-60790526D01*
X73928425Y-60806056D01*
X73734743Y-60964751D01*
X73477043Y-61121054D01*
X73163875Y-61271769D01*
X72803788Y-61413697D01*
X72405332Y-61543640D01*
X71977057Y-61658401D01*
X71527512Y-61754782D01*
X71274381Y-61798784D01*
X71169537Y-61827616D01*
X71090485Y-61869899D01*
X71083881Y-61875875D01*
X71033688Y-61969842D01*
X71041433Y-62072610D01*
X71104490Y-62155592D01*
X71109928Y-62159287D01*
X71165333Y-62189265D01*
X71276350Y-62244402D01*
X71432579Y-62319713D01*
X71623618Y-62410212D01*
X71839065Y-62510913D01*
X71971714Y-62572310D01*
X72357113Y-62750945D01*
X72680193Y-62902891D01*
X72945161Y-63030463D01*
X73156221Y-63135974D01*
X73317580Y-63221739D01*
X73433443Y-63290071D01*
X73508017Y-63343285D01*
X73545506Y-63383694D01*
X73550117Y-63413613D01*
X73533170Y-63431420D01*
X73510435Y-63474843D01*
X73515407Y-63489079D01*
X73573320Y-63521046D01*
X73664984Y-63510595D01*
X73768312Y-63461663D01*
X73800581Y-63438242D01*
X73855731Y-63386283D01*
X73886944Y-63334233D01*
X73890470Y-63279719D01*
X73862561Y-63220366D01*
X73799467Y-63153799D01*
X73697439Y-63077644D01*
X73552727Y-62989526D01*
X73361582Y-62887071D01*
X73120255Y-62767903D01*
X72824997Y-62629649D01*
X72472057Y-62469934D01*
X72057688Y-62286383D01*
X71811346Y-62178390D01*
X71415120Y-62005150D01*
X71593631Y-61980885D01*
X71976476Y-61912774D01*
X72379122Y-61812302D01*
X72785418Y-61685372D01*
X73179212Y-61537889D01*
X73544355Y-61375756D01*
X73864694Y-61204878D01*
X74058143Y-61080018D01*
X74198375Y-60965373D01*
X74269843Y-60868132D01*
X74273472Y-60785451D01*
X74210188Y-60714484D01*
G36*
X75292102Y-96966606D02*
G01*
X75220202Y-96803293D01*
X75114826Y-96666829D01*
X74982805Y-96567676D01*
X74830969Y-96516298D01*
X74666147Y-96523158D01*
X74604791Y-96541959D01*
X74531845Y-96581401D01*
X74522195Y-96623922D01*
X74578231Y-96674204D01*
X74702343Y-96736933D01*
X74704839Y-96738038D01*
X74893026Y-96846222D01*
X75016363Y-96973749D01*
X75072579Y-97116773D01*
X75059404Y-97271450D01*
X75044347Y-97313063D01*
X74963572Y-97444733D01*
X74836848Y-97555005D01*
X74657769Y-97647107D01*
X74419934Y-97724263D01*
X74116938Y-97789700D01*
X74088193Y-97794787D01*
X73875314Y-97826544D01*
X73687966Y-97844270D01*
X73537039Y-97847800D01*
X73433424Y-97836969D01*
X73388010Y-97811611D01*
X73386857Y-97805456D01*
X73393106Y-97755929D01*
X73410311Y-97648729D01*
X73436165Y-97497535D01*
X73468357Y-97316022D01*
X73484954Y-97224492D01*
X73522413Y-97014556D01*
X73546418Y-96864267D01*
X73557838Y-96762128D01*
X73557543Y-96696642D01*
X73546402Y-96656312D01*
X73529625Y-96633789D01*
X73474390Y-96600921D01*
X73394069Y-96604516D01*
X73345458Y-96616462D01*
X73214717Y-96652561D01*
X73219144Y-96987781D01*
X73215330Y-97178886D01*
X73201228Y-97381905D01*
X73179675Y-97558627D01*
X73174515Y-97588564D01*
X73125459Y-97854127D01*
X72902373Y-97833448D01*
X72758533Y-97822169D01*
X72570428Y-97810469D01*
X72349434Y-97798760D01*
X72106931Y-97787453D01*
X71854296Y-97776962D01*
X71602906Y-97767699D01*
X71364141Y-97760075D01*
X71149379Y-97754504D01*
X70969997Y-97751397D01*
X70837373Y-97751168D01*
X70762886Y-97754227D01*
X70754450Y-97755611D01*
X70682785Y-97800028D01*
X70668918Y-97870205D01*
X70713582Y-97947074D01*
X70746074Y-97974086D01*
X70835881Y-98009813D01*
X70982341Y-98027652D01*
X71099859Y-98030360D01*
X71214059Y-98031993D01*
X71375086Y-98036658D01*
X71571519Y-98043798D01*
X71791937Y-98052857D01*
X72024919Y-98063279D01*
X72259043Y-98074509D01*
X72482888Y-98085989D01*
X72685032Y-98097164D01*
X72854055Y-98107478D01*
X72978534Y-98116376D01*
X73047048Y-98123300D01*
X73056574Y-98125621D01*
X73058123Y-98164570D01*
X73050191Y-98258508D01*
X73034376Y-98390706D01*
X73024219Y-98464472D01*
X73002938Y-98629086D01*
X72995747Y-98737572D01*
X73002607Y-98804985D01*
X73023302Y-98846159D01*
X73098640Y-98900915D01*
X73170263Y-98891514D01*
X73229637Y-98826211D01*
X73268224Y-98713260D01*
X73278399Y-98599480D01*
X73283261Y-98457774D01*
X73295049Y-98320532D01*
X73301290Y-98275500D01*
X73323781Y-98139429D01*
X73509533Y-98139215D01*
X73716739Y-98128019D01*
X73961202Y-98098031D01*
X74215146Y-98054034D01*
X74450794Y-98000807D01*
X74633039Y-97945822D01*
X74879397Y-97839649D01*
X75063643Y-97720128D01*
X75195985Y-97579965D01*
X75238649Y-97513001D01*
X75308155Y-97331923D01*
X75323696Y-97146304D01*
X75292102Y-96966606D01*
X75292102Y-96966606D01*
G37*
X75292102Y-96966606D02*
X75220202Y-96803293D01*
X75114826Y-96666829D01*
X74982805Y-96567676D01*
X74830969Y-96516298D01*
X74666147Y-96523158D01*
X74604791Y-96541959D01*
X74531845Y-96581401D01*
X74522195Y-96623922D01*
X74578231Y-96674204D01*
X74702343Y-96736933D01*
X74704839Y-96738038D01*
X74893026Y-96846222D01*
X75016363Y-96973749D01*
X75072579Y-97116773D01*
X75059404Y-97271450D01*
X75044347Y-97313063D01*
X74963572Y-97444733D01*
X74836848Y-97555005D01*
X74657769Y-97647107D01*
X74419934Y-97724263D01*
X74116938Y-97789700D01*
X74088193Y-97794787D01*
X73875314Y-97826544D01*
X73687966Y-97844270D01*
X73537039Y-97847800D01*
X73433424Y-97836969D01*
X73388010Y-97811611D01*
X73386857Y-97805456D01*
X73393106Y-97755929D01*
X73410311Y-97648729D01*
X73436165Y-97497535D01*
X73468357Y-97316022D01*
X73484954Y-97224492D01*
X73522413Y-97014556D01*
X73546418Y-96864267D01*
X73557838Y-96762128D01*
X73557543Y-96696642D01*
X73546402Y-96656312D01*
X73529625Y-96633789D01*
X73474390Y-96600921D01*
X73394069Y-96604516D01*
X73345458Y-96616462D01*
X73214717Y-96652561D01*
X73219144Y-96987781D01*
X73215330Y-97178886D01*
X73201228Y-97381905D01*
X73179675Y-97558627D01*
X73174515Y-97588564D01*
X73125459Y-97854127D01*
X72902373Y-97833448D01*
X72758533Y-97822169D01*
X72570428Y-97810469D01*
X72349434Y-97798760D01*
X72106931Y-97787453D01*
X71854296Y-97776962D01*
X71602906Y-97767699D01*
X71364141Y-97760075D01*
X71149379Y-97754504D01*
X70969997Y-97751397D01*
X70837373Y-97751168D01*
X70762886Y-97754227D01*
X70754450Y-97755611D01*
X70682785Y-97800028D01*
X70668918Y-97870205D01*
X70713582Y-97947074D01*
X70746074Y-97974086D01*
X70835881Y-98009813D01*
X70982341Y-98027652D01*
X71099859Y-98030360D01*
X71214059Y-98031993D01*
X71375086Y-98036658D01*
X71571519Y-98043798D01*
X71791937Y-98052857D01*
X72024919Y-98063279D01*
X72259043Y-98074509D01*
X72482888Y-98085989D01*
X72685032Y-98097164D01*
X72854055Y-98107478D01*
X72978534Y-98116376D01*
X73047048Y-98123300D01*
X73056574Y-98125621D01*
X73058123Y-98164570D01*
X73050191Y-98258508D01*
X73034376Y-98390706D01*
X73024219Y-98464472D01*
X73002938Y-98629086D01*
X72995747Y-98737572D01*
X73002607Y-98804985D01*
X73023302Y-98846159D01*
X73098640Y-98900915D01*
X73170263Y-98891514D01*
X73229637Y-98826211D01*
X73268224Y-98713260D01*
X73278399Y-98599480D01*
X73283261Y-98457774D01*
X73295049Y-98320532D01*
X73301290Y-98275500D01*
X73323781Y-98139429D01*
X73509533Y-98139215D01*
X73716739Y-98128019D01*
X73961202Y-98098031D01*
X74215146Y-98054034D01*
X74450794Y-98000807D01*
X74633039Y-97945822D01*
X74879397Y-97839649D01*
X75063643Y-97720128D01*
X75195985Y-97579965D01*
X75238649Y-97513001D01*
X75308155Y-97331923D01*
X75323696Y-97146304D01*
X75292102Y-96966606D01*
G36*
X75360532Y-100905033D02*
G01*
X75305667Y-100847465D01*
X75234185Y-100844188D01*
X75221267Y-100850317D01*
X75187982Y-100888874D01*
X75123237Y-100981242D01*
X75032600Y-101118821D01*
X74921643Y-101293007D01*
X74795934Y-101495201D01*
X74673090Y-101696826D01*
X74512879Y-101958989D01*
X74338396Y-102238761D01*
X74154980Y-102528058D01*
X73967973Y-102818792D01*
X73782714Y-103102880D01*
X73604546Y-103372236D01*
X73438808Y-103618775D01*
X73290841Y-103834411D01*
X73165986Y-104011059D01*
X73069584Y-104140635D01*
X73015813Y-104205760D01*
X72897000Y-104335372D01*
X71899143Y-104300876D01*
X71582710Y-104291808D01*
X71240566Y-104285226D01*
X70894270Y-104281326D01*
X70565383Y-104280304D01*
X70275462Y-104282356D01*
X70139286Y-104284893D01*
X69866534Y-104292554D01*
X69651784Y-104301584D01*
X69480467Y-104313402D01*
X69338012Y-104329424D01*
X69209850Y-104351071D01*
X69081412Y-104379759D01*
X69028773Y-104392990D01*
X68775326Y-104465504D01*
X68575811Y-104541651D01*
X68411781Y-104630316D01*
X68264788Y-104740384D01*
X68214341Y-104785250D01*
X68037156Y-104992683D01*
X67927461Y-105223713D01*
X67885600Y-105474408D01*
X67911916Y-105740832D01*
X68006754Y-106019051D01*
X68092236Y-106182481D01*
X68206207Y-106345908D01*
X68369756Y-106538946D01*
X68571816Y-106751345D01*
X68801319Y-106972857D01*
X69047198Y-107193233D01*
X69298386Y-107402225D01*
X69543814Y-107589585D01*
X69772417Y-107745063D01*
X69794571Y-107758861D01*
X69810534Y-107784062D01*
X69791665Y-107827119D01*
X69731389Y-107896918D01*
X69623131Y-108002349D01*
X69595000Y-108028626D01*
X69371528Y-108214815D01*
X69150061Y-108359111D01*
X68938633Y-108458851D01*
X68745279Y-108511371D01*
X68578032Y-108514008D01*
X68444926Y-108464099D01*
X68399395Y-108424967D01*
X68293647Y-108276388D01*
X68190203Y-108065433D01*
X68092810Y-107802283D01*
X68005219Y-107497120D01*
X67931179Y-107160124D01*
X67928651Y-107146657D01*
X67878830Y-106810637D01*
X67842930Y-106423392D01*
X67821348Y-106004996D01*
X67814478Y-105575523D01*
X67822716Y-105155047D01*
X67846459Y-104763642D01*
X67876269Y-104489429D01*
X67951562Y-104076158D01*
X68068748Y-103618926D01*
X68222883Y-103129206D01*
X68409025Y-102618472D01*
X68622230Y-102098196D01*
X68857555Y-101579853D01*
X69110057Y-101074915D01*
X69374793Y-100594857D01*
X69646819Y-100151150D01*
X69908577Y-99772286D01*
X70033599Y-99599691D01*
X70117571Y-99474505D01*
X70165424Y-99387990D01*
X70182087Y-99331406D01*
X70175108Y-99299822D01*
X70119401Y-99261836D01*
X70038316Y-99288723D01*
X69930745Y-99381139D01*
X69819639Y-99509214D01*
X69528496Y-99903637D01*
X69239798Y-100351827D01*
X68958648Y-100842104D01*
X68690147Y-101362787D01*
X68439397Y-101902196D01*
X68211499Y-102448652D01*
X68011554Y-102990472D01*
X67844666Y-103515978D01*
X67715934Y-104013489D01*
X67630462Y-104471323D01*
X67620665Y-104543857D01*
X67597557Y-104784753D01*
X67581225Y-105078445D01*
X67572066Y-105405438D01*
X67570474Y-105746239D01*
X67576845Y-106081353D01*
X67585374Y-106285572D01*
X67619887Y-106714750D01*
X67676052Y-107119664D01*
X67751673Y-107494197D01*
X67844553Y-107832234D01*
X67952497Y-108127658D01*
X68073308Y-108374355D01*
X68204791Y-108566208D01*
X68344750Y-108697101D01*
X68472776Y-108756903D01*
X68641514Y-108770480D01*
X68844289Y-108741244D01*
X69059592Y-108673084D01*
X69145374Y-108635326D01*
X69245073Y-108584707D01*
X69340012Y-108528764D01*
X69441791Y-108459007D01*
X69562009Y-108366948D01*
X69712265Y-108244099D01*
X69904159Y-108081971D01*
X69920133Y-108068350D01*
X70058521Y-107950292D01*
X70058521Y-107589980D01*
X69999925Y-107579551D01*
X69897252Y-107527514D01*
X69760039Y-107441168D01*
X69597823Y-107327816D01*
X69420142Y-107194757D01*
X69236533Y-107049292D01*
X69056534Y-106898720D01*
X68889681Y-106750344D01*
X68745513Y-106611463D01*
X68658072Y-106517995D01*
X68444254Y-106258297D01*
X68288313Y-106028819D01*
X68186821Y-105820941D01*
X68136349Y-105626044D01*
X68133470Y-105435508D01*
X68164273Y-105276287D01*
X68229917Y-105141016D01*
X68345097Y-104998854D01*
X68491648Y-104869062D01*
X68631714Y-104780589D01*
X68735843Y-104736738D01*
X68883589Y-104686013D01*
X69047778Y-104637533D01*
X69095862Y-104624869D01*
X69173291Y-104605709D01*
X69246513Y-104589869D01*
X69323012Y-104577066D01*
X69410272Y-104567014D01*
X69515775Y-104559428D01*
X69647006Y-104554025D01*
X69811448Y-104550518D01*
X70016584Y-104548624D01*
X70269898Y-104548057D01*
X70578873Y-104548533D01*
X70950993Y-104549767D01*
X71058795Y-104550176D01*
X71397304Y-104551868D01*
X71713136Y-104554202D01*
X71998970Y-104557070D01*
X72247482Y-104560363D01*
X72451350Y-104563972D01*
X72603253Y-104567788D01*
X72695866Y-104571703D01*
X72722410Y-104574887D01*
X72709116Y-104610596D01*
X72653863Y-104693535D01*
X72562577Y-104816401D01*
X72441188Y-104971895D01*
X72295621Y-105152716D01*
X72131806Y-105351564D01*
X71955669Y-105561139D01*
X71773139Y-105774139D01*
X71590143Y-105983265D01*
X71465982Y-106122286D01*
X71287323Y-106318768D01*
X71098687Y-106523281D01*
X70906952Y-106728655D01*
X70718993Y-106927718D01*
X70541689Y-107113298D01*
X70381917Y-107278224D01*
X70246553Y-107415325D01*
X70142476Y-107517428D01*
X70076562Y-107577363D01*
X70058521Y-107589980D01*
X70058521Y-107950292D01*
X70084667Y-107927986D01*
X70288439Y-108024467D01*
X70582086Y-108136581D01*
X70882847Y-108202298D01*
X71122285Y-108217274D01*
X71122285Y-107974862D01*
X70878917Y-107952547D01*
X70632908Y-107899223D01*
X70431229Y-107828425D01*
X70258749Y-107754492D01*
X70749093Y-107247840D01*
X70945651Y-107042326D01*
X71165498Y-106808495D01*
X71387682Y-106568875D01*
X71591247Y-106345994D01*
X71687218Y-106239224D01*
X71903215Y-105992806D01*
X72138417Y-105717115D01*
X72378574Y-105429370D01*
X72609432Y-105146793D01*
X72816741Y-104886602D01*
X72955850Y-104706409D01*
X73011058Y-104638367D01*
X73061393Y-104601854D01*
X73130518Y-104588583D01*
X73242099Y-104590270D01*
X73282076Y-104592190D01*
X73402960Y-104599700D01*
X73427930Y-104602067D01*
X73427930Y-104344012D01*
X73337776Y-104338826D01*
X73283854Y-104322171D01*
X73278000Y-104311702D01*
X73297681Y-104272827D01*
X73352411Y-104184379D01*
X73435720Y-104056307D01*
X73541137Y-103898558D01*
X73661053Y-103722736D01*
X73800842Y-103518154D01*
X73942946Y-103307493D01*
X74075503Y-103108521D01*
X74186651Y-102939007D01*
X74244868Y-102848177D01*
X74329154Y-102716542D01*
X74398782Y-102611445D01*
X74445099Y-102545728D01*
X74459240Y-102530000D01*
X74456981Y-102553510D01*
X74429395Y-102626603D01*
X74374822Y-102753124D01*
X74291601Y-102936918D01*
X74178071Y-103181831D01*
X74172891Y-103192920D01*
X74081011Y-103392417D01*
X73979020Y-103618291D01*
X73884344Y-103831824D01*
X73854424Y-103900492D01*
X73787865Y-104051070D01*
X73728783Y-104178975D01*
X73684818Y-104267984D01*
X73666775Y-104298929D01*
X73617331Y-104323245D01*
X73529415Y-104338545D01*
X73427930Y-104344012D01*
X73427930Y-104602067D01*
X73490591Y-104608008D01*
X73524228Y-104614705D01*
X73514063Y-104650535D01*
X73477171Y-104742187D01*
X73418002Y-104879952D01*
X73341009Y-105054119D01*
X73250643Y-105254977D01*
X73151356Y-105472817D01*
X73047598Y-105697929D01*
X72943821Y-105920602D01*
X72844476Y-106131126D01*
X72754016Y-106319792D01*
X72676891Y-106476888D01*
X72617552Y-106592705D01*
X72616862Y-106594000D01*
X72429587Y-106920979D01*
X72235116Y-107215806D01*
X72039607Y-107471033D01*
X71849220Y-107679211D01*
X71670114Y-107832891D01*
X71520648Y-107919721D01*
X71342898Y-107964481D01*
X71122285Y-107974862D01*
X71122285Y-108217274D01*
X71175686Y-108220615D01*
X71445566Y-108190531D01*
X71666716Y-108116340D01*
X71821311Y-108018887D01*
X71996712Y-107870789D01*
X72179633Y-107685468D01*
X72356786Y-107476344D01*
X72509331Y-107265286D01*
X72610760Y-107099217D01*
X72734865Y-106875668D01*
X72876817Y-106604317D01*
X73031787Y-106294841D01*
X73194943Y-105956917D01*
X73361457Y-105600222D01*
X73526497Y-105234433D01*
X73553758Y-105172727D01*
X73804143Y-104604167D01*
X73979665Y-104579244D01*
X74092123Y-104569833D01*
X74251741Y-104564806D01*
X74433209Y-104564703D01*
X74542093Y-104567231D01*
X74929000Y-104580143D01*
X74940480Y-104480375D01*
X74933064Y-104406940D01*
X74886118Y-104356521D01*
X74792156Y-104327067D01*
X74643689Y-104316530D01*
X74433228Y-104322860D01*
X74377611Y-104326329D01*
X74219114Y-104334654D01*
X74087112Y-104337405D01*
X73998729Y-104334460D01*
X73972336Y-104329176D01*
X73966971Y-104310120D01*
X73976218Y-104264689D01*
X74002083Y-104188238D01*
X74046572Y-104076118D01*
X74111687Y-103923682D01*
X74199436Y-103726284D01*
X74311821Y-103479275D01*
X74450849Y-103178008D01*
X74618523Y-102817836D01*
X74693704Y-102657000D01*
X74891736Y-102229365D01*
X75055931Y-101865262D01*
X75186518Y-101564142D01*
X75283725Y-101325457D01*
X75347780Y-101148659D01*
X75378911Y-101033200D01*
X75382238Y-101001372D01*
X75360532Y-100905033D01*
X75360532Y-100905033D01*
G37*
X75360532Y-100905033D02*
X75305667Y-100847465D01*
X75234185Y-100844188D01*
X75221267Y-100850317D01*
X75187982Y-100888874D01*
X75123237Y-100981242D01*
X75032600Y-101118821D01*
X74921643Y-101293007D01*
X74795934Y-101495201D01*
X74673090Y-101696826D01*
X74512879Y-101958989D01*
X74338396Y-102238761D01*
X74154980Y-102528058D01*
X73967973Y-102818792D01*
X73782714Y-103102880D01*
X73604546Y-103372236D01*
X73438808Y-103618775D01*
X73290841Y-103834411D01*
X73165986Y-104011059D01*
X73069584Y-104140635D01*
X73015813Y-104205760D01*
X72897000Y-104335372D01*
X71899143Y-104300876D01*
X71582710Y-104291808D01*
X71240566Y-104285226D01*
X70894270Y-104281326D01*
X70565383Y-104280304D01*
X70275462Y-104282356D01*
X70139286Y-104284893D01*
X69866534Y-104292554D01*
X69651784Y-104301584D01*
X69480467Y-104313402D01*
X69338012Y-104329424D01*
X69209850Y-104351071D01*
X69081412Y-104379759D01*
X69028773Y-104392990D01*
X68775326Y-104465504D01*
X68575811Y-104541651D01*
X68411781Y-104630316D01*
X68264788Y-104740384D01*
X68214341Y-104785250D01*
X68037156Y-104992683D01*
X67927461Y-105223713D01*
X67885600Y-105474408D01*
X67911916Y-105740832D01*
X68006754Y-106019051D01*
X68092236Y-106182481D01*
X68206207Y-106345908D01*
X68369756Y-106538946D01*
X68571816Y-106751345D01*
X68801319Y-106972857D01*
X69047198Y-107193233D01*
X69298386Y-107402225D01*
X69543814Y-107589585D01*
X69772417Y-107745063D01*
X69794571Y-107758861D01*
X69810534Y-107784062D01*
X69791665Y-107827119D01*
X69731389Y-107896918D01*
X69623131Y-108002349D01*
X69595000Y-108028626D01*
X69371528Y-108214815D01*
X69150061Y-108359111D01*
X68938633Y-108458851D01*
X68745279Y-108511371D01*
X68578032Y-108514008D01*
X68444926Y-108464099D01*
X68399395Y-108424967D01*
X68293647Y-108276388D01*
X68190203Y-108065433D01*
X68092810Y-107802283D01*
X68005219Y-107497120D01*
X67931179Y-107160124D01*
X67928651Y-107146657D01*
X67878830Y-106810637D01*
X67842930Y-106423392D01*
X67821348Y-106004996D01*
X67814478Y-105575523D01*
X67822716Y-105155047D01*
X67846459Y-104763642D01*
X67876269Y-104489429D01*
X67951562Y-104076158D01*
X68068748Y-103618926D01*
X68222883Y-103129206D01*
X68409025Y-102618472D01*
X68622230Y-102098196D01*
X68857555Y-101579853D01*
X69110057Y-101074915D01*
X69374793Y-100594857D01*
X69646819Y-100151150D01*
X69908577Y-99772286D01*
X70033599Y-99599691D01*
X70117571Y-99474505D01*
X70165424Y-99387990D01*
X70182087Y-99331406D01*
X70175108Y-99299822D01*
X70119401Y-99261836D01*
X70038316Y-99288723D01*
X69930745Y-99381139D01*
X69819639Y-99509214D01*
X69528496Y-99903637D01*
X69239798Y-100351827D01*
X68958648Y-100842104D01*
X68690147Y-101362787D01*
X68439397Y-101902196D01*
X68211499Y-102448652D01*
X68011554Y-102990472D01*
X67844666Y-103515978D01*
X67715934Y-104013489D01*
X67630462Y-104471323D01*
X67620665Y-104543857D01*
X67597557Y-104784753D01*
X67581225Y-105078445D01*
X67572066Y-105405438D01*
X67570474Y-105746239D01*
X67576845Y-106081353D01*
X67585374Y-106285572D01*
X67619887Y-106714750D01*
X67676052Y-107119664D01*
X67751673Y-107494197D01*
X67844553Y-107832234D01*
X67952497Y-108127658D01*
X68073308Y-108374355D01*
X68204791Y-108566208D01*
X68344750Y-108697101D01*
X68472776Y-108756903D01*
X68641514Y-108770480D01*
X68844289Y-108741244D01*
X69059592Y-108673084D01*
X69145374Y-108635326D01*
X69245073Y-108584707D01*
X69340012Y-108528764D01*
X69441791Y-108459007D01*
X69562009Y-108366948D01*
X69712265Y-108244099D01*
X69904159Y-108081971D01*
X69920133Y-108068350D01*
X70058521Y-107950292D01*
X70058521Y-107589980D01*
X69999925Y-107579551D01*
X69897252Y-107527514D01*
X69760039Y-107441168D01*
X69597823Y-107327816D01*
X69420142Y-107194757D01*
X69236533Y-107049292D01*
X69056534Y-106898720D01*
X68889681Y-106750344D01*
X68745513Y-106611463D01*
X68658072Y-106517995D01*
X68444254Y-106258297D01*
X68288313Y-106028819D01*
X68186821Y-105820941D01*
X68136349Y-105626044D01*
X68133470Y-105435508D01*
X68164273Y-105276287D01*
X68229917Y-105141016D01*
X68345097Y-104998854D01*
X68491648Y-104869062D01*
X68631714Y-104780589D01*
X68735843Y-104736738D01*
X68883589Y-104686013D01*
X69047778Y-104637533D01*
X69095862Y-104624869D01*
X69173291Y-104605709D01*
X69246513Y-104589869D01*
X69323012Y-104577066D01*
X69410272Y-104567014D01*
X69515775Y-104559428D01*
X69647006Y-104554025D01*
X69811448Y-104550518D01*
X70016584Y-104548624D01*
X70269898Y-104548057D01*
X70578873Y-104548533D01*
X70950993Y-104549767D01*
X71058795Y-104550176D01*
X71397304Y-104551868D01*
X71713136Y-104554202D01*
X71998970Y-104557070D01*
X72247482Y-104560363D01*
X72451350Y-104563972D01*
X72603253Y-104567788D01*
X72695866Y-104571703D01*
X72722410Y-104574887D01*
X72709116Y-104610596D01*
X72653863Y-104693535D01*
X72562577Y-104816401D01*
X72441188Y-104971895D01*
X72295621Y-105152716D01*
X72131806Y-105351564D01*
X71955669Y-105561139D01*
X71773139Y-105774139D01*
X71590143Y-105983265D01*
X71465982Y-106122286D01*
X71287323Y-106318768D01*
X71098687Y-106523281D01*
X70906952Y-106728655D01*
X70718993Y-106927718D01*
X70541689Y-107113298D01*
X70381917Y-107278224D01*
X70246553Y-107415325D01*
X70142476Y-107517428D01*
X70076562Y-107577363D01*
X70058521Y-107589980D01*
X70058521Y-107950292D01*
X70084667Y-107927986D01*
X70288439Y-108024467D01*
X70582086Y-108136581D01*
X70882847Y-108202298D01*
X71122285Y-108217274D01*
X71122285Y-107974862D01*
X70878917Y-107952547D01*
X70632908Y-107899223D01*
X70431229Y-107828425D01*
X70258749Y-107754492D01*
X70749093Y-107247840D01*
X70945651Y-107042326D01*
X71165498Y-106808495D01*
X71387682Y-106568875D01*
X71591247Y-106345994D01*
X71687218Y-106239224D01*
X71903215Y-105992806D01*
X72138417Y-105717115D01*
X72378574Y-105429370D01*
X72609432Y-105146793D01*
X72816741Y-104886602D01*
X72955850Y-104706409D01*
X73011058Y-104638367D01*
X73061393Y-104601854D01*
X73130518Y-104588583D01*
X73242099Y-104590270D01*
X73282076Y-104592190D01*
X73402960Y-104599700D01*
X73427930Y-104602067D01*
X73427930Y-104344012D01*
X73337776Y-104338826D01*
X73283854Y-104322171D01*
X73278000Y-104311702D01*
X73297681Y-104272827D01*
X73352411Y-104184379D01*
X73435720Y-104056307D01*
X73541137Y-103898558D01*
X73661053Y-103722736D01*
X73800842Y-103518154D01*
X73942946Y-103307493D01*
X74075503Y-103108521D01*
X74186651Y-102939007D01*
X74244868Y-102848177D01*
X74329154Y-102716542D01*
X74398782Y-102611445D01*
X74445099Y-102545728D01*
X74459240Y-102530000D01*
X74456981Y-102553510D01*
X74429395Y-102626603D01*
X74374822Y-102753124D01*
X74291601Y-102936918D01*
X74178071Y-103181831D01*
X74172891Y-103192920D01*
X74081011Y-103392417D01*
X73979020Y-103618291D01*
X73884344Y-103831824D01*
X73854424Y-103900492D01*
X73787865Y-104051070D01*
X73728783Y-104178975D01*
X73684818Y-104267984D01*
X73666775Y-104298929D01*
X73617331Y-104323245D01*
X73529415Y-104338545D01*
X73427930Y-104344012D01*
X73427930Y-104602067D01*
X73490591Y-104608008D01*
X73524228Y-104614705D01*
X73514063Y-104650535D01*
X73477171Y-104742187D01*
X73418002Y-104879952D01*
X73341009Y-105054119D01*
X73250643Y-105254977D01*
X73151356Y-105472817D01*
X73047598Y-105697929D01*
X72943821Y-105920602D01*
X72844476Y-106131126D01*
X72754016Y-106319792D01*
X72676891Y-106476888D01*
X72617552Y-106592705D01*
X72616862Y-106594000D01*
X72429587Y-106920979D01*
X72235116Y-107215806D01*
X72039607Y-107471033D01*
X71849220Y-107679211D01*
X71670114Y-107832891D01*
X71520648Y-107919721D01*
X71342898Y-107964481D01*
X71122285Y-107974862D01*
X71122285Y-108217274D01*
X71175686Y-108220615D01*
X71445566Y-108190531D01*
X71666716Y-108116340D01*
X71821311Y-108018887D01*
X71996712Y-107870789D01*
X72179633Y-107685468D01*
X72356786Y-107476344D01*
X72509331Y-107265286D01*
X72610760Y-107099217D01*
X72734865Y-106875668D01*
X72876817Y-106604317D01*
X73031787Y-106294841D01*
X73194943Y-105956917D01*
X73361457Y-105600222D01*
X73526497Y-105234433D01*
X73553758Y-105172727D01*
X73804143Y-104604167D01*
X73979665Y-104579244D01*
X74092123Y-104569833D01*
X74251741Y-104564806D01*
X74433209Y-104564703D01*
X74542093Y-104567231D01*
X74929000Y-104580143D01*
X74940480Y-104480375D01*
X74933064Y-104406940D01*
X74886118Y-104356521D01*
X74792156Y-104327067D01*
X74643689Y-104316530D01*
X74433228Y-104322860D01*
X74377611Y-104326329D01*
X74219114Y-104334654D01*
X74087112Y-104337405D01*
X73998729Y-104334460D01*
X73972336Y-104329176D01*
X73966971Y-104310120D01*
X73976218Y-104264689D01*
X74002083Y-104188238D01*
X74046572Y-104076118D01*
X74111687Y-103923682D01*
X74199436Y-103726284D01*
X74311821Y-103479275D01*
X74450849Y-103178008D01*
X74618523Y-102817836D01*
X74693704Y-102657000D01*
X74891736Y-102229365D01*
X75055931Y-101865262D01*
X75186518Y-101564142D01*
X75283725Y-101325457D01*
X75347780Y-101148659D01*
X75378911Y-101033200D01*
X75382238Y-101001372D01*
X75360532Y-100905033D01*
M02*
