M48
; DRILL file {KiCad (5.1.4-0-10_14)} date 2020 November 17, Tuesday 21:22:25
; FORMAT={-:-/ absolute / inch / decimal}
; #@! TF.CreationDate,2020-11-17T21:22:25+01:00
; #@! TF.GenerationSoftware,Kicad,Pcbnew,(5.1.4-0-10_14)
; #@! TF.FileFunction,Plated,1,2,PTH
FMAT,2
INCH
T1C0.0157
T2C0.0236
T3C0.0394
T4C0.0472
T5C0.1693
%
G90
G05
T1
X2.5591Y-2.3031
X2.5984Y-2.0965
X2.6083Y-2.1654
X2.6083Y-2.2441
X2.6575Y-4.5276
X2.6575Y-4.626
X2.8543Y-4.4882
X2.8543Y-4.6457
X3.0512Y-4.4882
X3.0512Y-4.6457
X3.0709Y-2.0866
X3.1004Y-2.1555
X3.248Y-4.4882
X3.248Y-4.6457
X3.3268Y-2.874
X3.3268Y-3.878
X3.3858Y-2.126
X3.3858Y-2.185
X3.3858Y-2.9528
X3.4055Y-2.7756
X3.4055Y-3.7795
X3.4055Y-3.9764
X3.4449Y-4.4882
X3.4449Y-4.6457
X3.4646Y-2.874
X3.4646Y-3.0512
X3.4843Y-2.126
X3.4843Y-2.185
X3.4843Y-3.7205
X3.4843Y-3.878
X3.4843Y-4.0551
X3.5039Y-2.7165
X3.5827Y-2.7756
X3.5827Y-2.874
X3.5827Y-2.9921
X3.5827Y-3.7795
X3.5827Y-3.878
X3.5827Y-3.9961
X3.622Y-2.0866
X3.6417Y-4.4882
X3.6417Y-4.6457
X3.7402Y-2.8248
X3.7402Y-3.7894
X3.8386Y-2.874
X3.8386Y-3.8386
X3.937Y-3.8878
X3.937Y-2.9232
X4.0354Y-3.937
X4.0354Y-2.9724
X4.2913Y-2.0866
X4.2913Y-2.874
X4.3209Y-3.8091
X4.3307Y-2.3819
X4.3701Y-2.1654
X4.3701Y-4.5669
X4.4094Y-2.9134
X4.4094Y-3.9272
X4.4488Y-2.2539
X4.4685Y-2.0866
X4.4882Y-2.3228
X4.5079Y-3.2677
X4.5276Y-3.3465
X4.5472Y-3.4252
X4.6063Y-3.4646
X4.7638Y-2.4409
X4.7638Y-2.6378
X4.7638Y-2.7953
X4.7638Y-2.9528
X4.7638Y-3.1102
X4.7638Y-3.5827
X4.7638Y-3.7402
X4.7638Y-3.8976
X4.7638Y-4.0551
X4.7638Y-4.1732
T2
X4.5974Y-2.1654
X4.6346Y-2.0756
X4.6346Y-2.2551
X4.7244Y-2.0384
X4.7244Y-2.2923
X4.8142Y-2.0756
X4.8142Y-2.2551
X4.8514Y-2.1654
X4.5974Y-4.5276
X4.6346Y-4.4378
X4.6346Y-4.6173
X4.7244Y-4.4006
X4.7244Y-4.6545
X4.8142Y-4.4378
X4.8142Y-4.6173
X4.8514Y-4.5276
X2.2352Y-2.1654
X2.2724Y-2.0756
X2.2724Y-2.2551
X2.3622Y-2.0384
X2.3622Y-2.2923
X2.452Y-2.0756
X2.452Y-2.2551
X2.4892Y-2.1654
X2.2352Y-4.5276
X2.2724Y-4.4378
X2.2724Y-4.6173
X2.3622Y-4.4006
X2.3622Y-4.6545
X2.452Y-4.4378
X2.452Y-4.6173
X2.4892Y-4.5276
T3
X2.3031Y-2.6854
X2.3031Y-2.7854
X2.3031Y-3.6697
X2.3031Y-3.7697
X3.7402Y-2.1654
X3.8402Y-2.1654
X3.9402Y-2.1654
X4.0402Y-2.1654
X4.1402Y-2.1654
X2.3031Y-3.9157
X2.3031Y-4.0157
X2.3031Y-2.9315
X2.3031Y-3.0315
X2.3031Y-3.4252
X2.3031Y-3.5252
X2.3031Y-4.1618
X2.3031Y-4.2618
X3.7402Y-4.5472
X3.8402Y-4.5472
X2.3031Y-3.1776
X2.3031Y-3.2776
X3.9402Y-4.5472
X4.0402Y-4.5472
X4.1402Y-4.5472
X2.3031Y-2.4394
X2.3031Y-2.5394
T4
X2.7559Y-2.1654
X2.8937Y-2.1654
T5
X4.7244Y-2.1654
X2.3622Y-4.5276
X4.7244Y-4.5276
X2.3622Y-2.1654
T0
M30
