G04 #@! TF.GenerationSoftware,KiCad,Pcbnew,(5.1.4-0-10_14)*
G04 #@! TF.CreationDate,2020-11-17T21:22:23+01:00*
G04 #@! TF.ProjectId,output_driver,6f757470-7574-45f6-9472-697665722e6b,rev?*
G04 #@! TF.SameCoordinates,Original*
G04 #@! TF.FileFunction,Copper,L2,Bot*
G04 #@! TF.FilePolarity,Positive*
%FSLAX46Y46*%
G04 Gerber Fmt 4.6, Leading zero omitted, Abs format (unit mm)*
G04 Created by KiCad (PCBNEW (5.1.4-0-10_14)) date 2020-11-17 21:22:23*
%MOMM*%
%LPD*%
G04 APERTURE LIST*
%ADD10O,1.700000X1.700000*%
%ADD11R,1.700000X1.700000*%
%ADD12C,0.900000*%
%ADD13C,8.600000*%
%ADD14C,2.400000*%
%ADD15R,2.400000X2.400000*%
%ADD16C,0.800000*%
%ADD17C,1.000000*%
%ADD18C,0.254000*%
G04 APERTURE END LIST*
D10*
X105160000Y-115500000D03*
X102620000Y-115500000D03*
X100080000Y-115500000D03*
X97540000Y-115500000D03*
D11*
X95000000Y-115500000D03*
D12*
X122280419Y-52719581D03*
X120000000Y-51775000D03*
X117719581Y-52719581D03*
X116775000Y-55000000D03*
X117719581Y-57280419D03*
X120000000Y-58225000D03*
X122280419Y-57280419D03*
X123225000Y-55000000D03*
D13*
X120000000Y-55000000D03*
D12*
X122280419Y-112719581D03*
X120000000Y-111775000D03*
X117719581Y-112719581D03*
X116775000Y-115000000D03*
X117719581Y-117280419D03*
X120000000Y-118225000D03*
X122280419Y-117280419D03*
X123225000Y-115000000D03*
D13*
X120000000Y-115000000D03*
D12*
X62280419Y-52719581D03*
X60000000Y-51775000D03*
X57719581Y-52719581D03*
X56775000Y-55000000D03*
X57719581Y-57280419D03*
X60000000Y-58225000D03*
X62280419Y-57280419D03*
X63225000Y-55000000D03*
D13*
X60000000Y-55000000D03*
D12*
X62280419Y-112719581D03*
X60000000Y-111775000D03*
X57719581Y-112719581D03*
X56775000Y-115000000D03*
X57719581Y-117280419D03*
X60000000Y-118225000D03*
X62280419Y-117280419D03*
X63225000Y-115000000D03*
D13*
X60000000Y-115000000D03*
D11*
X58500000Y-64500000D03*
D10*
X58500000Y-61960000D03*
X58500000Y-105710000D03*
D11*
X58500000Y-108250000D03*
D10*
X58500000Y-99460000D03*
D11*
X58500000Y-102000000D03*
D10*
X58500000Y-93210000D03*
D11*
X58500000Y-95750000D03*
D10*
X58500000Y-87000000D03*
D11*
X58500000Y-89540000D03*
D10*
X58500000Y-80710000D03*
D11*
X58500000Y-83250000D03*
D10*
X58500000Y-74460000D03*
D11*
X58500000Y-77000000D03*
X58500000Y-70750000D03*
D10*
X58500000Y-68210000D03*
X105160000Y-55000000D03*
X102620000Y-55000000D03*
X100080000Y-55000000D03*
X97540000Y-55000000D03*
D11*
X95000000Y-55000000D03*
D14*
X73500000Y-55000000D03*
D15*
X70000000Y-55000000D03*
D16*
X86000000Y-55500000D03*
X88500000Y-55500000D03*
X88500000Y-54000000D03*
X86000000Y-54000000D03*
X78000000Y-53000000D03*
X66000000Y-53250000D03*
X92000000Y-53000000D03*
X65000000Y-58500000D03*
X66250000Y-55000000D03*
X66250000Y-57000000D03*
X88500000Y-103000000D03*
X86500000Y-101000000D03*
X84500000Y-98500000D03*
X86500000Y-96000000D03*
X88500000Y-94500000D03*
X88500000Y-98500000D03*
X91000000Y-98500000D03*
X91000000Y-96000000D03*
X91000000Y-101500000D03*
X84500000Y-73000000D03*
X86000000Y-75000000D03*
X88000000Y-77500000D03*
X86500000Y-70500000D03*
X89000000Y-69000000D03*
X88000000Y-73000000D03*
X91000000Y-73000000D03*
X91000000Y-70500000D03*
X91000000Y-76000000D03*
X67500000Y-117500000D03*
X72500000Y-118000000D03*
X77500000Y-118000000D03*
X82500000Y-118000000D03*
X87500000Y-118000000D03*
X92500000Y-118000000D03*
X92500000Y-114000000D03*
X87500000Y-114000000D03*
X82500000Y-114000000D03*
X77500000Y-114000000D03*
X72500000Y-114000000D03*
X67500000Y-115000000D03*
X121000000Y-62000000D03*
X121000000Y-67000000D03*
X121000000Y-71000000D03*
X121000000Y-75000000D03*
X121000000Y-79000000D03*
X121000000Y-91000000D03*
X121000000Y-95000000D03*
X121000000Y-99000000D03*
X121000000Y-103000000D03*
X121000000Y-106000000D03*
X111000000Y-116000000D03*
X109750000Y-96750000D03*
X112000000Y-99750000D03*
X109000000Y-73000000D03*
X112000000Y-74000000D03*
X78750000Y-54750000D03*
X111000000Y-55000000D03*
X113000000Y-57250000D03*
X114000000Y-59000000D03*
X113500000Y-53000000D03*
X109000000Y-53000000D03*
X114500000Y-83000000D03*
X115000000Y-85000000D03*
X117000000Y-88000000D03*
X115500000Y-87000000D03*
X102500000Y-75500000D03*
X102499980Y-100000020D03*
X110000000Y-60500000D03*
X100000000Y-74250000D03*
X99999990Y-98750010D03*
X97500000Y-73000000D03*
X97500000Y-97500010D03*
X95000000Y-71750000D03*
X95000000Y-96250000D03*
D17*
X105160000Y-56202081D02*
X102500000Y-58862081D01*
X105160000Y-55000000D02*
X105160000Y-56202081D01*
X102500000Y-58862081D02*
X102500000Y-75500000D01*
X102500000Y-97750000D02*
X102500000Y-75500000D01*
X102499980Y-100000020D02*
X102500000Y-97750000D01*
X102499980Y-100000020D02*
X102499980Y-110249980D01*
X105160000Y-112910000D02*
X102499980Y-110249980D01*
X105160000Y-115500000D02*
X105160000Y-112910000D01*
X102620000Y-55000000D02*
X102620000Y-53620000D01*
X102620000Y-53620000D02*
X103740000Y-52500000D01*
X105028002Y-52500000D02*
X108000000Y-55471998D01*
X103740000Y-52500000D02*
X105028002Y-52500000D01*
X108000000Y-55471998D02*
X108000000Y-58500000D01*
X108000000Y-58500000D02*
X110000000Y-60500000D01*
X100080000Y-56202081D02*
X100000000Y-56282081D01*
X100080000Y-55000000D02*
X100080000Y-56202081D01*
X100000000Y-56282081D02*
X100000000Y-74250000D01*
X100000000Y-74250000D02*
X100000000Y-98750000D01*
X99999990Y-115419990D02*
X100080000Y-115500000D01*
X99999990Y-98750010D02*
X99999990Y-115419990D01*
X97540000Y-55000000D02*
X97540000Y-72960000D01*
X97500000Y-97500010D02*
X97500000Y-73000000D01*
X97500000Y-115460000D02*
X97540000Y-115500000D01*
X97500000Y-97500010D02*
X97500000Y-115460000D01*
X95000000Y-55000000D02*
X95000000Y-56850000D01*
X95000000Y-66250000D02*
X95000000Y-55000000D01*
X95000000Y-71750000D02*
X95000000Y-96250000D01*
X95000000Y-96250000D02*
X95000000Y-115500000D01*
X95000000Y-71750000D02*
X95000000Y-66250000D01*
D18*
G36*
X113170189Y-52144376D02*
G01*
X113333850Y-52194022D01*
X113484672Y-52274638D01*
X113616870Y-52383130D01*
X113725362Y-52515328D01*
X113805978Y-52666150D01*
X113855624Y-52829811D01*
X113873000Y-53006234D01*
X113873000Y-57085786D01*
X113873612Y-57098234D01*
X113892827Y-57293325D01*
X113897683Y-57317743D01*
X113954588Y-57505336D01*
X113964116Y-57528337D01*
X114056526Y-57701224D01*
X114070358Y-57721925D01*
X114194721Y-57873461D01*
X114203090Y-57882696D01*
X117612898Y-61292504D01*
X117725363Y-61429542D01*
X117805978Y-61580363D01*
X117855624Y-61744024D01*
X117873000Y-61920448D01*
X117873000Y-93993766D01*
X117855624Y-94170189D01*
X117805978Y-94333850D01*
X117725362Y-94484672D01*
X117616870Y-94616870D01*
X117484672Y-94725362D01*
X117333850Y-94805978D01*
X117170189Y-94855624D01*
X116993766Y-94873000D01*
X115006234Y-94873000D01*
X114829811Y-94855624D01*
X114666150Y-94805978D01*
X114515328Y-94725362D01*
X114383130Y-94616870D01*
X114274638Y-94484672D01*
X114194022Y-94333850D01*
X114144376Y-94170189D01*
X114127000Y-93993766D01*
X114127000Y-61980625D01*
X114126204Y-61966430D01*
X114101218Y-61744285D01*
X114094911Y-61716604D01*
X114021200Y-61505560D01*
X114008902Y-61479972D01*
X113890151Y-61290576D01*
X113872476Y-61268359D01*
X113714619Y-61110075D01*
X113704031Y-61100586D01*
X109460204Y-57705524D01*
X109317458Y-57562392D01*
X109213884Y-57397201D01*
X109149593Y-57213131D01*
X109135000Y-57083385D01*
X109135000Y-55527750D01*
X109140491Y-55471998D01*
X109118577Y-55249499D01*
X109107936Y-55214420D01*
X109107173Y-55206675D01*
X109102317Y-55182257D01*
X109045412Y-54994664D01*
X109035884Y-54971663D01*
X108943474Y-54798776D01*
X108929642Y-54778075D01*
X108805279Y-54626539D01*
X108796910Y-54617304D01*
X107508826Y-53329220D01*
X107410537Y-53207251D01*
X107343484Y-53073296D01*
X107306437Y-52928147D01*
X107301090Y-52778440D01*
X107327687Y-52631020D01*
X107385016Y-52492617D01*
X107470450Y-52369569D01*
X107580087Y-52267493D01*
X107708921Y-52191052D01*
X107851057Y-52143744D01*
X108006805Y-52127000D01*
X112993766Y-52127000D01*
X113170189Y-52144376D01*
X113170189Y-52144376D01*
G37*
X113170189Y-52144376D02*
X113333850Y-52194022D01*
X113484672Y-52274638D01*
X113616870Y-52383130D01*
X113725362Y-52515328D01*
X113805978Y-52666150D01*
X113855624Y-52829811D01*
X113873000Y-53006234D01*
X113873000Y-57085786D01*
X113873612Y-57098234D01*
X113892827Y-57293325D01*
X113897683Y-57317743D01*
X113954588Y-57505336D01*
X113964116Y-57528337D01*
X114056526Y-57701224D01*
X114070358Y-57721925D01*
X114194721Y-57873461D01*
X114203090Y-57882696D01*
X117612898Y-61292504D01*
X117725363Y-61429542D01*
X117805978Y-61580363D01*
X117855624Y-61744024D01*
X117873000Y-61920448D01*
X117873000Y-93993766D01*
X117855624Y-94170189D01*
X117805978Y-94333850D01*
X117725362Y-94484672D01*
X117616870Y-94616870D01*
X117484672Y-94725362D01*
X117333850Y-94805978D01*
X117170189Y-94855624D01*
X116993766Y-94873000D01*
X115006234Y-94873000D01*
X114829811Y-94855624D01*
X114666150Y-94805978D01*
X114515328Y-94725362D01*
X114383130Y-94616870D01*
X114274638Y-94484672D01*
X114194022Y-94333850D01*
X114144376Y-94170189D01*
X114127000Y-93993766D01*
X114127000Y-61980625D01*
X114126204Y-61966430D01*
X114101218Y-61744285D01*
X114094911Y-61716604D01*
X114021200Y-61505560D01*
X114008902Y-61479972D01*
X113890151Y-61290576D01*
X113872476Y-61268359D01*
X113714619Y-61110075D01*
X113704031Y-61100586D01*
X109460204Y-57705524D01*
X109317458Y-57562392D01*
X109213884Y-57397201D01*
X109149593Y-57213131D01*
X109135000Y-57083385D01*
X109135000Y-55527750D01*
X109140491Y-55471998D01*
X109118577Y-55249499D01*
X109107936Y-55214420D01*
X109107173Y-55206675D01*
X109102317Y-55182257D01*
X109045412Y-54994664D01*
X109035884Y-54971663D01*
X108943474Y-54798776D01*
X108929642Y-54778075D01*
X108805279Y-54626539D01*
X108796910Y-54617304D01*
X107508826Y-53329220D01*
X107410537Y-53207251D01*
X107343484Y-53073296D01*
X107306437Y-52928147D01*
X107301090Y-52778440D01*
X107327687Y-52631020D01*
X107385016Y-52492617D01*
X107470450Y-52369569D01*
X107580087Y-52267493D01*
X107708921Y-52191052D01*
X107851057Y-52143744D01*
X108006805Y-52127000D01*
X112993766Y-52127000D01*
X113170189Y-52144376D01*
G36*
X92420189Y-52144376D02*
G01*
X92583850Y-52194022D01*
X92734672Y-52274638D01*
X92866870Y-52383130D01*
X92975362Y-52515328D01*
X93055978Y-52666150D01*
X93105624Y-52829811D01*
X93123000Y-53006234D01*
X93123000Y-117993766D01*
X93105624Y-118170189D01*
X93055978Y-118333850D01*
X92975362Y-118484672D01*
X92866870Y-118616870D01*
X92734672Y-118725362D01*
X92583850Y-118805978D01*
X92420189Y-118855624D01*
X92243766Y-118873000D01*
X62984399Y-118873000D01*
X63303213Y-118482818D01*
X60000000Y-115179605D01*
X59985858Y-115193748D01*
X59806253Y-115014143D01*
X59820395Y-115000000D01*
X60179605Y-115000000D01*
X63482818Y-118303213D01*
X64085149Y-117811054D01*
X64555063Y-116960067D01*
X64849929Y-116033757D01*
X64873885Y-115820433D01*
X67776822Y-115820433D01*
X67776822Y-116179567D01*
X67846885Y-116531802D01*
X67984320Y-116863599D01*
X68183845Y-117162208D01*
X68437792Y-117416155D01*
X68736401Y-117615680D01*
X69068198Y-117753115D01*
X69420433Y-117823178D01*
X69779567Y-117823178D01*
X70131802Y-117753115D01*
X70463599Y-117615680D01*
X70762208Y-117416155D01*
X71016155Y-117162208D01*
X71215680Y-116863599D01*
X71353115Y-116531802D01*
X71423178Y-116179567D01*
X71423178Y-115820433D01*
X71353115Y-115468198D01*
X71215680Y-115136401D01*
X71016155Y-114837792D01*
X70762208Y-114583845D01*
X70463599Y-114384320D01*
X70131802Y-114246885D01*
X69779567Y-114176822D01*
X69420433Y-114176822D01*
X69068198Y-114246885D01*
X68736401Y-114384320D01*
X68437792Y-114583845D01*
X68183845Y-114837792D01*
X67984320Y-115136401D01*
X67846885Y-115468198D01*
X67776822Y-115820433D01*
X64873885Y-115820433D01*
X64958414Y-115067719D01*
X64876351Y-114099079D01*
X64606893Y-113165062D01*
X64160394Y-112301560D01*
X64085149Y-112188946D01*
X63482818Y-111696787D01*
X60179605Y-115000000D01*
X59820395Y-115000000D01*
X59806253Y-114985858D01*
X59985858Y-114806253D01*
X60000000Y-114820395D01*
X63303213Y-111517182D01*
X62811054Y-110914851D01*
X61960067Y-110444937D01*
X61033757Y-110150071D01*
X60067719Y-110041586D01*
X59099079Y-110123649D01*
X58165062Y-110393107D01*
X57301560Y-110839606D01*
X57188946Y-110914851D01*
X57127000Y-110990664D01*
X57127000Y-109463678D01*
X57198815Y-109551185D01*
X57295506Y-109630537D01*
X57405820Y-109689502D01*
X57525518Y-109725812D01*
X57650000Y-109738072D01*
X59350000Y-109738072D01*
X59474482Y-109725812D01*
X59594180Y-109689502D01*
X59704494Y-109630537D01*
X59801185Y-109551185D01*
X59880537Y-109454494D01*
X59939502Y-109344180D01*
X59975812Y-109224482D01*
X59988072Y-109100000D01*
X59988072Y-107400000D01*
X59975812Y-107275518D01*
X59939502Y-107155820D01*
X59880537Y-107045506D01*
X59801185Y-106948815D01*
X59704494Y-106869463D01*
X59594180Y-106810498D01*
X59525313Y-106789607D01*
X59555134Y-106765134D01*
X59740706Y-106539014D01*
X59878599Y-106281034D01*
X59963513Y-106001111D01*
X59992185Y-105710000D01*
X59963513Y-105418889D01*
X59878599Y-105138966D01*
X59740706Y-104880986D01*
X59555134Y-104654866D01*
X59329014Y-104469294D01*
X59071034Y-104331401D01*
X58791111Y-104246487D01*
X58572950Y-104225000D01*
X58427050Y-104225000D01*
X58208889Y-104246487D01*
X57928966Y-104331401D01*
X57670986Y-104469294D01*
X57444866Y-104654866D01*
X57259294Y-104880986D01*
X57127000Y-105128491D01*
X57127000Y-103213678D01*
X57198815Y-103301185D01*
X57295506Y-103380537D01*
X57405820Y-103439502D01*
X57525518Y-103475812D01*
X57650000Y-103488072D01*
X59350000Y-103488072D01*
X59474482Y-103475812D01*
X59594180Y-103439502D01*
X59704494Y-103380537D01*
X59801185Y-103301185D01*
X59880537Y-103204494D01*
X59939502Y-103094180D01*
X59975812Y-102974482D01*
X59988072Y-102850000D01*
X59988072Y-101150000D01*
X59975812Y-101025518D01*
X59939502Y-100905820D01*
X59880537Y-100795506D01*
X59801185Y-100698815D01*
X59704494Y-100619463D01*
X59594180Y-100560498D01*
X59525313Y-100539607D01*
X59555134Y-100515134D01*
X59740706Y-100289014D01*
X59878599Y-100031034D01*
X59963513Y-99751111D01*
X59992185Y-99460000D01*
X59963513Y-99168889D01*
X59878599Y-98888966D01*
X59740706Y-98630986D01*
X59555134Y-98404866D01*
X59329014Y-98219294D01*
X59071034Y-98081401D01*
X58791111Y-97996487D01*
X58572950Y-97975000D01*
X58427050Y-97975000D01*
X58208889Y-97996487D01*
X57928966Y-98081401D01*
X57670986Y-98219294D01*
X57444866Y-98404866D01*
X57259294Y-98630986D01*
X57127000Y-98878491D01*
X57127000Y-96963678D01*
X57198815Y-97051185D01*
X57295506Y-97130537D01*
X57405820Y-97189502D01*
X57525518Y-97225812D01*
X57650000Y-97238072D01*
X59350000Y-97238072D01*
X59474482Y-97225812D01*
X59594180Y-97189502D01*
X59704494Y-97130537D01*
X59801185Y-97051185D01*
X59880537Y-96954494D01*
X59939502Y-96844180D01*
X59975812Y-96724482D01*
X59988072Y-96600000D01*
X59988072Y-94900000D01*
X59975812Y-94775518D01*
X59939502Y-94655820D01*
X59880537Y-94545506D01*
X59801185Y-94448815D01*
X59704494Y-94369463D01*
X59594180Y-94310498D01*
X59525313Y-94289607D01*
X59555134Y-94265134D01*
X59740706Y-94039014D01*
X59878599Y-93781034D01*
X59963513Y-93501111D01*
X59992185Y-93210000D01*
X59963513Y-92918889D01*
X59878599Y-92638966D01*
X59740706Y-92380986D01*
X59555134Y-92154866D01*
X59329014Y-91969294D01*
X59071034Y-91831401D01*
X58791111Y-91746487D01*
X58572950Y-91725000D01*
X58427050Y-91725000D01*
X58208889Y-91746487D01*
X57928966Y-91831401D01*
X57670986Y-91969294D01*
X57444866Y-92154866D01*
X57259294Y-92380986D01*
X57127000Y-92628491D01*
X57127000Y-90753678D01*
X57198815Y-90841185D01*
X57295506Y-90920537D01*
X57405820Y-90979502D01*
X57525518Y-91015812D01*
X57650000Y-91028072D01*
X59350000Y-91028072D01*
X59474482Y-91015812D01*
X59594180Y-90979502D01*
X59704494Y-90920537D01*
X59801185Y-90841185D01*
X59880537Y-90744494D01*
X59939502Y-90634180D01*
X59975812Y-90514482D01*
X59988072Y-90390000D01*
X59988072Y-88690000D01*
X59975812Y-88565518D01*
X59939502Y-88445820D01*
X59880537Y-88335506D01*
X59801185Y-88238815D01*
X59704494Y-88159463D01*
X59594180Y-88100498D01*
X59525313Y-88079607D01*
X59555134Y-88055134D01*
X59740706Y-87829014D01*
X59878599Y-87571034D01*
X59963513Y-87291111D01*
X59992185Y-87000000D01*
X59963513Y-86708889D01*
X59878599Y-86428966D01*
X59740706Y-86170986D01*
X59555134Y-85944866D01*
X59329014Y-85759294D01*
X59071034Y-85621401D01*
X58791111Y-85536487D01*
X58572950Y-85515000D01*
X58427050Y-85515000D01*
X58208889Y-85536487D01*
X57928966Y-85621401D01*
X57670986Y-85759294D01*
X57444866Y-85944866D01*
X57259294Y-86170986D01*
X57127000Y-86418491D01*
X57127000Y-84463678D01*
X57198815Y-84551185D01*
X57295506Y-84630537D01*
X57405820Y-84689502D01*
X57525518Y-84725812D01*
X57650000Y-84738072D01*
X59350000Y-84738072D01*
X59474482Y-84725812D01*
X59594180Y-84689502D01*
X59704494Y-84630537D01*
X59801185Y-84551185D01*
X59880537Y-84454494D01*
X59939502Y-84344180D01*
X59975812Y-84224482D01*
X59988072Y-84100000D01*
X59988072Y-82400000D01*
X59975812Y-82275518D01*
X59939502Y-82155820D01*
X59880537Y-82045506D01*
X59801185Y-81948815D01*
X59704494Y-81869463D01*
X59594180Y-81810498D01*
X59525313Y-81789607D01*
X59555134Y-81765134D01*
X59740706Y-81539014D01*
X59878599Y-81281034D01*
X59963513Y-81001111D01*
X59992185Y-80710000D01*
X59963513Y-80418889D01*
X59878599Y-80138966D01*
X59740706Y-79880986D01*
X59555134Y-79654866D01*
X59329014Y-79469294D01*
X59071034Y-79331401D01*
X58791111Y-79246487D01*
X58572950Y-79225000D01*
X58427050Y-79225000D01*
X58208889Y-79246487D01*
X57928966Y-79331401D01*
X57670986Y-79469294D01*
X57444866Y-79654866D01*
X57259294Y-79880986D01*
X57127000Y-80128491D01*
X57127000Y-78213678D01*
X57198815Y-78301185D01*
X57295506Y-78380537D01*
X57405820Y-78439502D01*
X57525518Y-78475812D01*
X57650000Y-78488072D01*
X59350000Y-78488072D01*
X59474482Y-78475812D01*
X59594180Y-78439502D01*
X59704494Y-78380537D01*
X59801185Y-78301185D01*
X59880537Y-78204494D01*
X59939502Y-78094180D01*
X59975812Y-77974482D01*
X59988072Y-77850000D01*
X59988072Y-76150000D01*
X59975812Y-76025518D01*
X59939502Y-75905820D01*
X59880537Y-75795506D01*
X59801185Y-75698815D01*
X59704494Y-75619463D01*
X59594180Y-75560498D01*
X59525313Y-75539607D01*
X59555134Y-75515134D01*
X59740706Y-75289014D01*
X59878599Y-75031034D01*
X59963513Y-74751111D01*
X59992185Y-74460000D01*
X59963513Y-74168889D01*
X59878599Y-73888966D01*
X59740706Y-73630986D01*
X59555134Y-73404866D01*
X59329014Y-73219294D01*
X59071034Y-73081401D01*
X58791111Y-72996487D01*
X58572950Y-72975000D01*
X58427050Y-72975000D01*
X58208889Y-72996487D01*
X57928966Y-73081401D01*
X57670986Y-73219294D01*
X57444866Y-73404866D01*
X57259294Y-73630986D01*
X57127000Y-73878491D01*
X57127000Y-71963678D01*
X57198815Y-72051185D01*
X57295506Y-72130537D01*
X57405820Y-72189502D01*
X57525518Y-72225812D01*
X57650000Y-72238072D01*
X59350000Y-72238072D01*
X59474482Y-72225812D01*
X59594180Y-72189502D01*
X59704494Y-72130537D01*
X59801185Y-72051185D01*
X59880537Y-71954494D01*
X59939502Y-71844180D01*
X59975812Y-71724482D01*
X59988072Y-71600000D01*
X59988072Y-69900000D01*
X59975812Y-69775518D01*
X59939502Y-69655820D01*
X59880537Y-69545506D01*
X59801185Y-69448815D01*
X59704494Y-69369463D01*
X59594180Y-69310498D01*
X59525313Y-69289607D01*
X59555134Y-69265134D01*
X59740706Y-69039014D01*
X59878599Y-68781034D01*
X59963513Y-68501111D01*
X59992185Y-68210000D01*
X59963513Y-67918889D01*
X59878599Y-67638966D01*
X59740706Y-67380986D01*
X59555134Y-67154866D01*
X59329014Y-66969294D01*
X59071034Y-66831401D01*
X58791111Y-66746487D01*
X58572950Y-66725000D01*
X58427050Y-66725000D01*
X58208889Y-66746487D01*
X57928966Y-66831401D01*
X57670986Y-66969294D01*
X57444866Y-67154866D01*
X57259294Y-67380986D01*
X57127000Y-67628491D01*
X57127000Y-65713678D01*
X57198815Y-65801185D01*
X57295506Y-65880537D01*
X57405820Y-65939502D01*
X57525518Y-65975812D01*
X57650000Y-65988072D01*
X59350000Y-65988072D01*
X59474482Y-65975812D01*
X59594180Y-65939502D01*
X59704494Y-65880537D01*
X59801185Y-65801185D01*
X59880537Y-65704494D01*
X59939502Y-65594180D01*
X59975812Y-65474482D01*
X59988072Y-65350000D01*
X59988072Y-63650000D01*
X59975812Y-63525518D01*
X59939502Y-63405820D01*
X59880537Y-63295506D01*
X59801185Y-63198815D01*
X59704494Y-63119463D01*
X59594180Y-63060498D01*
X59525313Y-63039607D01*
X59555134Y-63015134D01*
X59740706Y-62789014D01*
X59878599Y-62531034D01*
X59963513Y-62251111D01*
X59992185Y-61960000D01*
X59963513Y-61668889D01*
X59878599Y-61388966D01*
X59740706Y-61130986D01*
X59555134Y-60904866D01*
X59329014Y-60719294D01*
X59071034Y-60581401D01*
X58791111Y-60496487D01*
X58572950Y-60475000D01*
X58427050Y-60475000D01*
X58208889Y-60496487D01*
X57928966Y-60581401D01*
X57670986Y-60719294D01*
X57444866Y-60904866D01*
X57259294Y-61130986D01*
X57127000Y-61378491D01*
X57127000Y-59009336D01*
X57188946Y-59085149D01*
X58039933Y-59555063D01*
X58966243Y-59849929D01*
X59932281Y-59958414D01*
X60900921Y-59876351D01*
X61834938Y-59606893D01*
X62698440Y-59160394D01*
X62811054Y-59085149D01*
X63303213Y-58482818D01*
X60000000Y-55179605D01*
X59985858Y-55193748D01*
X59806253Y-55014143D01*
X59820395Y-55000000D01*
X59806253Y-54985858D01*
X59985858Y-54806253D01*
X60000000Y-54820395D01*
X60014143Y-54806253D01*
X60193748Y-54985858D01*
X60179605Y-55000000D01*
X63482818Y-58303213D01*
X64085149Y-57811054D01*
X64555063Y-56960067D01*
X64797009Y-56200000D01*
X68161928Y-56200000D01*
X68174188Y-56324482D01*
X68210498Y-56444180D01*
X68269463Y-56554494D01*
X68348815Y-56651185D01*
X68445506Y-56730537D01*
X68555820Y-56789502D01*
X68675518Y-56825812D01*
X68800000Y-56838072D01*
X69714250Y-56835000D01*
X69873000Y-56676250D01*
X69873000Y-55127000D01*
X68323750Y-55127000D01*
X68165000Y-55285750D01*
X68161928Y-56200000D01*
X64797009Y-56200000D01*
X64849929Y-56033757D01*
X64958414Y-55067719D01*
X64876351Y-54099079D01*
X64790069Y-53800000D01*
X68161928Y-53800000D01*
X68165000Y-54714250D01*
X68323750Y-54873000D01*
X69873000Y-54873000D01*
X69873000Y-53323750D01*
X70127000Y-53323750D01*
X70127000Y-54873000D01*
X70147000Y-54873000D01*
X70147000Y-55127000D01*
X70127000Y-55127000D01*
X70127000Y-56676250D01*
X70285750Y-56835000D01*
X71200000Y-56838072D01*
X71324482Y-56825812D01*
X71444180Y-56789502D01*
X71554494Y-56730537D01*
X71651185Y-56651185D01*
X71730537Y-56554494D01*
X71789502Y-56444180D01*
X71825812Y-56324482D01*
X71838072Y-56200000D01*
X71836659Y-55779426D01*
X71873844Y-55869199D01*
X72074662Y-56169744D01*
X72330256Y-56425338D01*
X72630801Y-56626156D01*
X72964750Y-56764482D01*
X73319268Y-56835000D01*
X73680732Y-56835000D01*
X74035250Y-56764482D01*
X74369199Y-56626156D01*
X74669744Y-56425338D01*
X74925338Y-56169744D01*
X75126156Y-55869199D01*
X75264482Y-55535250D01*
X75335000Y-55180732D01*
X75335000Y-54819268D01*
X75264482Y-54464750D01*
X75126156Y-54130801D01*
X74925338Y-53830256D01*
X74669744Y-53574662D01*
X74369199Y-53373844D01*
X74035250Y-53235518D01*
X73680732Y-53165000D01*
X73319268Y-53165000D01*
X72964750Y-53235518D01*
X72630801Y-53373844D01*
X72330256Y-53574662D01*
X72074662Y-53830256D01*
X71873844Y-54130801D01*
X71836659Y-54220574D01*
X71838072Y-53800000D01*
X71825812Y-53675518D01*
X71789502Y-53555820D01*
X71730537Y-53445506D01*
X71651185Y-53348815D01*
X71554494Y-53269463D01*
X71444180Y-53210498D01*
X71324482Y-53174188D01*
X71200000Y-53161928D01*
X70285750Y-53165000D01*
X70127000Y-53323750D01*
X69873000Y-53323750D01*
X69714250Y-53165000D01*
X68800000Y-53161928D01*
X68675518Y-53174188D01*
X68555820Y-53210498D01*
X68445506Y-53269463D01*
X68348815Y-53348815D01*
X68269463Y-53445506D01*
X68210498Y-53555820D01*
X68174188Y-53675518D01*
X68161928Y-53800000D01*
X64790069Y-53800000D01*
X64606893Y-53165062D01*
X64160394Y-52301560D01*
X64085149Y-52188946D01*
X64009336Y-52127000D01*
X92243766Y-52127000D01*
X92420189Y-52144376D01*
X92420189Y-52144376D01*
G37*
X92420189Y-52144376D02*
X92583850Y-52194022D01*
X92734672Y-52274638D01*
X92866870Y-52383130D01*
X92975362Y-52515328D01*
X93055978Y-52666150D01*
X93105624Y-52829811D01*
X93123000Y-53006234D01*
X93123000Y-117993766D01*
X93105624Y-118170189D01*
X93055978Y-118333850D01*
X92975362Y-118484672D01*
X92866870Y-118616870D01*
X92734672Y-118725362D01*
X92583850Y-118805978D01*
X92420189Y-118855624D01*
X92243766Y-118873000D01*
X62984399Y-118873000D01*
X63303213Y-118482818D01*
X60000000Y-115179605D01*
X59985858Y-115193748D01*
X59806253Y-115014143D01*
X59820395Y-115000000D01*
X60179605Y-115000000D01*
X63482818Y-118303213D01*
X64085149Y-117811054D01*
X64555063Y-116960067D01*
X64849929Y-116033757D01*
X64873885Y-115820433D01*
X67776822Y-115820433D01*
X67776822Y-116179567D01*
X67846885Y-116531802D01*
X67984320Y-116863599D01*
X68183845Y-117162208D01*
X68437792Y-117416155D01*
X68736401Y-117615680D01*
X69068198Y-117753115D01*
X69420433Y-117823178D01*
X69779567Y-117823178D01*
X70131802Y-117753115D01*
X70463599Y-117615680D01*
X70762208Y-117416155D01*
X71016155Y-117162208D01*
X71215680Y-116863599D01*
X71353115Y-116531802D01*
X71423178Y-116179567D01*
X71423178Y-115820433D01*
X71353115Y-115468198D01*
X71215680Y-115136401D01*
X71016155Y-114837792D01*
X70762208Y-114583845D01*
X70463599Y-114384320D01*
X70131802Y-114246885D01*
X69779567Y-114176822D01*
X69420433Y-114176822D01*
X69068198Y-114246885D01*
X68736401Y-114384320D01*
X68437792Y-114583845D01*
X68183845Y-114837792D01*
X67984320Y-115136401D01*
X67846885Y-115468198D01*
X67776822Y-115820433D01*
X64873885Y-115820433D01*
X64958414Y-115067719D01*
X64876351Y-114099079D01*
X64606893Y-113165062D01*
X64160394Y-112301560D01*
X64085149Y-112188946D01*
X63482818Y-111696787D01*
X60179605Y-115000000D01*
X59820395Y-115000000D01*
X59806253Y-114985858D01*
X59985858Y-114806253D01*
X60000000Y-114820395D01*
X63303213Y-111517182D01*
X62811054Y-110914851D01*
X61960067Y-110444937D01*
X61033757Y-110150071D01*
X60067719Y-110041586D01*
X59099079Y-110123649D01*
X58165062Y-110393107D01*
X57301560Y-110839606D01*
X57188946Y-110914851D01*
X57127000Y-110990664D01*
X57127000Y-109463678D01*
X57198815Y-109551185D01*
X57295506Y-109630537D01*
X57405820Y-109689502D01*
X57525518Y-109725812D01*
X57650000Y-109738072D01*
X59350000Y-109738072D01*
X59474482Y-109725812D01*
X59594180Y-109689502D01*
X59704494Y-109630537D01*
X59801185Y-109551185D01*
X59880537Y-109454494D01*
X59939502Y-109344180D01*
X59975812Y-109224482D01*
X59988072Y-109100000D01*
X59988072Y-107400000D01*
X59975812Y-107275518D01*
X59939502Y-107155820D01*
X59880537Y-107045506D01*
X59801185Y-106948815D01*
X59704494Y-106869463D01*
X59594180Y-106810498D01*
X59525313Y-106789607D01*
X59555134Y-106765134D01*
X59740706Y-106539014D01*
X59878599Y-106281034D01*
X59963513Y-106001111D01*
X59992185Y-105710000D01*
X59963513Y-105418889D01*
X59878599Y-105138966D01*
X59740706Y-104880986D01*
X59555134Y-104654866D01*
X59329014Y-104469294D01*
X59071034Y-104331401D01*
X58791111Y-104246487D01*
X58572950Y-104225000D01*
X58427050Y-104225000D01*
X58208889Y-104246487D01*
X57928966Y-104331401D01*
X57670986Y-104469294D01*
X57444866Y-104654866D01*
X57259294Y-104880986D01*
X57127000Y-105128491D01*
X57127000Y-103213678D01*
X57198815Y-103301185D01*
X57295506Y-103380537D01*
X57405820Y-103439502D01*
X57525518Y-103475812D01*
X57650000Y-103488072D01*
X59350000Y-103488072D01*
X59474482Y-103475812D01*
X59594180Y-103439502D01*
X59704494Y-103380537D01*
X59801185Y-103301185D01*
X59880537Y-103204494D01*
X59939502Y-103094180D01*
X59975812Y-102974482D01*
X59988072Y-102850000D01*
X59988072Y-101150000D01*
X59975812Y-101025518D01*
X59939502Y-100905820D01*
X59880537Y-100795506D01*
X59801185Y-100698815D01*
X59704494Y-100619463D01*
X59594180Y-100560498D01*
X59525313Y-100539607D01*
X59555134Y-100515134D01*
X59740706Y-100289014D01*
X59878599Y-100031034D01*
X59963513Y-99751111D01*
X59992185Y-99460000D01*
X59963513Y-99168889D01*
X59878599Y-98888966D01*
X59740706Y-98630986D01*
X59555134Y-98404866D01*
X59329014Y-98219294D01*
X59071034Y-98081401D01*
X58791111Y-97996487D01*
X58572950Y-97975000D01*
X58427050Y-97975000D01*
X58208889Y-97996487D01*
X57928966Y-98081401D01*
X57670986Y-98219294D01*
X57444866Y-98404866D01*
X57259294Y-98630986D01*
X57127000Y-98878491D01*
X57127000Y-96963678D01*
X57198815Y-97051185D01*
X57295506Y-97130537D01*
X57405820Y-97189502D01*
X57525518Y-97225812D01*
X57650000Y-97238072D01*
X59350000Y-97238072D01*
X59474482Y-97225812D01*
X59594180Y-97189502D01*
X59704494Y-97130537D01*
X59801185Y-97051185D01*
X59880537Y-96954494D01*
X59939502Y-96844180D01*
X59975812Y-96724482D01*
X59988072Y-96600000D01*
X59988072Y-94900000D01*
X59975812Y-94775518D01*
X59939502Y-94655820D01*
X59880537Y-94545506D01*
X59801185Y-94448815D01*
X59704494Y-94369463D01*
X59594180Y-94310498D01*
X59525313Y-94289607D01*
X59555134Y-94265134D01*
X59740706Y-94039014D01*
X59878599Y-93781034D01*
X59963513Y-93501111D01*
X59992185Y-93210000D01*
X59963513Y-92918889D01*
X59878599Y-92638966D01*
X59740706Y-92380986D01*
X59555134Y-92154866D01*
X59329014Y-91969294D01*
X59071034Y-91831401D01*
X58791111Y-91746487D01*
X58572950Y-91725000D01*
X58427050Y-91725000D01*
X58208889Y-91746487D01*
X57928966Y-91831401D01*
X57670986Y-91969294D01*
X57444866Y-92154866D01*
X57259294Y-92380986D01*
X57127000Y-92628491D01*
X57127000Y-90753678D01*
X57198815Y-90841185D01*
X57295506Y-90920537D01*
X57405820Y-90979502D01*
X57525518Y-91015812D01*
X57650000Y-91028072D01*
X59350000Y-91028072D01*
X59474482Y-91015812D01*
X59594180Y-90979502D01*
X59704494Y-90920537D01*
X59801185Y-90841185D01*
X59880537Y-90744494D01*
X59939502Y-90634180D01*
X59975812Y-90514482D01*
X59988072Y-90390000D01*
X59988072Y-88690000D01*
X59975812Y-88565518D01*
X59939502Y-88445820D01*
X59880537Y-88335506D01*
X59801185Y-88238815D01*
X59704494Y-88159463D01*
X59594180Y-88100498D01*
X59525313Y-88079607D01*
X59555134Y-88055134D01*
X59740706Y-87829014D01*
X59878599Y-87571034D01*
X59963513Y-87291111D01*
X59992185Y-87000000D01*
X59963513Y-86708889D01*
X59878599Y-86428966D01*
X59740706Y-86170986D01*
X59555134Y-85944866D01*
X59329014Y-85759294D01*
X59071034Y-85621401D01*
X58791111Y-85536487D01*
X58572950Y-85515000D01*
X58427050Y-85515000D01*
X58208889Y-85536487D01*
X57928966Y-85621401D01*
X57670986Y-85759294D01*
X57444866Y-85944866D01*
X57259294Y-86170986D01*
X57127000Y-86418491D01*
X57127000Y-84463678D01*
X57198815Y-84551185D01*
X57295506Y-84630537D01*
X57405820Y-84689502D01*
X57525518Y-84725812D01*
X57650000Y-84738072D01*
X59350000Y-84738072D01*
X59474482Y-84725812D01*
X59594180Y-84689502D01*
X59704494Y-84630537D01*
X59801185Y-84551185D01*
X59880537Y-84454494D01*
X59939502Y-84344180D01*
X59975812Y-84224482D01*
X59988072Y-84100000D01*
X59988072Y-82400000D01*
X59975812Y-82275518D01*
X59939502Y-82155820D01*
X59880537Y-82045506D01*
X59801185Y-81948815D01*
X59704494Y-81869463D01*
X59594180Y-81810498D01*
X59525313Y-81789607D01*
X59555134Y-81765134D01*
X59740706Y-81539014D01*
X59878599Y-81281034D01*
X59963513Y-81001111D01*
X59992185Y-80710000D01*
X59963513Y-80418889D01*
X59878599Y-80138966D01*
X59740706Y-79880986D01*
X59555134Y-79654866D01*
X59329014Y-79469294D01*
X59071034Y-79331401D01*
X58791111Y-79246487D01*
X58572950Y-79225000D01*
X58427050Y-79225000D01*
X58208889Y-79246487D01*
X57928966Y-79331401D01*
X57670986Y-79469294D01*
X57444866Y-79654866D01*
X57259294Y-79880986D01*
X57127000Y-80128491D01*
X57127000Y-78213678D01*
X57198815Y-78301185D01*
X57295506Y-78380537D01*
X57405820Y-78439502D01*
X57525518Y-78475812D01*
X57650000Y-78488072D01*
X59350000Y-78488072D01*
X59474482Y-78475812D01*
X59594180Y-78439502D01*
X59704494Y-78380537D01*
X59801185Y-78301185D01*
X59880537Y-78204494D01*
X59939502Y-78094180D01*
X59975812Y-77974482D01*
X59988072Y-77850000D01*
X59988072Y-76150000D01*
X59975812Y-76025518D01*
X59939502Y-75905820D01*
X59880537Y-75795506D01*
X59801185Y-75698815D01*
X59704494Y-75619463D01*
X59594180Y-75560498D01*
X59525313Y-75539607D01*
X59555134Y-75515134D01*
X59740706Y-75289014D01*
X59878599Y-75031034D01*
X59963513Y-74751111D01*
X59992185Y-74460000D01*
X59963513Y-74168889D01*
X59878599Y-73888966D01*
X59740706Y-73630986D01*
X59555134Y-73404866D01*
X59329014Y-73219294D01*
X59071034Y-73081401D01*
X58791111Y-72996487D01*
X58572950Y-72975000D01*
X58427050Y-72975000D01*
X58208889Y-72996487D01*
X57928966Y-73081401D01*
X57670986Y-73219294D01*
X57444866Y-73404866D01*
X57259294Y-73630986D01*
X57127000Y-73878491D01*
X57127000Y-71963678D01*
X57198815Y-72051185D01*
X57295506Y-72130537D01*
X57405820Y-72189502D01*
X57525518Y-72225812D01*
X57650000Y-72238072D01*
X59350000Y-72238072D01*
X59474482Y-72225812D01*
X59594180Y-72189502D01*
X59704494Y-72130537D01*
X59801185Y-72051185D01*
X59880537Y-71954494D01*
X59939502Y-71844180D01*
X59975812Y-71724482D01*
X59988072Y-71600000D01*
X59988072Y-69900000D01*
X59975812Y-69775518D01*
X59939502Y-69655820D01*
X59880537Y-69545506D01*
X59801185Y-69448815D01*
X59704494Y-69369463D01*
X59594180Y-69310498D01*
X59525313Y-69289607D01*
X59555134Y-69265134D01*
X59740706Y-69039014D01*
X59878599Y-68781034D01*
X59963513Y-68501111D01*
X59992185Y-68210000D01*
X59963513Y-67918889D01*
X59878599Y-67638966D01*
X59740706Y-67380986D01*
X59555134Y-67154866D01*
X59329014Y-66969294D01*
X59071034Y-66831401D01*
X58791111Y-66746487D01*
X58572950Y-66725000D01*
X58427050Y-66725000D01*
X58208889Y-66746487D01*
X57928966Y-66831401D01*
X57670986Y-66969294D01*
X57444866Y-67154866D01*
X57259294Y-67380986D01*
X57127000Y-67628491D01*
X57127000Y-65713678D01*
X57198815Y-65801185D01*
X57295506Y-65880537D01*
X57405820Y-65939502D01*
X57525518Y-65975812D01*
X57650000Y-65988072D01*
X59350000Y-65988072D01*
X59474482Y-65975812D01*
X59594180Y-65939502D01*
X59704494Y-65880537D01*
X59801185Y-65801185D01*
X59880537Y-65704494D01*
X59939502Y-65594180D01*
X59975812Y-65474482D01*
X59988072Y-65350000D01*
X59988072Y-63650000D01*
X59975812Y-63525518D01*
X59939502Y-63405820D01*
X59880537Y-63295506D01*
X59801185Y-63198815D01*
X59704494Y-63119463D01*
X59594180Y-63060498D01*
X59525313Y-63039607D01*
X59555134Y-63015134D01*
X59740706Y-62789014D01*
X59878599Y-62531034D01*
X59963513Y-62251111D01*
X59992185Y-61960000D01*
X59963513Y-61668889D01*
X59878599Y-61388966D01*
X59740706Y-61130986D01*
X59555134Y-60904866D01*
X59329014Y-60719294D01*
X59071034Y-60581401D01*
X58791111Y-60496487D01*
X58572950Y-60475000D01*
X58427050Y-60475000D01*
X58208889Y-60496487D01*
X57928966Y-60581401D01*
X57670986Y-60719294D01*
X57444866Y-60904866D01*
X57259294Y-61130986D01*
X57127000Y-61378491D01*
X57127000Y-59009336D01*
X57188946Y-59085149D01*
X58039933Y-59555063D01*
X58966243Y-59849929D01*
X59932281Y-59958414D01*
X60900921Y-59876351D01*
X61834938Y-59606893D01*
X62698440Y-59160394D01*
X62811054Y-59085149D01*
X63303213Y-58482818D01*
X60000000Y-55179605D01*
X59985858Y-55193748D01*
X59806253Y-55014143D01*
X59820395Y-55000000D01*
X59806253Y-54985858D01*
X59985858Y-54806253D01*
X60000000Y-54820395D01*
X60014143Y-54806253D01*
X60193748Y-54985858D01*
X60179605Y-55000000D01*
X63482818Y-58303213D01*
X64085149Y-57811054D01*
X64555063Y-56960067D01*
X64797009Y-56200000D01*
X68161928Y-56200000D01*
X68174188Y-56324482D01*
X68210498Y-56444180D01*
X68269463Y-56554494D01*
X68348815Y-56651185D01*
X68445506Y-56730537D01*
X68555820Y-56789502D01*
X68675518Y-56825812D01*
X68800000Y-56838072D01*
X69714250Y-56835000D01*
X69873000Y-56676250D01*
X69873000Y-55127000D01*
X68323750Y-55127000D01*
X68165000Y-55285750D01*
X68161928Y-56200000D01*
X64797009Y-56200000D01*
X64849929Y-56033757D01*
X64958414Y-55067719D01*
X64876351Y-54099079D01*
X64790069Y-53800000D01*
X68161928Y-53800000D01*
X68165000Y-54714250D01*
X68323750Y-54873000D01*
X69873000Y-54873000D01*
X69873000Y-53323750D01*
X70127000Y-53323750D01*
X70127000Y-54873000D01*
X70147000Y-54873000D01*
X70147000Y-55127000D01*
X70127000Y-55127000D01*
X70127000Y-56676250D01*
X70285750Y-56835000D01*
X71200000Y-56838072D01*
X71324482Y-56825812D01*
X71444180Y-56789502D01*
X71554494Y-56730537D01*
X71651185Y-56651185D01*
X71730537Y-56554494D01*
X71789502Y-56444180D01*
X71825812Y-56324482D01*
X71838072Y-56200000D01*
X71836659Y-55779426D01*
X71873844Y-55869199D01*
X72074662Y-56169744D01*
X72330256Y-56425338D01*
X72630801Y-56626156D01*
X72964750Y-56764482D01*
X73319268Y-56835000D01*
X73680732Y-56835000D01*
X74035250Y-56764482D01*
X74369199Y-56626156D01*
X74669744Y-56425338D01*
X74925338Y-56169744D01*
X75126156Y-55869199D01*
X75264482Y-55535250D01*
X75335000Y-55180732D01*
X75335000Y-54819268D01*
X75264482Y-54464750D01*
X75126156Y-54130801D01*
X74925338Y-53830256D01*
X74669744Y-53574662D01*
X74369199Y-53373844D01*
X74035250Y-53235518D01*
X73680732Y-53165000D01*
X73319268Y-53165000D01*
X72964750Y-53235518D01*
X72630801Y-53373844D01*
X72330256Y-53574662D01*
X72074662Y-53830256D01*
X71873844Y-54130801D01*
X71836659Y-54220574D01*
X71838072Y-53800000D01*
X71825812Y-53675518D01*
X71789502Y-53555820D01*
X71730537Y-53445506D01*
X71651185Y-53348815D01*
X71554494Y-53269463D01*
X71444180Y-53210498D01*
X71324482Y-53174188D01*
X71200000Y-53161928D01*
X70285750Y-53165000D01*
X70127000Y-53323750D01*
X69873000Y-53323750D01*
X69714250Y-53165000D01*
X68800000Y-53161928D01*
X68675518Y-53174188D01*
X68555820Y-53210498D01*
X68445506Y-53269463D01*
X68348815Y-53348815D01*
X68269463Y-53445506D01*
X68210498Y-53555820D01*
X68174188Y-53675518D01*
X68161928Y-53800000D01*
X64790069Y-53800000D01*
X64606893Y-53165062D01*
X64160394Y-52301560D01*
X64085149Y-52188946D01*
X64009336Y-52127000D01*
X92243766Y-52127000D01*
X92420189Y-52144376D01*
G36*
X116696787Y-51517182D02*
G01*
X120000000Y-54820395D01*
X120014143Y-54806253D01*
X120193748Y-54985858D01*
X120179605Y-55000000D01*
X123482818Y-58303213D01*
X123873000Y-57984399D01*
X123873000Y-112015601D01*
X123482818Y-111696787D01*
X120179605Y-115000000D01*
X120193748Y-115014143D01*
X120014143Y-115193748D01*
X120000000Y-115179605D01*
X116696787Y-118482818D01*
X117015601Y-118873000D01*
X92006234Y-118873000D01*
X91829811Y-118855624D01*
X91666150Y-118805978D01*
X91515328Y-118725362D01*
X91383130Y-118616870D01*
X91274638Y-118484672D01*
X91194022Y-118333850D01*
X91144376Y-118170189D01*
X91127614Y-118000000D01*
X91144376Y-117829811D01*
X91194022Y-117666150D01*
X91274638Y-117515328D01*
X91383130Y-117383130D01*
X91515328Y-117274638D01*
X91666150Y-117194022D01*
X91829811Y-117144376D01*
X92006234Y-117127000D01*
X106500000Y-117127000D01*
X106512448Y-117126388D01*
X106707538Y-117107173D01*
X106731956Y-117102317D01*
X106919549Y-117045412D01*
X106942550Y-117035884D01*
X107115437Y-116943474D01*
X107136138Y-116929642D01*
X107287675Y-116805279D01*
X107305279Y-116787675D01*
X107429642Y-116636138D01*
X107443474Y-116615437D01*
X107535884Y-116442550D01*
X107545412Y-116419549D01*
X107602317Y-116231956D01*
X107607173Y-116207538D01*
X107626388Y-116012448D01*
X107627000Y-116000000D01*
X107627000Y-114932281D01*
X115041586Y-114932281D01*
X115123649Y-115900921D01*
X115393107Y-116834938D01*
X115839606Y-117698440D01*
X115914851Y-117811054D01*
X116517182Y-118303213D01*
X119820395Y-115000000D01*
X116517182Y-111696787D01*
X115914851Y-112188946D01*
X115444937Y-113039933D01*
X115150071Y-113966243D01*
X115041586Y-114932281D01*
X107627000Y-114932281D01*
X107627000Y-113164214D01*
X107626388Y-113151766D01*
X107607173Y-112956675D01*
X107602317Y-112932257D01*
X107545412Y-112744664D01*
X107535884Y-112721663D01*
X107443474Y-112548776D01*
X107429642Y-112528075D01*
X107305279Y-112376539D01*
X107296910Y-112367304D01*
X106446788Y-111517182D01*
X116696787Y-111517182D01*
X120000000Y-114820395D01*
X123303213Y-111517182D01*
X122811054Y-110914851D01*
X121960067Y-110444937D01*
X121033757Y-110150071D01*
X120067719Y-110041586D01*
X119099079Y-110123649D01*
X118165062Y-110393107D01*
X117301560Y-110839606D01*
X117188946Y-110914851D01*
X116696787Y-111517182D01*
X106446788Y-111517182D01*
X104387102Y-109457496D01*
X104274637Y-109320458D01*
X104194022Y-109169637D01*
X104144376Y-109005976D01*
X104127000Y-108829552D01*
X104127000Y-107268433D01*
X116576822Y-107268433D01*
X116576822Y-107627567D01*
X116646885Y-107979802D01*
X116784320Y-108311599D01*
X116983845Y-108610208D01*
X117237792Y-108864155D01*
X117536401Y-109063680D01*
X117868198Y-109201115D01*
X118220433Y-109271178D01*
X118579567Y-109271178D01*
X118931802Y-109201115D01*
X119263599Y-109063680D01*
X119562208Y-108864155D01*
X119816155Y-108610208D01*
X120015680Y-108311599D01*
X120153115Y-107979802D01*
X120223178Y-107627567D01*
X120223178Y-107268433D01*
X120153115Y-106916198D01*
X120015680Y-106584401D01*
X119816155Y-106285792D01*
X119562208Y-106031845D01*
X119263599Y-105832320D01*
X118931802Y-105694885D01*
X118579567Y-105624822D01*
X118220433Y-105624822D01*
X117868198Y-105694885D01*
X117536401Y-105832320D01*
X117237792Y-106031845D01*
X116983845Y-106285792D01*
X116784320Y-106584401D01*
X116646885Y-106916198D01*
X116576822Y-107268433D01*
X104127000Y-107268433D01*
X104127000Y-60460541D01*
X104147435Y-60269378D01*
X104205676Y-60093331D01*
X104299816Y-59933566D01*
X104430220Y-59792311D01*
X105387195Y-58954958D01*
X105543962Y-58844763D01*
X105714172Y-58772721D01*
X105895744Y-58738158D01*
X106080524Y-58742631D01*
X106260208Y-58785933D01*
X106426740Y-58866127D01*
X106577985Y-58983769D01*
X112601381Y-64792044D01*
X112718665Y-64930407D01*
X112802885Y-65083754D01*
X112854811Y-65250825D01*
X112873000Y-65431290D01*
X112873000Y-95000000D01*
X112873612Y-95012448D01*
X112892827Y-95207538D01*
X112897683Y-95231956D01*
X112954588Y-95419549D01*
X112964116Y-95442550D01*
X113056526Y-95615437D01*
X113070358Y-95636138D01*
X113194721Y-95787675D01*
X113212325Y-95805279D01*
X113363862Y-95929642D01*
X113384563Y-95943474D01*
X113557450Y-96035884D01*
X113580451Y-96045412D01*
X113768044Y-96102317D01*
X113792462Y-96107173D01*
X113987552Y-96126388D01*
X114000000Y-96127000D01*
X118000000Y-96127000D01*
X118012448Y-96126388D01*
X118207538Y-96107173D01*
X118231956Y-96102317D01*
X118419549Y-96045412D01*
X118442550Y-96035884D01*
X118615437Y-95943474D01*
X118636138Y-95929642D01*
X118787675Y-95805279D01*
X118805279Y-95787675D01*
X118929642Y-95636138D01*
X118943474Y-95615437D01*
X119035884Y-95442550D01*
X119045412Y-95419549D01*
X119102317Y-95231956D01*
X119107173Y-95207538D01*
X119126388Y-95012448D01*
X119127000Y-95000000D01*
X119127000Y-64220433D01*
X119224822Y-64220433D01*
X119224822Y-64579567D01*
X119294885Y-64931802D01*
X119432320Y-65263599D01*
X119631845Y-65562208D01*
X119885792Y-65816155D01*
X120184401Y-66015680D01*
X120516198Y-66153115D01*
X120868433Y-66223178D01*
X121227567Y-66223178D01*
X121579802Y-66153115D01*
X121911599Y-66015680D01*
X122210208Y-65816155D01*
X122464155Y-65562208D01*
X122663680Y-65263599D01*
X122801115Y-64931802D01*
X122871178Y-64579567D01*
X122871178Y-64220433D01*
X122801115Y-63868198D01*
X122663680Y-63536401D01*
X122464155Y-63237792D01*
X122210208Y-62983845D01*
X121911599Y-62784320D01*
X121579802Y-62646885D01*
X121227567Y-62576822D01*
X120868433Y-62576822D01*
X120516198Y-62646885D01*
X120184401Y-62784320D01*
X119885792Y-62983845D01*
X119631845Y-63237792D01*
X119432320Y-63536401D01*
X119294885Y-63868198D01*
X119224822Y-64220433D01*
X119127000Y-64220433D01*
X119127000Y-61414214D01*
X119126388Y-61401766D01*
X119107173Y-61206675D01*
X119102317Y-61182257D01*
X119045412Y-60994664D01*
X119035884Y-60971663D01*
X118943474Y-60798776D01*
X118929642Y-60778075D01*
X118805279Y-60626539D01*
X118796910Y-60617304D01*
X117358238Y-59178632D01*
X118039933Y-59555063D01*
X118966243Y-59849929D01*
X119932281Y-59958414D01*
X120900921Y-59876351D01*
X121834938Y-59606893D01*
X122698440Y-59160394D01*
X122811054Y-59085149D01*
X123303213Y-58482818D01*
X120000000Y-55179605D01*
X119985858Y-55193748D01*
X119806253Y-55014143D01*
X119820395Y-55000000D01*
X116517182Y-51696787D01*
X115914851Y-52188946D01*
X115444937Y-53039933D01*
X115150071Y-53966243D01*
X115127000Y-54171686D01*
X115127000Y-52006234D01*
X115144376Y-51829811D01*
X115194022Y-51666150D01*
X115274638Y-51515328D01*
X115383130Y-51383130D01*
X115515328Y-51274638D01*
X115666150Y-51194022D01*
X115829811Y-51144376D01*
X116006234Y-51127000D01*
X117015601Y-51127000D01*
X116696787Y-51517182D01*
X116696787Y-51517182D01*
G37*
X116696787Y-51517182D02*
X120000000Y-54820395D01*
X120014143Y-54806253D01*
X120193748Y-54985858D01*
X120179605Y-55000000D01*
X123482818Y-58303213D01*
X123873000Y-57984399D01*
X123873000Y-112015601D01*
X123482818Y-111696787D01*
X120179605Y-115000000D01*
X120193748Y-115014143D01*
X120014143Y-115193748D01*
X120000000Y-115179605D01*
X116696787Y-118482818D01*
X117015601Y-118873000D01*
X92006234Y-118873000D01*
X91829811Y-118855624D01*
X91666150Y-118805978D01*
X91515328Y-118725362D01*
X91383130Y-118616870D01*
X91274638Y-118484672D01*
X91194022Y-118333850D01*
X91144376Y-118170189D01*
X91127614Y-118000000D01*
X91144376Y-117829811D01*
X91194022Y-117666150D01*
X91274638Y-117515328D01*
X91383130Y-117383130D01*
X91515328Y-117274638D01*
X91666150Y-117194022D01*
X91829811Y-117144376D01*
X92006234Y-117127000D01*
X106500000Y-117127000D01*
X106512448Y-117126388D01*
X106707538Y-117107173D01*
X106731956Y-117102317D01*
X106919549Y-117045412D01*
X106942550Y-117035884D01*
X107115437Y-116943474D01*
X107136138Y-116929642D01*
X107287675Y-116805279D01*
X107305279Y-116787675D01*
X107429642Y-116636138D01*
X107443474Y-116615437D01*
X107535884Y-116442550D01*
X107545412Y-116419549D01*
X107602317Y-116231956D01*
X107607173Y-116207538D01*
X107626388Y-116012448D01*
X107627000Y-116000000D01*
X107627000Y-114932281D01*
X115041586Y-114932281D01*
X115123649Y-115900921D01*
X115393107Y-116834938D01*
X115839606Y-117698440D01*
X115914851Y-117811054D01*
X116517182Y-118303213D01*
X119820395Y-115000000D01*
X116517182Y-111696787D01*
X115914851Y-112188946D01*
X115444937Y-113039933D01*
X115150071Y-113966243D01*
X115041586Y-114932281D01*
X107627000Y-114932281D01*
X107627000Y-113164214D01*
X107626388Y-113151766D01*
X107607173Y-112956675D01*
X107602317Y-112932257D01*
X107545412Y-112744664D01*
X107535884Y-112721663D01*
X107443474Y-112548776D01*
X107429642Y-112528075D01*
X107305279Y-112376539D01*
X107296910Y-112367304D01*
X106446788Y-111517182D01*
X116696787Y-111517182D01*
X120000000Y-114820395D01*
X123303213Y-111517182D01*
X122811054Y-110914851D01*
X121960067Y-110444937D01*
X121033757Y-110150071D01*
X120067719Y-110041586D01*
X119099079Y-110123649D01*
X118165062Y-110393107D01*
X117301560Y-110839606D01*
X117188946Y-110914851D01*
X116696787Y-111517182D01*
X106446788Y-111517182D01*
X104387102Y-109457496D01*
X104274637Y-109320458D01*
X104194022Y-109169637D01*
X104144376Y-109005976D01*
X104127000Y-108829552D01*
X104127000Y-107268433D01*
X116576822Y-107268433D01*
X116576822Y-107627567D01*
X116646885Y-107979802D01*
X116784320Y-108311599D01*
X116983845Y-108610208D01*
X117237792Y-108864155D01*
X117536401Y-109063680D01*
X117868198Y-109201115D01*
X118220433Y-109271178D01*
X118579567Y-109271178D01*
X118931802Y-109201115D01*
X119263599Y-109063680D01*
X119562208Y-108864155D01*
X119816155Y-108610208D01*
X120015680Y-108311599D01*
X120153115Y-107979802D01*
X120223178Y-107627567D01*
X120223178Y-107268433D01*
X120153115Y-106916198D01*
X120015680Y-106584401D01*
X119816155Y-106285792D01*
X119562208Y-106031845D01*
X119263599Y-105832320D01*
X118931802Y-105694885D01*
X118579567Y-105624822D01*
X118220433Y-105624822D01*
X117868198Y-105694885D01*
X117536401Y-105832320D01*
X117237792Y-106031845D01*
X116983845Y-106285792D01*
X116784320Y-106584401D01*
X116646885Y-106916198D01*
X116576822Y-107268433D01*
X104127000Y-107268433D01*
X104127000Y-60460541D01*
X104147435Y-60269378D01*
X104205676Y-60093331D01*
X104299816Y-59933566D01*
X104430220Y-59792311D01*
X105387195Y-58954958D01*
X105543962Y-58844763D01*
X105714172Y-58772721D01*
X105895744Y-58738158D01*
X106080524Y-58742631D01*
X106260208Y-58785933D01*
X106426740Y-58866127D01*
X106577985Y-58983769D01*
X112601381Y-64792044D01*
X112718665Y-64930407D01*
X112802885Y-65083754D01*
X112854811Y-65250825D01*
X112873000Y-65431290D01*
X112873000Y-95000000D01*
X112873612Y-95012448D01*
X112892827Y-95207538D01*
X112897683Y-95231956D01*
X112954588Y-95419549D01*
X112964116Y-95442550D01*
X113056526Y-95615437D01*
X113070358Y-95636138D01*
X113194721Y-95787675D01*
X113212325Y-95805279D01*
X113363862Y-95929642D01*
X113384563Y-95943474D01*
X113557450Y-96035884D01*
X113580451Y-96045412D01*
X113768044Y-96102317D01*
X113792462Y-96107173D01*
X113987552Y-96126388D01*
X114000000Y-96127000D01*
X118000000Y-96127000D01*
X118012448Y-96126388D01*
X118207538Y-96107173D01*
X118231956Y-96102317D01*
X118419549Y-96045412D01*
X118442550Y-96035884D01*
X118615437Y-95943474D01*
X118636138Y-95929642D01*
X118787675Y-95805279D01*
X118805279Y-95787675D01*
X118929642Y-95636138D01*
X118943474Y-95615437D01*
X119035884Y-95442550D01*
X119045412Y-95419549D01*
X119102317Y-95231956D01*
X119107173Y-95207538D01*
X119126388Y-95012448D01*
X119127000Y-95000000D01*
X119127000Y-64220433D01*
X119224822Y-64220433D01*
X119224822Y-64579567D01*
X119294885Y-64931802D01*
X119432320Y-65263599D01*
X119631845Y-65562208D01*
X119885792Y-65816155D01*
X120184401Y-66015680D01*
X120516198Y-66153115D01*
X120868433Y-66223178D01*
X121227567Y-66223178D01*
X121579802Y-66153115D01*
X121911599Y-66015680D01*
X122210208Y-65816155D01*
X122464155Y-65562208D01*
X122663680Y-65263599D01*
X122801115Y-64931802D01*
X122871178Y-64579567D01*
X122871178Y-64220433D01*
X122801115Y-63868198D01*
X122663680Y-63536401D01*
X122464155Y-63237792D01*
X122210208Y-62983845D01*
X121911599Y-62784320D01*
X121579802Y-62646885D01*
X121227567Y-62576822D01*
X120868433Y-62576822D01*
X120516198Y-62646885D01*
X120184401Y-62784320D01*
X119885792Y-62983845D01*
X119631845Y-63237792D01*
X119432320Y-63536401D01*
X119294885Y-63868198D01*
X119224822Y-64220433D01*
X119127000Y-64220433D01*
X119127000Y-61414214D01*
X119126388Y-61401766D01*
X119107173Y-61206675D01*
X119102317Y-61182257D01*
X119045412Y-60994664D01*
X119035884Y-60971663D01*
X118943474Y-60798776D01*
X118929642Y-60778075D01*
X118805279Y-60626539D01*
X118796910Y-60617304D01*
X117358238Y-59178632D01*
X118039933Y-59555063D01*
X118966243Y-59849929D01*
X119932281Y-59958414D01*
X120900921Y-59876351D01*
X121834938Y-59606893D01*
X122698440Y-59160394D01*
X122811054Y-59085149D01*
X123303213Y-58482818D01*
X120000000Y-55179605D01*
X119985858Y-55193748D01*
X119806253Y-55014143D01*
X119820395Y-55000000D01*
X116517182Y-51696787D01*
X115914851Y-52188946D01*
X115444937Y-53039933D01*
X115150071Y-53966243D01*
X115127000Y-54171686D01*
X115127000Y-52006234D01*
X115144376Y-51829811D01*
X115194022Y-51666150D01*
X115274638Y-51515328D01*
X115383130Y-51383130D01*
X115515328Y-51274638D01*
X115666150Y-51194022D01*
X115829811Y-51144376D01*
X116006234Y-51127000D01*
X117015601Y-51127000D01*
X116696787Y-51517182D01*
M02*
